G04 #@! TF.GenerationSoftware,KiCad,Pcbnew,5.1.3-ffb9f22~84~ubuntu18.04.1*
G04 #@! TF.CreationDate,2019-07-28T19:38:44+03:00*
G04 #@! TF.ProjectId,Power_switch,506f7765-725f-4737-9769-7463682e6b69,rev?*
G04 #@! TF.SameCoordinates,Original*
G04 #@! TF.FileFunction,Copper,L1,Top*
G04 #@! TF.FilePolarity,Positive*
%FSLAX46Y46*%
G04 Gerber Fmt 4.6, Leading zero omitted, Abs format (unit mm)*
G04 Created by KiCad (PCBNEW 5.1.3-ffb9f22~84~ubuntu18.04.1) date 2019-07-28 19:38:44*
%MOMM*%
%LPD*%
G04 APERTURE LIST*
%ADD10C,0.100000*%
%ADD11C,1.600000*%
%ADD12R,1.600000X1.600000*%
%ADD13O,1.700000X1.700000*%
%ADD14R,1.700000X1.700000*%
%ADD15R,2.000000X1.500000*%
%ADD16R,2.000000X3.800000*%
%ADD17O,1.900000X2.100000*%
%ADD18R,1.900000X2.100000*%
%ADD19O,1.600000X1.600000*%
%ADD20O,3.600000X1.800000*%
%ADD21C,1.800000*%
%ADD22R,1.800000X1.800000*%
%ADD23C,1.000000*%
%ADD24C,0.254000*%
G04 APERTURE END LIST*
D10*
G36*
X26670000Y26924000D02*
G01*
X24130000Y26924000D01*
X24130000Y27686000D01*
X26670000Y27686000D01*
X26670000Y26924000D01*
G37*
X26670000Y26924000D02*
X24130000Y26924000D01*
X24130000Y27686000D01*
X26670000Y27686000D01*
X26670000Y26924000D01*
D11*
X34544000Y21884000D03*
D12*
X34544000Y24384000D03*
D11*
X34544000Y8168000D03*
D12*
X34544000Y10668000D03*
D13*
X55626000Y14986000D03*
X53086000Y14986000D03*
X50546000Y14986000D03*
D14*
X48006000Y14986000D03*
D13*
X55626000Y21844000D03*
X53086000Y21844000D03*
X50546000Y21844000D03*
D14*
X48006000Y21844000D03*
D13*
X55626000Y17526000D03*
X53086000Y17526000D03*
X50546000Y17526000D03*
D14*
X48006000Y17526000D03*
D13*
X55626000Y10668000D03*
X53086000Y10668000D03*
X50546000Y10668000D03*
D14*
X48006000Y10668000D03*
D13*
X55626000Y24384000D03*
X53086000Y24384000D03*
X50546000Y24384000D03*
D14*
X48006000Y24384000D03*
D13*
X55626000Y8128000D03*
X53086000Y8128000D03*
X50546000Y8128000D03*
D14*
X48006000Y8128000D03*
D15*
X28550000Y3796000D03*
X28550000Y8396000D03*
X28550000Y6096000D03*
D16*
X22250000Y6096000D03*
D15*
X28550000Y23354000D03*
X28550000Y27954000D03*
X28550000Y25654000D03*
D16*
X22250000Y25654000D03*
D17*
X18288000Y11430000D03*
X18288000Y3810000D03*
X15748000Y11430000D03*
X15748000Y3810000D03*
X13208000Y11430000D03*
D18*
X13208000Y3810000D03*
D19*
X15494000Y27940000D03*
D11*
X7874000Y27940000D03*
D20*
X7874000Y21280000D03*
D10*
G36*
X9448504Y18678796D02*
G01*
X9472773Y18675196D01*
X9496571Y18669235D01*
X9519671Y18660970D01*
X9541849Y18650480D01*
X9562893Y18637867D01*
X9582598Y18623253D01*
X9600777Y18606777D01*
X9617253Y18588598D01*
X9631867Y18568893D01*
X9644480Y18547849D01*
X9654970Y18525671D01*
X9663235Y18502571D01*
X9669196Y18478773D01*
X9672796Y18454504D01*
X9674000Y18430000D01*
X9674000Y17130000D01*
X9672796Y17105496D01*
X9669196Y17081227D01*
X9663235Y17057429D01*
X9654970Y17034329D01*
X9644480Y17012151D01*
X9631867Y16991107D01*
X9617253Y16971402D01*
X9600777Y16953223D01*
X9582598Y16936747D01*
X9562893Y16922133D01*
X9541849Y16909520D01*
X9519671Y16899030D01*
X9496571Y16890765D01*
X9472773Y16884804D01*
X9448504Y16881204D01*
X9424000Y16880000D01*
X6324000Y16880000D01*
X6299496Y16881204D01*
X6275227Y16884804D01*
X6251429Y16890765D01*
X6228329Y16899030D01*
X6206151Y16909520D01*
X6185107Y16922133D01*
X6165402Y16936747D01*
X6147223Y16953223D01*
X6130747Y16971402D01*
X6116133Y16991107D01*
X6103520Y17012151D01*
X6093030Y17034329D01*
X6084765Y17057429D01*
X6078804Y17081227D01*
X6075204Y17105496D01*
X6074000Y17130000D01*
X6074000Y18430000D01*
X6075204Y18454504D01*
X6078804Y18478773D01*
X6084765Y18502571D01*
X6093030Y18525671D01*
X6103520Y18547849D01*
X6116133Y18568893D01*
X6130747Y18588598D01*
X6147223Y18606777D01*
X6165402Y18623253D01*
X6185107Y18637867D01*
X6206151Y18650480D01*
X6228329Y18660970D01*
X6251429Y18669235D01*
X6275227Y18675196D01*
X6299496Y18678796D01*
X6324000Y18680000D01*
X9424000Y18680000D01*
X9448504Y18678796D01*
X9448504Y18678796D01*
G37*
D21*
X7874000Y17780000D03*
X18034000Y21844000D03*
D22*
X15494000Y21844000D03*
D19*
X7874000Y11430000D03*
D12*
X7874000Y3810000D03*
D11*
X41402000Y21884000D03*
D12*
X41402000Y24384000D03*
D11*
X41402000Y8168000D03*
D12*
X41402000Y10668000D03*
D11*
X41402000Y15026000D03*
D12*
X41402000Y17526000D03*
D11*
X26844000Y16256000D03*
D12*
X21844000Y16256000D03*
D23*
X7874000Y27940000D02*
X7874000Y21280000D01*
X18288000Y21590000D02*
X18034000Y21844000D01*
X21844000Y16256000D02*
X18796000Y16256000D01*
X18796000Y16256000D02*
X18288000Y15748000D01*
X18288000Y11430000D02*
X18288000Y15748000D01*
X18288000Y15748000D02*
X18288000Y21590000D01*
X30974000Y27954000D02*
X34544000Y24384000D01*
X28550000Y27954000D02*
X30974000Y27954000D01*
X34544000Y24384000D02*
X55626000Y24384000D01*
X32272000Y8396000D02*
X34544000Y10668000D01*
X28550000Y8396000D02*
X32272000Y8396000D01*
X20238000Y11430000D02*
X18288000Y11430000D01*
X23516000Y11430000D02*
X20238000Y11430000D01*
X26550000Y8396000D02*
X23516000Y11430000D01*
X28550000Y8396000D02*
X26550000Y8396000D01*
X27298000Y28956000D02*
X28300000Y27954000D01*
X28300000Y27954000D02*
X28550000Y27954000D01*
X18034000Y21844000D02*
X18034000Y27432000D01*
X19558000Y28956000D02*
X27298000Y28956000D01*
X18034000Y27432000D02*
X19558000Y28956000D01*
X22250000Y25654000D02*
X28550000Y25654000D01*
X41402000Y17526000D02*
X55626000Y17526000D01*
X39602000Y17526000D02*
X41402000Y17526000D01*
X30734000Y23473998D02*
X36681998Y17526000D01*
X30734000Y25470000D02*
X30734000Y23473998D01*
X30550000Y25654000D02*
X30734000Y25470000D01*
X36681998Y17526000D02*
X39602000Y17526000D01*
X28550000Y25654000D02*
X30550000Y25654000D01*
X22250000Y6096000D02*
X28550000Y6096000D01*
X36830000Y6096000D02*
X41402000Y10668000D01*
X28550000Y6096000D02*
X36830000Y6096000D01*
X55626000Y10668000D02*
X41402000Y10668000D01*
X7874000Y17780000D02*
X7874000Y11430000D01*
X7874000Y3810000D02*
X13208000Y3810000D01*
X15494000Y27940000D02*
X15494000Y21844000D01*
D24*
G36*
X60300001Y660000D02*
G01*
X660000Y660000D01*
X660000Y4610000D01*
X6435928Y4610000D01*
X6435928Y3010000D01*
X6448188Y2885518D01*
X6484498Y2765820D01*
X6543463Y2655506D01*
X6622815Y2558815D01*
X6719506Y2479463D01*
X6829820Y2420498D01*
X6949518Y2384188D01*
X7074000Y2371928D01*
X8674000Y2371928D01*
X8798482Y2384188D01*
X8918180Y2420498D01*
X9028494Y2479463D01*
X9125185Y2558815D01*
X9204537Y2655506D01*
X9214957Y2675000D01*
X11628299Y2675000D01*
X11632188Y2635518D01*
X11668498Y2515820D01*
X11727463Y2405506D01*
X11806815Y2308815D01*
X11903506Y2229463D01*
X12013820Y2170498D01*
X12133518Y2134188D01*
X12258000Y2121928D01*
X14158000Y2121928D01*
X14282482Y2134188D01*
X14402180Y2170498D01*
X14512494Y2229463D01*
X14609185Y2308815D01*
X14688537Y2405506D01*
X14734440Y2491383D01*
X14863162Y2385744D01*
X15138513Y2238566D01*
X15437287Y2147934D01*
X15748000Y2117331D01*
X16058714Y2147934D01*
X16357488Y2238566D01*
X16632839Y2385744D01*
X16874187Y2583813D01*
X17018000Y2759050D01*
X17161813Y2583813D01*
X17403162Y2385744D01*
X17678513Y2238566D01*
X17977287Y2147934D01*
X18288000Y2117331D01*
X18598714Y2147934D01*
X18897488Y2238566D01*
X19172839Y2385744D01*
X19414187Y2583813D01*
X19612256Y2825161D01*
X19730296Y3046000D01*
X26911928Y3046000D01*
X26924188Y2921518D01*
X26960498Y2801820D01*
X27019463Y2691506D01*
X27098815Y2594815D01*
X27195506Y2515463D01*
X27305820Y2456498D01*
X27425518Y2420188D01*
X27550000Y2407928D01*
X28264250Y2411000D01*
X28423000Y2569750D01*
X28423000Y3669000D01*
X28677000Y3669000D01*
X28677000Y2569750D01*
X28835750Y2411000D01*
X29550000Y2407928D01*
X29674482Y2420188D01*
X29794180Y2456498D01*
X29904494Y2515463D01*
X30001185Y2594815D01*
X30080537Y2691506D01*
X30139502Y2801820D01*
X30175812Y2921518D01*
X30188072Y3046000D01*
X30185000Y3510250D01*
X30026250Y3669000D01*
X28677000Y3669000D01*
X28423000Y3669000D01*
X27073750Y3669000D01*
X26915000Y3510250D01*
X26911928Y3046000D01*
X19730296Y3046000D01*
X19759434Y3100513D01*
X19850066Y3399287D01*
X19873000Y3632137D01*
X19873000Y3987864D01*
X19850066Y4220714D01*
X19759434Y4519488D01*
X19612256Y4794839D01*
X19414187Y5036187D01*
X19172838Y5234256D01*
X18897487Y5381434D01*
X18598713Y5472066D01*
X18288000Y5502669D01*
X17977286Y5472066D01*
X17678512Y5381434D01*
X17403161Y5234256D01*
X17161813Y5036187D01*
X17018000Y4860950D01*
X16874187Y5036187D01*
X16632838Y5234256D01*
X16357487Y5381434D01*
X16058713Y5472066D01*
X15748000Y5502669D01*
X15437286Y5472066D01*
X15138512Y5381434D01*
X14863161Y5234256D01*
X14734440Y5128617D01*
X14688537Y5214494D01*
X14609185Y5311185D01*
X14512494Y5390537D01*
X14402180Y5449502D01*
X14282482Y5485812D01*
X14158000Y5498072D01*
X12258000Y5498072D01*
X12133518Y5485812D01*
X12013820Y5449502D01*
X11903506Y5390537D01*
X11806815Y5311185D01*
X11727463Y5214494D01*
X11668498Y5104180D01*
X11632188Y4984482D01*
X11628299Y4945000D01*
X9214957Y4945000D01*
X9204537Y4964494D01*
X9125185Y5061185D01*
X9028494Y5140537D01*
X8918180Y5199502D01*
X8798482Y5235812D01*
X8674000Y5248072D01*
X7074000Y5248072D01*
X6949518Y5235812D01*
X6829820Y5199502D01*
X6719506Y5140537D01*
X6622815Y5061185D01*
X6543463Y4964494D01*
X6484498Y4854180D01*
X6448188Y4734482D01*
X6435928Y4610000D01*
X660000Y4610000D01*
X660000Y18430000D01*
X5435928Y18430000D01*
X5435928Y17130000D01*
X5452992Y16956746D01*
X5503528Y16790150D01*
X5585595Y16636614D01*
X5696038Y16502038D01*
X5830614Y16391595D01*
X5984150Y16309528D01*
X6150746Y16258992D01*
X6324000Y16241928D01*
X6739000Y16241928D01*
X6739001Y12309003D01*
X6675068Y12231101D01*
X6541818Y11981808D01*
X6459764Y11711309D01*
X6432057Y11430000D01*
X6459764Y11148691D01*
X6541818Y10878192D01*
X6675068Y10628899D01*
X6854392Y10410392D01*
X7072899Y10231068D01*
X7322192Y10097818D01*
X7592691Y10015764D01*
X7803508Y9995000D01*
X7944492Y9995000D01*
X8155309Y10015764D01*
X8425808Y10097818D01*
X8675101Y10231068D01*
X8893608Y10410392D01*
X9072932Y10628899D01*
X9206182Y10878192D01*
X9288236Y11148691D01*
X9315943Y11430000D01*
X9298425Y11607863D01*
X11623000Y11607863D01*
X11623000Y11252136D01*
X11645934Y11019286D01*
X11736566Y10720512D01*
X11883744Y10445161D01*
X12081813Y10203813D01*
X12323162Y10005744D01*
X12598513Y9858566D01*
X12897287Y9767934D01*
X13208000Y9737331D01*
X13518714Y9767934D01*
X13817488Y9858566D01*
X14092839Y10005744D01*
X14334187Y10203813D01*
X14478000Y10379050D01*
X14621813Y10203813D01*
X14863162Y10005744D01*
X15138513Y9858566D01*
X15437287Y9767934D01*
X15748000Y9737331D01*
X16058714Y9767934D01*
X16357488Y9858566D01*
X16632839Y10005744D01*
X16874187Y10203813D01*
X17018000Y10379050D01*
X17161813Y10203813D01*
X17403162Y10005744D01*
X17678513Y9858566D01*
X17977287Y9767934D01*
X18288000Y9737331D01*
X18598714Y9767934D01*
X18897488Y9858566D01*
X19172839Y10005744D01*
X19414187Y10203813D01*
X19489022Y10295000D01*
X23045869Y10295000D01*
X25708009Y7632859D01*
X25743551Y7589551D01*
X25916377Y7447716D01*
X26049545Y7376537D01*
X26113553Y7342324D01*
X26327501Y7277423D01*
X26550000Y7255509D01*
X26605751Y7261000D01*
X27044499Y7261000D01*
X27056809Y7246000D01*
X27044499Y7231000D01*
X23888072Y7231000D01*
X23888072Y7996000D01*
X23875812Y8120482D01*
X23839502Y8240180D01*
X23780537Y8350494D01*
X23701185Y8447185D01*
X23604494Y8526537D01*
X23494180Y8585502D01*
X23374482Y8621812D01*
X23250000Y8634072D01*
X21250000Y8634072D01*
X21125518Y8621812D01*
X21005820Y8585502D01*
X20895506Y8526537D01*
X20798815Y8447185D01*
X20719463Y8350494D01*
X20660498Y8240180D01*
X20624188Y8120482D01*
X20611928Y7996000D01*
X20611928Y4196000D01*
X20624188Y4071518D01*
X20660498Y3951820D01*
X20719463Y3841506D01*
X20798815Y3744815D01*
X20895506Y3665463D01*
X21005820Y3606498D01*
X21125518Y3570188D01*
X21250000Y3557928D01*
X23250000Y3557928D01*
X23374482Y3570188D01*
X23494180Y3606498D01*
X23604494Y3665463D01*
X23701185Y3744815D01*
X23780537Y3841506D01*
X23839502Y3951820D01*
X23875812Y4071518D01*
X23888072Y4196000D01*
X23888072Y4961000D01*
X27044499Y4961000D01*
X27056809Y4946000D01*
X27019463Y4900494D01*
X26960498Y4790180D01*
X26924188Y4670482D01*
X26911928Y4546000D01*
X26915000Y4081750D01*
X27073750Y3923000D01*
X28423000Y3923000D01*
X28423000Y3943000D01*
X28677000Y3943000D01*
X28677000Y3923000D01*
X30026250Y3923000D01*
X30185000Y4081750D01*
X30188072Y4546000D01*
X30175812Y4670482D01*
X30139502Y4790180D01*
X30080537Y4900494D01*
X30043191Y4946000D01*
X30055501Y4961000D01*
X36774249Y4961000D01*
X36830000Y4955509D01*
X36885751Y4961000D01*
X36885752Y4961000D01*
X37052499Y4977423D01*
X37266447Y5042324D01*
X37463623Y5147716D01*
X37636449Y5289551D01*
X37671996Y5332865D01*
X39514429Y7175298D01*
X40588903Y7175298D01*
X40660486Y6931329D01*
X40915996Y6810429D01*
X41190184Y6741700D01*
X41472512Y6727783D01*
X41752130Y6769213D01*
X42018292Y6864397D01*
X42143514Y6931329D01*
X42215097Y7175298D01*
X42112395Y7278000D01*
X46517928Y7278000D01*
X46530188Y7153518D01*
X46566498Y7033820D01*
X46625463Y6923506D01*
X46704815Y6826815D01*
X46801506Y6747463D01*
X46911820Y6688498D01*
X47031518Y6652188D01*
X47156000Y6639928D01*
X47720250Y6643000D01*
X47879000Y6801750D01*
X47879000Y8001000D01*
X48133000Y8001000D01*
X48133000Y6801750D01*
X48291750Y6643000D01*
X48856000Y6639928D01*
X48980482Y6652188D01*
X49100180Y6688498D01*
X49210494Y6747463D01*
X49307185Y6826815D01*
X49386537Y6923506D01*
X49445502Y7033820D01*
X49469966Y7114466D01*
X49545731Y7030412D01*
X49779080Y6856359D01*
X50041901Y6731175D01*
X50189110Y6686524D01*
X50419000Y6807845D01*
X50419000Y8001000D01*
X50673000Y8001000D01*
X50673000Y6807845D01*
X50902890Y6686524D01*
X51050099Y6731175D01*
X51312920Y6856359D01*
X51546269Y7030412D01*
X51741178Y7246645D01*
X51816000Y7372255D01*
X51890822Y7246645D01*
X52085731Y7030412D01*
X52319080Y6856359D01*
X52581901Y6731175D01*
X52729110Y6686524D01*
X52959000Y6807845D01*
X52959000Y8001000D01*
X53213000Y8001000D01*
X53213000Y6807845D01*
X53442890Y6686524D01*
X53590099Y6731175D01*
X53852920Y6856359D01*
X54086269Y7030412D01*
X54281178Y7246645D01*
X54356000Y7372255D01*
X54430822Y7246645D01*
X54625731Y7030412D01*
X54859080Y6856359D01*
X55121901Y6731175D01*
X55269110Y6686524D01*
X55499000Y6807845D01*
X55499000Y8001000D01*
X55753000Y8001000D01*
X55753000Y6807845D01*
X55982890Y6686524D01*
X56130099Y6731175D01*
X56392920Y6856359D01*
X56626269Y7030412D01*
X56821178Y7246645D01*
X56970157Y7496748D01*
X57067481Y7771109D01*
X56946814Y8001000D01*
X55753000Y8001000D01*
X55499000Y8001000D01*
X53213000Y8001000D01*
X52959000Y8001000D01*
X50673000Y8001000D01*
X50419000Y8001000D01*
X48133000Y8001000D01*
X47879000Y8001000D01*
X46679750Y8001000D01*
X46521000Y7842250D01*
X46517928Y7278000D01*
X42112395Y7278000D01*
X41402000Y7988395D01*
X40588903Y7175298D01*
X39514429Y7175298D01*
X40043723Y7704592D01*
X40098397Y7551708D01*
X40165329Y7426486D01*
X40409298Y7354903D01*
X41222395Y8168000D01*
X41581605Y8168000D01*
X42394702Y7354903D01*
X42638671Y7426486D01*
X42759571Y7681996D01*
X42828300Y7956184D01*
X42842217Y8238512D01*
X42800787Y8518130D01*
X42705603Y8784292D01*
X42638671Y8909514D01*
X42394702Y8981097D01*
X41581605Y8168000D01*
X41222395Y8168000D01*
X41208253Y8182143D01*
X41387858Y8361748D01*
X41402000Y8347605D01*
X42215097Y9160702D01*
X42194785Y9229928D01*
X42202000Y9229928D01*
X42326482Y9242188D01*
X42446180Y9278498D01*
X42556494Y9337463D01*
X42653185Y9416815D01*
X42732537Y9513506D01*
X42742957Y9533000D01*
X46588317Y9533000D01*
X46625463Y9463506D01*
X46679222Y9398000D01*
X46625463Y9332494D01*
X46566498Y9222180D01*
X46530188Y9102482D01*
X46517928Y8978000D01*
X46521000Y8413750D01*
X46679750Y8255000D01*
X47879000Y8255000D01*
X47879000Y8275000D01*
X48133000Y8275000D01*
X48133000Y8255000D01*
X50419000Y8255000D01*
X50419000Y8275000D01*
X50673000Y8275000D01*
X50673000Y8255000D01*
X52959000Y8255000D01*
X52959000Y8275000D01*
X53213000Y8275000D01*
X53213000Y8255000D01*
X55499000Y8255000D01*
X55499000Y8275000D01*
X55753000Y8275000D01*
X55753000Y8255000D01*
X56946814Y8255000D01*
X57067481Y8484891D01*
X56970157Y8759252D01*
X56821178Y9009355D01*
X56626269Y9225588D01*
X56397244Y9396416D01*
X56455014Y9427294D01*
X56681134Y9612866D01*
X56866706Y9838986D01*
X57004599Y10096966D01*
X57089513Y10376889D01*
X57118185Y10668000D01*
X57089513Y10959111D01*
X57004599Y11239034D01*
X56866706Y11497014D01*
X56681134Y11723134D01*
X56455014Y11908706D01*
X56197034Y12046599D01*
X55917111Y12131513D01*
X55698950Y12153000D01*
X55553050Y12153000D01*
X55334889Y12131513D01*
X55054966Y12046599D01*
X54796986Y11908706D01*
X54668183Y11803000D01*
X54043817Y11803000D01*
X53915014Y11908706D01*
X53657034Y12046599D01*
X53377111Y12131513D01*
X53158950Y12153000D01*
X53013050Y12153000D01*
X52794889Y12131513D01*
X52514966Y12046599D01*
X52256986Y11908706D01*
X52128183Y11803000D01*
X51503817Y11803000D01*
X51375014Y11908706D01*
X51117034Y12046599D01*
X50837111Y12131513D01*
X50618950Y12153000D01*
X50473050Y12153000D01*
X50254889Y12131513D01*
X49974966Y12046599D01*
X49716986Y11908706D01*
X49588183Y11803000D01*
X49423683Y11803000D01*
X49386537Y11872494D01*
X49307185Y11969185D01*
X49210494Y12048537D01*
X49100180Y12107502D01*
X48980482Y12143812D01*
X48856000Y12156072D01*
X47156000Y12156072D01*
X47031518Y12143812D01*
X46911820Y12107502D01*
X46801506Y12048537D01*
X46704815Y11969185D01*
X46625463Y11872494D01*
X46588317Y11803000D01*
X42742957Y11803000D01*
X42732537Y11822494D01*
X42653185Y11919185D01*
X42556494Y11998537D01*
X42446180Y12057502D01*
X42326482Y12093812D01*
X42202000Y12106072D01*
X40602000Y12106072D01*
X40477518Y12093812D01*
X40357820Y12057502D01*
X40247506Y11998537D01*
X40150815Y11919185D01*
X40071463Y11822494D01*
X40012498Y11712180D01*
X39976188Y11592482D01*
X39963928Y11468000D01*
X39963928Y10835060D01*
X36359869Y7231000D01*
X35645347Y7231000D01*
X35652977Y7238630D01*
X35536704Y7354903D01*
X35780671Y7426486D01*
X35901571Y7681996D01*
X35970300Y7956184D01*
X35984217Y8238512D01*
X35942787Y8518130D01*
X35847603Y8784292D01*
X35780671Y8909514D01*
X35536702Y8981097D01*
X34723605Y8168000D01*
X34737748Y8153858D01*
X34558143Y7974253D01*
X34544000Y7988395D01*
X34529858Y7974253D01*
X34350253Y8153858D01*
X34364395Y8168000D01*
X34350253Y8182143D01*
X34529858Y8361748D01*
X34544000Y8347605D01*
X35357097Y9160702D01*
X35336785Y9229928D01*
X35344000Y9229928D01*
X35468482Y9242188D01*
X35588180Y9278498D01*
X35698494Y9337463D01*
X35795185Y9416815D01*
X35874537Y9513506D01*
X35933502Y9623820D01*
X35969812Y9743518D01*
X35982072Y9868000D01*
X35982072Y11468000D01*
X35969812Y11592482D01*
X35933502Y11712180D01*
X35874537Y11822494D01*
X35795185Y11919185D01*
X35698494Y11998537D01*
X35588180Y12057502D01*
X35468482Y12093812D01*
X35344000Y12106072D01*
X33744000Y12106072D01*
X33619518Y12093812D01*
X33499820Y12057502D01*
X33389506Y11998537D01*
X33292815Y11919185D01*
X33213463Y11822494D01*
X33154498Y11712180D01*
X33118188Y11592482D01*
X33105928Y11468000D01*
X33105928Y10835060D01*
X31801869Y9531000D01*
X30055501Y9531000D01*
X30001185Y9597185D01*
X29904494Y9676537D01*
X29794180Y9735502D01*
X29674482Y9771812D01*
X29550000Y9784072D01*
X27550000Y9784072D01*
X27425518Y9771812D01*
X27305820Y9735502D01*
X27195506Y9676537D01*
X27098815Y9597185D01*
X27044499Y9531000D01*
X27020132Y9531000D01*
X24357996Y12193135D01*
X24322449Y12236449D01*
X24149623Y12378284D01*
X23952447Y12483676D01*
X23738499Y12548577D01*
X23571752Y12565000D01*
X23571751Y12565000D01*
X23516000Y12570491D01*
X23460249Y12565000D01*
X19489022Y12565000D01*
X19423000Y12645448D01*
X19423000Y14033298D01*
X40588903Y14033298D01*
X40660486Y13789329D01*
X40915996Y13668429D01*
X41190184Y13599700D01*
X41472512Y13585783D01*
X41752130Y13627213D01*
X42018292Y13722397D01*
X42143514Y13789329D01*
X42215097Y14033298D01*
X42112395Y14136000D01*
X46517928Y14136000D01*
X46530188Y14011518D01*
X46566498Y13891820D01*
X46625463Y13781506D01*
X46704815Y13684815D01*
X46801506Y13605463D01*
X46911820Y13546498D01*
X47031518Y13510188D01*
X47156000Y13497928D01*
X47720250Y13501000D01*
X47879000Y13659750D01*
X47879000Y14859000D01*
X48133000Y14859000D01*
X48133000Y13659750D01*
X48291750Y13501000D01*
X48856000Y13497928D01*
X48980482Y13510188D01*
X49100180Y13546498D01*
X49210494Y13605463D01*
X49307185Y13684815D01*
X49386537Y13781506D01*
X49445502Y13891820D01*
X49469966Y13972466D01*
X49545731Y13888412D01*
X49779080Y13714359D01*
X50041901Y13589175D01*
X50189110Y13544524D01*
X50419000Y13665845D01*
X50419000Y14859000D01*
X50673000Y14859000D01*
X50673000Y13665845D01*
X50902890Y13544524D01*
X51050099Y13589175D01*
X51312920Y13714359D01*
X51546269Y13888412D01*
X51741178Y14104645D01*
X51816000Y14230255D01*
X51890822Y14104645D01*
X52085731Y13888412D01*
X52319080Y13714359D01*
X52581901Y13589175D01*
X52729110Y13544524D01*
X52959000Y13665845D01*
X52959000Y14859000D01*
X53213000Y14859000D01*
X53213000Y13665845D01*
X53442890Y13544524D01*
X53590099Y13589175D01*
X53852920Y13714359D01*
X54086269Y13888412D01*
X54281178Y14104645D01*
X54356000Y14230255D01*
X54430822Y14104645D01*
X54625731Y13888412D01*
X54859080Y13714359D01*
X55121901Y13589175D01*
X55269110Y13544524D01*
X55499000Y13665845D01*
X55499000Y14859000D01*
X55753000Y14859000D01*
X55753000Y13665845D01*
X55982890Y13544524D01*
X56130099Y13589175D01*
X56392920Y13714359D01*
X56626269Y13888412D01*
X56821178Y14104645D01*
X56970157Y14354748D01*
X57067481Y14629109D01*
X56946814Y14859000D01*
X55753000Y14859000D01*
X55499000Y14859000D01*
X53213000Y14859000D01*
X52959000Y14859000D01*
X50673000Y14859000D01*
X50419000Y14859000D01*
X48133000Y14859000D01*
X47879000Y14859000D01*
X46679750Y14859000D01*
X46521000Y14700250D01*
X46517928Y14136000D01*
X42112395Y14136000D01*
X41402000Y14846395D01*
X40588903Y14033298D01*
X19423000Y14033298D01*
X19423000Y15121000D01*
X20503043Y15121000D01*
X20513463Y15101506D01*
X20592815Y15004815D01*
X20689506Y14925463D01*
X20799820Y14866498D01*
X20919518Y14830188D01*
X21044000Y14817928D01*
X22644000Y14817928D01*
X22768482Y14830188D01*
X22888180Y14866498D01*
X22998494Y14925463D01*
X23095185Y15004815D01*
X23174537Y15101506D01*
X23233502Y15211820D01*
X23249117Y15263298D01*
X26030903Y15263298D01*
X26102486Y15019329D01*
X26357996Y14898429D01*
X26632184Y14829700D01*
X26914512Y14815783D01*
X27194130Y14857213D01*
X27460292Y14952397D01*
X27466074Y14955488D01*
X39961783Y14955488D01*
X40003213Y14675870D01*
X40098397Y14409708D01*
X40165329Y14284486D01*
X40409298Y14212903D01*
X41222395Y15026000D01*
X41581605Y15026000D01*
X42394702Y14212903D01*
X42638671Y14284486D01*
X42759571Y14539996D01*
X42828300Y14814184D01*
X42842217Y15096512D01*
X42800787Y15376130D01*
X42705603Y15642292D01*
X42638671Y15767514D01*
X42394702Y15839097D01*
X41581605Y15026000D01*
X41222395Y15026000D01*
X40409298Y15839097D01*
X40165329Y15767514D01*
X40044429Y15512004D01*
X39975700Y15237816D01*
X39961783Y14955488D01*
X27466074Y14955488D01*
X27585514Y15019329D01*
X27657097Y15263298D01*
X26844000Y16076395D01*
X26030903Y15263298D01*
X23249117Y15263298D01*
X23269812Y15331518D01*
X23282072Y15456000D01*
X23282072Y16185488D01*
X25403783Y16185488D01*
X25445213Y15905870D01*
X25540397Y15639708D01*
X25607329Y15514486D01*
X25851298Y15442903D01*
X26664395Y16256000D01*
X27023605Y16256000D01*
X27836702Y15442903D01*
X28080671Y15514486D01*
X28201571Y15769996D01*
X28270300Y16044184D01*
X28284217Y16326512D01*
X28242787Y16606130D01*
X28147603Y16872292D01*
X28080671Y16997514D01*
X27836702Y17069097D01*
X27023605Y16256000D01*
X26664395Y16256000D01*
X25851298Y17069097D01*
X25607329Y16997514D01*
X25486429Y16742004D01*
X25417700Y16467816D01*
X25403783Y16185488D01*
X23282072Y16185488D01*
X23282072Y17056000D01*
X23269812Y17180482D01*
X23249118Y17248702D01*
X26030903Y17248702D01*
X26844000Y16435605D01*
X27657097Y17248702D01*
X27585514Y17492671D01*
X27330004Y17613571D01*
X27055816Y17682300D01*
X26773488Y17696217D01*
X26493870Y17654787D01*
X26227708Y17559603D01*
X26102486Y17492671D01*
X26030903Y17248702D01*
X23249118Y17248702D01*
X23233502Y17300180D01*
X23174537Y17410494D01*
X23095185Y17507185D01*
X22998494Y17586537D01*
X22888180Y17645502D01*
X22768482Y17681812D01*
X22644000Y17694072D01*
X21044000Y17694072D01*
X20919518Y17681812D01*
X20799820Y17645502D01*
X20689506Y17586537D01*
X20592815Y17507185D01*
X20513463Y17410494D01*
X20503043Y17391000D01*
X19423000Y17391000D01*
X19423000Y21186195D01*
X19510011Y21396257D01*
X19569000Y21692816D01*
X19569000Y21995184D01*
X19510011Y22291743D01*
X19394299Y22571095D01*
X19372313Y22604000D01*
X26911928Y22604000D01*
X26924188Y22479518D01*
X26960498Y22359820D01*
X27019463Y22249506D01*
X27098815Y22152815D01*
X27195506Y22073463D01*
X27305820Y22014498D01*
X27425518Y21978188D01*
X27550000Y21965928D01*
X28264250Y21969000D01*
X28423000Y22127750D01*
X28423000Y23227000D01*
X27073750Y23227000D01*
X26915000Y23068250D01*
X26911928Y22604000D01*
X19372313Y22604000D01*
X19226312Y22822505D01*
X19169000Y22879817D01*
X19169000Y26961869D01*
X20028132Y27821000D01*
X20672696Y27821000D01*
X20660498Y27798180D01*
X20624188Y27678482D01*
X20611928Y27554000D01*
X20611928Y23754000D01*
X20624188Y23629518D01*
X20660498Y23509820D01*
X20719463Y23399506D01*
X20798815Y23302815D01*
X20895506Y23223463D01*
X21005820Y23164498D01*
X21125518Y23128188D01*
X21250000Y23115928D01*
X23250000Y23115928D01*
X23374482Y23128188D01*
X23494180Y23164498D01*
X23604494Y23223463D01*
X23701185Y23302815D01*
X23780537Y23399506D01*
X23839502Y23509820D01*
X23875812Y23629518D01*
X23888072Y23754000D01*
X23888072Y24519000D01*
X27044499Y24519000D01*
X27056809Y24504000D01*
X27019463Y24458494D01*
X26960498Y24348180D01*
X26924188Y24228482D01*
X26911928Y24104000D01*
X26915000Y23639750D01*
X27073750Y23481000D01*
X28423000Y23481000D01*
X28423000Y23501000D01*
X28677000Y23501000D01*
X28677000Y23481000D01*
X28697000Y23481000D01*
X28697000Y23227000D01*
X28677000Y23227000D01*
X28677000Y22127750D01*
X28835750Y21969000D01*
X29550000Y21965928D01*
X29674482Y21978188D01*
X29794180Y22014498D01*
X29904494Y22073463D01*
X30001185Y22152815D01*
X30080537Y22249506D01*
X30139502Y22359820D01*
X30163602Y22439265D01*
X35840007Y16762859D01*
X35875549Y16719551D01*
X36048375Y16577716D01*
X36245551Y16472324D01*
X36459499Y16407423D01*
X36626246Y16391000D01*
X36626255Y16391000D01*
X36681997Y16385510D01*
X36737739Y16391000D01*
X40061043Y16391000D01*
X40071463Y16371506D01*
X40150815Y16274815D01*
X40247506Y16195463D01*
X40357820Y16136498D01*
X40477518Y16100188D01*
X40602000Y16087928D01*
X40609215Y16087928D01*
X40588903Y16018702D01*
X41402000Y15205605D01*
X42215097Y16018702D01*
X42194785Y16087928D01*
X42202000Y16087928D01*
X42326482Y16100188D01*
X42446180Y16136498D01*
X42556494Y16195463D01*
X42653185Y16274815D01*
X42732537Y16371506D01*
X42742957Y16391000D01*
X46588317Y16391000D01*
X46625463Y16321506D01*
X46679222Y16256000D01*
X46625463Y16190494D01*
X46566498Y16080180D01*
X46530188Y15960482D01*
X46517928Y15836000D01*
X46521000Y15271750D01*
X46679750Y15113000D01*
X47879000Y15113000D01*
X47879000Y15133000D01*
X48133000Y15133000D01*
X48133000Y15113000D01*
X50419000Y15113000D01*
X50419000Y15133000D01*
X50673000Y15133000D01*
X50673000Y15113000D01*
X52959000Y15113000D01*
X52959000Y15133000D01*
X53213000Y15133000D01*
X53213000Y15113000D01*
X55499000Y15113000D01*
X55499000Y15133000D01*
X55753000Y15133000D01*
X55753000Y15113000D01*
X56946814Y15113000D01*
X57067481Y15342891D01*
X56970157Y15617252D01*
X56821178Y15867355D01*
X56626269Y16083588D01*
X56397244Y16254416D01*
X56455014Y16285294D01*
X56681134Y16470866D01*
X56866706Y16696986D01*
X57004599Y16954966D01*
X57089513Y17234889D01*
X57118185Y17526000D01*
X57089513Y17817111D01*
X57004599Y18097034D01*
X56866706Y18355014D01*
X56681134Y18581134D01*
X56455014Y18766706D01*
X56197034Y18904599D01*
X55917111Y18989513D01*
X55698950Y19011000D01*
X55553050Y19011000D01*
X55334889Y18989513D01*
X55054966Y18904599D01*
X54796986Y18766706D01*
X54668183Y18661000D01*
X54043817Y18661000D01*
X53915014Y18766706D01*
X53657034Y18904599D01*
X53377111Y18989513D01*
X53158950Y19011000D01*
X53013050Y19011000D01*
X52794889Y18989513D01*
X52514966Y18904599D01*
X52256986Y18766706D01*
X52128183Y18661000D01*
X51503817Y18661000D01*
X51375014Y18766706D01*
X51117034Y18904599D01*
X50837111Y18989513D01*
X50618950Y19011000D01*
X50473050Y19011000D01*
X50254889Y18989513D01*
X49974966Y18904599D01*
X49716986Y18766706D01*
X49588183Y18661000D01*
X49423683Y18661000D01*
X49386537Y18730494D01*
X49307185Y18827185D01*
X49210494Y18906537D01*
X49100180Y18965502D01*
X48980482Y19001812D01*
X48856000Y19014072D01*
X47156000Y19014072D01*
X47031518Y19001812D01*
X46911820Y18965502D01*
X46801506Y18906537D01*
X46704815Y18827185D01*
X46625463Y18730494D01*
X46588317Y18661000D01*
X42742957Y18661000D01*
X42732537Y18680494D01*
X42653185Y18777185D01*
X42556494Y18856537D01*
X42446180Y18915502D01*
X42326482Y18951812D01*
X42202000Y18964072D01*
X40602000Y18964072D01*
X40477518Y18951812D01*
X40357820Y18915502D01*
X40247506Y18856537D01*
X40150815Y18777185D01*
X40071463Y18680494D01*
X40061043Y18661000D01*
X37152130Y18661000D01*
X35207500Y20605630D01*
X35285514Y20647329D01*
X35357097Y20891298D01*
X40588903Y20891298D01*
X40660486Y20647329D01*
X40915996Y20526429D01*
X41190184Y20457700D01*
X41472512Y20443783D01*
X41752130Y20485213D01*
X42018292Y20580397D01*
X42143514Y20647329D01*
X42215097Y20891298D01*
X42112395Y20994000D01*
X46517928Y20994000D01*
X46530188Y20869518D01*
X46566498Y20749820D01*
X46625463Y20639506D01*
X46704815Y20542815D01*
X46801506Y20463463D01*
X46911820Y20404498D01*
X47031518Y20368188D01*
X47156000Y20355928D01*
X47720250Y20359000D01*
X47879000Y20517750D01*
X47879000Y21717000D01*
X48133000Y21717000D01*
X48133000Y20517750D01*
X48291750Y20359000D01*
X48856000Y20355928D01*
X48980482Y20368188D01*
X49100180Y20404498D01*
X49210494Y20463463D01*
X49307185Y20542815D01*
X49386537Y20639506D01*
X49445502Y20749820D01*
X49469966Y20830466D01*
X49545731Y20746412D01*
X49779080Y20572359D01*
X50041901Y20447175D01*
X50189110Y20402524D01*
X50419000Y20523845D01*
X50419000Y21717000D01*
X50673000Y21717000D01*
X50673000Y20523845D01*
X50902890Y20402524D01*
X51050099Y20447175D01*
X51312920Y20572359D01*
X51546269Y20746412D01*
X51741178Y20962645D01*
X51816000Y21088255D01*
X51890822Y20962645D01*
X52085731Y20746412D01*
X52319080Y20572359D01*
X52581901Y20447175D01*
X52729110Y20402524D01*
X52959000Y20523845D01*
X52959000Y21717000D01*
X53213000Y21717000D01*
X53213000Y20523845D01*
X53442890Y20402524D01*
X53590099Y20447175D01*
X53852920Y20572359D01*
X54086269Y20746412D01*
X54281178Y20962645D01*
X54356000Y21088255D01*
X54430822Y20962645D01*
X54625731Y20746412D01*
X54859080Y20572359D01*
X55121901Y20447175D01*
X55269110Y20402524D01*
X55499000Y20523845D01*
X55499000Y21717000D01*
X55753000Y21717000D01*
X55753000Y20523845D01*
X55982890Y20402524D01*
X56130099Y20447175D01*
X56392920Y20572359D01*
X56626269Y20746412D01*
X56821178Y20962645D01*
X56970157Y21212748D01*
X57067481Y21487109D01*
X56946814Y21717000D01*
X55753000Y21717000D01*
X55499000Y21717000D01*
X53213000Y21717000D01*
X52959000Y21717000D01*
X50673000Y21717000D01*
X50419000Y21717000D01*
X48133000Y21717000D01*
X47879000Y21717000D01*
X46679750Y21717000D01*
X46521000Y21558250D01*
X46517928Y20994000D01*
X42112395Y20994000D01*
X41402000Y21704395D01*
X40588903Y20891298D01*
X35357097Y20891298D01*
X34544000Y21704395D01*
X34529858Y21690253D01*
X34350253Y21869858D01*
X34364395Y21884000D01*
X34723605Y21884000D01*
X35536702Y21070903D01*
X35780671Y21142486D01*
X35901571Y21397996D01*
X35970300Y21672184D01*
X35977265Y21813488D01*
X39961783Y21813488D01*
X40003213Y21533870D01*
X40098397Y21267708D01*
X40165329Y21142486D01*
X40409298Y21070903D01*
X41222395Y21884000D01*
X41581605Y21884000D01*
X42394702Y21070903D01*
X42638671Y21142486D01*
X42759571Y21397996D01*
X42828300Y21672184D01*
X42842217Y21954512D01*
X42800787Y22234130D01*
X42705603Y22500292D01*
X42638671Y22625514D01*
X42394702Y22697097D01*
X41581605Y21884000D01*
X41222395Y21884000D01*
X40409298Y22697097D01*
X40165329Y22625514D01*
X40044429Y22370004D01*
X39975700Y22095816D01*
X39961783Y21813488D01*
X35977265Y21813488D01*
X35984217Y21954512D01*
X35942787Y22234130D01*
X35847603Y22500292D01*
X35780671Y22625514D01*
X35536702Y22697097D01*
X34723605Y21884000D01*
X34364395Y21884000D01*
X33551298Y22697097D01*
X33307329Y22625514D01*
X33268878Y22544251D01*
X31869000Y23944129D01*
X31869000Y25414259D01*
X31872551Y25450317D01*
X33105928Y24216940D01*
X33105928Y23584000D01*
X33118188Y23459518D01*
X33154498Y23339820D01*
X33213463Y23229506D01*
X33292815Y23132815D01*
X33389506Y23053463D01*
X33499820Y22994498D01*
X33619518Y22958188D01*
X33744000Y22945928D01*
X33751215Y22945928D01*
X33730903Y22876702D01*
X34544000Y22063605D01*
X35357097Y22876702D01*
X35336785Y22945928D01*
X35344000Y22945928D01*
X35468482Y22958188D01*
X35588180Y22994498D01*
X35698494Y23053463D01*
X35795185Y23132815D01*
X35874537Y23229506D01*
X35884957Y23249000D01*
X40061043Y23249000D01*
X40071463Y23229506D01*
X40150815Y23132815D01*
X40247506Y23053463D01*
X40357820Y22994498D01*
X40477518Y22958188D01*
X40602000Y22945928D01*
X40609215Y22945928D01*
X40588903Y22876702D01*
X41402000Y22063605D01*
X42215097Y22876702D01*
X42194785Y22945928D01*
X42202000Y22945928D01*
X42326482Y22958188D01*
X42446180Y22994498D01*
X42556494Y23053463D01*
X42653185Y23132815D01*
X42732537Y23229506D01*
X42742957Y23249000D01*
X46588317Y23249000D01*
X46625463Y23179506D01*
X46679222Y23114000D01*
X46625463Y23048494D01*
X46566498Y22938180D01*
X46530188Y22818482D01*
X46517928Y22694000D01*
X46521000Y22129750D01*
X46679750Y21971000D01*
X47879000Y21971000D01*
X47879000Y21991000D01*
X48133000Y21991000D01*
X48133000Y21971000D01*
X50419000Y21971000D01*
X50419000Y21991000D01*
X50673000Y21991000D01*
X50673000Y21971000D01*
X52959000Y21971000D01*
X52959000Y21991000D01*
X53213000Y21991000D01*
X53213000Y21971000D01*
X55499000Y21971000D01*
X55499000Y21991000D01*
X55753000Y21991000D01*
X55753000Y21971000D01*
X56946814Y21971000D01*
X57067481Y22200891D01*
X56970157Y22475252D01*
X56821178Y22725355D01*
X56626269Y22941588D01*
X56397244Y23112416D01*
X56455014Y23143294D01*
X56681134Y23328866D01*
X56866706Y23554986D01*
X57004599Y23812966D01*
X57089513Y24092889D01*
X57118185Y24384000D01*
X57089513Y24675111D01*
X57004599Y24955034D01*
X56866706Y25213014D01*
X56681134Y25439134D01*
X56455014Y25624706D01*
X56197034Y25762599D01*
X55917111Y25847513D01*
X55698950Y25869000D01*
X55553050Y25869000D01*
X55334889Y25847513D01*
X55054966Y25762599D01*
X54796986Y25624706D01*
X54668183Y25519000D01*
X54043817Y25519000D01*
X53915014Y25624706D01*
X53657034Y25762599D01*
X53377111Y25847513D01*
X53158950Y25869000D01*
X53013050Y25869000D01*
X52794889Y25847513D01*
X52514966Y25762599D01*
X52256986Y25624706D01*
X52128183Y25519000D01*
X51503817Y25519000D01*
X51375014Y25624706D01*
X51117034Y25762599D01*
X50837111Y25847513D01*
X50618950Y25869000D01*
X50473050Y25869000D01*
X50254889Y25847513D01*
X49974966Y25762599D01*
X49716986Y25624706D01*
X49588183Y25519000D01*
X49423683Y25519000D01*
X49386537Y25588494D01*
X49307185Y25685185D01*
X49210494Y25764537D01*
X49100180Y25823502D01*
X48980482Y25859812D01*
X48856000Y25872072D01*
X47156000Y25872072D01*
X47031518Y25859812D01*
X46911820Y25823502D01*
X46801506Y25764537D01*
X46704815Y25685185D01*
X46625463Y25588494D01*
X46588317Y25519000D01*
X42742957Y25519000D01*
X42732537Y25538494D01*
X42653185Y25635185D01*
X42556494Y25714537D01*
X42446180Y25773502D01*
X42326482Y25809812D01*
X42202000Y25822072D01*
X40602000Y25822072D01*
X40477518Y25809812D01*
X40357820Y25773502D01*
X40247506Y25714537D01*
X40150815Y25635185D01*
X40071463Y25538494D01*
X40061043Y25519000D01*
X35884957Y25519000D01*
X35874537Y25538494D01*
X35795185Y25635185D01*
X35698494Y25714537D01*
X35588180Y25773502D01*
X35468482Y25809812D01*
X35344000Y25822072D01*
X34711060Y25822072D01*
X31815996Y28717135D01*
X31780449Y28760449D01*
X31607623Y28902284D01*
X31410447Y29007676D01*
X31196499Y29072577D01*
X31029752Y29089000D01*
X31029751Y29089000D01*
X30974000Y29094491D01*
X30918249Y29089000D01*
X30055501Y29089000D01*
X30001185Y29155185D01*
X29904494Y29234537D01*
X29794180Y29293502D01*
X29674482Y29329812D01*
X29550000Y29342072D01*
X28517059Y29342072D01*
X28139996Y29719136D01*
X28104449Y29762449D01*
X27931623Y29904284D01*
X27734447Y30009676D01*
X27520499Y30074577D01*
X27353752Y30091000D01*
X27353751Y30091000D01*
X27298000Y30096491D01*
X27242249Y30091000D01*
X19613741Y30091000D01*
X19557999Y30096490D01*
X19502257Y30091000D01*
X19502248Y30091000D01*
X19335501Y30074577D01*
X19121553Y30009676D01*
X18924377Y29904284D01*
X18751551Y29762449D01*
X18716009Y29719140D01*
X17270860Y28273991D01*
X17227552Y28238449D01*
X17085717Y28065623D01*
X17048370Y27995751D01*
X16980324Y27868446D01*
X16915423Y27654498D01*
X16893509Y27432000D01*
X16899001Y27376239D01*
X16899000Y23129611D01*
X16845185Y23195185D01*
X16748494Y23274537D01*
X16638180Y23333502D01*
X16629000Y23336287D01*
X16629000Y27060998D01*
X16692932Y27138899D01*
X16826182Y27388192D01*
X16908236Y27658691D01*
X16935943Y27940000D01*
X16908236Y28221309D01*
X16826182Y28491808D01*
X16692932Y28741101D01*
X16513608Y28959608D01*
X16295101Y29138932D01*
X16045808Y29272182D01*
X15775309Y29354236D01*
X15564492Y29375000D01*
X15423508Y29375000D01*
X15212691Y29354236D01*
X14942192Y29272182D01*
X14692899Y29138932D01*
X14474392Y28959608D01*
X14295068Y28741101D01*
X14161818Y28491808D01*
X14079764Y28221309D01*
X14052057Y27940000D01*
X14079764Y27658691D01*
X14161818Y27388192D01*
X14295068Y27138899D01*
X14359000Y27060997D01*
X14359001Y23336287D01*
X14349820Y23333502D01*
X14239506Y23274537D01*
X14142815Y23195185D01*
X14063463Y23098494D01*
X14004498Y22988180D01*
X13968188Y22868482D01*
X13955928Y22744000D01*
X13955928Y20944000D01*
X13968188Y20819518D01*
X14004498Y20699820D01*
X14063463Y20589506D01*
X14142815Y20492815D01*
X14239506Y20413463D01*
X14349820Y20354498D01*
X14469518Y20318188D01*
X14594000Y20305928D01*
X16394000Y20305928D01*
X16518482Y20318188D01*
X16638180Y20354498D01*
X16748494Y20413463D01*
X16845185Y20492815D01*
X16924537Y20589506D01*
X16983502Y20699820D01*
X16989056Y20718127D01*
X17055495Y20651688D01*
X17153001Y20586537D01*
X17153000Y15803752D01*
X17147509Y15748000D01*
X17153000Y15692249D01*
X17153001Y15692239D01*
X17153000Y12645449D01*
X17018000Y12480950D01*
X16874187Y12656187D01*
X16632838Y12854256D01*
X16357487Y13001434D01*
X16058713Y13092066D01*
X15748000Y13122669D01*
X15437286Y13092066D01*
X15138512Y13001434D01*
X14863161Y12854256D01*
X14621813Y12656187D01*
X14478000Y12480950D01*
X14334187Y12656187D01*
X14092838Y12854256D01*
X13817487Y13001434D01*
X13518713Y13092066D01*
X13208000Y13122669D01*
X12897286Y13092066D01*
X12598512Y13001434D01*
X12323161Y12854256D01*
X12081813Y12656187D01*
X11883744Y12414838D01*
X11736566Y12139487D01*
X11645934Y11840713D01*
X11623000Y11607863D01*
X9298425Y11607863D01*
X9288236Y11711309D01*
X9206182Y11981808D01*
X9072932Y12231101D01*
X9009000Y12309002D01*
X9009000Y16241928D01*
X9424000Y16241928D01*
X9597254Y16258992D01*
X9763850Y16309528D01*
X9917386Y16391595D01*
X10051962Y16502038D01*
X10162405Y16636614D01*
X10244472Y16790150D01*
X10295008Y16956746D01*
X10312072Y17130000D01*
X10312072Y18430000D01*
X10295008Y18603254D01*
X10244472Y18769850D01*
X10162405Y18923386D01*
X10051962Y19057962D01*
X9917386Y19168405D01*
X9763850Y19250472D01*
X9597254Y19301008D01*
X9424000Y19318072D01*
X6324000Y19318072D01*
X6150746Y19301008D01*
X5984150Y19250472D01*
X5830614Y19168405D01*
X5696038Y19057962D01*
X5585595Y18923386D01*
X5503528Y18769850D01*
X5452992Y18603254D01*
X5435928Y18430000D01*
X660000Y18430000D01*
X660000Y20915260D01*
X5482964Y20915260D01*
X5507245Y20809913D01*
X5627138Y20532796D01*
X5798790Y20284394D01*
X6015604Y20074252D01*
X6269249Y19910446D01*
X6549977Y19799271D01*
X6847000Y19745000D01*
X7747000Y19745000D01*
X7747000Y21153000D01*
X8001000Y21153000D01*
X8001000Y19745000D01*
X8901000Y19745000D01*
X9198023Y19799271D01*
X9478751Y19910446D01*
X9732396Y20074252D01*
X9949210Y20284394D01*
X10120862Y20532796D01*
X10240755Y20809913D01*
X10265036Y20915260D01*
X10144378Y21153000D01*
X8001000Y21153000D01*
X7747000Y21153000D01*
X5603622Y21153000D01*
X5482964Y20915260D01*
X660000Y20915260D01*
X660000Y21644740D01*
X5482964Y21644740D01*
X5603622Y21407000D01*
X7747000Y21407000D01*
X7747000Y22815000D01*
X8001000Y22815000D01*
X8001000Y21407000D01*
X10144378Y21407000D01*
X10265036Y21644740D01*
X10240755Y21750087D01*
X10120862Y22027204D01*
X9949210Y22275606D01*
X9732396Y22485748D01*
X9478751Y22649554D01*
X9198023Y22760729D01*
X8901000Y22815000D01*
X8001000Y22815000D01*
X7747000Y22815000D01*
X6847000Y22815000D01*
X6549977Y22760729D01*
X6269249Y22649554D01*
X6015604Y22485748D01*
X5798790Y22275606D01*
X5627138Y22027204D01*
X5507245Y21750087D01*
X5482964Y21644740D01*
X660000Y21644740D01*
X660000Y26947298D01*
X7060903Y26947298D01*
X7132486Y26703329D01*
X7387996Y26582429D01*
X7662184Y26513700D01*
X7944512Y26499783D01*
X8224130Y26541213D01*
X8490292Y26636397D01*
X8615514Y26703329D01*
X8687097Y26947298D01*
X7874000Y27760395D01*
X7060903Y26947298D01*
X660000Y26947298D01*
X660000Y27869488D01*
X6433783Y27869488D01*
X6475213Y27589870D01*
X6570397Y27323708D01*
X6637329Y27198486D01*
X6881298Y27126903D01*
X7694395Y27940000D01*
X8053605Y27940000D01*
X8866702Y27126903D01*
X9110671Y27198486D01*
X9231571Y27453996D01*
X9300300Y27728184D01*
X9314217Y28010512D01*
X9272787Y28290130D01*
X9177603Y28556292D01*
X9110671Y28681514D01*
X8866702Y28753097D01*
X8053605Y27940000D01*
X7694395Y27940000D01*
X6881298Y28753097D01*
X6637329Y28681514D01*
X6516429Y28426004D01*
X6447700Y28151816D01*
X6433783Y27869488D01*
X660000Y27869488D01*
X660000Y28932702D01*
X7060903Y28932702D01*
X7874000Y28119605D01*
X8687097Y28932702D01*
X8615514Y29176671D01*
X8360004Y29297571D01*
X8085816Y29366300D01*
X7803488Y29380217D01*
X7523870Y29338787D01*
X7257708Y29243603D01*
X7132486Y29176671D01*
X7060903Y28932702D01*
X660000Y28932702D01*
X660000Y32360000D01*
X60300000Y32360000D01*
X60300001Y660000D01*
X60300001Y660000D01*
G37*
X60300001Y660000D02*
X660000Y660000D01*
X660000Y4610000D01*
X6435928Y4610000D01*
X6435928Y3010000D01*
X6448188Y2885518D01*
X6484498Y2765820D01*
X6543463Y2655506D01*
X6622815Y2558815D01*
X6719506Y2479463D01*
X6829820Y2420498D01*
X6949518Y2384188D01*
X7074000Y2371928D01*
X8674000Y2371928D01*
X8798482Y2384188D01*
X8918180Y2420498D01*
X9028494Y2479463D01*
X9125185Y2558815D01*
X9204537Y2655506D01*
X9214957Y2675000D01*
X11628299Y2675000D01*
X11632188Y2635518D01*
X11668498Y2515820D01*
X11727463Y2405506D01*
X11806815Y2308815D01*
X11903506Y2229463D01*
X12013820Y2170498D01*
X12133518Y2134188D01*
X12258000Y2121928D01*
X14158000Y2121928D01*
X14282482Y2134188D01*
X14402180Y2170498D01*
X14512494Y2229463D01*
X14609185Y2308815D01*
X14688537Y2405506D01*
X14734440Y2491383D01*
X14863162Y2385744D01*
X15138513Y2238566D01*
X15437287Y2147934D01*
X15748000Y2117331D01*
X16058714Y2147934D01*
X16357488Y2238566D01*
X16632839Y2385744D01*
X16874187Y2583813D01*
X17018000Y2759050D01*
X17161813Y2583813D01*
X17403162Y2385744D01*
X17678513Y2238566D01*
X17977287Y2147934D01*
X18288000Y2117331D01*
X18598714Y2147934D01*
X18897488Y2238566D01*
X19172839Y2385744D01*
X19414187Y2583813D01*
X19612256Y2825161D01*
X19730296Y3046000D01*
X26911928Y3046000D01*
X26924188Y2921518D01*
X26960498Y2801820D01*
X27019463Y2691506D01*
X27098815Y2594815D01*
X27195506Y2515463D01*
X27305820Y2456498D01*
X27425518Y2420188D01*
X27550000Y2407928D01*
X28264250Y2411000D01*
X28423000Y2569750D01*
X28423000Y3669000D01*
X28677000Y3669000D01*
X28677000Y2569750D01*
X28835750Y2411000D01*
X29550000Y2407928D01*
X29674482Y2420188D01*
X29794180Y2456498D01*
X29904494Y2515463D01*
X30001185Y2594815D01*
X30080537Y2691506D01*
X30139502Y2801820D01*
X30175812Y2921518D01*
X30188072Y3046000D01*
X30185000Y3510250D01*
X30026250Y3669000D01*
X28677000Y3669000D01*
X28423000Y3669000D01*
X27073750Y3669000D01*
X26915000Y3510250D01*
X26911928Y3046000D01*
X19730296Y3046000D01*
X19759434Y3100513D01*
X19850066Y3399287D01*
X19873000Y3632137D01*
X19873000Y3987864D01*
X19850066Y4220714D01*
X19759434Y4519488D01*
X19612256Y4794839D01*
X19414187Y5036187D01*
X19172838Y5234256D01*
X18897487Y5381434D01*
X18598713Y5472066D01*
X18288000Y5502669D01*
X17977286Y5472066D01*
X17678512Y5381434D01*
X17403161Y5234256D01*
X17161813Y5036187D01*
X17018000Y4860950D01*
X16874187Y5036187D01*
X16632838Y5234256D01*
X16357487Y5381434D01*
X16058713Y5472066D01*
X15748000Y5502669D01*
X15437286Y5472066D01*
X15138512Y5381434D01*
X14863161Y5234256D01*
X14734440Y5128617D01*
X14688537Y5214494D01*
X14609185Y5311185D01*
X14512494Y5390537D01*
X14402180Y5449502D01*
X14282482Y5485812D01*
X14158000Y5498072D01*
X12258000Y5498072D01*
X12133518Y5485812D01*
X12013820Y5449502D01*
X11903506Y5390537D01*
X11806815Y5311185D01*
X11727463Y5214494D01*
X11668498Y5104180D01*
X11632188Y4984482D01*
X11628299Y4945000D01*
X9214957Y4945000D01*
X9204537Y4964494D01*
X9125185Y5061185D01*
X9028494Y5140537D01*
X8918180Y5199502D01*
X8798482Y5235812D01*
X8674000Y5248072D01*
X7074000Y5248072D01*
X6949518Y5235812D01*
X6829820Y5199502D01*
X6719506Y5140537D01*
X6622815Y5061185D01*
X6543463Y4964494D01*
X6484498Y4854180D01*
X6448188Y4734482D01*
X6435928Y4610000D01*
X660000Y4610000D01*
X660000Y18430000D01*
X5435928Y18430000D01*
X5435928Y17130000D01*
X5452992Y16956746D01*
X5503528Y16790150D01*
X5585595Y16636614D01*
X5696038Y16502038D01*
X5830614Y16391595D01*
X5984150Y16309528D01*
X6150746Y16258992D01*
X6324000Y16241928D01*
X6739000Y16241928D01*
X6739001Y12309003D01*
X6675068Y12231101D01*
X6541818Y11981808D01*
X6459764Y11711309D01*
X6432057Y11430000D01*
X6459764Y11148691D01*
X6541818Y10878192D01*
X6675068Y10628899D01*
X6854392Y10410392D01*
X7072899Y10231068D01*
X7322192Y10097818D01*
X7592691Y10015764D01*
X7803508Y9995000D01*
X7944492Y9995000D01*
X8155309Y10015764D01*
X8425808Y10097818D01*
X8675101Y10231068D01*
X8893608Y10410392D01*
X9072932Y10628899D01*
X9206182Y10878192D01*
X9288236Y11148691D01*
X9315943Y11430000D01*
X9298425Y11607863D01*
X11623000Y11607863D01*
X11623000Y11252136D01*
X11645934Y11019286D01*
X11736566Y10720512D01*
X11883744Y10445161D01*
X12081813Y10203813D01*
X12323162Y10005744D01*
X12598513Y9858566D01*
X12897287Y9767934D01*
X13208000Y9737331D01*
X13518714Y9767934D01*
X13817488Y9858566D01*
X14092839Y10005744D01*
X14334187Y10203813D01*
X14478000Y10379050D01*
X14621813Y10203813D01*
X14863162Y10005744D01*
X15138513Y9858566D01*
X15437287Y9767934D01*
X15748000Y9737331D01*
X16058714Y9767934D01*
X16357488Y9858566D01*
X16632839Y10005744D01*
X16874187Y10203813D01*
X17018000Y10379050D01*
X17161813Y10203813D01*
X17403162Y10005744D01*
X17678513Y9858566D01*
X17977287Y9767934D01*
X18288000Y9737331D01*
X18598714Y9767934D01*
X18897488Y9858566D01*
X19172839Y10005744D01*
X19414187Y10203813D01*
X19489022Y10295000D01*
X23045869Y10295000D01*
X25708009Y7632859D01*
X25743551Y7589551D01*
X25916377Y7447716D01*
X26049545Y7376537D01*
X26113553Y7342324D01*
X26327501Y7277423D01*
X26550000Y7255509D01*
X26605751Y7261000D01*
X27044499Y7261000D01*
X27056809Y7246000D01*
X27044499Y7231000D01*
X23888072Y7231000D01*
X23888072Y7996000D01*
X23875812Y8120482D01*
X23839502Y8240180D01*
X23780537Y8350494D01*
X23701185Y8447185D01*
X23604494Y8526537D01*
X23494180Y8585502D01*
X23374482Y8621812D01*
X23250000Y8634072D01*
X21250000Y8634072D01*
X21125518Y8621812D01*
X21005820Y8585502D01*
X20895506Y8526537D01*
X20798815Y8447185D01*
X20719463Y8350494D01*
X20660498Y8240180D01*
X20624188Y8120482D01*
X20611928Y7996000D01*
X20611928Y4196000D01*
X20624188Y4071518D01*
X20660498Y3951820D01*
X20719463Y3841506D01*
X20798815Y3744815D01*
X20895506Y3665463D01*
X21005820Y3606498D01*
X21125518Y3570188D01*
X21250000Y3557928D01*
X23250000Y3557928D01*
X23374482Y3570188D01*
X23494180Y3606498D01*
X23604494Y3665463D01*
X23701185Y3744815D01*
X23780537Y3841506D01*
X23839502Y3951820D01*
X23875812Y4071518D01*
X23888072Y4196000D01*
X23888072Y4961000D01*
X27044499Y4961000D01*
X27056809Y4946000D01*
X27019463Y4900494D01*
X26960498Y4790180D01*
X26924188Y4670482D01*
X26911928Y4546000D01*
X26915000Y4081750D01*
X27073750Y3923000D01*
X28423000Y3923000D01*
X28423000Y3943000D01*
X28677000Y3943000D01*
X28677000Y3923000D01*
X30026250Y3923000D01*
X30185000Y4081750D01*
X30188072Y4546000D01*
X30175812Y4670482D01*
X30139502Y4790180D01*
X30080537Y4900494D01*
X30043191Y4946000D01*
X30055501Y4961000D01*
X36774249Y4961000D01*
X36830000Y4955509D01*
X36885751Y4961000D01*
X36885752Y4961000D01*
X37052499Y4977423D01*
X37266447Y5042324D01*
X37463623Y5147716D01*
X37636449Y5289551D01*
X37671996Y5332865D01*
X39514429Y7175298D01*
X40588903Y7175298D01*
X40660486Y6931329D01*
X40915996Y6810429D01*
X41190184Y6741700D01*
X41472512Y6727783D01*
X41752130Y6769213D01*
X42018292Y6864397D01*
X42143514Y6931329D01*
X42215097Y7175298D01*
X42112395Y7278000D01*
X46517928Y7278000D01*
X46530188Y7153518D01*
X46566498Y7033820D01*
X46625463Y6923506D01*
X46704815Y6826815D01*
X46801506Y6747463D01*
X46911820Y6688498D01*
X47031518Y6652188D01*
X47156000Y6639928D01*
X47720250Y6643000D01*
X47879000Y6801750D01*
X47879000Y8001000D01*
X48133000Y8001000D01*
X48133000Y6801750D01*
X48291750Y6643000D01*
X48856000Y6639928D01*
X48980482Y6652188D01*
X49100180Y6688498D01*
X49210494Y6747463D01*
X49307185Y6826815D01*
X49386537Y6923506D01*
X49445502Y7033820D01*
X49469966Y7114466D01*
X49545731Y7030412D01*
X49779080Y6856359D01*
X50041901Y6731175D01*
X50189110Y6686524D01*
X50419000Y6807845D01*
X50419000Y8001000D01*
X50673000Y8001000D01*
X50673000Y6807845D01*
X50902890Y6686524D01*
X51050099Y6731175D01*
X51312920Y6856359D01*
X51546269Y7030412D01*
X51741178Y7246645D01*
X51816000Y7372255D01*
X51890822Y7246645D01*
X52085731Y7030412D01*
X52319080Y6856359D01*
X52581901Y6731175D01*
X52729110Y6686524D01*
X52959000Y6807845D01*
X52959000Y8001000D01*
X53213000Y8001000D01*
X53213000Y6807845D01*
X53442890Y6686524D01*
X53590099Y6731175D01*
X53852920Y6856359D01*
X54086269Y7030412D01*
X54281178Y7246645D01*
X54356000Y7372255D01*
X54430822Y7246645D01*
X54625731Y7030412D01*
X54859080Y6856359D01*
X55121901Y6731175D01*
X55269110Y6686524D01*
X55499000Y6807845D01*
X55499000Y8001000D01*
X55753000Y8001000D01*
X55753000Y6807845D01*
X55982890Y6686524D01*
X56130099Y6731175D01*
X56392920Y6856359D01*
X56626269Y7030412D01*
X56821178Y7246645D01*
X56970157Y7496748D01*
X57067481Y7771109D01*
X56946814Y8001000D01*
X55753000Y8001000D01*
X55499000Y8001000D01*
X53213000Y8001000D01*
X52959000Y8001000D01*
X50673000Y8001000D01*
X50419000Y8001000D01*
X48133000Y8001000D01*
X47879000Y8001000D01*
X46679750Y8001000D01*
X46521000Y7842250D01*
X46517928Y7278000D01*
X42112395Y7278000D01*
X41402000Y7988395D01*
X40588903Y7175298D01*
X39514429Y7175298D01*
X40043723Y7704592D01*
X40098397Y7551708D01*
X40165329Y7426486D01*
X40409298Y7354903D01*
X41222395Y8168000D01*
X41581605Y8168000D01*
X42394702Y7354903D01*
X42638671Y7426486D01*
X42759571Y7681996D01*
X42828300Y7956184D01*
X42842217Y8238512D01*
X42800787Y8518130D01*
X42705603Y8784292D01*
X42638671Y8909514D01*
X42394702Y8981097D01*
X41581605Y8168000D01*
X41222395Y8168000D01*
X41208253Y8182143D01*
X41387858Y8361748D01*
X41402000Y8347605D01*
X42215097Y9160702D01*
X42194785Y9229928D01*
X42202000Y9229928D01*
X42326482Y9242188D01*
X42446180Y9278498D01*
X42556494Y9337463D01*
X42653185Y9416815D01*
X42732537Y9513506D01*
X42742957Y9533000D01*
X46588317Y9533000D01*
X46625463Y9463506D01*
X46679222Y9398000D01*
X46625463Y9332494D01*
X46566498Y9222180D01*
X46530188Y9102482D01*
X46517928Y8978000D01*
X46521000Y8413750D01*
X46679750Y8255000D01*
X47879000Y8255000D01*
X47879000Y8275000D01*
X48133000Y8275000D01*
X48133000Y8255000D01*
X50419000Y8255000D01*
X50419000Y8275000D01*
X50673000Y8275000D01*
X50673000Y8255000D01*
X52959000Y8255000D01*
X52959000Y8275000D01*
X53213000Y8275000D01*
X53213000Y8255000D01*
X55499000Y8255000D01*
X55499000Y8275000D01*
X55753000Y8275000D01*
X55753000Y8255000D01*
X56946814Y8255000D01*
X57067481Y8484891D01*
X56970157Y8759252D01*
X56821178Y9009355D01*
X56626269Y9225588D01*
X56397244Y9396416D01*
X56455014Y9427294D01*
X56681134Y9612866D01*
X56866706Y9838986D01*
X57004599Y10096966D01*
X57089513Y10376889D01*
X57118185Y10668000D01*
X57089513Y10959111D01*
X57004599Y11239034D01*
X56866706Y11497014D01*
X56681134Y11723134D01*
X56455014Y11908706D01*
X56197034Y12046599D01*
X55917111Y12131513D01*
X55698950Y12153000D01*
X55553050Y12153000D01*
X55334889Y12131513D01*
X55054966Y12046599D01*
X54796986Y11908706D01*
X54668183Y11803000D01*
X54043817Y11803000D01*
X53915014Y11908706D01*
X53657034Y12046599D01*
X53377111Y12131513D01*
X53158950Y12153000D01*
X53013050Y12153000D01*
X52794889Y12131513D01*
X52514966Y12046599D01*
X52256986Y11908706D01*
X52128183Y11803000D01*
X51503817Y11803000D01*
X51375014Y11908706D01*
X51117034Y12046599D01*
X50837111Y12131513D01*
X50618950Y12153000D01*
X50473050Y12153000D01*
X50254889Y12131513D01*
X49974966Y12046599D01*
X49716986Y11908706D01*
X49588183Y11803000D01*
X49423683Y11803000D01*
X49386537Y11872494D01*
X49307185Y11969185D01*
X49210494Y12048537D01*
X49100180Y12107502D01*
X48980482Y12143812D01*
X48856000Y12156072D01*
X47156000Y12156072D01*
X47031518Y12143812D01*
X46911820Y12107502D01*
X46801506Y12048537D01*
X46704815Y11969185D01*
X46625463Y11872494D01*
X46588317Y11803000D01*
X42742957Y11803000D01*
X42732537Y11822494D01*
X42653185Y11919185D01*
X42556494Y11998537D01*
X42446180Y12057502D01*
X42326482Y12093812D01*
X42202000Y12106072D01*
X40602000Y12106072D01*
X40477518Y12093812D01*
X40357820Y12057502D01*
X40247506Y11998537D01*
X40150815Y11919185D01*
X40071463Y11822494D01*
X40012498Y11712180D01*
X39976188Y11592482D01*
X39963928Y11468000D01*
X39963928Y10835060D01*
X36359869Y7231000D01*
X35645347Y7231000D01*
X35652977Y7238630D01*
X35536704Y7354903D01*
X35780671Y7426486D01*
X35901571Y7681996D01*
X35970300Y7956184D01*
X35984217Y8238512D01*
X35942787Y8518130D01*
X35847603Y8784292D01*
X35780671Y8909514D01*
X35536702Y8981097D01*
X34723605Y8168000D01*
X34737748Y8153858D01*
X34558143Y7974253D01*
X34544000Y7988395D01*
X34529858Y7974253D01*
X34350253Y8153858D01*
X34364395Y8168000D01*
X34350253Y8182143D01*
X34529858Y8361748D01*
X34544000Y8347605D01*
X35357097Y9160702D01*
X35336785Y9229928D01*
X35344000Y9229928D01*
X35468482Y9242188D01*
X35588180Y9278498D01*
X35698494Y9337463D01*
X35795185Y9416815D01*
X35874537Y9513506D01*
X35933502Y9623820D01*
X35969812Y9743518D01*
X35982072Y9868000D01*
X35982072Y11468000D01*
X35969812Y11592482D01*
X35933502Y11712180D01*
X35874537Y11822494D01*
X35795185Y11919185D01*
X35698494Y11998537D01*
X35588180Y12057502D01*
X35468482Y12093812D01*
X35344000Y12106072D01*
X33744000Y12106072D01*
X33619518Y12093812D01*
X33499820Y12057502D01*
X33389506Y11998537D01*
X33292815Y11919185D01*
X33213463Y11822494D01*
X33154498Y11712180D01*
X33118188Y11592482D01*
X33105928Y11468000D01*
X33105928Y10835060D01*
X31801869Y9531000D01*
X30055501Y9531000D01*
X30001185Y9597185D01*
X29904494Y9676537D01*
X29794180Y9735502D01*
X29674482Y9771812D01*
X29550000Y9784072D01*
X27550000Y9784072D01*
X27425518Y9771812D01*
X27305820Y9735502D01*
X27195506Y9676537D01*
X27098815Y9597185D01*
X27044499Y9531000D01*
X27020132Y9531000D01*
X24357996Y12193135D01*
X24322449Y12236449D01*
X24149623Y12378284D01*
X23952447Y12483676D01*
X23738499Y12548577D01*
X23571752Y12565000D01*
X23571751Y12565000D01*
X23516000Y12570491D01*
X23460249Y12565000D01*
X19489022Y12565000D01*
X19423000Y12645448D01*
X19423000Y14033298D01*
X40588903Y14033298D01*
X40660486Y13789329D01*
X40915996Y13668429D01*
X41190184Y13599700D01*
X41472512Y13585783D01*
X41752130Y13627213D01*
X42018292Y13722397D01*
X42143514Y13789329D01*
X42215097Y14033298D01*
X42112395Y14136000D01*
X46517928Y14136000D01*
X46530188Y14011518D01*
X46566498Y13891820D01*
X46625463Y13781506D01*
X46704815Y13684815D01*
X46801506Y13605463D01*
X46911820Y13546498D01*
X47031518Y13510188D01*
X47156000Y13497928D01*
X47720250Y13501000D01*
X47879000Y13659750D01*
X47879000Y14859000D01*
X48133000Y14859000D01*
X48133000Y13659750D01*
X48291750Y13501000D01*
X48856000Y13497928D01*
X48980482Y13510188D01*
X49100180Y13546498D01*
X49210494Y13605463D01*
X49307185Y13684815D01*
X49386537Y13781506D01*
X49445502Y13891820D01*
X49469966Y13972466D01*
X49545731Y13888412D01*
X49779080Y13714359D01*
X50041901Y13589175D01*
X50189110Y13544524D01*
X50419000Y13665845D01*
X50419000Y14859000D01*
X50673000Y14859000D01*
X50673000Y13665845D01*
X50902890Y13544524D01*
X51050099Y13589175D01*
X51312920Y13714359D01*
X51546269Y13888412D01*
X51741178Y14104645D01*
X51816000Y14230255D01*
X51890822Y14104645D01*
X52085731Y13888412D01*
X52319080Y13714359D01*
X52581901Y13589175D01*
X52729110Y13544524D01*
X52959000Y13665845D01*
X52959000Y14859000D01*
X53213000Y14859000D01*
X53213000Y13665845D01*
X53442890Y13544524D01*
X53590099Y13589175D01*
X53852920Y13714359D01*
X54086269Y13888412D01*
X54281178Y14104645D01*
X54356000Y14230255D01*
X54430822Y14104645D01*
X54625731Y13888412D01*
X54859080Y13714359D01*
X55121901Y13589175D01*
X55269110Y13544524D01*
X55499000Y13665845D01*
X55499000Y14859000D01*
X55753000Y14859000D01*
X55753000Y13665845D01*
X55982890Y13544524D01*
X56130099Y13589175D01*
X56392920Y13714359D01*
X56626269Y13888412D01*
X56821178Y14104645D01*
X56970157Y14354748D01*
X57067481Y14629109D01*
X56946814Y14859000D01*
X55753000Y14859000D01*
X55499000Y14859000D01*
X53213000Y14859000D01*
X52959000Y14859000D01*
X50673000Y14859000D01*
X50419000Y14859000D01*
X48133000Y14859000D01*
X47879000Y14859000D01*
X46679750Y14859000D01*
X46521000Y14700250D01*
X46517928Y14136000D01*
X42112395Y14136000D01*
X41402000Y14846395D01*
X40588903Y14033298D01*
X19423000Y14033298D01*
X19423000Y15121000D01*
X20503043Y15121000D01*
X20513463Y15101506D01*
X20592815Y15004815D01*
X20689506Y14925463D01*
X20799820Y14866498D01*
X20919518Y14830188D01*
X21044000Y14817928D01*
X22644000Y14817928D01*
X22768482Y14830188D01*
X22888180Y14866498D01*
X22998494Y14925463D01*
X23095185Y15004815D01*
X23174537Y15101506D01*
X23233502Y15211820D01*
X23249117Y15263298D01*
X26030903Y15263298D01*
X26102486Y15019329D01*
X26357996Y14898429D01*
X26632184Y14829700D01*
X26914512Y14815783D01*
X27194130Y14857213D01*
X27460292Y14952397D01*
X27466074Y14955488D01*
X39961783Y14955488D01*
X40003213Y14675870D01*
X40098397Y14409708D01*
X40165329Y14284486D01*
X40409298Y14212903D01*
X41222395Y15026000D01*
X41581605Y15026000D01*
X42394702Y14212903D01*
X42638671Y14284486D01*
X42759571Y14539996D01*
X42828300Y14814184D01*
X42842217Y15096512D01*
X42800787Y15376130D01*
X42705603Y15642292D01*
X42638671Y15767514D01*
X42394702Y15839097D01*
X41581605Y15026000D01*
X41222395Y15026000D01*
X40409298Y15839097D01*
X40165329Y15767514D01*
X40044429Y15512004D01*
X39975700Y15237816D01*
X39961783Y14955488D01*
X27466074Y14955488D01*
X27585514Y15019329D01*
X27657097Y15263298D01*
X26844000Y16076395D01*
X26030903Y15263298D01*
X23249117Y15263298D01*
X23269812Y15331518D01*
X23282072Y15456000D01*
X23282072Y16185488D01*
X25403783Y16185488D01*
X25445213Y15905870D01*
X25540397Y15639708D01*
X25607329Y15514486D01*
X25851298Y15442903D01*
X26664395Y16256000D01*
X27023605Y16256000D01*
X27836702Y15442903D01*
X28080671Y15514486D01*
X28201571Y15769996D01*
X28270300Y16044184D01*
X28284217Y16326512D01*
X28242787Y16606130D01*
X28147603Y16872292D01*
X28080671Y16997514D01*
X27836702Y17069097D01*
X27023605Y16256000D01*
X26664395Y16256000D01*
X25851298Y17069097D01*
X25607329Y16997514D01*
X25486429Y16742004D01*
X25417700Y16467816D01*
X25403783Y16185488D01*
X23282072Y16185488D01*
X23282072Y17056000D01*
X23269812Y17180482D01*
X23249118Y17248702D01*
X26030903Y17248702D01*
X26844000Y16435605D01*
X27657097Y17248702D01*
X27585514Y17492671D01*
X27330004Y17613571D01*
X27055816Y17682300D01*
X26773488Y17696217D01*
X26493870Y17654787D01*
X26227708Y17559603D01*
X26102486Y17492671D01*
X26030903Y17248702D01*
X23249118Y17248702D01*
X23233502Y17300180D01*
X23174537Y17410494D01*
X23095185Y17507185D01*
X22998494Y17586537D01*
X22888180Y17645502D01*
X22768482Y17681812D01*
X22644000Y17694072D01*
X21044000Y17694072D01*
X20919518Y17681812D01*
X20799820Y17645502D01*
X20689506Y17586537D01*
X20592815Y17507185D01*
X20513463Y17410494D01*
X20503043Y17391000D01*
X19423000Y17391000D01*
X19423000Y21186195D01*
X19510011Y21396257D01*
X19569000Y21692816D01*
X19569000Y21995184D01*
X19510011Y22291743D01*
X19394299Y22571095D01*
X19372313Y22604000D01*
X26911928Y22604000D01*
X26924188Y22479518D01*
X26960498Y22359820D01*
X27019463Y22249506D01*
X27098815Y22152815D01*
X27195506Y22073463D01*
X27305820Y22014498D01*
X27425518Y21978188D01*
X27550000Y21965928D01*
X28264250Y21969000D01*
X28423000Y22127750D01*
X28423000Y23227000D01*
X27073750Y23227000D01*
X26915000Y23068250D01*
X26911928Y22604000D01*
X19372313Y22604000D01*
X19226312Y22822505D01*
X19169000Y22879817D01*
X19169000Y26961869D01*
X20028132Y27821000D01*
X20672696Y27821000D01*
X20660498Y27798180D01*
X20624188Y27678482D01*
X20611928Y27554000D01*
X20611928Y23754000D01*
X20624188Y23629518D01*
X20660498Y23509820D01*
X20719463Y23399506D01*
X20798815Y23302815D01*
X20895506Y23223463D01*
X21005820Y23164498D01*
X21125518Y23128188D01*
X21250000Y23115928D01*
X23250000Y23115928D01*
X23374482Y23128188D01*
X23494180Y23164498D01*
X23604494Y23223463D01*
X23701185Y23302815D01*
X23780537Y23399506D01*
X23839502Y23509820D01*
X23875812Y23629518D01*
X23888072Y23754000D01*
X23888072Y24519000D01*
X27044499Y24519000D01*
X27056809Y24504000D01*
X27019463Y24458494D01*
X26960498Y24348180D01*
X26924188Y24228482D01*
X26911928Y24104000D01*
X26915000Y23639750D01*
X27073750Y23481000D01*
X28423000Y23481000D01*
X28423000Y23501000D01*
X28677000Y23501000D01*
X28677000Y23481000D01*
X28697000Y23481000D01*
X28697000Y23227000D01*
X28677000Y23227000D01*
X28677000Y22127750D01*
X28835750Y21969000D01*
X29550000Y21965928D01*
X29674482Y21978188D01*
X29794180Y22014498D01*
X29904494Y22073463D01*
X30001185Y22152815D01*
X30080537Y22249506D01*
X30139502Y22359820D01*
X30163602Y22439265D01*
X35840007Y16762859D01*
X35875549Y16719551D01*
X36048375Y16577716D01*
X36245551Y16472324D01*
X36459499Y16407423D01*
X36626246Y16391000D01*
X36626255Y16391000D01*
X36681997Y16385510D01*
X36737739Y16391000D01*
X40061043Y16391000D01*
X40071463Y16371506D01*
X40150815Y16274815D01*
X40247506Y16195463D01*
X40357820Y16136498D01*
X40477518Y16100188D01*
X40602000Y16087928D01*
X40609215Y16087928D01*
X40588903Y16018702D01*
X41402000Y15205605D01*
X42215097Y16018702D01*
X42194785Y16087928D01*
X42202000Y16087928D01*
X42326482Y16100188D01*
X42446180Y16136498D01*
X42556494Y16195463D01*
X42653185Y16274815D01*
X42732537Y16371506D01*
X42742957Y16391000D01*
X46588317Y16391000D01*
X46625463Y16321506D01*
X46679222Y16256000D01*
X46625463Y16190494D01*
X46566498Y16080180D01*
X46530188Y15960482D01*
X46517928Y15836000D01*
X46521000Y15271750D01*
X46679750Y15113000D01*
X47879000Y15113000D01*
X47879000Y15133000D01*
X48133000Y15133000D01*
X48133000Y15113000D01*
X50419000Y15113000D01*
X50419000Y15133000D01*
X50673000Y15133000D01*
X50673000Y15113000D01*
X52959000Y15113000D01*
X52959000Y15133000D01*
X53213000Y15133000D01*
X53213000Y15113000D01*
X55499000Y15113000D01*
X55499000Y15133000D01*
X55753000Y15133000D01*
X55753000Y15113000D01*
X56946814Y15113000D01*
X57067481Y15342891D01*
X56970157Y15617252D01*
X56821178Y15867355D01*
X56626269Y16083588D01*
X56397244Y16254416D01*
X56455014Y16285294D01*
X56681134Y16470866D01*
X56866706Y16696986D01*
X57004599Y16954966D01*
X57089513Y17234889D01*
X57118185Y17526000D01*
X57089513Y17817111D01*
X57004599Y18097034D01*
X56866706Y18355014D01*
X56681134Y18581134D01*
X56455014Y18766706D01*
X56197034Y18904599D01*
X55917111Y18989513D01*
X55698950Y19011000D01*
X55553050Y19011000D01*
X55334889Y18989513D01*
X55054966Y18904599D01*
X54796986Y18766706D01*
X54668183Y18661000D01*
X54043817Y18661000D01*
X53915014Y18766706D01*
X53657034Y18904599D01*
X53377111Y18989513D01*
X53158950Y19011000D01*
X53013050Y19011000D01*
X52794889Y18989513D01*
X52514966Y18904599D01*
X52256986Y18766706D01*
X52128183Y18661000D01*
X51503817Y18661000D01*
X51375014Y18766706D01*
X51117034Y18904599D01*
X50837111Y18989513D01*
X50618950Y19011000D01*
X50473050Y19011000D01*
X50254889Y18989513D01*
X49974966Y18904599D01*
X49716986Y18766706D01*
X49588183Y18661000D01*
X49423683Y18661000D01*
X49386537Y18730494D01*
X49307185Y18827185D01*
X49210494Y18906537D01*
X49100180Y18965502D01*
X48980482Y19001812D01*
X48856000Y19014072D01*
X47156000Y19014072D01*
X47031518Y19001812D01*
X46911820Y18965502D01*
X46801506Y18906537D01*
X46704815Y18827185D01*
X46625463Y18730494D01*
X46588317Y18661000D01*
X42742957Y18661000D01*
X42732537Y18680494D01*
X42653185Y18777185D01*
X42556494Y18856537D01*
X42446180Y18915502D01*
X42326482Y18951812D01*
X42202000Y18964072D01*
X40602000Y18964072D01*
X40477518Y18951812D01*
X40357820Y18915502D01*
X40247506Y18856537D01*
X40150815Y18777185D01*
X40071463Y18680494D01*
X40061043Y18661000D01*
X37152130Y18661000D01*
X35207500Y20605630D01*
X35285514Y20647329D01*
X35357097Y20891298D01*
X40588903Y20891298D01*
X40660486Y20647329D01*
X40915996Y20526429D01*
X41190184Y20457700D01*
X41472512Y20443783D01*
X41752130Y20485213D01*
X42018292Y20580397D01*
X42143514Y20647329D01*
X42215097Y20891298D01*
X42112395Y20994000D01*
X46517928Y20994000D01*
X46530188Y20869518D01*
X46566498Y20749820D01*
X46625463Y20639506D01*
X46704815Y20542815D01*
X46801506Y20463463D01*
X46911820Y20404498D01*
X47031518Y20368188D01*
X47156000Y20355928D01*
X47720250Y20359000D01*
X47879000Y20517750D01*
X47879000Y21717000D01*
X48133000Y21717000D01*
X48133000Y20517750D01*
X48291750Y20359000D01*
X48856000Y20355928D01*
X48980482Y20368188D01*
X49100180Y20404498D01*
X49210494Y20463463D01*
X49307185Y20542815D01*
X49386537Y20639506D01*
X49445502Y20749820D01*
X49469966Y20830466D01*
X49545731Y20746412D01*
X49779080Y20572359D01*
X50041901Y20447175D01*
X50189110Y20402524D01*
X50419000Y20523845D01*
X50419000Y21717000D01*
X50673000Y21717000D01*
X50673000Y20523845D01*
X50902890Y20402524D01*
X51050099Y20447175D01*
X51312920Y20572359D01*
X51546269Y20746412D01*
X51741178Y20962645D01*
X51816000Y21088255D01*
X51890822Y20962645D01*
X52085731Y20746412D01*
X52319080Y20572359D01*
X52581901Y20447175D01*
X52729110Y20402524D01*
X52959000Y20523845D01*
X52959000Y21717000D01*
X53213000Y21717000D01*
X53213000Y20523845D01*
X53442890Y20402524D01*
X53590099Y20447175D01*
X53852920Y20572359D01*
X54086269Y20746412D01*
X54281178Y20962645D01*
X54356000Y21088255D01*
X54430822Y20962645D01*
X54625731Y20746412D01*
X54859080Y20572359D01*
X55121901Y20447175D01*
X55269110Y20402524D01*
X55499000Y20523845D01*
X55499000Y21717000D01*
X55753000Y21717000D01*
X55753000Y20523845D01*
X55982890Y20402524D01*
X56130099Y20447175D01*
X56392920Y20572359D01*
X56626269Y20746412D01*
X56821178Y20962645D01*
X56970157Y21212748D01*
X57067481Y21487109D01*
X56946814Y21717000D01*
X55753000Y21717000D01*
X55499000Y21717000D01*
X53213000Y21717000D01*
X52959000Y21717000D01*
X50673000Y21717000D01*
X50419000Y21717000D01*
X48133000Y21717000D01*
X47879000Y21717000D01*
X46679750Y21717000D01*
X46521000Y21558250D01*
X46517928Y20994000D01*
X42112395Y20994000D01*
X41402000Y21704395D01*
X40588903Y20891298D01*
X35357097Y20891298D01*
X34544000Y21704395D01*
X34529858Y21690253D01*
X34350253Y21869858D01*
X34364395Y21884000D01*
X34723605Y21884000D01*
X35536702Y21070903D01*
X35780671Y21142486D01*
X35901571Y21397996D01*
X35970300Y21672184D01*
X35977265Y21813488D01*
X39961783Y21813488D01*
X40003213Y21533870D01*
X40098397Y21267708D01*
X40165329Y21142486D01*
X40409298Y21070903D01*
X41222395Y21884000D01*
X41581605Y21884000D01*
X42394702Y21070903D01*
X42638671Y21142486D01*
X42759571Y21397996D01*
X42828300Y21672184D01*
X42842217Y21954512D01*
X42800787Y22234130D01*
X42705603Y22500292D01*
X42638671Y22625514D01*
X42394702Y22697097D01*
X41581605Y21884000D01*
X41222395Y21884000D01*
X40409298Y22697097D01*
X40165329Y22625514D01*
X40044429Y22370004D01*
X39975700Y22095816D01*
X39961783Y21813488D01*
X35977265Y21813488D01*
X35984217Y21954512D01*
X35942787Y22234130D01*
X35847603Y22500292D01*
X35780671Y22625514D01*
X35536702Y22697097D01*
X34723605Y21884000D01*
X34364395Y21884000D01*
X33551298Y22697097D01*
X33307329Y22625514D01*
X33268878Y22544251D01*
X31869000Y23944129D01*
X31869000Y25414259D01*
X31872551Y25450317D01*
X33105928Y24216940D01*
X33105928Y23584000D01*
X33118188Y23459518D01*
X33154498Y23339820D01*
X33213463Y23229506D01*
X33292815Y23132815D01*
X33389506Y23053463D01*
X33499820Y22994498D01*
X33619518Y22958188D01*
X33744000Y22945928D01*
X33751215Y22945928D01*
X33730903Y22876702D01*
X34544000Y22063605D01*
X35357097Y22876702D01*
X35336785Y22945928D01*
X35344000Y22945928D01*
X35468482Y22958188D01*
X35588180Y22994498D01*
X35698494Y23053463D01*
X35795185Y23132815D01*
X35874537Y23229506D01*
X35884957Y23249000D01*
X40061043Y23249000D01*
X40071463Y23229506D01*
X40150815Y23132815D01*
X40247506Y23053463D01*
X40357820Y22994498D01*
X40477518Y22958188D01*
X40602000Y22945928D01*
X40609215Y22945928D01*
X40588903Y22876702D01*
X41402000Y22063605D01*
X42215097Y22876702D01*
X42194785Y22945928D01*
X42202000Y22945928D01*
X42326482Y22958188D01*
X42446180Y22994498D01*
X42556494Y23053463D01*
X42653185Y23132815D01*
X42732537Y23229506D01*
X42742957Y23249000D01*
X46588317Y23249000D01*
X46625463Y23179506D01*
X46679222Y23114000D01*
X46625463Y23048494D01*
X46566498Y22938180D01*
X46530188Y22818482D01*
X46517928Y22694000D01*
X46521000Y22129750D01*
X46679750Y21971000D01*
X47879000Y21971000D01*
X47879000Y21991000D01*
X48133000Y21991000D01*
X48133000Y21971000D01*
X50419000Y21971000D01*
X50419000Y21991000D01*
X50673000Y21991000D01*
X50673000Y21971000D01*
X52959000Y21971000D01*
X52959000Y21991000D01*
X53213000Y21991000D01*
X53213000Y21971000D01*
X55499000Y21971000D01*
X55499000Y21991000D01*
X55753000Y21991000D01*
X55753000Y21971000D01*
X56946814Y21971000D01*
X57067481Y22200891D01*
X56970157Y22475252D01*
X56821178Y22725355D01*
X56626269Y22941588D01*
X56397244Y23112416D01*
X56455014Y23143294D01*
X56681134Y23328866D01*
X56866706Y23554986D01*
X57004599Y23812966D01*
X57089513Y24092889D01*
X57118185Y24384000D01*
X57089513Y24675111D01*
X57004599Y24955034D01*
X56866706Y25213014D01*
X56681134Y25439134D01*
X56455014Y25624706D01*
X56197034Y25762599D01*
X55917111Y25847513D01*
X55698950Y25869000D01*
X55553050Y25869000D01*
X55334889Y25847513D01*
X55054966Y25762599D01*
X54796986Y25624706D01*
X54668183Y25519000D01*
X54043817Y25519000D01*
X53915014Y25624706D01*
X53657034Y25762599D01*
X53377111Y25847513D01*
X53158950Y25869000D01*
X53013050Y25869000D01*
X52794889Y25847513D01*
X52514966Y25762599D01*
X52256986Y25624706D01*
X52128183Y25519000D01*
X51503817Y25519000D01*
X51375014Y25624706D01*
X51117034Y25762599D01*
X50837111Y25847513D01*
X50618950Y25869000D01*
X50473050Y25869000D01*
X50254889Y25847513D01*
X49974966Y25762599D01*
X49716986Y25624706D01*
X49588183Y25519000D01*
X49423683Y25519000D01*
X49386537Y25588494D01*
X49307185Y25685185D01*
X49210494Y25764537D01*
X49100180Y25823502D01*
X48980482Y25859812D01*
X48856000Y25872072D01*
X47156000Y25872072D01*
X47031518Y25859812D01*
X46911820Y25823502D01*
X46801506Y25764537D01*
X46704815Y25685185D01*
X46625463Y25588494D01*
X46588317Y25519000D01*
X42742957Y25519000D01*
X42732537Y25538494D01*
X42653185Y25635185D01*
X42556494Y25714537D01*
X42446180Y25773502D01*
X42326482Y25809812D01*
X42202000Y25822072D01*
X40602000Y25822072D01*
X40477518Y25809812D01*
X40357820Y25773502D01*
X40247506Y25714537D01*
X40150815Y25635185D01*
X40071463Y25538494D01*
X40061043Y25519000D01*
X35884957Y25519000D01*
X35874537Y25538494D01*
X35795185Y25635185D01*
X35698494Y25714537D01*
X35588180Y25773502D01*
X35468482Y25809812D01*
X35344000Y25822072D01*
X34711060Y25822072D01*
X31815996Y28717135D01*
X31780449Y28760449D01*
X31607623Y28902284D01*
X31410447Y29007676D01*
X31196499Y29072577D01*
X31029752Y29089000D01*
X31029751Y29089000D01*
X30974000Y29094491D01*
X30918249Y29089000D01*
X30055501Y29089000D01*
X30001185Y29155185D01*
X29904494Y29234537D01*
X29794180Y29293502D01*
X29674482Y29329812D01*
X29550000Y29342072D01*
X28517059Y29342072D01*
X28139996Y29719136D01*
X28104449Y29762449D01*
X27931623Y29904284D01*
X27734447Y30009676D01*
X27520499Y30074577D01*
X27353752Y30091000D01*
X27353751Y30091000D01*
X27298000Y30096491D01*
X27242249Y30091000D01*
X19613741Y30091000D01*
X19557999Y30096490D01*
X19502257Y30091000D01*
X19502248Y30091000D01*
X19335501Y30074577D01*
X19121553Y30009676D01*
X18924377Y29904284D01*
X18751551Y29762449D01*
X18716009Y29719140D01*
X17270860Y28273991D01*
X17227552Y28238449D01*
X17085717Y28065623D01*
X17048370Y27995751D01*
X16980324Y27868446D01*
X16915423Y27654498D01*
X16893509Y27432000D01*
X16899001Y27376239D01*
X16899000Y23129611D01*
X16845185Y23195185D01*
X16748494Y23274537D01*
X16638180Y23333502D01*
X16629000Y23336287D01*
X16629000Y27060998D01*
X16692932Y27138899D01*
X16826182Y27388192D01*
X16908236Y27658691D01*
X16935943Y27940000D01*
X16908236Y28221309D01*
X16826182Y28491808D01*
X16692932Y28741101D01*
X16513608Y28959608D01*
X16295101Y29138932D01*
X16045808Y29272182D01*
X15775309Y29354236D01*
X15564492Y29375000D01*
X15423508Y29375000D01*
X15212691Y29354236D01*
X14942192Y29272182D01*
X14692899Y29138932D01*
X14474392Y28959608D01*
X14295068Y28741101D01*
X14161818Y28491808D01*
X14079764Y28221309D01*
X14052057Y27940000D01*
X14079764Y27658691D01*
X14161818Y27388192D01*
X14295068Y27138899D01*
X14359000Y27060997D01*
X14359001Y23336287D01*
X14349820Y23333502D01*
X14239506Y23274537D01*
X14142815Y23195185D01*
X14063463Y23098494D01*
X14004498Y22988180D01*
X13968188Y22868482D01*
X13955928Y22744000D01*
X13955928Y20944000D01*
X13968188Y20819518D01*
X14004498Y20699820D01*
X14063463Y20589506D01*
X14142815Y20492815D01*
X14239506Y20413463D01*
X14349820Y20354498D01*
X14469518Y20318188D01*
X14594000Y20305928D01*
X16394000Y20305928D01*
X16518482Y20318188D01*
X16638180Y20354498D01*
X16748494Y20413463D01*
X16845185Y20492815D01*
X16924537Y20589506D01*
X16983502Y20699820D01*
X16989056Y20718127D01*
X17055495Y20651688D01*
X17153001Y20586537D01*
X17153000Y15803752D01*
X17147509Y15748000D01*
X17153000Y15692249D01*
X17153001Y15692239D01*
X17153000Y12645449D01*
X17018000Y12480950D01*
X16874187Y12656187D01*
X16632838Y12854256D01*
X16357487Y13001434D01*
X16058713Y13092066D01*
X15748000Y13122669D01*
X15437286Y13092066D01*
X15138512Y13001434D01*
X14863161Y12854256D01*
X14621813Y12656187D01*
X14478000Y12480950D01*
X14334187Y12656187D01*
X14092838Y12854256D01*
X13817487Y13001434D01*
X13518713Y13092066D01*
X13208000Y13122669D01*
X12897286Y13092066D01*
X12598512Y13001434D01*
X12323161Y12854256D01*
X12081813Y12656187D01*
X11883744Y12414838D01*
X11736566Y12139487D01*
X11645934Y11840713D01*
X11623000Y11607863D01*
X9298425Y11607863D01*
X9288236Y11711309D01*
X9206182Y11981808D01*
X9072932Y12231101D01*
X9009000Y12309002D01*
X9009000Y16241928D01*
X9424000Y16241928D01*
X9597254Y16258992D01*
X9763850Y16309528D01*
X9917386Y16391595D01*
X10051962Y16502038D01*
X10162405Y16636614D01*
X10244472Y16790150D01*
X10295008Y16956746D01*
X10312072Y17130000D01*
X10312072Y18430000D01*
X10295008Y18603254D01*
X10244472Y18769850D01*
X10162405Y18923386D01*
X10051962Y19057962D01*
X9917386Y19168405D01*
X9763850Y19250472D01*
X9597254Y19301008D01*
X9424000Y19318072D01*
X6324000Y19318072D01*
X6150746Y19301008D01*
X5984150Y19250472D01*
X5830614Y19168405D01*
X5696038Y19057962D01*
X5585595Y18923386D01*
X5503528Y18769850D01*
X5452992Y18603254D01*
X5435928Y18430000D01*
X660000Y18430000D01*
X660000Y20915260D01*
X5482964Y20915260D01*
X5507245Y20809913D01*
X5627138Y20532796D01*
X5798790Y20284394D01*
X6015604Y20074252D01*
X6269249Y19910446D01*
X6549977Y19799271D01*
X6847000Y19745000D01*
X7747000Y19745000D01*
X7747000Y21153000D01*
X8001000Y21153000D01*
X8001000Y19745000D01*
X8901000Y19745000D01*
X9198023Y19799271D01*
X9478751Y19910446D01*
X9732396Y20074252D01*
X9949210Y20284394D01*
X10120862Y20532796D01*
X10240755Y20809913D01*
X10265036Y20915260D01*
X10144378Y21153000D01*
X8001000Y21153000D01*
X7747000Y21153000D01*
X5603622Y21153000D01*
X5482964Y20915260D01*
X660000Y20915260D01*
X660000Y21644740D01*
X5482964Y21644740D01*
X5603622Y21407000D01*
X7747000Y21407000D01*
X7747000Y22815000D01*
X8001000Y22815000D01*
X8001000Y21407000D01*
X10144378Y21407000D01*
X10265036Y21644740D01*
X10240755Y21750087D01*
X10120862Y22027204D01*
X9949210Y22275606D01*
X9732396Y22485748D01*
X9478751Y22649554D01*
X9198023Y22760729D01*
X8901000Y22815000D01*
X8001000Y22815000D01*
X7747000Y22815000D01*
X6847000Y22815000D01*
X6549977Y22760729D01*
X6269249Y22649554D01*
X6015604Y22485748D01*
X5798790Y22275606D01*
X5627138Y22027204D01*
X5507245Y21750087D01*
X5482964Y21644740D01*
X660000Y21644740D01*
X660000Y26947298D01*
X7060903Y26947298D01*
X7132486Y26703329D01*
X7387996Y26582429D01*
X7662184Y26513700D01*
X7944512Y26499783D01*
X8224130Y26541213D01*
X8490292Y26636397D01*
X8615514Y26703329D01*
X8687097Y26947298D01*
X7874000Y27760395D01*
X7060903Y26947298D01*
X660000Y26947298D01*
X660000Y27869488D01*
X6433783Y27869488D01*
X6475213Y27589870D01*
X6570397Y27323708D01*
X6637329Y27198486D01*
X6881298Y27126903D01*
X7694395Y27940000D01*
X8053605Y27940000D01*
X8866702Y27126903D01*
X9110671Y27198486D01*
X9231571Y27453996D01*
X9300300Y27728184D01*
X9314217Y28010512D01*
X9272787Y28290130D01*
X9177603Y28556292D01*
X9110671Y28681514D01*
X8866702Y28753097D01*
X8053605Y27940000D01*
X7694395Y27940000D01*
X6881298Y28753097D01*
X6637329Y28681514D01*
X6516429Y28426004D01*
X6447700Y28151816D01*
X6433783Y27869488D01*
X660000Y27869488D01*
X660000Y28932702D01*
X7060903Y28932702D01*
X7874000Y28119605D01*
X8687097Y28932702D01*
X8615514Y29176671D01*
X8360004Y29297571D01*
X8085816Y29366300D01*
X7803488Y29380217D01*
X7523870Y29338787D01*
X7257708Y29243603D01*
X7132486Y29176671D01*
X7060903Y28932702D01*
X660000Y28932702D01*
X660000Y32360000D01*
X60300000Y32360000D01*
X60300001Y660000D01*
M02*
