M48
; DRILL file {KiCad 5.1.3-ffb9f22~84~ubuntu18.04.1} date Пн 29 июл 2019 15:57:03
; FORMAT={-:-/ absolute / metric / decimal}
; #@! TF.CreationDate,2019-07-29T15:57:03+03:00
; #@! TF.GenerationSoftware,Kicad,Pcbnew,5.1.3-ffb9f22~84~ubuntu18.04.1
; #@! TF.FileFunction,Plated,1,2,PTH
FMAT,2
METRIC
T1C0.800
T2C0.900
T3C1.000
T4C1.200
%
G90
G05
T1
X7.874Y27.94
X15.494Y27.94
X34.544Y24.384
X34.544Y21.884
X41.402Y24.384
X41.402Y21.884
X41.402Y10.668
X41.402Y8.168
X41.402Y17.526
X41.402Y15.026
X34.544Y10.668
X34.544Y8.168
X21.844Y16.256
X26.844Y16.256
X7.874Y11.43
X7.874Y3.81
T2
X15.494Y21.844
X18.034Y21.844
T3
X48.006Y17.526
X50.546Y17.526
X53.086Y17.526
X55.626Y17.526
X48.006Y10.668
X50.546Y10.668
X53.086Y10.668
X55.626Y10.668
X48.006Y14.986
X50.546Y14.986
X53.086Y14.986
X55.626Y14.986
X48.006Y24.384
X50.546Y24.384
X53.086Y24.384
X55.626Y24.384
X12.7Y11.43
X12.7Y3.81
X15.24Y11.43
X15.24Y3.81
X17.78Y11.43
X17.78Y3.81
X48.006Y21.844
X50.546Y21.844
X53.086Y21.844
X55.626Y21.844
X48.006Y8.128
X50.546Y8.128
X53.086Y8.128
X55.626Y8.128
T4
X7.874Y21.28
X7.874Y17.78
T0
M30
