G04 #@! TF.GenerationSoftware,KiCad,Pcbnew,5.1.2-f72e74a~84~ubuntu18.04.1*
G04 #@! TF.CreationDate,2019-05-20T02:28:01+03:00*
G04 #@! TF.ProjectId,NPN_multivibr,4e504e5f-6d75-46c7-9469-766962722e6b,rev?*
G04 #@! TF.SameCoordinates,Original*
G04 #@! TF.FileFunction,Copper,L2,Bot*
G04 #@! TF.FilePolarity,Positive*
%FSLAX46Y46*%
G04 Gerber Fmt 4.6, Leading zero omitted, Abs format (unit mm)*
G04 Created by KiCad (PCBNEW 5.1.2-f72e74a~84~ubuntu18.04.1) date 2019-05-20 02:28:01*
%MOMM*%
%LPD*%
G04 APERTURE LIST*
%ADD10O,1.600000X1.600000*%
%ADD11C,1.600000*%
%ADD12R,1.500000X1.500000*%
%ADD13C,1.500000*%
%ADD14O,1.800000X3.600000*%
%ADD15C,0.100000*%
%ADD16C,1.800000*%
%ADD17R,1.600000X1.600000*%
%ADD18R,1.800000X1.800000*%
%ADD19C,1.000000*%
G04 APERTURE END LIST*
D10*
X6604000Y28702000D03*
D11*
X6604000Y36322000D03*
D10*
X39141400Y28702000D03*
D11*
X39141400Y36322000D03*
D10*
X14757400Y28702000D03*
D11*
X14757400Y36322000D03*
D10*
X31013400Y28702000D03*
D11*
X31013400Y36322000D03*
D12*
X37338000Y4572000D03*
D13*
X42418000Y4572000D03*
X39878000Y7112000D03*
D12*
X11684000Y6858000D03*
D13*
X6604000Y6858000D03*
X9144000Y4318000D03*
D14*
X22829400Y44704000D03*
D15*
G36*
X20003904Y46502796D02*
G01*
X20028173Y46499196D01*
X20051971Y46493235D01*
X20075071Y46484970D01*
X20097249Y46474480D01*
X20118293Y46461867D01*
X20137998Y46447253D01*
X20156177Y46430777D01*
X20172653Y46412598D01*
X20187267Y46392893D01*
X20199880Y46371849D01*
X20210370Y46349671D01*
X20218635Y46326571D01*
X20224596Y46302773D01*
X20228196Y46278504D01*
X20229400Y46254000D01*
X20229400Y43154000D01*
X20228196Y43129496D01*
X20224596Y43105227D01*
X20218635Y43081429D01*
X20210370Y43058329D01*
X20199880Y43036151D01*
X20187267Y43015107D01*
X20172653Y42995402D01*
X20156177Y42977223D01*
X20137998Y42960747D01*
X20118293Y42946133D01*
X20097249Y42933520D01*
X20075071Y42923030D01*
X20051971Y42914765D01*
X20028173Y42908804D01*
X20003904Y42905204D01*
X19979400Y42904000D01*
X18679400Y42904000D01*
X18654896Y42905204D01*
X18630627Y42908804D01*
X18606829Y42914765D01*
X18583729Y42923030D01*
X18561551Y42933520D01*
X18540507Y42946133D01*
X18520802Y42960747D01*
X18502623Y42977223D01*
X18486147Y42995402D01*
X18471533Y43015107D01*
X18458920Y43036151D01*
X18448430Y43058329D01*
X18440165Y43081429D01*
X18434204Y43105227D01*
X18430604Y43129496D01*
X18429400Y43154000D01*
X18429400Y46254000D01*
X18430604Y46278504D01*
X18434204Y46302773D01*
X18440165Y46326571D01*
X18448430Y46349671D01*
X18458920Y46371849D01*
X18471533Y46392893D01*
X18486147Y46412598D01*
X18502623Y46430777D01*
X18520802Y46447253D01*
X18540507Y46461867D01*
X18561551Y46474480D01*
X18583729Y46484970D01*
X18606829Y46493235D01*
X18630627Y46499196D01*
X18654896Y46502796D01*
X18679400Y46504000D01*
X19979400Y46504000D01*
X20003904Y46502796D01*
X20003904Y46502796D01*
G37*
D16*
X19329400Y44704000D03*
D11*
X14761200Y15240000D03*
D17*
X19761200Y15240000D03*
X26009600Y15240000D03*
D11*
X31009600Y15240000D03*
D16*
X39141400Y16510000D03*
D18*
X39141400Y13970000D03*
X6629400Y13970000D03*
D16*
X6629400Y16510000D03*
D19*
X19329400Y44754800D02*
X19329400Y36372800D01*
X6629400Y36322000D02*
X19329400Y36322000D01*
X19329400Y36322000D02*
X39141400Y36322000D01*
X6604000Y16281400D02*
X6629400Y16256000D01*
X6604000Y28702000D02*
X6604000Y16281400D01*
X31013400Y15243800D02*
X31009600Y15240000D01*
X31013400Y28702000D02*
X31013400Y15243800D01*
X30095200Y12141200D02*
X24739600Y12141200D01*
X22860000Y13970000D02*
X22860000Y15748000D01*
X17272000Y9906000D02*
X20066000Y7112000D01*
X24587200Y12242800D02*
X22860000Y13970000D01*
X22860000Y15748000D02*
X21082000Y17526000D01*
X21082000Y17526000D02*
X18542000Y17526000D01*
X18542000Y17526000D02*
X17272000Y16256000D01*
X20066000Y7112000D02*
X39878000Y7112000D01*
X17272000Y16256000D02*
X17272000Y9906000D01*
X31009600Y13026400D02*
X30124400Y12141200D01*
X31009600Y15240000D02*
X31009600Y13026400D01*
X14757400Y14431000D02*
X14761200Y14427200D01*
X14757400Y28702000D02*
X14757400Y14431000D01*
X13961201Y13627201D02*
X14761200Y14427200D01*
X9144000Y8810000D02*
X13961201Y13627201D01*
X9144000Y4318000D02*
X9144000Y8810000D01*
X39141400Y16256000D02*
X39141400Y28702000D01*
X8529400Y13716000D02*
X6629400Y13716000D01*
X10109200Y15295800D02*
X8529400Y13716000D01*
X12217400Y26339800D02*
X10109200Y24231600D01*
X10109200Y24231600D02*
X10109200Y15295800D01*
X12217400Y29997400D02*
X12217400Y26339800D01*
X17780000Y24456800D02*
X17780000Y30480000D01*
X17780000Y30480000D02*
X16510000Y31750000D01*
X16510000Y31750000D02*
X13970000Y31750000D01*
X26009600Y16227200D02*
X17780000Y24456800D01*
X13970000Y31750000D02*
X12217400Y29997400D01*
X6629400Y6883400D02*
X6604000Y6858000D01*
X6629400Y13716000D02*
X6629400Y6883400D01*
X26009600Y15240000D02*
X26009600Y16227200D01*
X40894000Y13970000D02*
X42418000Y12446000D01*
X19761200Y10718800D02*
X20828000Y9652000D01*
X19761200Y15240000D02*
X19761200Y10718800D01*
X20828000Y9652000D02*
X36977400Y9652000D01*
X36977400Y9652000D02*
X39141400Y11816000D01*
X39141400Y11816000D02*
X39141400Y13970000D01*
X42418000Y12446000D02*
X42418000Y4572000D01*
X39141400Y13970000D02*
X40894000Y13970000D01*
M02*
