M48
; DRILL file {KiCad 5.1.2-f72e74a~84~ubuntu18.04.1} date Ср 15 мая 2019 08:01:36
; FORMAT={-:-/ absolute / metric / decimal}
; #@! TF.CreationDate,2019-05-15T08:01:36+03:00
; #@! TF.GenerationSoftware,Kicad,Pcbnew,5.1.2-f72e74a~84~ubuntu18.04.1
; #@! TF.FileFunction,Plated,1,2,PTH
FMAT,2
METRIC
T1C0.800
T2C0.900
T3C1.200
%
G90
G05
T1
X14.757Y36.322
X37.338Y4.572
X6.604Y6.858
X9.144Y4.318
X11.684Y6.858
X26.01Y15.24
X31.01Y15.24
X39.141Y36.322
X39.141Y28.702
X6.604Y36.322
X6.604Y28.702
X14.757Y28.702
X39.878Y7.112
X42.418Y4.572
X31.013Y36.322
X31.013Y28.702
X14.761Y15.24
X19.761Y15.24
T2
X6.629Y16.51
X6.629Y13.97
X39.141Y16.51
X39.141Y13.97
T3
X19.329Y44.704
X22.829Y44.704
T0
M30
