M48
;Layer_Color=9474304
;FILE_FORMAT=2:5
INCH,LZ
;TYPE=PLATED
T1F00S00C0.03000
T2F00S00C0.03150
T3F00S00C0.03937
T4F00S00C0.04331
T5F00S00C0.04724
T6F00S00C0.05512
;TYPE=NON_PLATED
T7F00S00C0.05512
%
T01
X0051181Y0110236
Y0149606
X0133858Y0147638
X0159449
X0246063Y0155512
Y0135827
T02
X0306772Y0066929
X0316772
X0326772
X0285433Y0064961
Y005315
X0246063
Y0064961
X0261811Y0076772
Y0116142
X0155512Y007874
Y0066929
X0155512Y0055118
X0155512Y0043307
Y0031496
X0155512Y0019685
X0116142
X0116142Y0031496
Y0043307
X0116142Y0055118
X0116142Y0066929
Y007874
Y0090551
X0090709Y0100394
X0080709
Y0074803
X0090709
Y0049213
X0080709
Y0023622
X0090709
X0090551Y0125984
X0080551
X0116142Y0129921
X0255906Y0145669
Y0185039
X0312992Y0177165
Y0137795
T03
X0324803Y0094488
Y0104488
Y0114488
Y0124488
X0230315Y0125118
Y0115118
Y0105118
Y0095118
Y0085118
Y0075118
Y0065118
Y0055118
Y0045118
Y0035118
X017126
Y0045118
Y0055118
Y0065118
Y0075118
Y0085118
Y0095118
Y0105118
Y0115118
Y0125118
X0082677Y0163228
Y0173228
X0149606Y0177323
Y0167323
X017126Y0165118
Y0155118
Y0145118
Y0135118
Y0175118
X0230315
Y0165118
Y0155118
Y0145118
Y0135118
X0324803Y0149134
Y0159134
Y0169134
Y0179134
X0338583
Y0169134
Y0159134
Y0149134
T04
X0029528Y0127953
Y0137795
Y0147638
T05
X0041339Y0192913
X0076772
T06
X0301181Y0112205
Y0129921
X027559
Y0112205
X0271654Y0025591
X0051181Y0076772
Y0173228
X0100394Y0181102
X0114173
X027559Y0175197
Y015748
X0301181
Y0175197
T07
X0257874Y0025591
X0051181Y0090551
X0064961Y0173228
X0127953Y0181102
M30
