M48
;Layer_Color=9474304
;FILE_FORMAT=2:5
INCH,LZ
;TYPE=PLATED
T1F00S00C0.03000
T2F00S00C0.03150
T3F00S00C0.03937
T4F00S00C0.04331
T5F00S00C0.04724
T6F00S00C0.05512
;TYPE=NON_PLATED
T7F00S00C0.05512
%
T01
X0778484Y0179134
X0801181
X0708661Y0316929
X069685
X057874
X0580709Y0236221
X0596457
X0521654Y0179134
X0498957
X0429134Y0316929
X0417323
X0299213
X0301181Y0236221
X0316929
X0242126Y0179134
X0219429
X0149606Y0316929
X0137795
X0019685
X0021654Y0236221
X0037402
X0019685Y0332677
X0137795Y0340551
X0149606
X0299213Y0332677
X0417323Y0340551
X0429134
X057874Y0332677
X069685Y0340551
X0708661
T02
X0057087Y0068898
X0057087Y0106299
X0096457
X0110236Y0084646
Y0074646
X0096457Y0068898
X013189Y0108268
Y0147638
X0151575
X0177165Y0147638
X0198819
X0220472
Y0108268
X0198819Y0108268
X0177165Y0108268
X0177165Y0084646
Y0074646
X0143701Y0074646
Y0084646
X0151575Y0108268
X021063Y0084646
Y0074646
X0244094
Y0084646
X0336614Y0068898
X0336614Y0106299
X0375984
X0389764Y0084646
Y0074646
X0375984Y0068898
X0423228Y0074646
Y0084646
X0431102Y0108268
X0411417
Y0147638
X0431102
X0456693Y0147638
X0478346
X05
Y0108268
X0478346Y0108268
X0456693Y0108268
X0456693Y0084646
Y0074646
X0490158Y0074646
Y0084646
X0523622
Y0074646
X0616142Y0068898
X0616142Y0106299
X0655512
X0669291Y0084646
Y0074646
X0655512Y0068898
X0702756Y0074646
Y0084646
X071063Y0108268
X0690945
Y0147638
X071063
X0736221Y0147638
Y0108268
X073622Y0084646
Y0074646
X0769685Y0074646
Y0084646
X080315
Y0074646
X0779528Y0108268
X0757874Y0108268
Y0147638
X0779528
X0718504Y0269685
X0718504Y028937
X0718504Y0309055
X0679134
Y028937
Y0269685
X0598583Y0283465
X0588583
X0578583
X0598425Y030315
X0438976Y0309055
X0438976Y028937
X0438976Y0269685
X0399606
Y028937
Y0309055
X0318898Y030315
X0319055Y0283465
X0309055
X0299055
X0159449Y028937
X0159449Y0309055
Y0269685
X0120079
Y028937
Y0309055
X003937Y030315
X0039528Y0283465
X0029528
X0019528
X003937Y034252
X0318898
X0598425
T03
X0021339Y0163386
X0031339
X0041339
X0072677Y0153543
X0082677
Y0129921
X0072677
X0092677
X0102677
X0112677
X0143543Y0049213
X0153543
X0177008
X0187008
X0210472
X0220472
X025Y0105827
Y0115827
Y0125827
Y0135827
X0251969Y0165354
X0241968
X0300866Y0163386
X0310866
X0320866
X0352205Y0153543
X0362205
Y0129921
X0352205
X0372205
X0382205
X0392205
X0423071Y0049213
X0433071
X0456535
X0466535
X049
X05
X0529528Y0105827
Y0115827
Y0125827
Y0135827
X0531496Y0165354
X0521496
X0580394Y0163386
X0590394
X0600394
X0631732Y0153543
X0641732
Y0129921
X0631732
X0651732
X0661732
X0671732
X0702598Y0049213
X0712598
X0736063
X0746063
X0769528
X0779528
X0809055Y0105827
Y0115827
Y0125827
Y0135827
X0811024Y0165354
X0801024
X078937Y0196693
Y0206693
X0787402Y0324803
X0777402
X0797402
X0807402
X0739921Y0248031
X0729921
X0719921
X0709921
X0699921
X0689921
X0679921
X0669921
X0659921
X0649921
X0639921
X0629921
X0619921
X0609921
Y0188976
X0619921
X0629921
X0639921
X0649921
X0659921
X0669921
X0679921
X0689921
X0699921
X0709921
X0719921
X0729921
X0739921
X063189Y0311024
Y0321024
X0599921Y0248031
Y0188976
X0509842Y0196693
Y0206693
X0460394Y0188976
X0450394
Y0248031
X0460394
X0497874Y0324803
X0507874
X0517874
X0527874
X0440394Y0248031
X0430394
X0420394
X0410394
X0400394
X0390394
X0380394
X0370394
X0360394
X0350394
X0340394
X0330394
X0320394
Y0188976
X0330394
X0340394
X0350394
X0360394
X0370394
X0380394
X0390394
X0400394
X0410394
X0420394
X0430394
X0440394
X0352362Y0311024
Y0321024
X0248346Y0324803
X0238347
X0228346
X0218347
X0180866Y0248031
X0170866
X0160866
X0150866
X0140866
Y0188976
X0150866
X0160866
X0170866
X0180866
X0230315Y0196693
Y0206693
X0130866Y0188976
X0120866
X0110866
X0100866
X0090866
X0080866
X0070866
X0060866
X0050866
X0040866
Y0248031
X0050866
X0060866
X0070866
X0080866
X0090866
X0100866
X0110866
X0120866
X0130866
X0072835Y0311024
Y0321024
Y0331024
Y0341024
X0117953Y0354331
X0127953
X0137953
X0147953
X0218504Y0348425
X0228504
X0238504
X0248504
X0352362Y0341024
Y0331024
X039748Y0354331
X040748
X041748
X042748
X0498032Y0348425
X0508032
X0518032
X0528031
X063189Y0341024
Y0331024
X0677008Y0354331
X0687008
X0697008
X0707008
X0777559Y0348425
X0787559
X0797559
X0807559
T04
X0059055Y005315
X0068898
X007874
X0338583
X0348425
X0358268
X061811
X0627953
X0637795
T05
X078937Y0287402
X0824803
X0545275
X0509842
X0265748
X0230315
T06
X0029528Y0124016
X0309055
X0588583
X0775591Y0255906
X0759843Y0271654
Y0297244
X0759842Y0314961
X0742126
X0742126Y0297244
Y0271654
X0677165Y0322835
X0651575
X0480315Y0314961
X0480315Y0297244
X0462598
X0462598Y0314961
X0462598Y0271654
X0480315
X0496063Y0255906
X0397638Y0322835
X0372047
X0200787Y0314961
X0200787Y0297244
X0183071
X0183071Y0314961
X0183071Y0271654
X0200787
X0216535Y0255906
X011811Y0322835
X009252
Y0340551
X011811
X0183071
X0200787
X0372047
X0397638
X0462598
X0480315
X0651575
X0677165
X0742126
X0759842
T07
X0015748Y0124016
X0295276
X0574803
X078937Y0255906
X0509843
X0230315
M30
