G04 Layer_Physical_Order=2*
G04 Layer_Color=16711680*
%FSLAX25Y25*%
%MOIN*%
G70*
G01*
G75*
%ADD10R,0.19685X0.24016*%
%ADD11R,0.03740X0.08661*%
%ADD12C,0.03937*%
%ADD13C,0.03150*%
%ADD14C,0.06693*%
%ADD15C,0.09842*%
%ADD16R,0.09449X0.09449*%
%ADD17C,0.09449*%
%ADD18R,0.06693X0.06693*%
%ADD19C,0.07087*%
%ADD20R,0.07087X0.07087*%
%ADD21R,0.07087X0.07087*%
%ADD22R,0.08661X0.07874*%
%ADD23C,0.08661*%
%ADD24R,0.09449X0.09449*%
%ADD25C,0.06000*%
G36*
X367269Y2810D02*
X2810D01*
Y201915D01*
X367269D01*
Y2810D01*
D02*
G37*
%LPC*%
G36*
X152441Y102362D02*
X141614D01*
Y89370D01*
X152441D01*
Y102362D01*
D02*
G37*
G36*
X79724Y99410D02*
X75477D01*
X75530Y99006D01*
X76066Y97713D01*
X76918Y96603D01*
X78028Y95751D01*
X79321Y95216D01*
X79724Y95162D01*
Y99410D01*
D02*
G37*
G36*
Y105625D02*
X79321Y105572D01*
X78028Y105036D01*
X76918Y104184D01*
X76066Y103074D01*
X75530Y101781D01*
X75477Y101378D01*
X79724D01*
Y105625D01*
D02*
G37*
G36*
X260827Y75788D02*
X256580D01*
X256633Y75384D01*
X257168Y74091D01*
X258020Y72981D01*
X259131Y72129D01*
X260423Y71593D01*
X260827Y71540D01*
Y75788D01*
D02*
G37*
G36*
X79724Y80034D02*
X79321Y79981D01*
X78028Y79446D01*
X76918Y78594D01*
X76066Y77484D01*
X75530Y76191D01*
X75477Y75787D01*
X79724D01*
Y80034D01*
D02*
G37*
G36*
X139646Y102362D02*
X128819D01*
Y89370D01*
X139646D01*
Y102362D01*
D02*
G37*
G36*
X34957Y146653D02*
X29528D01*
X24098D01*
X24158Y146199D01*
X24713Y144858D01*
X25270Y144132D01*
X24805Y142696D01*
X24388Y142163D01*
X23622D01*
X22491Y142015D01*
X21438Y141578D01*
X20533Y140884D01*
X14628Y134978D01*
X13934Y134074D01*
X13497Y133020D01*
X13349Y131890D01*
Y90551D01*
X13497Y89421D01*
X13934Y88367D01*
X14628Y87463D01*
X28407Y73683D01*
X29312Y72989D01*
X30365Y72552D01*
X31496Y72404D01*
X45600D01*
X46127Y71717D01*
X47607Y70582D01*
X49331Y69867D01*
X51181Y69624D01*
X53031Y69867D01*
X54755Y70582D01*
X56235Y71717D01*
X57371Y73198D01*
X58085Y74922D01*
X58329Y76772D01*
X58085Y78622D01*
X57371Y80345D01*
X56488Y81496D01*
X56823Y82703D01*
X57333Y83465D01*
X58268D01*
Y97638D01*
X55549D01*
Y107120D01*
X55865Y107532D01*
X56405Y108836D01*
X56590Y110236D01*
X56405Y111636D01*
X55865Y112941D01*
X55006Y114061D01*
X53885Y114920D01*
X52581Y115460D01*
X51181Y115645D01*
X49781Y115460D01*
X48477Y114920D01*
X47357Y114061D01*
X46497Y112941D01*
X45957Y111636D01*
X45773Y110236D01*
X45957Y108836D01*
X46497Y107532D01*
X46813Y107120D01*
Y97638D01*
X44094D01*
Y83465D01*
X44094Y83465D01*
X44297Y81496D01*
X43930Y81140D01*
X33305D01*
X22085Y92361D01*
Y125346D01*
X24053Y125737D01*
X24369Y124975D01*
X25316Y123741D01*
X26549Y122794D01*
X27986Y122199D01*
X29528Y121996D01*
X31069Y122199D01*
X32506Y122794D01*
X33536Y123585D01*
X55118D01*
X56249Y123733D01*
X57302Y124170D01*
X58207Y124864D01*
X64801Y131459D01*
X75721D01*
X76264Y130579D01*
X76542Y129490D01*
X75909Y128665D01*
X75373Y127372D01*
X75320Y126969D01*
X80551D01*
Y125984D01*
X81535D01*
Y120753D01*
X81939Y120806D01*
X82874Y121194D01*
X83181Y121067D01*
X84842Y120276D01*
X84842Y120276D01*
X84843Y120276D01*
X88614D01*
X104254Y104637D01*
Y100846D01*
X102435Y100092D01*
X99295Y103232D01*
X97993Y104102D01*
X96457Y104408D01*
X96417D01*
Y106102D01*
X85000D01*
Y106102D01*
X83356Y105318D01*
X83031Y105184D01*
X82096Y105572D01*
X81693Y105625D01*
Y100394D01*
Y95162D01*
X82096Y95216D01*
X83031Y95603D01*
X83338Y95476D01*
X85000Y94685D01*
X85000Y94685D01*
X85000Y94685D01*
X96417D01*
X96417Y94685D01*
Y94685D01*
X97830Y93343D01*
X98348Y92826D01*
Y80603D01*
X96417Y80512D01*
Y80512D01*
X85000D01*
Y80512D01*
X83356Y79728D01*
X83031Y79594D01*
X82096Y79981D01*
X81693Y80034D01*
Y74803D01*
Y69572D01*
X82096Y69625D01*
X83031Y70012D01*
X83356Y69878D01*
X85000Y69095D01*
Y69095D01*
X86736Y68533D01*
X87000Y67204D01*
X87870Y65902D01*
X96643Y57129D01*
X96662Y56643D01*
X95104Y54921D01*
X94594Y54921D01*
X85000D01*
Y54921D01*
X83356Y54137D01*
X83031Y54003D01*
X82096Y54391D01*
X81693Y54444D01*
Y49213D01*
Y43981D01*
X82096Y44034D01*
X83031Y44422D01*
X83338Y44295D01*
X85000Y43504D01*
X85000Y43504D01*
X85000Y43504D01*
X90741D01*
X105587Y28658D01*
X106889Y27788D01*
X108425Y27482D01*
X112026D01*
X112070Y27425D01*
X113015Y26700D01*
X113151Y25591D01*
X113015Y24482D01*
X112070Y23756D01*
X112026Y23699D01*
X96417D01*
Y29331D01*
X85000D01*
Y29331D01*
X83356Y28547D01*
X83031Y28413D01*
X82096Y28800D01*
X81693Y28853D01*
Y23622D01*
Y18391D01*
X82096Y18444D01*
X83031Y18831D01*
X83338Y18705D01*
X85000Y17913D01*
X85000Y17913D01*
X85000Y17913D01*
X90741D01*
X91807Y16847D01*
X93110Y15977D01*
X94646Y15671D01*
X112026D01*
X112070Y15614D01*
X113263Y14698D01*
X114652Y14123D01*
X116142Y13927D01*
X117632Y14123D01*
X119021Y14698D01*
X120213Y15614D01*
X121128Y16806D01*
X121703Y18195D01*
X121900Y19685D01*
X121703Y21175D01*
X121128Y22564D01*
X120213Y23756D01*
X119268Y24482D01*
X119133Y25591D01*
X119268Y26700D01*
X120213Y27425D01*
X121128Y28617D01*
X121703Y30006D01*
X121900Y31496D01*
X121703Y32986D01*
X121128Y34375D01*
X120213Y35568D01*
X119268Y36292D01*
X119133Y37402D01*
X119268Y38511D01*
X120213Y39236D01*
X121128Y40428D01*
X121703Y41817D01*
X121900Y43307D01*
X121703Y44797D01*
X121128Y46186D01*
X120213Y47379D01*
X119268Y48103D01*
X119133Y49213D01*
X119268Y50322D01*
X120213Y51047D01*
X121128Y52239D01*
X121703Y53628D01*
X121900Y55118D01*
X121703Y56608D01*
X121128Y57997D01*
X120213Y59190D01*
X119268Y59914D01*
X119133Y61024D01*
X119268Y62133D01*
X120213Y62858D01*
X121128Y64050D01*
X121703Y65439D01*
X121900Y66929D01*
X121703Y68419D01*
X121128Y69808D01*
X120213Y71001D01*
X119268Y71726D01*
X119133Y72835D01*
X119268Y73944D01*
X120213Y74669D01*
X121128Y75861D01*
X121703Y77250D01*
X121900Y78740D01*
X121703Y80230D01*
X121128Y81619D01*
X120510Y82425D01*
Y86866D01*
X121128Y87672D01*
X121703Y89061D01*
X121900Y90551D01*
X121703Y92041D01*
X121128Y93430D01*
X120510Y94236D01*
Y108268D01*
X120361Y109398D01*
X119925Y110452D01*
X119230Y111356D01*
X110667Y119920D01*
Y125091D01*
X111547Y125634D01*
X112636Y125912D01*
X113461Y125279D01*
X114754Y124743D01*
X115157Y124690D01*
Y129921D01*
Y135152D01*
X114754Y135099D01*
X113461Y134564D01*
X112351Y133712D01*
X111785Y132974D01*
X111667Y132914D01*
X110342Y132764D01*
X109485Y132883D01*
X109388Y133010D01*
X103482Y138916D01*
X102578Y139610D01*
X101524Y140046D01*
X100394Y140195D01*
X62992D01*
X61862Y140046D01*
X60808Y139610D01*
X59903Y138916D01*
X53309Y132321D01*
X35190D01*
X34281Y134289D01*
X34686Y134817D01*
X35281Y136254D01*
X35484Y137795D01*
X35281Y139337D01*
X34686Y140773D01*
X34013Y141651D01*
X33459Y143707D01*
X33835Y144197D01*
X34342Y144858D01*
X34898Y146199D01*
X34957Y146653D01*
D02*
G37*
G36*
X121373Y128937D02*
X117126D01*
Y124690D01*
X117529Y124743D01*
X118822Y125279D01*
X119932Y126131D01*
X120784Y127241D01*
X121320Y128534D01*
X121373Y128937D01*
D02*
G37*
G36*
X117126Y135152D02*
Y130905D01*
X121373D01*
X121320Y131309D01*
X120784Y132602D01*
X119932Y133712D01*
X118822Y134564D01*
X117529Y135099D01*
X117126Y135152D01*
D02*
G37*
G36*
X139646Y117323D02*
X128819D01*
Y104331D01*
X139646D01*
Y117323D01*
D02*
G37*
G36*
X152441D02*
X141614D01*
Y104331D01*
X152441D01*
Y117323D01*
D02*
G37*
G36*
X79567Y125000D02*
X75320D01*
X75373Y124597D01*
X75909Y123304D01*
X76761Y122194D01*
X77871Y121342D01*
X79164Y120806D01*
X79567Y120753D01*
Y125000D01*
D02*
G37*
G36*
X267042Y75788D02*
X262795D01*
Y71540D01*
X263198Y71593D01*
X264491Y72129D01*
X265602Y72981D01*
X266454Y74091D01*
X266989Y75384D01*
X267042Y75788D01*
D02*
G37*
G36*
X272638Y32212D02*
Y26575D01*
X278275D01*
X278174Y27338D01*
X277500Y28966D01*
X276427Y30364D01*
X275029Y31437D01*
X273401Y32111D01*
X272638Y32212D01*
D02*
G37*
G36*
X79724Y48228D02*
X75477D01*
X75530Y47825D01*
X76066Y46532D01*
X76918Y45422D01*
X78028Y44570D01*
X79321Y44034D01*
X79724Y43981D01*
Y48228D01*
D02*
G37*
G36*
X290664Y63976D02*
X285433D01*
X280202D01*
X280255Y63573D01*
X280790Y62280D01*
X281642Y61170D01*
X282753Y60318D01*
X282715Y58203D01*
X282554Y58136D01*
X281748Y57518D01*
X269685D01*
X268554Y57369D01*
X267501Y56932D01*
X266596Y56238D01*
X254785Y44427D01*
X254091Y43523D01*
X253655Y42469D01*
X253506Y41339D01*
Y32677D01*
X250787D01*
Y18504D01*
X264961D01*
Y20085D01*
X266696Y20747D01*
X266929Y20779D01*
X268278Y19744D01*
X269906Y19070D01*
X270669Y18970D01*
Y25591D01*
Y32212D01*
X269906Y32111D01*
X268278Y31437D01*
X266929Y30402D01*
X266696Y30434D01*
X264961Y31096D01*
Y32677D01*
X262242D01*
Y39529D01*
X271494Y48781D01*
X281748D01*
X282554Y48163D01*
X283943Y47588D01*
X285433Y47392D01*
X286923Y47588D01*
X288312Y48163D01*
X289505Y49078D01*
X290420Y50271D01*
X290995Y51659D01*
X291191Y53150D01*
X290995Y54640D01*
X290420Y56029D01*
X289505Y57221D01*
X288312Y58136D01*
X288151Y58203D01*
X288113Y60318D01*
X289224Y61170D01*
X290076Y62280D01*
X290611Y63573D01*
X290664Y63976D01*
D02*
G37*
G36*
X79724Y22638D02*
X75477D01*
X75530Y22235D01*
X76066Y20942D01*
X76918Y19831D01*
X78028Y18979D01*
X79321Y18444D01*
X79724Y18391D01*
Y22638D01*
D02*
G37*
G36*
X278275Y24606D02*
X272638D01*
Y18970D01*
X273401Y19070D01*
X275029Y19744D01*
X276427Y20817D01*
X277500Y22215D01*
X278174Y23843D01*
X278275Y24606D01*
D02*
G37*
G36*
X79724Y28853D02*
X79321Y28800D01*
X78028Y28265D01*
X76918Y27413D01*
X76066Y26302D01*
X75530Y25010D01*
X75477Y24606D01*
X79724D01*
Y28853D01*
D02*
G37*
G36*
X286417Y70192D02*
Y65945D01*
X290664D01*
X290611Y66348D01*
X290076Y67641D01*
X289224Y68751D01*
X288113Y69603D01*
X286821Y70139D01*
X286417Y70192D01*
D02*
G37*
G36*
X305787Y72244D02*
X301457D01*
Y67913D01*
X305787D01*
Y72244D01*
D02*
G37*
G36*
X79724Y73819D02*
X75477D01*
X75530Y73416D01*
X76066Y72123D01*
X76918Y71013D01*
X78028Y70161D01*
X79321Y69625D01*
X79724Y69572D01*
Y73819D01*
D02*
G37*
G36*
Y54444D02*
X79321Y54391D01*
X78028Y53855D01*
X76918Y53003D01*
X76066Y51893D01*
X75530Y50600D01*
X75477Y50197D01*
X79724D01*
Y54444D01*
D02*
G37*
G36*
X305787Y65945D02*
X301457D01*
Y61614D01*
X305787D01*
Y65945D01*
D02*
G37*
G36*
X284449Y70192D02*
X284046Y70139D01*
X282753Y69603D01*
X281642Y68751D01*
X280790Y67641D01*
X280255Y66348D01*
X280202Y65945D01*
X284449D01*
Y70192D01*
D02*
G37*
G36*
X254921Y184055D02*
X250674D01*
X250727Y183652D01*
X251263Y182359D01*
X252115Y181249D01*
X253225Y180397D01*
X254518Y179861D01*
X254921Y179808D01*
Y184055D01*
D02*
G37*
G36*
X261137D02*
X256890D01*
Y179808D01*
X257293Y179861D01*
X258586Y180397D01*
X259696Y181249D01*
X260548Y182359D01*
X261084Y183652D01*
X261137Y184055D01*
D02*
G37*
G36*
X337598Y184564D02*
X337144Y184504D01*
X335803Y183948D01*
X334652Y183065D01*
X333768Y181913D01*
X333213Y180573D01*
X333153Y180118D01*
X337598D01*
Y184564D01*
D02*
G37*
G36*
X344012Y178150D02*
X338583D01*
X333153D01*
X333213Y177695D01*
X333768Y176354D01*
X334652Y175203D01*
Y173065D01*
X333768Y171914D01*
X333213Y170573D01*
X333153Y170118D01*
X338583D01*
X344012D01*
X343953Y170573D01*
X343397Y171914D01*
X342514Y173065D01*
Y175203D01*
X343397Y176354D01*
X343953Y177695D01*
X344012Y178150D01*
D02*
G37*
G36*
X50197Y179849D02*
X49434Y179749D01*
X47806Y179075D01*
X46408Y178002D01*
X45335Y176604D01*
X44660Y174976D01*
X44560Y174213D01*
X50197D01*
Y179849D01*
D02*
G37*
G36*
X134646Y180118D02*
X128937D01*
Y174409D01*
X134646D01*
Y180118D01*
D02*
G37*
G36*
X339567Y184564D02*
Y180118D01*
X344012D01*
X343953Y180573D01*
X343397Y181913D01*
X342514Y183065D01*
X341362Y183948D01*
X340021Y184504D01*
X339567Y184564D01*
D02*
G37*
G36*
X47638Y191929D02*
X42323D01*
Y187008D01*
X47638D01*
Y191929D01*
D02*
G37*
G36*
X40354Y198819D02*
X35039D01*
Y193898D01*
X40354D01*
Y198819D01*
D02*
G37*
G36*
X47638D02*
X42323D01*
Y193898D01*
X47638D01*
Y198819D01*
D02*
G37*
G36*
X254921Y190271D02*
X254518Y190217D01*
X253225Y189682D01*
X252115Y188830D01*
X251263Y187720D01*
X250727Y186427D01*
X250674Y186024D01*
X254921D01*
Y190271D01*
D02*
G37*
G36*
X256890D02*
Y186024D01*
X261137D01*
X261084Y186427D01*
X260548Y187720D01*
X259696Y188830D01*
X258586Y189682D01*
X257293Y190217D01*
X256890Y190271D01*
D02*
G37*
G36*
X40354Y191929D02*
X35039D01*
Y187008D01*
X40354D01*
Y191929D01*
D02*
G37*
G36*
X76772Y199664D02*
X75024Y199434D01*
X73396Y198760D01*
X71998Y197687D01*
X71687Y197282D01*
X70866D01*
X69736Y197133D01*
X68682Y196696D01*
X67778Y196002D01*
X61872Y190097D01*
X61178Y189192D01*
X60741Y188138D01*
X60593Y187008D01*
Y180315D01*
X57874D01*
Y178734D01*
X56138Y178072D01*
X55905Y178039D01*
X54556Y179075D01*
X52928Y179749D01*
X52165Y179849D01*
Y173228D01*
Y166607D01*
X52928Y166708D01*
X54556Y167382D01*
X55905Y168417D01*
X56138Y168385D01*
X57874Y167723D01*
Y166142D01*
X60593D01*
Y159290D01*
X55277Y153974D01*
X54297D01*
X53885Y154290D01*
X52581Y154831D01*
X51181Y155015D01*
X49781Y154831D01*
X48477Y154290D01*
X47357Y153431D01*
X46497Y152311D01*
X45957Y151006D01*
X45773Y149606D01*
X45957Y148206D01*
X46497Y146902D01*
X47357Y145782D01*
X48477Y144922D01*
X49781Y144382D01*
X51181Y144198D01*
X52581Y144382D01*
X53885Y144922D01*
X54297Y145238D01*
X57087D01*
X58217Y145387D01*
X59271Y145823D01*
X60175Y146518D01*
X68049Y154392D01*
X68743Y155296D01*
X69180Y156350D01*
X69329Y157480D01*
Y166142D01*
X72047D01*
Y180315D01*
X69329D01*
Y185199D01*
X72152Y188022D01*
X73396Y187067D01*
X75024Y186393D01*
X76772Y186163D01*
X76829Y186170D01*
X78309Y184872D01*
Y179134D01*
X76772D01*
Y167323D01*
X76772D01*
X77166Y165354D01*
X76924Y164770D01*
X76721Y163228D01*
X76924Y161687D01*
X77519Y160250D01*
X78309Y159220D01*
Y153543D01*
X78458Y152413D01*
X78894Y151359D01*
X79589Y150455D01*
X81557Y148486D01*
X82462Y147792D01*
X83515Y147356D01*
X84646Y147207D01*
X114332D01*
X127286Y134254D01*
Y129921D01*
X127421Y128890D01*
Y123228D01*
X135886D01*
Y128890D01*
X136022Y129921D01*
Y136063D01*
X135873Y137194D01*
X135436Y138247D01*
X134742Y139152D01*
X133613Y140281D01*
X133701Y140980D01*
X134380Y142298D01*
X135258Y142414D01*
X136563Y142954D01*
X137683Y143813D01*
X138542Y144934D01*
X139082Y146238D01*
X139267Y147638D01*
X139082Y149038D01*
X138542Y150342D01*
X137683Y151462D01*
X136563Y152322D01*
X135258Y152862D01*
X134167Y153006D01*
X118187Y168986D01*
Y174681D01*
X119315Y175519D01*
X121260Y174710D01*
Y174409D01*
X126969D01*
Y181102D01*
X127953D01*
Y182087D01*
X134646D01*
Y187795D01*
X136303Y188545D01*
X145238D01*
Y181331D01*
X144448Y180301D01*
X143853Y178865D01*
X143650Y177323D01*
X143853Y175781D01*
X144095Y175197D01*
X143701Y173228D01*
X143701D01*
Y161417D01*
X145238D01*
Y129921D01*
X145374Y128890D01*
Y123228D01*
X153839D01*
Y128890D01*
X153974Y129921D01*
Y139566D01*
X154627Y139798D01*
X155943Y139893D01*
X156610Y138894D01*
X162516Y132988D01*
X163818Y132118D01*
X165354Y131813D01*
X166352D01*
X167048Y130906D01*
Y129544D01*
X166653Y128827D01*
X165350Y127956D01*
X160547Y123153D01*
X159677Y121851D01*
X159372Y120315D01*
Y88277D01*
X155583Y84489D01*
X155512Y84498D01*
X154022Y84302D01*
X152633Y83727D01*
X151440Y82812D01*
X150525Y81619D01*
X149950Y80230D01*
X149754Y78740D01*
X149950Y77250D01*
X150525Y75861D01*
X151440Y74669D01*
X152385Y73944D01*
X152521Y72835D01*
X152385Y71726D01*
X151440Y71001D01*
X150525Y69808D01*
X149950Y68419D01*
X149754Y66929D01*
X149950Y65439D01*
X150525Y64050D01*
X151440Y62858D01*
X152385Y62133D01*
X152521Y61024D01*
X152385Y59914D01*
X151440Y59190D01*
X150525Y57997D01*
X149950Y56608D01*
X149754Y55118D01*
X149950Y53628D01*
X150525Y52239D01*
X151440Y51047D01*
X152385Y50322D01*
X152521Y49213D01*
X152385Y48103D01*
X151440Y47379D01*
X150525Y46186D01*
X149950Y44797D01*
X149754Y43307D01*
X149950Y41817D01*
X150525Y40428D01*
X151440Y39236D01*
X152385Y38511D01*
X152521Y37402D01*
X152385Y36292D01*
X151440Y35568D01*
X150525Y34375D01*
X149950Y32986D01*
X149754Y31496D01*
X149950Y30006D01*
X150525Y28617D01*
X151440Y27425D01*
X152385Y26700D01*
X152521Y25591D01*
X152385Y24482D01*
X151440Y23756D01*
X150525Y22564D01*
X149950Y21175D01*
X149754Y19685D01*
X149950Y18195D01*
X150525Y16806D01*
X151440Y15614D01*
X152633Y14698D01*
X154022Y14123D01*
X155512Y13927D01*
X157002Y14123D01*
X158391Y14698D01*
X159583Y15614D01*
X160498Y16806D01*
X161074Y18195D01*
X161234Y19416D01*
X171013Y29194D01*
X171260Y29162D01*
X172801Y29365D01*
X174238Y29960D01*
X175472Y30906D01*
X176418Y32140D01*
X177013Y33577D01*
X177216Y35118D01*
X177013Y36660D01*
X176418Y38096D01*
X175909Y38760D01*
X175632Y40118D01*
X175909Y41476D01*
X176418Y42140D01*
X177013Y43576D01*
X177216Y45118D01*
X177013Y46660D01*
X176418Y48096D01*
X175909Y48760D01*
X175632Y50118D01*
X175909Y51476D01*
X176418Y52140D01*
X177013Y53576D01*
X177216Y55118D01*
X177013Y56660D01*
X176418Y58096D01*
X175909Y58760D01*
X175632Y60118D01*
X175909Y61476D01*
X176418Y62140D01*
X177013Y63577D01*
X177216Y65118D01*
X177013Y66660D01*
X176418Y68096D01*
X175909Y68760D01*
X175632Y70118D01*
X175909Y71476D01*
X176418Y72140D01*
X177013Y73576D01*
X177216Y75118D01*
X177013Y76660D01*
X176418Y78096D01*
X175909Y78760D01*
X175632Y80118D01*
X175909Y81476D01*
X176418Y82140D01*
X177013Y83577D01*
X177216Y85118D01*
X177013Y86660D01*
X176418Y88096D01*
X175909Y88760D01*
X175632Y90118D01*
X175909Y91476D01*
X176418Y92140D01*
X177013Y93577D01*
X177216Y95118D01*
X177013Y96660D01*
X176418Y98096D01*
X175909Y98760D01*
X175632Y100118D01*
X175909Y101476D01*
X176418Y102140D01*
X177013Y103577D01*
X177216Y105118D01*
X177013Y106660D01*
X176418Y108096D01*
X175909Y108760D01*
X175632Y110118D01*
X175909Y111476D01*
X176418Y112140D01*
X177013Y113576D01*
X177216Y115118D01*
X177013Y116660D01*
X176418Y118096D01*
X175909Y118760D01*
X175632Y120118D01*
X175909Y121476D01*
X176418Y122140D01*
X177013Y123576D01*
X177216Y125118D01*
X177013Y126660D01*
X176418Y128096D01*
X175909Y128760D01*
X175632Y130118D01*
X175909Y131476D01*
X176418Y132140D01*
X177013Y133577D01*
X177216Y135118D01*
X177013Y136660D01*
X176418Y138096D01*
X175909Y138760D01*
X175632Y140118D01*
X175909Y141476D01*
X176418Y142140D01*
X177013Y143577D01*
X177216Y145118D01*
X177013Y146660D01*
X176418Y148096D01*
X175909Y148760D01*
X175632Y150118D01*
X175909Y151476D01*
X176418Y152140D01*
X177013Y153577D01*
X177216Y155118D01*
X177013Y156660D01*
X176418Y158096D01*
X175909Y158760D01*
X175632Y160118D01*
X175909Y161476D01*
X176418Y162140D01*
X177013Y163576D01*
X177216Y165118D01*
X177013Y166660D01*
X176771Y167244D01*
X177165Y169213D01*
X177165D01*
Y181024D01*
X165354D01*
Y169213D01*
X165354D01*
X165748Y167244D01*
X165506Y166660D01*
X165303Y165118D01*
X165506Y163576D01*
X166101Y162140D01*
X166611Y161476D01*
X166887Y160118D01*
X166611Y158760D01*
X166101Y158096D01*
X165506Y156660D01*
X165303Y155118D01*
X165506Y153577D01*
X166101Y152140D01*
X166507Y151611D01*
X166079Y150166D01*
X164267Y150017D01*
X164133Y150342D01*
X163273Y151462D01*
X162153Y152322D01*
X160849Y152862D01*
X159449Y153046D01*
X158049Y152862D01*
X156745Y152322D01*
X155943Y151707D01*
X154764Y152027D01*
X153974Y152545D01*
Y161417D01*
X155512D01*
Y173228D01*
X155512D01*
X155118Y175197D01*
X155360Y175781D01*
X155563Y177323D01*
X155360Y178865D01*
X154765Y180301D01*
X153974Y181331D01*
Y188545D01*
X198978D01*
X212167Y175356D01*
Y149606D01*
X212316Y148476D01*
X212753Y147422D01*
X213447Y146518D01*
X217935Y142029D01*
X218840Y141335D01*
X219893Y140899D01*
X221024Y140750D01*
X224823D01*
X225002Y140552D01*
X225682Y138781D01*
X225156Y138096D01*
X224562Y136660D01*
X224359Y135118D01*
X224562Y133577D01*
X225156Y132140D01*
X225666Y131476D01*
X225943Y130118D01*
X225666Y128760D01*
X225156Y128096D01*
X224562Y126660D01*
X224359Y125118D01*
X224562Y123576D01*
X225156Y122140D01*
X225666Y121476D01*
X225943Y120118D01*
X225666Y118760D01*
X225156Y118096D01*
X224562Y116660D01*
X224359Y115118D01*
X224562Y113576D01*
X225156Y112140D01*
X225666Y111476D01*
X225943Y110118D01*
X225666Y108760D01*
X225156Y108096D01*
X224562Y106660D01*
X224359Y105118D01*
X224562Y103577D01*
X225156Y102140D01*
X225666Y101476D01*
X225943Y100118D01*
X225666Y98760D01*
X225156Y98096D01*
X224562Y96660D01*
X224359Y95118D01*
X224562Y93577D01*
X225156Y92140D01*
X225666Y91476D01*
X225943Y90118D01*
X225666Y88760D01*
X225156Y88096D01*
X224562Y86660D01*
X224359Y85118D01*
X224562Y83577D01*
X225156Y82140D01*
X225666Y81476D01*
X225943Y80118D01*
X225666Y78760D01*
X225156Y78096D01*
X224562Y76660D01*
X224359Y75118D01*
X224562Y73576D01*
X225156Y72140D01*
X225666Y71476D01*
X225943Y70118D01*
X225666Y68760D01*
X225156Y68096D01*
X224562Y66660D01*
X224359Y65118D01*
X224562Y63577D01*
X225156Y62140D01*
X225666Y61476D01*
X225943Y60118D01*
X225666Y58760D01*
X225156Y58096D01*
X224562Y56660D01*
X224359Y55118D01*
X224562Y53576D01*
X225156Y52140D01*
X225666Y51476D01*
X225943Y50118D01*
X225666Y48760D01*
X225156Y48096D01*
X224562Y46660D01*
X224359Y45118D01*
X224562Y43576D01*
X225156Y42140D01*
X225666Y41476D01*
X225943Y40118D01*
X225666Y38760D01*
X225156Y38096D01*
X224562Y36660D01*
X224359Y35118D01*
X224562Y33577D01*
X225156Y32140D01*
X226103Y30906D01*
X227337Y29960D01*
X228773Y29365D01*
X230315Y29162D01*
X231857Y29365D01*
X233293Y29960D01*
X234527Y30906D01*
X235473Y32140D01*
X236069Y33577D01*
X236271Y35118D01*
X236069Y36660D01*
X235473Y38096D01*
X234964Y38760D01*
X234687Y40118D01*
X234964Y41476D01*
X235473Y42140D01*
X236069Y43576D01*
X236271Y45118D01*
X236069Y46660D01*
X235473Y48096D01*
X234964Y48760D01*
X234687Y50118D01*
X234964Y51476D01*
X235473Y52140D01*
X236069Y53576D01*
X236271Y55118D01*
X236069Y56660D01*
X235473Y58096D01*
X235068Y58624D01*
X235977Y60593D01*
X241695D01*
Y56835D01*
X241076Y56029D01*
X240501Y54640D01*
X240305Y53150D01*
X240501Y51659D01*
X241076Y50271D01*
X241991Y49078D01*
X243184Y48163D01*
X244573Y47588D01*
X246063Y47392D01*
X247553Y47588D01*
X248942Y48163D01*
X250134Y49078D01*
X251049Y50271D01*
X251625Y51659D01*
X251821Y53150D01*
X251625Y54640D01*
X251049Y56029D01*
X250431Y56835D01*
Y61276D01*
X251049Y62082D01*
X251625Y63470D01*
X251821Y64961D01*
X251625Y66451D01*
X251049Y67840D01*
X250134Y69032D01*
X248942Y69947D01*
X247553Y70522D01*
X246063Y70718D01*
X244573Y70522D01*
X243184Y69947D01*
X242378Y69329D01*
X239019D01*
X238628Y71297D01*
X238720Y71335D01*
X239624Y72029D01*
X249841Y82246D01*
X256981D01*
X257524Y81367D01*
X257802Y80278D01*
X257168Y79452D01*
X256633Y78159D01*
X256580Y77756D01*
X261811D01*
X267042D01*
X266989Y78159D01*
X266454Y79452D01*
X265820Y80278D01*
X266098Y81367D01*
X266641Y82246D01*
X309214D01*
X312404Y79057D01*
Y74081D01*
X312087Y72244D01*
X307756D01*
Y66929D01*
Y61614D01*
X312087D01*
X312087Y61614D01*
X314055Y61875D01*
X315281Y61367D01*
X316772Y61171D01*
X318262Y61367D01*
X319651Y61943D01*
X320596Y62668D01*
X320843Y62858D01*
X322700Y62858D01*
X322948Y62668D01*
X323893Y61943D01*
X325281Y61367D01*
X326772Y61171D01*
X328262Y61367D01*
X329651Y61943D01*
X330843Y62858D01*
X331758Y64050D01*
X332333Y65439D01*
X332466Y66446D01*
X339703Y73683D01*
X340397Y74588D01*
X340833Y75641D01*
X340982Y76772D01*
Y120079D01*
X340833Y121209D01*
X340397Y122263D01*
X339703Y123167D01*
X335293Y127577D01*
X334389Y128271D01*
X333335Y128707D01*
X332205Y128856D01*
X330709D01*
Y130394D01*
X318898D01*
Y118583D01*
X318898Y118583D01*
X319718Y116614D01*
X319433Y115927D01*
X319373Y115472D01*
X324803D01*
Y113504D01*
X319373D01*
X319433Y113049D01*
X319989Y111708D01*
X320667Y110825D01*
X320410Y109784D01*
X319855Y108856D01*
X313150D01*
X312019Y108707D01*
X310966Y108271D01*
X310314Y107771D01*
X309648Y107660D01*
X309231Y107745D01*
X308122Y109930D01*
X308277Y110303D01*
X308527Y112205D01*
X308277Y114106D01*
X307543Y115878D01*
X306376Y117399D01*
X304854Y118567D01*
X303082Y119301D01*
X301181Y119551D01*
X299280Y119301D01*
X297508Y118567D01*
X295987Y117399D01*
X294819Y115878D01*
X294085Y114106D01*
X293835Y112205D01*
X294085Y110303D01*
X294750Y108699D01*
X294509Y108024D01*
X293720Y106730D01*
X283052D01*
X282262Y108024D01*
X282022Y108699D01*
X282686Y110303D01*
X282937Y112205D01*
X282801Y113238D01*
X292459Y122896D01*
X293153Y123800D01*
X293526Y124700D01*
X294114Y124944D01*
X295621Y125203D01*
X295987Y124727D01*
X297508Y123559D01*
X299280Y122825D01*
X301181Y122575D01*
X303082Y122825D01*
X304854Y123559D01*
X306376Y124727D01*
X307543Y126248D01*
X308277Y128020D01*
X308527Y129921D01*
X308277Y131823D01*
X308028Y132424D01*
X309645Y133664D01*
X310312Y133153D01*
X311605Y132617D01*
X312008Y132564D01*
Y136811D01*
X307761D01*
X307814Y136408D01*
X306293Y135340D01*
X306145Y135293D01*
X304854Y136283D01*
X303082Y137017D01*
X301181Y137268D01*
X299280Y137017D01*
X297508Y136283D01*
X295987Y135116D01*
X295707Y134751D01*
X293738Y135419D01*
Y139764D01*
X293589Y140894D01*
X293153Y141948D01*
X292459Y142852D01*
X286553Y148758D01*
X285649Y149452D01*
X284595Y149889D01*
X283465Y150037D01*
X281089D01*
X280420Y152006D01*
X280785Y152286D01*
X281953Y153807D01*
X282686Y155579D01*
X282937Y157480D01*
X282801Y158513D01*
X292459Y168171D01*
X293153Y169076D01*
X293526Y169976D01*
X294114Y170220D01*
X295621Y170479D01*
X295987Y170002D01*
X297508Y168835D01*
X299280Y168101D01*
X301181Y167850D01*
X303082Y168101D01*
X304854Y168835D01*
X306376Y170002D01*
X307543Y171524D01*
X307620Y171709D01*
X309986Y172277D01*
X310113Y172179D01*
X311502Y171604D01*
X312992Y171407D01*
X314482Y171604D01*
X315871Y172179D01*
X317064Y173094D01*
X317238Y173321D01*
X319597Y173778D01*
X319864Y173694D01*
X320435Y173218D01*
Y173142D01*
X319645Y172112D01*
X319050Y170676D01*
X318847Y169134D01*
X319050Y167592D01*
X319645Y166156D01*
X320435Y165126D01*
Y163142D01*
X319645Y162112D01*
X319050Y160676D01*
X318847Y159134D01*
X319050Y157592D01*
X319292Y157008D01*
X318898Y155039D01*
X318898D01*
Y143228D01*
X330709D01*
Y155039D01*
X330709Y155039D01*
X330315Y157008D01*
X330557Y157592D01*
X330760Y159134D01*
X330557Y160676D01*
X329962Y162112D01*
X329171Y163142D01*
Y165126D01*
X329962Y166156D01*
X330557Y167592D01*
X330760Y169134D01*
X330557Y170676D01*
X329962Y172112D01*
X329171Y173142D01*
Y175126D01*
X329962Y176156D01*
X330557Y177592D01*
X330760Y179134D01*
X330557Y180675D01*
X329962Y182112D01*
X329015Y183346D01*
X327781Y184292D01*
X326345Y184887D01*
X325058Y185057D01*
X320018Y190097D01*
X319113Y190791D01*
X318060Y191227D01*
X316929Y191376D01*
X295276D01*
X294145Y191227D01*
X293092Y190791D01*
X292187Y190097D01*
X286281Y184191D01*
X285587Y183286D01*
X285151Y182233D01*
X285002Y181102D01*
Y174493D01*
X284808Y174329D01*
X283279Y175038D01*
X282922Y175312D01*
X282686Y177098D01*
X281953Y178870D01*
X280785Y180392D01*
X279264Y181559D01*
X277492Y182293D01*
X275590Y182543D01*
X273689Y182293D01*
X271917Y181559D01*
X270396Y180392D01*
X269762Y179565D01*
X265748D01*
X264617Y179416D01*
X263564Y178980D01*
X262659Y178286D01*
X245178Y160804D01*
X244663Y160736D01*
X243359Y160196D01*
X242239Y159336D01*
X241379Y158216D01*
X240839Y156912D01*
X240654Y155512D01*
X240839Y154112D01*
X241379Y152808D01*
X242239Y151687D01*
X242542Y151455D01*
X241874Y149486D01*
X235807D01*
X235628Y149684D01*
X234948Y151455D01*
X235473Y152140D01*
X236069Y153577D01*
X236271Y155118D01*
X236069Y156660D01*
X235473Y158096D01*
X234724Y159073D01*
X234384Y160273D01*
X234246Y161187D01*
X235129Y162338D01*
X235685Y163679D01*
X235745Y164134D01*
X224885D01*
X224945Y163679D01*
X225500Y162338D01*
X226384Y161187D01*
X226246Y160273D01*
X225906Y159073D01*
X225156Y158096D01*
X224562Y156660D01*
X224359Y155118D01*
X224562Y153577D01*
X225156Y152140D01*
X225682Y151455D01*
X225002Y149684D01*
X224823Y149486D01*
X222833D01*
X220903Y151416D01*
Y177165D01*
X220755Y178296D01*
X220318Y179349D01*
X219624Y180254D01*
X203876Y196002D01*
X202971Y196696D01*
X201918Y197133D01*
X200787Y197282D01*
X104331D01*
X103200Y197133D01*
X102147Y196696D01*
X101242Y196002D01*
X97305Y192065D01*
X96611Y191160D01*
X96175Y190107D01*
X96026Y188976D01*
Y186683D01*
X95340Y186157D01*
X94204Y184676D01*
X93489Y182952D01*
X93246Y181102D01*
X93489Y179252D01*
X94204Y177529D01*
X95340Y176048D01*
X96820Y174912D01*
X98544Y174198D01*
X100394Y173955D01*
X102244Y174198D01*
X103968Y174912D01*
X105448Y176048D01*
X106109Y176909D01*
X106569Y177061D01*
X107998D01*
X108458Y176909D01*
X109119Y176048D01*
X110159Y175250D01*
Y167323D01*
X110465Y165787D01*
X111335Y164484D01*
X118334Y157485D01*
X117311Y155855D01*
X117237Y155799D01*
X116142Y155943D01*
X87045D01*
Y159220D01*
X87836Y160250D01*
X88431Y161687D01*
X88634Y163228D01*
X88431Y164770D01*
X88189Y165354D01*
X88583Y167323D01*
X88583D01*
Y179134D01*
X87045D01*
Y190945D01*
X86896Y192075D01*
X86460Y193129D01*
X85766Y194034D01*
X83797Y196002D01*
X82893Y196696D01*
X82032Y197053D01*
X81545Y197687D01*
X80147Y198760D01*
X78519Y199434D01*
X76772Y199664D01*
D02*
G37*
G36*
X337598Y148150D02*
X333071D01*
Y143622D01*
X337598D01*
Y148150D01*
D02*
G37*
G36*
X344094D02*
X339567D01*
Y143622D01*
X344094D01*
Y148150D01*
D02*
G37*
G36*
X318223Y136811D02*
X313976D01*
Y132564D01*
X314380Y132617D01*
X315672Y133153D01*
X316783Y134005D01*
X317635Y135115D01*
X318170Y136408D01*
X318223Y136811D01*
D02*
G37*
G36*
X312008Y143026D02*
X311605Y142973D01*
X310312Y142438D01*
X309202Y141586D01*
X308349Y140476D01*
X307814Y139183D01*
X307761Y138780D01*
X312008D01*
Y143026D01*
D02*
G37*
G36*
X313976D02*
Y138780D01*
X318223D01*
X318170Y139183D01*
X317635Y140476D01*
X316783Y141586D01*
X315672Y142438D01*
X314380Y142973D01*
X313976Y143026D01*
D02*
G37*
G36*
X28543Y153068D02*
X28089Y153008D01*
X26748Y152452D01*
X25596Y151569D01*
X24713Y150417D01*
X24158Y149077D01*
X24098Y148622D01*
X28543D01*
Y153068D01*
D02*
G37*
G36*
X344012Y168150D02*
X338583D01*
X333153D01*
X333213Y167695D01*
X333768Y166354D01*
X334652Y165203D01*
Y163065D01*
X333768Y161914D01*
X333213Y160573D01*
X333153Y160118D01*
X338583D01*
X344012D01*
X343953Y160573D01*
X343397Y161914D01*
X342514Y163065D01*
Y165203D01*
X343397Y166354D01*
X343953Y167695D01*
X344012Y168150D01*
D02*
G37*
G36*
X230315Y181075D02*
X228773Y180872D01*
X227337Y180277D01*
X226103Y179330D01*
X225156Y178096D01*
X224562Y176660D01*
X224359Y175118D01*
X224562Y173576D01*
X225156Y172140D01*
X225906Y171163D01*
X226246Y169963D01*
X226384Y169049D01*
X225500Y167898D01*
X224945Y166557D01*
X224885Y166102D01*
X235745D01*
X235685Y166557D01*
X235129Y167898D01*
X234246Y169049D01*
X234384Y169963D01*
X234724Y171163D01*
X235473Y172140D01*
X236069Y173576D01*
X236271Y175118D01*
X236069Y176660D01*
X235473Y178096D01*
X234527Y179330D01*
X233293Y180277D01*
X231857Y180872D01*
X230315Y181075D01*
D02*
G37*
G36*
X50197Y172244D02*
X44560D01*
X44660Y171481D01*
X45335Y169853D01*
X46408Y168455D01*
X47806Y167382D01*
X49434Y166708D01*
X50197Y166607D01*
Y172244D01*
D02*
G37*
G36*
X30512Y153068D02*
Y148622D01*
X34957D01*
X34898Y149077D01*
X34342Y150417D01*
X33459Y151569D01*
X32307Y152452D01*
X30966Y153008D01*
X30512Y153068D01*
D02*
G37*
G36*
X344012Y158150D02*
X338583D01*
X333153D01*
X333213Y157695D01*
X333660Y156614D01*
X333071Y154646D01*
X333071D01*
Y150118D01*
X338583D01*
X344094D01*
Y154646D01*
X344094Y154646D01*
X343505Y156614D01*
X343953Y157695D01*
X344012Y158150D01*
D02*
G37*
G36*
X301181Y164827D02*
X299280Y164576D01*
X297508Y163842D01*
X295987Y162675D01*
X294819Y161153D01*
X294085Y159382D01*
X293835Y157480D01*
X294085Y155579D01*
X294819Y153807D01*
X295987Y152286D01*
X297508Y151118D01*
X299280Y150384D01*
X301181Y150134D01*
X303082Y150384D01*
X304854Y151118D01*
X306376Y152286D01*
X307543Y153807D01*
X308277Y155579D01*
X308527Y157480D01*
X308277Y159382D01*
X307543Y161153D01*
X306376Y162675D01*
X304854Y163842D01*
X303082Y164576D01*
X301181Y164827D01*
D02*
G37*
%LPD*%
D10*
X140630Y103347D02*
D03*
D11*
X149606Y129921D02*
D03*
X131653D02*
D03*
D12*
X261811Y116142D02*
X279528D01*
X312992Y187008D02*
X316929D01*
X295276D02*
X312992D01*
Y177165D02*
Y187008D01*
X326772Y66929D02*
X336614Y76772D01*
Y120079D01*
X324803Y124488D02*
X332205D01*
X336614Y120079D01*
X230945Y94488D02*
X324803D01*
X313150Y104488D02*
X324803D01*
X311024Y102362D02*
X313150Y104488D01*
X216535Y149606D02*
Y177165D01*
Y149606D02*
X221024Y145118D01*
X230315D01*
X116142Y78740D02*
Y90551D01*
Y108268D01*
X106299Y118110D02*
X116142Y108268D01*
X106299Y118110D02*
Y129921D01*
X100394Y135827D02*
X106299Y129921D01*
X230315Y145118D02*
X255354D01*
X255906Y145669D01*
X269685D01*
Y151575D01*
X275590Y157480D01*
X289370Y125984D02*
Y139764D01*
X283465Y145669D02*
X289370Y139764D01*
X269685Y145669D02*
X283465D01*
X270787Y125118D02*
X275590Y129921D01*
X230315Y125118D02*
X270787D01*
X265748Y175197D02*
X275590D01*
X246063Y155512D02*
X265748Y175197D01*
X230315Y135118D02*
X244803D01*
X324803Y149134D02*
Y159134D01*
Y169134D01*
Y179134D01*
X279528Y116142D02*
X289370Y125984D01*
X230315Y95118D02*
X230945Y94488D01*
X236221Y102362D02*
X311024D01*
X233465Y105118D02*
X236221Y102362D01*
X230315Y105118D02*
X233465D01*
X230472Y64961D02*
X246063D01*
X230315Y65118D02*
X230472Y64961D01*
X246063Y53150D02*
Y64961D01*
X236535Y75118D02*
X248031Y86614D01*
X230315Y75118D02*
X236535D01*
X316772Y66929D02*
Y80866D01*
X311024Y86614D02*
X316772Y80866D01*
X248031Y86614D02*
X311024D01*
X257874Y25591D02*
Y41339D01*
X269685Y53150D01*
X285433D01*
X275590Y157480D02*
X289370Y171260D01*
Y181102D01*
X295276Y187008D01*
X316929D02*
X324803Y179134D01*
X62992Y135827D02*
X100394D01*
Y181102D02*
Y188976D01*
X200787Y192913D02*
X216535Y177165D01*
X100394Y188976D02*
X104331Y192913D01*
X149606Y129921D02*
Y167323D01*
X131653Y129921D02*
Y136063D01*
X149606Y177323D02*
Y190945D01*
X151575Y192913D01*
X104331D02*
X151575D01*
X200787D01*
X29528Y127953D02*
X55118D01*
X62992Y135827D01*
X51181Y90551D02*
Y110236D01*
X23622Y137795D02*
X29528D01*
X31496Y76772D02*
X51181D01*
X17717Y90551D02*
X31496Y76772D01*
X17717Y90551D02*
Y131890D01*
X23622Y137795D01*
X82677Y153543D02*
Y163228D01*
Y153543D02*
X84646Y151575D01*
X116142D01*
X131653Y136063D01*
X51181Y149606D02*
X57087D01*
X64961Y157480D01*
Y173228D01*
Y187008D01*
X70866Y192913D01*
X76772D01*
X80709D01*
X82677Y190945D01*
Y173228D02*
Y190945D01*
D13*
X168189Y125118D02*
X171260D01*
X163386Y120315D02*
X168189Y125118D01*
X163386Y86614D02*
Y120315D01*
X155512Y78740D02*
X163386Y86614D01*
X163701Y75118D02*
X171260D01*
X155512Y66929D02*
X163701Y75118D01*
X165512Y65118D02*
X171260D01*
X155512Y55118D02*
X165512Y65118D01*
X167323Y55118D02*
X171260D01*
X155512Y43307D02*
X167323Y55118D01*
X169134Y45118D02*
X171260D01*
X155512Y31496D02*
X169134Y45118D01*
X155827Y19685D02*
X171260Y35118D01*
X155512Y19685D02*
X155827D01*
X108268Y74803D02*
X116142Y66929D01*
X108268Y74803D02*
Y106299D01*
X90551Y124016D02*
X108268Y106299D01*
X90551Y124016D02*
Y125984D01*
X102362Y68898D02*
X116142Y55118D01*
X102362Y68898D02*
Y94488D01*
X96457Y100394D02*
X102362Y94488D01*
X90709Y100394D02*
X96457D01*
X90709Y68740D02*
X116142Y43307D01*
X90709Y68740D02*
Y74803D01*
X108425Y31496D02*
X116142D01*
X90709Y49213D02*
X108425Y31496D01*
X94646Y19685D02*
X116142D01*
X90709Y23622D02*
X94646Y19685D01*
X170551Y135827D02*
X171260Y135118D01*
X165354Y135827D02*
X170551D01*
X159449Y141732D02*
X165354Y135827D01*
X159449Y141732D02*
Y147638D01*
X114173Y167323D02*
Y181102D01*
Y167323D02*
X133858Y147638D01*
D14*
X261811Y76772D02*
D03*
Y116142D02*
D03*
X255906Y185039D02*
D03*
Y145669D02*
D03*
X285433Y64961D02*
D03*
X246063D02*
D03*
Y53150D02*
D03*
X285433D02*
D03*
X326772Y66929D02*
D03*
X316772D02*
D03*
X312992Y137795D02*
D03*
Y177165D02*
D03*
X80709Y100394D02*
D03*
X80551Y125984D02*
D03*
X80709Y74803D02*
D03*
Y49213D02*
D03*
Y23622D02*
D03*
X116142Y78740D02*
D03*
X155512D02*
D03*
Y66929D02*
D03*
X116142D02*
D03*
X155512Y55118D02*
D03*
X116142D02*
D03*
X155512Y43307D02*
D03*
X116142D02*
D03*
X155512Y31496D02*
D03*
X116142D02*
D03*
X155512Y19685D02*
D03*
X116142D02*
D03*
X116142Y90551D02*
D03*
Y129921D02*
D03*
D15*
X275590Y112205D02*
D03*
X301181D02*
D03*
Y129921D02*
D03*
X275590D02*
D03*
Y157480D02*
D03*
X301181D02*
D03*
Y175197D02*
D03*
X275590D02*
D03*
D16*
X257874Y25591D02*
D03*
X127953Y181102D02*
D03*
X64961Y173228D02*
D03*
D17*
X271654Y25591D02*
D03*
X114173Y181102D02*
D03*
X100394D02*
D03*
X51181Y76772D02*
D03*
Y173228D02*
D03*
D18*
X306772Y66929D02*
D03*
X90709Y100394D02*
D03*
X90551Y125984D02*
D03*
X90709Y74803D02*
D03*
Y49213D02*
D03*
Y23622D02*
D03*
D19*
X171260Y35118D02*
D03*
Y65118D02*
D03*
Y55118D02*
D03*
Y95118D02*
D03*
Y85118D02*
D03*
Y125118D02*
D03*
Y115118D02*
D03*
Y155118D02*
D03*
Y145118D02*
D03*
X230315Y35118D02*
D03*
Y55118D02*
D03*
Y65118D02*
D03*
Y85118D02*
D03*
Y95118D02*
D03*
Y115118D02*
D03*
Y125118D02*
D03*
Y145118D02*
D03*
Y155118D02*
D03*
Y175118D02*
D03*
X171260Y45118D02*
D03*
Y75118D02*
D03*
Y105118D02*
D03*
Y135118D02*
D03*
Y165118D02*
D03*
X230315Y45118D02*
D03*
Y75118D02*
D03*
Y105118D02*
D03*
Y135118D02*
D03*
Y165118D02*
D03*
X324803Y159134D02*
D03*
Y169134D02*
D03*
Y179134D02*
D03*
X338583Y159134D02*
D03*
Y169134D02*
D03*
Y179134D02*
D03*
X29528Y147638D02*
D03*
Y137795D02*
D03*
Y127953D02*
D03*
X82677Y163228D02*
D03*
X149606Y177323D02*
D03*
X324803Y114488D02*
D03*
Y104488D02*
D03*
Y94488D02*
D03*
D20*
X171260Y175118D02*
D03*
D21*
X324803Y149134D02*
D03*
X338583D02*
D03*
X82677Y173228D02*
D03*
X149606Y167323D02*
D03*
X324803Y124488D02*
D03*
D22*
X41339Y192913D02*
D03*
D23*
X76772D02*
D03*
D24*
X51181Y90551D02*
D03*
D25*
X246063Y155512D02*
D03*
Y135827D02*
D03*
X159449Y147638D02*
D03*
X133858D02*
D03*
X51181Y110236D02*
D03*
Y149606D02*
D03*
M02*
