M48
;Layer_Color=9474304
;FILE_FORMAT=2:5
INCH,LZ
;TYPE=PLATED
T1F00S00C0.03000
T2F00S00C0.03150
T3F00S00C0.03937
T4F00S00C0.04331
T5F00S00C0.04724
T6F00S00C0.05512
;TYPE=NON_PLATED
T7F00S00C0.05512
%
T01
X0179134Y0033465
X0316929Y0125984
Y0137795
X0340551
Y0125984
X0179134Y0056161
X023622Y0238189
Y0253937
X0316929Y0255906
X0332677
T02
X0074646Y0031496
X0084646
X0108268Y0055118
X0147638
X028937Y0116142
X0309055Y0116142
Y0155512
X028937
X0269685
Y0116142
X0147638Y0124016
Y0143701
X0147638Y0098425
Y0076772
X0108268
X0108268Y0098425
X0084646Y0098425
X0074646
X0074646Y013189
X0084646
X0108268Y0124016
Y0143701
X0106299Y0179134
X0084646Y0165354
X0074646
X0068898Y0179134
X0074646Y0064961
X0084646
X0068898Y0218504
X0106299Y0218504
X0283465Y0236063
Y0246063
Y0256063
X030315Y0236221
X034252
T03
X0049213Y0055118
X0105827Y0025591
X0115827
X0125827
X0135827
X0165354Y0023622
Y0033622
X0196693Y0045276
X0206693
X0324803Y0047244
Y0037244
Y0027244
X0348425Y0027087
Y0037087
Y0047087
Y0057087
X0324803Y0057244
X0354331Y0127638
Y0137638
Y0147638
Y0157638
X0341024Y0202756
X0331024
X0321024
X0311024
X0248031Y0204725
Y0194725
Y0184724
Y0174724
Y0164725
Y0154725
Y0144725
Y0134724
Y0124724
Y0114725
Y0104725
Y0094725
X0188976
Y0104725
Y0114725
Y0124724
Y0134724
Y0144725
Y0154725
Y0164725
Y0174724
Y0184724
Y0194725
Y0204725
X0153543Y0202913
Y0192913
X0129921
Y0202913
Y0182913
Y0172913
Y0162913
X0049213Y0132047
Y0122047
Y0098583
Y0088583
Y0065118
X0163386Y0234252
Y0244252
Y0254252
X0188976Y0234724
Y0224724
Y0214724
X0248031
Y0224724
Y0234724
T04
X005315Y0196851
Y0206693
Y0216535
T05
X0287402Y0009843
Y0045276
T06
X0297244Y0074803
X0314961Y0074803
Y009252
X0297244Y009252
X0340551Y009252
Y0074803
Y015748
X0322835
Y0183071
X0340551
X0271654Y009252
Y0074803
X0255906Y0059055
X0124016Y0246063
T07
X0255906Y0045276
X0124016Y0259842
M30
