M48
; DRILL file {KiCad 5.1.2-f72e74a~84~ubuntu18.04.1} date Пн 22 июл 2019 12:28:44
; FORMAT={-:-/ absolute / metric / decimal}
; #@! TF.CreationDate,2019-07-22T12:28:44+03:00
; #@! TF.GenerationSoftware,Kicad,Pcbnew,5.1.2-f72e74a~84~ubuntu18.04.1
; #@! TF.FileFunction,Plated,1,2,PTH
FMAT,2
METRIC
T1C0.400
T2C0.800
T3C0.900
T4C1.200
%
G90
G05
T1
X25.445Y2.475
X25.495Y7.55
X26.37Y40.05
X26.416Y44.958
X49.245Y27.2
X49.245Y32.7
T2
X12.47Y34.9
X12.47Y27.28
X12.467Y22.471
X12.467Y19.931
X12.467Y17.391
X20.37Y19.9
X23.87Y19.9
X32.87Y19.9
X36.37Y19.9
X29.88Y50.01
X29.88Y42.39
X12.77Y12.7
X20.39Y12.7
X45.37Y22.471
X45.37Y19.931
X45.37Y17.391
X36.35Y12.7
X43.97Y12.7
X45.42Y34.025
X45.42Y26.405
T3
X2.98Y18.45
X5.52Y18.45
X52.38Y33.6
X54.92Y33.6
X19.97Y44.9
X19.97Y42.36
X2.98Y33.55
X5.52Y33.55
X36.02Y44.9
X36.02Y42.36
X52.38Y19.3
X54.92Y19.3
X19.72Y7.55
X19.72Y5.01
X36.22Y7.5
X36.22Y4.96
T4
X26.37Y31.2
X29.87Y31.2
T0
M30
