G04 #@! TF.GenerationSoftware,KiCad,Pcbnew,5.1.2-f72e74a~84~ubuntu18.04.1*
G04 #@! TF.CreationDate,2019-07-22T12:28:27+03:00*
G04 #@! TF.ProjectId,Garland_NPN,4761726c-616e-4645-9f4e-504e2e6b6963,rev?*
G04 #@! TF.SameCoordinates,Original*
G04 #@! TF.FileFunction,Copper,L1,Top*
G04 #@! TF.FilePolarity,Positive*
%FSLAX46Y46*%
G04 Gerber Fmt 4.6, Leading zero omitted, Abs format (unit mm)*
G04 Created by KiCad (PCBNEW 5.1.2-f72e74a~84~ubuntu18.04.1) date 2019-07-22 12:28:27*
%MOMM*%
%LPD*%
G04 APERTURE LIST*
%ADD10C,0.100000*%
%ADD11O,1.800000X3.600000*%
%ADD12C,1.800000*%
%ADD13O,1.600000X1.600000*%
%ADD14R,1.600000X1.600000*%
%ADD15R,1.500000X1.500000*%
%ADD16C,1.500000*%
%ADD17C,1.600000*%
%ADD18R,1.800000X1.800000*%
%ADD19C,0.800000*%
%ADD20C,1.000000*%
%ADD21C,0.254000*%
G04 APERTURE END LIST*
D10*
G36*
X27406600Y8615680D02*
G01*
X29433520Y6405880D01*
X29453840Y6075680D01*
X26636980Y6073140D01*
X26621740Y8628380D01*
X27406600Y8615680D01*
G37*
X27406600Y8615680D02*
X29433520Y6405880D01*
X29453840Y6075680D01*
X26636980Y6073140D01*
X26621740Y8628380D01*
X27406600Y8615680D01*
G36*
X46680120Y11145520D02*
G01*
X39443660Y3776980D01*
X38524180Y4107180D01*
X44704000Y11181080D01*
X46680120Y11145520D01*
G37*
X46680120Y11145520D02*
X39443660Y3776980D01*
X38524180Y4107180D01*
X44704000Y11181080D01*
X46680120Y11145520D01*
G36*
X10795000Y12987020D02*
G01*
X9758680Y12080240D01*
X9789160Y12110720D01*
X5872480Y16027400D01*
X6944360Y17035780D01*
X10795000Y12987020D01*
G37*
X10795000Y12987020D02*
X9758680Y12080240D01*
X9789160Y12110720D01*
X5872480Y16027400D01*
X6944360Y17035780D01*
X10795000Y12987020D01*
G36*
X18282920Y8788400D02*
G01*
X15783560Y6548120D01*
X12192000Y10134600D01*
X14726920Y12471400D01*
X18282920Y8788400D01*
G37*
X18282920Y8788400D02*
X15783560Y6548120D01*
X12192000Y10134600D01*
X14726920Y12471400D01*
X18282920Y8788400D01*
G36*
X44693840Y43667680D02*
G01*
X48275240Y40121840D01*
X48275240Y39075360D01*
X41173400Y39110920D01*
X38597840Y41666160D01*
X38597840Y43682920D01*
X38638480Y43667680D01*
X38597840Y43703240D01*
X44693840Y43667680D01*
G37*
X44693840Y43667680D02*
X48275240Y40121840D01*
X48275240Y39075360D01*
X41173400Y39110920D01*
X38597840Y41666160D01*
X38597840Y43682920D01*
X38638480Y43667680D01*
X38597840Y43703240D01*
X44693840Y43667680D01*
D11*
X26370000Y31200000D03*
D10*
G36*
X30544504Y32998796D02*
G01*
X30568773Y32995196D01*
X30592571Y32989235D01*
X30615671Y32980970D01*
X30637849Y32970480D01*
X30658893Y32957867D01*
X30678598Y32943253D01*
X30696777Y32926777D01*
X30713253Y32908598D01*
X30727867Y32888893D01*
X30740480Y32867849D01*
X30750970Y32845671D01*
X30759235Y32822571D01*
X30765196Y32798773D01*
X30768796Y32774504D01*
X30770000Y32750000D01*
X30770000Y29650000D01*
X30768796Y29625496D01*
X30765196Y29601227D01*
X30759235Y29577429D01*
X30750970Y29554329D01*
X30740480Y29532151D01*
X30727867Y29511107D01*
X30713253Y29491402D01*
X30696777Y29473223D01*
X30678598Y29456747D01*
X30658893Y29442133D01*
X30637849Y29429520D01*
X30615671Y29419030D01*
X30592571Y29410765D01*
X30568773Y29404804D01*
X30544504Y29401204D01*
X30520000Y29400000D01*
X29220000Y29400000D01*
X29195496Y29401204D01*
X29171227Y29404804D01*
X29147429Y29410765D01*
X29124329Y29419030D01*
X29102151Y29429520D01*
X29081107Y29442133D01*
X29061402Y29456747D01*
X29043223Y29473223D01*
X29026747Y29491402D01*
X29012133Y29511107D01*
X28999520Y29532151D01*
X28989030Y29554329D01*
X28980765Y29577429D01*
X28974804Y29601227D01*
X28971204Y29625496D01*
X28970000Y29650000D01*
X28970000Y32750000D01*
X28971204Y32774504D01*
X28974804Y32798773D01*
X28980765Y32822571D01*
X28989030Y32845671D01*
X28999520Y32867849D01*
X29012133Y32888893D01*
X29026747Y32908598D01*
X29043223Y32926777D01*
X29061402Y32943253D01*
X29081107Y32957867D01*
X29102151Y32970480D01*
X29124329Y32980970D01*
X29147429Y32989235D01*
X29171227Y32995196D01*
X29195496Y32998796D01*
X29220000Y33000000D01*
X30520000Y33000000D01*
X30544504Y32998796D01*
X30544504Y32998796D01*
G37*
D12*
X29870000Y31200000D03*
D13*
X29880000Y50010000D03*
D14*
X29880000Y42390000D03*
D15*
X12467400Y17390800D03*
D16*
X12467400Y22470800D03*
X12467400Y19930800D03*
D15*
X45370000Y17390800D03*
D16*
X45370000Y22470800D03*
X45370000Y19930800D03*
D13*
X12470000Y27280000D03*
D17*
X12470000Y34900000D03*
D13*
X36350000Y12700000D03*
D17*
X43970000Y12700000D03*
D13*
X20390000Y12700000D03*
D17*
X12770000Y12700000D03*
D13*
X45420000Y26405000D03*
D17*
X45420000Y34025000D03*
D12*
X36020000Y42360000D03*
D18*
X36020000Y44900000D03*
D12*
X19720000Y5010000D03*
D18*
X19720000Y7550000D03*
D12*
X52380000Y33600000D03*
D18*
X54920000Y33600000D03*
D12*
X52380000Y19300000D03*
D18*
X54920000Y19300000D03*
D12*
X36220000Y4960000D03*
D18*
X36220000Y7500000D03*
D12*
X19970000Y42360000D03*
D18*
X19970000Y44900000D03*
D12*
X2980000Y33550000D03*
D18*
X5520000Y33550000D03*
D12*
X2980000Y18450000D03*
D18*
X5520000Y18450000D03*
D17*
X36370000Y19900000D03*
D14*
X32870000Y19900000D03*
D17*
X20370000Y19900000D03*
D14*
X23870000Y19900000D03*
D19*
X26370000Y40050000D03*
X26416000Y44958000D03*
X49245001Y32700001D03*
X49245000Y27200000D03*
X25495000Y7550000D03*
X25445000Y2475000D03*
D20*
X12498200Y19900000D02*
X12467400Y19930800D01*
X20370000Y19900000D02*
X12498200Y19900000D01*
X17370000Y19930800D02*
X12467400Y19930800D01*
X20370000Y19900000D02*
X20370000Y12720000D01*
X46540800Y22470800D02*
X45370000Y22470800D01*
X46570000Y22500000D02*
X46540800Y22470800D01*
X47870000Y21200000D02*
X46570000Y22500000D01*
X47870000Y16400000D02*
X47870000Y21200000D01*
X23870000Y18100000D02*
X32170000Y9800000D01*
X23870000Y19900000D02*
X23870000Y18100000D01*
X32170000Y9800000D02*
X37770000Y9800000D01*
X46770000Y15300000D02*
X47870000Y16400000D01*
X37770000Y9800000D02*
X43270000Y15300000D01*
X43270000Y15300000D02*
X46770000Y15300000D01*
X45420000Y22520800D02*
X45370000Y22470800D01*
X45420000Y26405000D02*
X45420000Y22520800D01*
X45339200Y19900000D02*
X45370000Y19930800D01*
X36370000Y19900000D02*
X45339200Y19900000D01*
X36370000Y19900000D02*
X36370000Y12720000D01*
X12470000Y22473400D02*
X12467400Y22470800D01*
X12470000Y27280000D02*
X12470000Y22473400D01*
X13528060Y22470800D02*
X12467400Y22470800D01*
X28499200Y22470800D02*
X13528060Y22470800D01*
X31070000Y19900000D02*
X28499200Y22470800D01*
X32870000Y19900000D02*
X31070000Y19900000D01*
X29870000Y31200000D02*
X29870000Y38800000D01*
X45101370Y12700000D02*
X43970000Y12700000D01*
X52380000Y19300000D02*
X52370000Y19290000D01*
X47520000Y12700000D02*
X45101370Y12700000D01*
X52370000Y17550000D02*
X47520000Y12700000D01*
X52370000Y19290000D02*
X52370000Y17550000D01*
X37492792Y4960000D02*
X43970000Y12700000D01*
X36220000Y4960000D02*
X37492792Y4960000D01*
X19770000Y4960000D02*
X19720000Y5010000D01*
X36220000Y4960000D02*
X19770000Y4960000D01*
X2980000Y18450000D02*
X2980000Y33550000D01*
X29870000Y42070000D02*
X29580000Y42360000D01*
X29870000Y38800000D02*
X29870000Y42070000D01*
X19970000Y42360000D02*
X29580000Y42360000D01*
X29580000Y42360000D02*
X36020000Y42360000D01*
X36020000Y42300000D02*
X36020000Y42360000D01*
X40420000Y37900000D02*
X36020000Y42300000D01*
X48120000Y37900000D02*
X40420000Y37900000D01*
X52380000Y33600000D02*
X52380000Y33640000D01*
X52380000Y33640000D02*
X48120000Y37900000D01*
X2980000Y17177208D02*
X2980000Y18450000D01*
X19720000Y5010000D02*
X15147208Y5010000D01*
X10176104Y10106104D02*
X10176104Y9981104D01*
X12770000Y12700000D02*
X10176104Y10106104D01*
X15147208Y5010000D02*
X10176104Y9981104D01*
X10176104Y9981104D02*
X2980000Y17177208D01*
X51480001Y32700001D02*
X49245001Y32700001D01*
X52380000Y33600000D02*
X51480001Y32700001D01*
X52380000Y19300000D02*
X52380000Y24065000D01*
X52380000Y24065000D02*
X49245000Y27200000D01*
X49245001Y32700001D02*
X49245001Y32700001D01*
X49245000Y27200000D02*
X49245000Y27200000D01*
X5520000Y35450000D02*
X5520000Y33550000D01*
X19970000Y44900000D02*
X14970000Y44900000D01*
X5520000Y31650000D02*
X5520000Y18450000D01*
X5520000Y33550000D02*
X5520000Y31650000D01*
X14970000Y44900000D02*
X11182500Y41112500D01*
X11182500Y41112500D02*
X5520000Y35450000D01*
X11182500Y40237500D02*
X11182500Y41112500D01*
X33220000Y27450000D02*
X23970000Y27450000D01*
X45420000Y34025000D02*
X39795000Y34025000D01*
X23970000Y27450000D02*
X11182500Y40237500D01*
X39795000Y34025000D02*
X33220000Y27450000D01*
X7420000Y18450000D02*
X5520000Y18450000D01*
X30270000Y7500000D02*
X27670000Y10100000D01*
X27670000Y10100000D02*
X19270000Y10100000D01*
X36220000Y7500000D02*
X30270000Y7500000D01*
X19270000Y10100000D02*
X14320000Y15050000D01*
X14320000Y15050000D02*
X10820000Y15050000D01*
X10820000Y15050000D02*
X7420000Y18450000D01*
X54920000Y35500000D02*
X54920000Y33600000D01*
X45520000Y44900000D02*
X54920000Y35500000D01*
X36020000Y44900000D02*
X45520000Y44900000D01*
X54920000Y33600000D02*
X54920000Y29900000D01*
X54920000Y29900000D02*
X54920000Y19300000D01*
X42270000Y29900000D02*
X54920000Y29900000D01*
X19720000Y24900000D02*
X37270000Y24900000D01*
X37270000Y24900000D02*
X42270000Y29900000D01*
X12470000Y34900000D02*
X12470000Y32150000D01*
X12470000Y32150000D02*
X19720000Y24900000D01*
X19720000Y7550000D02*
X25495000Y7550000D01*
X54920000Y17400000D02*
X39995000Y2475000D01*
X54920000Y19300000D02*
X54920000Y17400000D01*
X39995000Y2475000D02*
X25445000Y2475000D01*
X25495000Y7550000D02*
X25495000Y7550000D01*
X25445000Y2475000D02*
X25445000Y2475000D01*
X26370000Y31210001D02*
X26370000Y40080000D01*
X29880000Y48878630D02*
X29890000Y48868630D01*
X29880000Y50010000D02*
X29880000Y48878630D01*
X29890000Y48868630D02*
X29890000Y48410000D01*
X29890000Y48410000D02*
X26490000Y45010000D01*
D21*
G36*
X59340125Y52330110D02*
G01*
X59349876Y709449D01*
X659751Y660549D01*
X647282Y33701184D01*
X1445000Y33701184D01*
X1445000Y33398816D01*
X1503989Y33102257D01*
X1619701Y32822905D01*
X1787688Y32571495D01*
X1845001Y32514182D01*
X1845000Y19485817D01*
X1787688Y19428505D01*
X1619701Y19177095D01*
X1503989Y18897743D01*
X1445000Y18601184D01*
X1445000Y18298816D01*
X1503989Y18002257D01*
X1619701Y17722905D01*
X1787688Y17471495D01*
X1845000Y17414183D01*
X1845000Y17232959D01*
X1839509Y17177208D01*
X1845000Y17121457D01*
X1861423Y16954710D01*
X1926324Y16740762D01*
X2031716Y16543585D01*
X2173551Y16370759D01*
X2216865Y16335212D01*
X9334113Y9217963D01*
X9369655Y9174655D01*
X9412960Y9139116D01*
X9412965Y9139112D01*
X14305221Y4246854D01*
X14340759Y4203551D01*
X14384062Y4168013D01*
X14384064Y4168011D01*
X14513585Y4061716D01*
X14710761Y3956324D01*
X14924709Y3891423D01*
X15147208Y3869509D01*
X15202960Y3875000D01*
X18684183Y3875000D01*
X18741495Y3817688D01*
X18992905Y3649701D01*
X19272257Y3533989D01*
X19568816Y3475000D01*
X19871184Y3475000D01*
X20167743Y3533989D01*
X20447095Y3649701D01*
X20698505Y3817688D01*
X20705817Y3825000D01*
X35184183Y3825000D01*
X35241495Y3767688D01*
X35477491Y3610000D01*
X25389248Y3610000D01*
X25222501Y3593577D01*
X25008553Y3528676D01*
X24811377Y3423284D01*
X24638551Y3281449D01*
X24496716Y3108623D01*
X24391324Y2911447D01*
X24326423Y2697499D01*
X24304509Y2475000D01*
X24326423Y2252501D01*
X24391324Y2038553D01*
X24496716Y1841377D01*
X24638551Y1668551D01*
X24811377Y1526716D01*
X25008553Y1421324D01*
X25222501Y1356423D01*
X25389248Y1340000D01*
X39939249Y1340000D01*
X39995000Y1334509D01*
X40050751Y1340000D01*
X40050752Y1340000D01*
X40217499Y1356423D01*
X40431447Y1421324D01*
X40628623Y1526716D01*
X40801449Y1668551D01*
X40836996Y1711865D01*
X55683141Y16558009D01*
X55726449Y16593551D01*
X55868284Y16766377D01*
X55973676Y16963553D01*
X56038577Y17177501D01*
X56055000Y17344248D01*
X56055000Y17344257D01*
X56060490Y17399999D01*
X56055000Y17455741D01*
X56055000Y17807713D01*
X56064180Y17810498D01*
X56174494Y17869463D01*
X56271185Y17948815D01*
X56350537Y18045506D01*
X56409502Y18155820D01*
X56445812Y18275518D01*
X56458072Y18400000D01*
X56458072Y20200000D01*
X56445812Y20324482D01*
X56409502Y20444180D01*
X56350537Y20554494D01*
X56271185Y20651185D01*
X56174494Y20730537D01*
X56064180Y20789502D01*
X56055000Y20792287D01*
X56055000Y29844248D01*
X56060491Y29900000D01*
X56055000Y29955752D01*
X56055000Y32107713D01*
X56064180Y32110498D01*
X56174494Y32169463D01*
X56271185Y32248815D01*
X56350537Y32345506D01*
X56409502Y32455820D01*
X56445812Y32575518D01*
X56458072Y32700000D01*
X56458072Y34500000D01*
X56445812Y34624482D01*
X56409502Y34744180D01*
X56350537Y34854494D01*
X56271185Y34951185D01*
X56174494Y35030537D01*
X56064180Y35089502D01*
X56055000Y35092287D01*
X56055000Y35444259D01*
X56060490Y35500001D01*
X56055000Y35555743D01*
X56055000Y35555752D01*
X56038577Y35722499D01*
X55973676Y35936447D01*
X55868284Y36133623D01*
X55726449Y36306449D01*
X55683141Y36341991D01*
X46361996Y45663135D01*
X46326449Y45706449D01*
X46153623Y45848284D01*
X45956447Y45953676D01*
X45742499Y46018577D01*
X45575752Y46035000D01*
X45575751Y46035000D01*
X45520000Y46040491D01*
X45464249Y46035000D01*
X37512287Y46035000D01*
X37509502Y46044180D01*
X37450537Y46154494D01*
X37371185Y46251185D01*
X37274494Y46330537D01*
X37164180Y46389502D01*
X37044482Y46425812D01*
X36920000Y46438072D01*
X35120000Y46438072D01*
X34995518Y46425812D01*
X34875820Y46389502D01*
X34765506Y46330537D01*
X34668815Y46251185D01*
X34589463Y46154494D01*
X34530498Y46044180D01*
X34494188Y45924482D01*
X34481928Y45800000D01*
X34481928Y44000000D01*
X34494188Y43875518D01*
X34530498Y43755820D01*
X34589463Y43645506D01*
X34668815Y43548815D01*
X34734389Y43495000D01*
X31236993Y43495000D01*
X31210537Y43544494D01*
X31131185Y43641185D01*
X31034494Y43720537D01*
X30924180Y43779502D01*
X30804482Y43815812D01*
X30680000Y43828072D01*
X29080000Y43828072D01*
X28955518Y43815812D01*
X28835820Y43779502D01*
X28725506Y43720537D01*
X28628815Y43641185D01*
X28549463Y43544494D01*
X28523007Y43495000D01*
X21255611Y43495000D01*
X21321185Y43548815D01*
X21400537Y43645506D01*
X21459502Y43755820D01*
X21495812Y43875518D01*
X21508072Y44000000D01*
X21508072Y45800000D01*
X21495812Y45924482D01*
X21459502Y46044180D01*
X21400537Y46154494D01*
X21321185Y46251185D01*
X21224494Y46330537D01*
X21114180Y46389502D01*
X20994482Y46425812D01*
X20870000Y46438072D01*
X19070000Y46438072D01*
X18945518Y46425812D01*
X18825820Y46389502D01*
X18715506Y46330537D01*
X18618815Y46251185D01*
X18539463Y46154494D01*
X18480498Y46044180D01*
X18477713Y46035000D01*
X15025752Y46035000D01*
X14970000Y46040491D01*
X14914248Y46035000D01*
X14747501Y46018577D01*
X14533553Y45953676D01*
X14336377Y45848284D01*
X14163551Y45706449D01*
X14128009Y45663141D01*
X10419360Y41954491D01*
X10376052Y41918949D01*
X10340514Y41875646D01*
X4756865Y36291996D01*
X4713551Y36256449D01*
X4571716Y36083623D01*
X4466325Y35886447D01*
X4466324Y35886446D01*
X4401423Y35672498D01*
X4379509Y35450000D01*
X4385000Y35394248D01*
X4385000Y35042287D01*
X4375820Y35039502D01*
X4265506Y34980537D01*
X4168815Y34901185D01*
X4089463Y34804494D01*
X4030498Y34694180D01*
X4024944Y34675873D01*
X3958505Y34742312D01*
X3707095Y34910299D01*
X3427743Y35026011D01*
X3131184Y35085000D01*
X2828816Y35085000D01*
X2532257Y35026011D01*
X2252905Y34910299D01*
X2001495Y34742312D01*
X1787688Y34528505D01*
X1619701Y34277095D01*
X1503989Y33997743D01*
X1445000Y33701184D01*
X647282Y33701184D01*
X641259Y49660960D01*
X28488091Y49660960D01*
X28582930Y49396119D01*
X28727615Y49154869D01*
X28916586Y48946481D01*
X29142580Y48778963D01*
X29396913Y48658754D01*
X29530961Y48618096D01*
X29753000Y48740085D01*
X29753000Y49883000D01*
X30007000Y49883000D01*
X30007000Y48740085D01*
X30229039Y48618096D01*
X30363087Y48658754D01*
X30617420Y48778963D01*
X30843414Y48946481D01*
X31032385Y49154869D01*
X31177070Y49396119D01*
X31271909Y49660960D01*
X31150624Y49883000D01*
X30007000Y49883000D01*
X29753000Y49883000D01*
X28609376Y49883000D01*
X28488091Y49660960D01*
X641259Y49660960D01*
X640996Y50359040D01*
X28488091Y50359040D01*
X28609376Y50137000D01*
X29753000Y50137000D01*
X29753000Y51279915D01*
X30007000Y51279915D01*
X30007000Y50137000D01*
X31150624Y50137000D01*
X31271909Y50359040D01*
X31177070Y50623881D01*
X31032385Y50865131D01*
X30843414Y51073519D01*
X30617420Y51241037D01*
X30363087Y51361246D01*
X30229039Y51401904D01*
X30007000Y51279915D01*
X29753000Y51279915D01*
X29530961Y51401904D01*
X29396913Y51361246D01*
X29142580Y51241037D01*
X28916586Y51073519D01*
X28727615Y50865131D01*
X28582930Y50623881D01*
X28488091Y50359040D01*
X640996Y50359040D01*
X640248Y52339891D01*
X59340125Y52330110D01*
X59340125Y52330110D01*
G37*
X59340125Y52330110D02*
X59349876Y709449D01*
X659751Y660549D01*
X647282Y33701184D01*
X1445000Y33701184D01*
X1445000Y33398816D01*
X1503989Y33102257D01*
X1619701Y32822905D01*
X1787688Y32571495D01*
X1845001Y32514182D01*
X1845000Y19485817D01*
X1787688Y19428505D01*
X1619701Y19177095D01*
X1503989Y18897743D01*
X1445000Y18601184D01*
X1445000Y18298816D01*
X1503989Y18002257D01*
X1619701Y17722905D01*
X1787688Y17471495D01*
X1845000Y17414183D01*
X1845000Y17232959D01*
X1839509Y17177208D01*
X1845000Y17121457D01*
X1861423Y16954710D01*
X1926324Y16740762D01*
X2031716Y16543585D01*
X2173551Y16370759D01*
X2216865Y16335212D01*
X9334113Y9217963D01*
X9369655Y9174655D01*
X9412960Y9139116D01*
X9412965Y9139112D01*
X14305221Y4246854D01*
X14340759Y4203551D01*
X14384062Y4168013D01*
X14384064Y4168011D01*
X14513585Y4061716D01*
X14710761Y3956324D01*
X14924709Y3891423D01*
X15147208Y3869509D01*
X15202960Y3875000D01*
X18684183Y3875000D01*
X18741495Y3817688D01*
X18992905Y3649701D01*
X19272257Y3533989D01*
X19568816Y3475000D01*
X19871184Y3475000D01*
X20167743Y3533989D01*
X20447095Y3649701D01*
X20698505Y3817688D01*
X20705817Y3825000D01*
X35184183Y3825000D01*
X35241495Y3767688D01*
X35477491Y3610000D01*
X25389248Y3610000D01*
X25222501Y3593577D01*
X25008553Y3528676D01*
X24811377Y3423284D01*
X24638551Y3281449D01*
X24496716Y3108623D01*
X24391324Y2911447D01*
X24326423Y2697499D01*
X24304509Y2475000D01*
X24326423Y2252501D01*
X24391324Y2038553D01*
X24496716Y1841377D01*
X24638551Y1668551D01*
X24811377Y1526716D01*
X25008553Y1421324D01*
X25222501Y1356423D01*
X25389248Y1340000D01*
X39939249Y1340000D01*
X39995000Y1334509D01*
X40050751Y1340000D01*
X40050752Y1340000D01*
X40217499Y1356423D01*
X40431447Y1421324D01*
X40628623Y1526716D01*
X40801449Y1668551D01*
X40836996Y1711865D01*
X55683141Y16558009D01*
X55726449Y16593551D01*
X55868284Y16766377D01*
X55973676Y16963553D01*
X56038577Y17177501D01*
X56055000Y17344248D01*
X56055000Y17344257D01*
X56060490Y17399999D01*
X56055000Y17455741D01*
X56055000Y17807713D01*
X56064180Y17810498D01*
X56174494Y17869463D01*
X56271185Y17948815D01*
X56350537Y18045506D01*
X56409502Y18155820D01*
X56445812Y18275518D01*
X56458072Y18400000D01*
X56458072Y20200000D01*
X56445812Y20324482D01*
X56409502Y20444180D01*
X56350537Y20554494D01*
X56271185Y20651185D01*
X56174494Y20730537D01*
X56064180Y20789502D01*
X56055000Y20792287D01*
X56055000Y29844248D01*
X56060491Y29900000D01*
X56055000Y29955752D01*
X56055000Y32107713D01*
X56064180Y32110498D01*
X56174494Y32169463D01*
X56271185Y32248815D01*
X56350537Y32345506D01*
X56409502Y32455820D01*
X56445812Y32575518D01*
X56458072Y32700000D01*
X56458072Y34500000D01*
X56445812Y34624482D01*
X56409502Y34744180D01*
X56350537Y34854494D01*
X56271185Y34951185D01*
X56174494Y35030537D01*
X56064180Y35089502D01*
X56055000Y35092287D01*
X56055000Y35444259D01*
X56060490Y35500001D01*
X56055000Y35555743D01*
X56055000Y35555752D01*
X56038577Y35722499D01*
X55973676Y35936447D01*
X55868284Y36133623D01*
X55726449Y36306449D01*
X55683141Y36341991D01*
X46361996Y45663135D01*
X46326449Y45706449D01*
X46153623Y45848284D01*
X45956447Y45953676D01*
X45742499Y46018577D01*
X45575752Y46035000D01*
X45575751Y46035000D01*
X45520000Y46040491D01*
X45464249Y46035000D01*
X37512287Y46035000D01*
X37509502Y46044180D01*
X37450537Y46154494D01*
X37371185Y46251185D01*
X37274494Y46330537D01*
X37164180Y46389502D01*
X37044482Y46425812D01*
X36920000Y46438072D01*
X35120000Y46438072D01*
X34995518Y46425812D01*
X34875820Y46389502D01*
X34765506Y46330537D01*
X34668815Y46251185D01*
X34589463Y46154494D01*
X34530498Y46044180D01*
X34494188Y45924482D01*
X34481928Y45800000D01*
X34481928Y44000000D01*
X34494188Y43875518D01*
X34530498Y43755820D01*
X34589463Y43645506D01*
X34668815Y43548815D01*
X34734389Y43495000D01*
X31236993Y43495000D01*
X31210537Y43544494D01*
X31131185Y43641185D01*
X31034494Y43720537D01*
X30924180Y43779502D01*
X30804482Y43815812D01*
X30680000Y43828072D01*
X29080000Y43828072D01*
X28955518Y43815812D01*
X28835820Y43779502D01*
X28725506Y43720537D01*
X28628815Y43641185D01*
X28549463Y43544494D01*
X28523007Y43495000D01*
X21255611Y43495000D01*
X21321185Y43548815D01*
X21400537Y43645506D01*
X21459502Y43755820D01*
X21495812Y43875518D01*
X21508072Y44000000D01*
X21508072Y45800000D01*
X21495812Y45924482D01*
X21459502Y46044180D01*
X21400537Y46154494D01*
X21321185Y46251185D01*
X21224494Y46330537D01*
X21114180Y46389502D01*
X20994482Y46425812D01*
X20870000Y46438072D01*
X19070000Y46438072D01*
X18945518Y46425812D01*
X18825820Y46389502D01*
X18715506Y46330537D01*
X18618815Y46251185D01*
X18539463Y46154494D01*
X18480498Y46044180D01*
X18477713Y46035000D01*
X15025752Y46035000D01*
X14970000Y46040491D01*
X14914248Y46035000D01*
X14747501Y46018577D01*
X14533553Y45953676D01*
X14336377Y45848284D01*
X14163551Y45706449D01*
X14128009Y45663141D01*
X10419360Y41954491D01*
X10376052Y41918949D01*
X10340514Y41875646D01*
X4756865Y36291996D01*
X4713551Y36256449D01*
X4571716Y36083623D01*
X4466325Y35886447D01*
X4466324Y35886446D01*
X4401423Y35672498D01*
X4379509Y35450000D01*
X4385000Y35394248D01*
X4385000Y35042287D01*
X4375820Y35039502D01*
X4265506Y34980537D01*
X4168815Y34901185D01*
X4089463Y34804494D01*
X4030498Y34694180D01*
X4024944Y34675873D01*
X3958505Y34742312D01*
X3707095Y34910299D01*
X3427743Y35026011D01*
X3131184Y35085000D01*
X2828816Y35085000D01*
X2532257Y35026011D01*
X2252905Y34910299D01*
X2001495Y34742312D01*
X1787688Y34528505D01*
X1619701Y34277095D01*
X1503989Y33997743D01*
X1445000Y33701184D01*
X647282Y33701184D01*
X641259Y49660960D01*
X28488091Y49660960D01*
X28582930Y49396119D01*
X28727615Y49154869D01*
X28916586Y48946481D01*
X29142580Y48778963D01*
X29396913Y48658754D01*
X29530961Y48618096D01*
X29753000Y48740085D01*
X29753000Y49883000D01*
X30007000Y49883000D01*
X30007000Y48740085D01*
X30229039Y48618096D01*
X30363087Y48658754D01*
X30617420Y48778963D01*
X30843414Y48946481D01*
X31032385Y49154869D01*
X31177070Y49396119D01*
X31271909Y49660960D01*
X31150624Y49883000D01*
X30007000Y49883000D01*
X29753000Y49883000D01*
X28609376Y49883000D01*
X28488091Y49660960D01*
X641259Y49660960D01*
X640996Y50359040D01*
X28488091Y50359040D01*
X28609376Y50137000D01*
X29753000Y50137000D01*
X29753000Y51279915D01*
X30007000Y51279915D01*
X30007000Y50137000D01*
X31150624Y50137000D01*
X31271909Y50359040D01*
X31177070Y50623881D01*
X31032385Y50865131D01*
X30843414Y51073519D01*
X30617420Y51241037D01*
X30363087Y51361246D01*
X30229039Y51401904D01*
X30007000Y51279915D01*
X29753000Y51279915D01*
X29530961Y51401904D01*
X29396913Y51361246D01*
X29142580Y51241037D01*
X28916586Y51073519D01*
X28727615Y50865131D01*
X28582930Y50623881D01*
X28488091Y50359040D01*
X640996Y50359040D01*
X640248Y52339891D01*
X59340125Y52330110D01*
G36*
X18480498Y43755820D02*
G01*
X18539463Y43645506D01*
X18618815Y43548815D01*
X18715506Y43469463D01*
X18825820Y43410498D01*
X18844127Y43404944D01*
X18777688Y43338505D01*
X18609701Y43087095D01*
X18493989Y42807743D01*
X18435000Y42511184D01*
X18435000Y42208816D01*
X18493989Y41912257D01*
X18609701Y41632905D01*
X18777688Y41381495D01*
X18991495Y41167688D01*
X19242905Y40999701D01*
X19522257Y40883989D01*
X19818816Y40825000D01*
X20121184Y40825000D01*
X20417743Y40883989D01*
X20697095Y40999701D01*
X20948505Y41167688D01*
X21005817Y41225000D01*
X28558085Y41225000D01*
X28628815Y41138815D01*
X28725506Y41059463D01*
X28735001Y41054388D01*
X28735000Y38744249D01*
X28735001Y38744239D01*
X28735000Y33492888D01*
X28726614Y33488405D01*
X28592038Y33377962D01*
X28481595Y33243386D01*
X28399528Y33089850D01*
X28348992Y32923254D01*
X28331928Y32750000D01*
X28331928Y29650000D01*
X28348992Y29476746D01*
X28399528Y29310150D01*
X28481595Y29156614D01*
X28592038Y29022038D01*
X28726614Y28911595D01*
X28880150Y28829528D01*
X29046746Y28778992D01*
X29220000Y28761928D01*
X30520000Y28761928D01*
X30693254Y28778992D01*
X30859850Y28829528D01*
X31013386Y28911595D01*
X31147962Y29022038D01*
X31258405Y29156614D01*
X31340472Y29310150D01*
X31391008Y29476746D01*
X31408072Y29650000D01*
X31408072Y32750000D01*
X31391008Y32923254D01*
X31340472Y33089850D01*
X31258405Y33243386D01*
X31147962Y33377962D01*
X31013386Y33488405D01*
X31005000Y33492887D01*
X31005000Y41043698D01*
X31034494Y41059463D01*
X31131185Y41138815D01*
X31201915Y41225000D01*
X34984183Y41225000D01*
X35041495Y41167688D01*
X35292905Y40999701D01*
X35572257Y40883989D01*
X35868816Y40825000D01*
X35889869Y40825000D01*
X39578013Y37136854D01*
X39613551Y37093551D01*
X39656854Y37058013D01*
X39656856Y37058011D01*
X39786377Y36951716D01*
X39983553Y36846324D01*
X40197501Y36781423D01*
X40420000Y36759509D01*
X40475752Y36765000D01*
X47649869Y36765000D01*
X50579867Y33835001D01*
X49189249Y33835001D01*
X49022502Y33818578D01*
X48808554Y33753677D01*
X48611378Y33648285D01*
X48438552Y33506450D01*
X48296717Y33333624D01*
X48191325Y33136448D01*
X48126424Y32922500D01*
X48104510Y32700001D01*
X48126424Y32477502D01*
X48191325Y32263554D01*
X48296717Y32066378D01*
X48438552Y31893552D01*
X48611378Y31751717D01*
X48808554Y31646325D01*
X49022502Y31581424D01*
X49189249Y31565001D01*
X51424250Y31565001D01*
X51480001Y31559510D01*
X51535752Y31565001D01*
X51535753Y31565001D01*
X51702500Y31581424D01*
X51916448Y31646325D01*
X52113624Y31751717D01*
X52286450Y31893552D01*
X52321996Y31936865D01*
X52450131Y32065000D01*
X52531184Y32065000D01*
X52827743Y32123989D01*
X53107095Y32239701D01*
X53358505Y32407688D01*
X53424944Y32474127D01*
X53430498Y32455820D01*
X53489463Y32345506D01*
X53568815Y32248815D01*
X53665506Y32169463D01*
X53775820Y32110498D01*
X53785000Y32107713D01*
X53785001Y31035000D01*
X42325752Y31035000D01*
X42270000Y31040491D01*
X42214248Y31035000D01*
X42047501Y31018577D01*
X41833553Y30953676D01*
X41636377Y30848284D01*
X41463551Y30706449D01*
X41428009Y30663141D01*
X36799869Y26035000D01*
X20190132Y26035000D01*
X13605000Y32620131D01*
X13605000Y34015716D01*
X13741680Y34220273D01*
X13849853Y34481426D01*
X13905000Y34758665D01*
X13905000Y35041335D01*
X13849853Y35318574D01*
X13741680Y35579727D01*
X13584637Y35814759D01*
X13384759Y36014637D01*
X13149727Y36171680D01*
X12888574Y36279853D01*
X12611335Y36335000D01*
X12328665Y36335000D01*
X12051426Y36279853D01*
X11790273Y36171680D01*
X11555241Y36014637D01*
X11355363Y35814759D01*
X11198320Y35579727D01*
X11090147Y35318574D01*
X11035000Y35041335D01*
X11035000Y34758665D01*
X11090147Y34481426D01*
X11198320Y34220273D01*
X11335000Y34015716D01*
X11335001Y32205761D01*
X11329509Y32150000D01*
X11351423Y31927502D01*
X11416324Y31713554D01*
X11442276Y31665001D01*
X11521717Y31516377D01*
X11663552Y31343551D01*
X11706860Y31308009D01*
X18878009Y24136859D01*
X18913551Y24093551D01*
X19086377Y23951716D01*
X19283553Y23846324D01*
X19497501Y23781423D01*
X19664248Y23765000D01*
X19664257Y23765000D01*
X19719999Y23759510D01*
X19775741Y23765000D01*
X37214249Y23765000D01*
X37270000Y23759509D01*
X37325751Y23765000D01*
X37325752Y23765000D01*
X37492499Y23781423D01*
X37706447Y23846324D01*
X37903623Y23951716D01*
X38076449Y24093551D01*
X38111996Y24136865D01*
X42740132Y28765000D01*
X53785000Y28765000D01*
X53785001Y20792287D01*
X53775820Y20789502D01*
X53665506Y20730537D01*
X53568815Y20651185D01*
X53515000Y20585611D01*
X53515000Y24009248D01*
X53520491Y24065000D01*
X53498577Y24287499D01*
X53433676Y24501447D01*
X53328284Y24698623D01*
X53221989Y24828144D01*
X53221987Y24828146D01*
X53186449Y24871449D01*
X53143146Y24906987D01*
X50086996Y27963135D01*
X50051449Y28006449D01*
X49878623Y28148284D01*
X49681447Y28253676D01*
X49467499Y28318577D01*
X49300752Y28335000D01*
X49300751Y28335000D01*
X49245000Y28340491D01*
X49189249Y28335000D01*
X49189248Y28335000D01*
X49022501Y28318577D01*
X48808553Y28253676D01*
X48611377Y28148284D01*
X48438551Y28006449D01*
X48296716Y27833623D01*
X48191324Y27636447D01*
X48126423Y27422499D01*
X48104509Y27200000D01*
X48126423Y26977501D01*
X48191324Y26763553D01*
X48296716Y26566377D01*
X48438551Y26393551D01*
X48481865Y26358004D01*
X51245001Y23594866D01*
X51245000Y20335817D01*
X51187688Y20278505D01*
X51019701Y20027095D01*
X50903989Y19747743D01*
X50845000Y19451184D01*
X50845000Y19148816D01*
X50903989Y18852257D01*
X51019701Y18572905D01*
X51187688Y18321495D01*
X51235000Y18274183D01*
X51235000Y18020132D01*
X47049869Y13835000D01*
X44854284Y13835000D01*
X44649727Y13971680D01*
X44388574Y14079853D01*
X44111335Y14135000D01*
X43828665Y14135000D01*
X43680700Y14105568D01*
X43740133Y14165000D01*
X46714249Y14165000D01*
X46770000Y14159509D01*
X46825751Y14165000D01*
X46825752Y14165000D01*
X46992499Y14181423D01*
X47206447Y14246324D01*
X47403623Y14351716D01*
X47576449Y14493551D01*
X47611996Y14536864D01*
X48633140Y15558008D01*
X48676449Y15593551D01*
X48818284Y15766377D01*
X48923676Y15963553D01*
X48988577Y16177501D01*
X49005000Y16344248D01*
X49005000Y16344249D01*
X49010491Y16400000D01*
X49005000Y16455751D01*
X49005000Y21144248D01*
X49010491Y21200000D01*
X48988577Y21422499D01*
X48923676Y21636447D01*
X48818284Y21833623D01*
X48711989Y21963144D01*
X48711987Y21963146D01*
X48676449Y22006449D01*
X48633146Y22041987D01*
X47411985Y23263146D01*
X47376448Y23306448D01*
X47333145Y23341986D01*
X47333143Y23341988D01*
X47203622Y23448283D01*
X47006446Y23553676D01*
X46792498Y23618577D01*
X46570000Y23640491D01*
X46569999Y23640491D01*
X46555000Y23639014D01*
X46555000Y25525998D01*
X46618932Y25603899D01*
X46752182Y25853192D01*
X46834236Y26123691D01*
X46861943Y26405000D01*
X46834236Y26686309D01*
X46752182Y26956808D01*
X46618932Y27206101D01*
X46439608Y27424608D01*
X46221101Y27603932D01*
X45971808Y27737182D01*
X45701309Y27819236D01*
X45490492Y27840000D01*
X45349508Y27840000D01*
X45138691Y27819236D01*
X44868192Y27737182D01*
X44618899Y27603932D01*
X44400392Y27424608D01*
X44221068Y27206101D01*
X44087818Y26956808D01*
X44005764Y26686309D01*
X43978057Y26405000D01*
X44005764Y26123691D01*
X44087818Y25853192D01*
X44221068Y25603899D01*
X44285000Y25525997D01*
X44285001Y23339917D01*
X44142629Y23126843D01*
X44038225Y22874789D01*
X43985000Y22607211D01*
X43985000Y22334389D01*
X44038225Y22066811D01*
X44142629Y21814757D01*
X44294201Y21587914D01*
X44487114Y21395001D01*
X44713957Y21243429D01*
X44816873Y21200800D01*
X44713957Y21158171D01*
X44529619Y21035000D01*
X37254284Y21035000D01*
X37049727Y21171680D01*
X36788574Y21279853D01*
X36511335Y21335000D01*
X36228665Y21335000D01*
X35951426Y21279853D01*
X35690273Y21171680D01*
X35455241Y21014637D01*
X35255363Y20814759D01*
X35098320Y20579727D01*
X34990147Y20318574D01*
X34935000Y20041335D01*
X34935000Y19758665D01*
X34990147Y19481426D01*
X35098320Y19220273D01*
X35235000Y19015716D01*
X35235001Y13603374D01*
X35151068Y13501101D01*
X35017818Y13251808D01*
X34935764Y12981309D01*
X34908057Y12700000D01*
X34935764Y12418691D01*
X35017818Y12148192D01*
X35151068Y11898899D01*
X35330392Y11680392D01*
X35548899Y11501068D01*
X35798192Y11367818D01*
X36068691Y11285764D01*
X36279508Y11265000D01*
X36420492Y11265000D01*
X36631309Y11285764D01*
X36901808Y11367818D01*
X37151101Y11501068D01*
X37369608Y11680392D01*
X37548932Y11898899D01*
X37682182Y12148192D01*
X37764236Y12418691D01*
X37791943Y12700000D01*
X37764236Y12981309D01*
X37682182Y13251808D01*
X37548932Y13501101D01*
X37505000Y13554632D01*
X37505000Y18765000D01*
X44490204Y18765000D01*
X44375820Y18730302D01*
X44265506Y18671337D01*
X44168815Y18591985D01*
X44089463Y18495294D01*
X44030498Y18384980D01*
X43994188Y18265282D01*
X43981928Y18140800D01*
X43985000Y17676550D01*
X44143750Y17517800D01*
X45243000Y17517800D01*
X45243000Y17537800D01*
X45497000Y17537800D01*
X45497000Y17517800D01*
X45517000Y17517800D01*
X45517000Y17263800D01*
X45497000Y17263800D01*
X45497000Y17243800D01*
X45243000Y17243800D01*
X45243000Y17263800D01*
X44143750Y17263800D01*
X43985000Y17105050D01*
X43981928Y16640800D01*
X43994188Y16516318D01*
X44018856Y16435000D01*
X43325752Y16435000D01*
X43270000Y16440491D01*
X43047501Y16418577D01*
X42833553Y16353676D01*
X42636377Y16248284D01*
X42506856Y16141989D01*
X42506854Y16141987D01*
X42463551Y16106449D01*
X42428013Y16063146D01*
X37299869Y10935000D01*
X32640133Y10935000D01*
X25012226Y18562905D01*
X25024494Y18569463D01*
X25121185Y18648815D01*
X25200537Y18745506D01*
X25259502Y18855820D01*
X25295812Y18975518D01*
X25308072Y19100000D01*
X25308072Y20700000D01*
X25295812Y20824482D01*
X25259502Y20944180D01*
X25200537Y21054494D01*
X25121185Y21151185D01*
X25024494Y21230537D01*
X24914180Y21289502D01*
X24794482Y21325812D01*
X24693069Y21335800D01*
X28029069Y21335800D01*
X30228009Y19136859D01*
X30263551Y19093551D01*
X30436377Y18951716D01*
X30633553Y18846324D01*
X30797705Y18796529D01*
X30847500Y18781423D01*
X30868493Y18779356D01*
X31014248Y18765000D01*
X31014255Y18765000D01*
X31069999Y18759510D01*
X31125743Y18765000D01*
X31529043Y18765000D01*
X31539463Y18745506D01*
X31618815Y18648815D01*
X31715506Y18569463D01*
X31825820Y18510498D01*
X31945518Y18474188D01*
X32070000Y18461928D01*
X33670000Y18461928D01*
X33794482Y18474188D01*
X33914180Y18510498D01*
X34024494Y18569463D01*
X34121185Y18648815D01*
X34200537Y18745506D01*
X34259502Y18855820D01*
X34295812Y18975518D01*
X34308072Y19100000D01*
X34308072Y20700000D01*
X34295812Y20824482D01*
X34259502Y20944180D01*
X34200537Y21054494D01*
X34121185Y21151185D01*
X34024494Y21230537D01*
X33914180Y21289502D01*
X33794482Y21325812D01*
X33670000Y21338072D01*
X32070000Y21338072D01*
X31945518Y21325812D01*
X31825820Y21289502D01*
X31715506Y21230537D01*
X31618815Y21151185D01*
X31539463Y21054494D01*
X31532906Y21042226D01*
X29341196Y23233935D01*
X29305649Y23277249D01*
X29132823Y23419084D01*
X28935647Y23524476D01*
X28721699Y23589377D01*
X28554952Y23605800D01*
X28554951Y23605800D01*
X28499200Y23611291D01*
X28443449Y23605800D01*
X13605000Y23605800D01*
X13605000Y26400998D01*
X13668932Y26478899D01*
X13802182Y26728192D01*
X13884236Y26998691D01*
X13911943Y27280000D01*
X13884236Y27561309D01*
X13802182Y27831808D01*
X13668932Y28081101D01*
X13489608Y28299608D01*
X13271101Y28478932D01*
X13021808Y28612182D01*
X12751309Y28694236D01*
X12540492Y28715000D01*
X12399508Y28715000D01*
X12188691Y28694236D01*
X11918192Y28612182D01*
X11668899Y28478932D01*
X11450392Y28299608D01*
X11271068Y28081101D01*
X11137818Y27831808D01*
X11055764Y27561309D01*
X11028057Y27280000D01*
X11055764Y26998691D01*
X11137818Y26728192D01*
X11271068Y26478899D01*
X11335000Y26400997D01*
X11335001Y23268978D01*
X11240029Y23126843D01*
X11135625Y22874789D01*
X11082400Y22607211D01*
X11082400Y22334389D01*
X11135625Y22066811D01*
X11240029Y21814757D01*
X11391601Y21587914D01*
X11584514Y21395001D01*
X11811357Y21243429D01*
X11914273Y21200800D01*
X11811357Y21158171D01*
X11584514Y21006599D01*
X11391601Y20813686D01*
X11240029Y20586843D01*
X11135625Y20334789D01*
X11082400Y20067211D01*
X11082400Y19794389D01*
X11135625Y19526811D01*
X11240029Y19274757D01*
X11391601Y19047914D01*
X11584514Y18855001D01*
X11700883Y18777245D01*
X11592918Y18766612D01*
X11473220Y18730302D01*
X11362906Y18671337D01*
X11266215Y18591985D01*
X11186863Y18495294D01*
X11127898Y18384980D01*
X11091588Y18265282D01*
X11079328Y18140800D01*
X11082400Y17676550D01*
X11241150Y17517800D01*
X12340400Y17517800D01*
X12340400Y17537800D01*
X12594400Y17537800D01*
X12594400Y17517800D01*
X13693650Y17517800D01*
X13852400Y17676550D01*
X13855472Y18140800D01*
X13843212Y18265282D01*
X13806902Y18384980D01*
X13747937Y18495294D01*
X13668585Y18591985D01*
X13571894Y18671337D01*
X13461580Y18730302D01*
X13347196Y18765000D01*
X19235000Y18765000D01*
X19235001Y13554633D01*
X19191068Y13501101D01*
X19057818Y13251808D01*
X18975764Y12981309D01*
X18948057Y12700000D01*
X18975764Y12418691D01*
X19057818Y12148192D01*
X19191068Y11898899D01*
X19370392Y11680392D01*
X19588899Y11501068D01*
X19838192Y11367818D01*
X20108691Y11285764D01*
X20319508Y11265000D01*
X20460492Y11265000D01*
X20671309Y11285764D01*
X20941808Y11367818D01*
X21191101Y11501068D01*
X21409608Y11680392D01*
X21588932Y11898899D01*
X21722182Y12148192D01*
X21804236Y12418691D01*
X21831943Y12700000D01*
X21804236Y12981309D01*
X21722182Y13251808D01*
X21588932Y13501101D01*
X21505000Y13603372D01*
X21505000Y19015716D01*
X21641680Y19220273D01*
X21749853Y19481426D01*
X21805000Y19758665D01*
X21805000Y20041335D01*
X21749853Y20318574D01*
X21641680Y20579727D01*
X21484637Y20814759D01*
X21284759Y21014637D01*
X21049727Y21171680D01*
X20788574Y21279853D01*
X20511335Y21335000D01*
X20228665Y21335000D01*
X19951426Y21279853D01*
X19690273Y21171680D01*
X19485716Y21035000D01*
X17639893Y21035000D01*
X17592499Y21049377D01*
X17425752Y21065800D01*
X13261686Y21065800D01*
X13123443Y21158171D01*
X13020527Y21200800D01*
X13123443Y21243429D01*
X13261686Y21335800D01*
X23046931Y21335800D01*
X22945518Y21325812D01*
X22825820Y21289502D01*
X22715506Y21230537D01*
X22618815Y21151185D01*
X22539463Y21054494D01*
X22480498Y20944180D01*
X22444188Y20824482D01*
X22431928Y20700000D01*
X22431928Y19100000D01*
X22444188Y18975518D01*
X22480498Y18855820D01*
X22539463Y18745506D01*
X22618815Y18648815D01*
X22715506Y18569463D01*
X22735000Y18559043D01*
X22735000Y18155751D01*
X22729509Y18100000D01*
X22751423Y17877502D01*
X22816324Y17663554D01*
X22827016Y17643551D01*
X22921717Y17466377D01*
X23063552Y17293551D01*
X23106860Y17258009D01*
X31328013Y9036854D01*
X31363551Y8993551D01*
X31406854Y8958013D01*
X31406856Y8958011D01*
X31536377Y8851716D01*
X31733553Y8746324D01*
X31947501Y8681423D01*
X32170000Y8659509D01*
X32225752Y8665000D01*
X34741627Y8665000D01*
X34730498Y8644180D01*
X34727713Y8635000D01*
X30740132Y8635000D01*
X28511996Y10863135D01*
X28476449Y10906449D01*
X28303623Y11048284D01*
X28106447Y11153676D01*
X27892499Y11218577D01*
X27725752Y11235000D01*
X27725751Y11235000D01*
X27670000Y11240491D01*
X27614249Y11235000D01*
X19740132Y11235000D01*
X15161996Y15813135D01*
X15126449Y15856449D01*
X14953623Y15998284D01*
X14756447Y16103676D01*
X14542499Y16168577D01*
X14375752Y16185000D01*
X14375751Y16185000D01*
X14320000Y16190491D01*
X14264249Y16185000D01*
X13662962Y16185000D01*
X13668585Y16189615D01*
X13747937Y16286306D01*
X13806902Y16396620D01*
X13843212Y16516318D01*
X13855472Y16640800D01*
X13852400Y17105050D01*
X13693650Y17263800D01*
X12594400Y17263800D01*
X12594400Y17243800D01*
X12340400Y17243800D01*
X12340400Y17263800D01*
X11241150Y17263800D01*
X11082400Y17105050D01*
X11079328Y16640800D01*
X11091588Y16516318D01*
X11127898Y16396620D01*
X11184609Y16290523D01*
X8261996Y19213135D01*
X8226449Y19256449D01*
X8053623Y19398284D01*
X7856447Y19503676D01*
X7642499Y19568577D01*
X7475752Y19585000D01*
X7475751Y19585000D01*
X7420000Y19590491D01*
X7364249Y19585000D01*
X7012287Y19585000D01*
X7009502Y19594180D01*
X6950537Y19704494D01*
X6871185Y19801185D01*
X6774494Y19880537D01*
X6664180Y19939502D01*
X6655000Y19942287D01*
X6655000Y32057713D01*
X6664180Y32060498D01*
X6774494Y32119463D01*
X6871185Y32198815D01*
X6950537Y32295506D01*
X7009502Y32405820D01*
X7045812Y32525518D01*
X7058072Y32650000D01*
X7058072Y34450000D01*
X7045812Y34574482D01*
X7009502Y34694180D01*
X6950537Y34804494D01*
X6871185Y34901185D01*
X6774494Y34980537D01*
X6697059Y35021928D01*
X10745000Y39069869D01*
X23128009Y26686859D01*
X23163551Y26643551D01*
X23336377Y26501716D01*
X23457721Y26436857D01*
X23533553Y26396324D01*
X23747501Y26331423D01*
X23970000Y26309509D01*
X24025751Y26315000D01*
X33164249Y26315000D01*
X33220000Y26309509D01*
X33275751Y26315000D01*
X33275752Y26315000D01*
X33442499Y26331423D01*
X33656447Y26396324D01*
X33853623Y26501716D01*
X34026449Y26643551D01*
X34061996Y26686865D01*
X40265132Y32890000D01*
X44535716Y32890000D01*
X44740273Y32753320D01*
X45001426Y32645147D01*
X45278665Y32590000D01*
X45561335Y32590000D01*
X45838574Y32645147D01*
X46099727Y32753320D01*
X46334759Y32910363D01*
X46534637Y33110241D01*
X46691680Y33345273D01*
X46799853Y33606426D01*
X46855000Y33883665D01*
X46855000Y34166335D01*
X46799853Y34443574D01*
X46691680Y34704727D01*
X46534637Y34939759D01*
X46334759Y35139637D01*
X46099727Y35296680D01*
X45838574Y35404853D01*
X45561335Y35460000D01*
X45278665Y35460000D01*
X45001426Y35404853D01*
X44740273Y35296680D01*
X44535716Y35160000D01*
X39850743Y35160000D01*
X39794999Y35165490D01*
X39739255Y35160000D01*
X39739248Y35160000D01*
X39593493Y35145644D01*
X39572500Y35143577D01*
X39522705Y35128471D01*
X39358553Y35078676D01*
X39161377Y34973284D01*
X38988551Y34831449D01*
X38953009Y34788141D01*
X32749869Y28585000D01*
X24440132Y28585000D01*
X21952132Y31073000D01*
X24835000Y31073000D01*
X24835000Y30173000D01*
X24889271Y29875977D01*
X25000446Y29595249D01*
X25164252Y29341604D01*
X25374394Y29124790D01*
X25622796Y28953138D01*
X25899913Y28833245D01*
X26005260Y28808964D01*
X26243000Y28929622D01*
X26243000Y31073000D01*
X26497000Y31073000D01*
X26497000Y28929622D01*
X26734740Y28808964D01*
X26840087Y28833245D01*
X27117204Y28953138D01*
X27365606Y29124790D01*
X27575748Y29341604D01*
X27739554Y29595249D01*
X27850729Y29875977D01*
X27905000Y30173000D01*
X27905000Y31073000D01*
X26497000Y31073000D01*
X26243000Y31073000D01*
X24835000Y31073000D01*
X21952132Y31073000D01*
X20798132Y32227000D01*
X24835000Y32227000D01*
X24835000Y31327000D01*
X26243000Y31327000D01*
X26243000Y33470378D01*
X26497000Y33470378D01*
X26497000Y31327000D01*
X27905000Y31327000D01*
X27905000Y32227000D01*
X27850729Y32524023D01*
X27739554Y32804751D01*
X27575748Y33058396D01*
X27365606Y33275210D01*
X27117204Y33446862D01*
X26840087Y33566755D01*
X26734740Y33591036D01*
X26497000Y33470378D01*
X26243000Y33470378D01*
X26005260Y33591036D01*
X25899913Y33566755D01*
X25622796Y33446862D01*
X25374394Y33275210D01*
X25164252Y33058396D01*
X25000446Y32804751D01*
X24889271Y32524023D01*
X24835000Y32227000D01*
X20798132Y32227000D01*
X12350131Y40675000D01*
X15440132Y43765000D01*
X18477713Y43765000D01*
X18480498Y43755820D01*
X18480498Y43755820D01*
G37*
X18480498Y43755820D02*
X18539463Y43645506D01*
X18618815Y43548815D01*
X18715506Y43469463D01*
X18825820Y43410498D01*
X18844127Y43404944D01*
X18777688Y43338505D01*
X18609701Y43087095D01*
X18493989Y42807743D01*
X18435000Y42511184D01*
X18435000Y42208816D01*
X18493989Y41912257D01*
X18609701Y41632905D01*
X18777688Y41381495D01*
X18991495Y41167688D01*
X19242905Y40999701D01*
X19522257Y40883989D01*
X19818816Y40825000D01*
X20121184Y40825000D01*
X20417743Y40883989D01*
X20697095Y40999701D01*
X20948505Y41167688D01*
X21005817Y41225000D01*
X28558085Y41225000D01*
X28628815Y41138815D01*
X28725506Y41059463D01*
X28735001Y41054388D01*
X28735000Y38744249D01*
X28735001Y38744239D01*
X28735000Y33492888D01*
X28726614Y33488405D01*
X28592038Y33377962D01*
X28481595Y33243386D01*
X28399528Y33089850D01*
X28348992Y32923254D01*
X28331928Y32750000D01*
X28331928Y29650000D01*
X28348992Y29476746D01*
X28399528Y29310150D01*
X28481595Y29156614D01*
X28592038Y29022038D01*
X28726614Y28911595D01*
X28880150Y28829528D01*
X29046746Y28778992D01*
X29220000Y28761928D01*
X30520000Y28761928D01*
X30693254Y28778992D01*
X30859850Y28829528D01*
X31013386Y28911595D01*
X31147962Y29022038D01*
X31258405Y29156614D01*
X31340472Y29310150D01*
X31391008Y29476746D01*
X31408072Y29650000D01*
X31408072Y32750000D01*
X31391008Y32923254D01*
X31340472Y33089850D01*
X31258405Y33243386D01*
X31147962Y33377962D01*
X31013386Y33488405D01*
X31005000Y33492887D01*
X31005000Y41043698D01*
X31034494Y41059463D01*
X31131185Y41138815D01*
X31201915Y41225000D01*
X34984183Y41225000D01*
X35041495Y41167688D01*
X35292905Y40999701D01*
X35572257Y40883989D01*
X35868816Y40825000D01*
X35889869Y40825000D01*
X39578013Y37136854D01*
X39613551Y37093551D01*
X39656854Y37058013D01*
X39656856Y37058011D01*
X39786377Y36951716D01*
X39983553Y36846324D01*
X40197501Y36781423D01*
X40420000Y36759509D01*
X40475752Y36765000D01*
X47649869Y36765000D01*
X50579867Y33835001D01*
X49189249Y33835001D01*
X49022502Y33818578D01*
X48808554Y33753677D01*
X48611378Y33648285D01*
X48438552Y33506450D01*
X48296717Y33333624D01*
X48191325Y33136448D01*
X48126424Y32922500D01*
X48104510Y32700001D01*
X48126424Y32477502D01*
X48191325Y32263554D01*
X48296717Y32066378D01*
X48438552Y31893552D01*
X48611378Y31751717D01*
X48808554Y31646325D01*
X49022502Y31581424D01*
X49189249Y31565001D01*
X51424250Y31565001D01*
X51480001Y31559510D01*
X51535752Y31565001D01*
X51535753Y31565001D01*
X51702500Y31581424D01*
X51916448Y31646325D01*
X52113624Y31751717D01*
X52286450Y31893552D01*
X52321996Y31936865D01*
X52450131Y32065000D01*
X52531184Y32065000D01*
X52827743Y32123989D01*
X53107095Y32239701D01*
X53358505Y32407688D01*
X53424944Y32474127D01*
X53430498Y32455820D01*
X53489463Y32345506D01*
X53568815Y32248815D01*
X53665506Y32169463D01*
X53775820Y32110498D01*
X53785000Y32107713D01*
X53785001Y31035000D01*
X42325752Y31035000D01*
X42270000Y31040491D01*
X42214248Y31035000D01*
X42047501Y31018577D01*
X41833553Y30953676D01*
X41636377Y30848284D01*
X41463551Y30706449D01*
X41428009Y30663141D01*
X36799869Y26035000D01*
X20190132Y26035000D01*
X13605000Y32620131D01*
X13605000Y34015716D01*
X13741680Y34220273D01*
X13849853Y34481426D01*
X13905000Y34758665D01*
X13905000Y35041335D01*
X13849853Y35318574D01*
X13741680Y35579727D01*
X13584637Y35814759D01*
X13384759Y36014637D01*
X13149727Y36171680D01*
X12888574Y36279853D01*
X12611335Y36335000D01*
X12328665Y36335000D01*
X12051426Y36279853D01*
X11790273Y36171680D01*
X11555241Y36014637D01*
X11355363Y35814759D01*
X11198320Y35579727D01*
X11090147Y35318574D01*
X11035000Y35041335D01*
X11035000Y34758665D01*
X11090147Y34481426D01*
X11198320Y34220273D01*
X11335000Y34015716D01*
X11335001Y32205761D01*
X11329509Y32150000D01*
X11351423Y31927502D01*
X11416324Y31713554D01*
X11442276Y31665001D01*
X11521717Y31516377D01*
X11663552Y31343551D01*
X11706860Y31308009D01*
X18878009Y24136859D01*
X18913551Y24093551D01*
X19086377Y23951716D01*
X19283553Y23846324D01*
X19497501Y23781423D01*
X19664248Y23765000D01*
X19664257Y23765000D01*
X19719999Y23759510D01*
X19775741Y23765000D01*
X37214249Y23765000D01*
X37270000Y23759509D01*
X37325751Y23765000D01*
X37325752Y23765000D01*
X37492499Y23781423D01*
X37706447Y23846324D01*
X37903623Y23951716D01*
X38076449Y24093551D01*
X38111996Y24136865D01*
X42740132Y28765000D01*
X53785000Y28765000D01*
X53785001Y20792287D01*
X53775820Y20789502D01*
X53665506Y20730537D01*
X53568815Y20651185D01*
X53515000Y20585611D01*
X53515000Y24009248D01*
X53520491Y24065000D01*
X53498577Y24287499D01*
X53433676Y24501447D01*
X53328284Y24698623D01*
X53221989Y24828144D01*
X53221987Y24828146D01*
X53186449Y24871449D01*
X53143146Y24906987D01*
X50086996Y27963135D01*
X50051449Y28006449D01*
X49878623Y28148284D01*
X49681447Y28253676D01*
X49467499Y28318577D01*
X49300752Y28335000D01*
X49300751Y28335000D01*
X49245000Y28340491D01*
X49189249Y28335000D01*
X49189248Y28335000D01*
X49022501Y28318577D01*
X48808553Y28253676D01*
X48611377Y28148284D01*
X48438551Y28006449D01*
X48296716Y27833623D01*
X48191324Y27636447D01*
X48126423Y27422499D01*
X48104509Y27200000D01*
X48126423Y26977501D01*
X48191324Y26763553D01*
X48296716Y26566377D01*
X48438551Y26393551D01*
X48481865Y26358004D01*
X51245001Y23594866D01*
X51245000Y20335817D01*
X51187688Y20278505D01*
X51019701Y20027095D01*
X50903989Y19747743D01*
X50845000Y19451184D01*
X50845000Y19148816D01*
X50903989Y18852257D01*
X51019701Y18572905D01*
X51187688Y18321495D01*
X51235000Y18274183D01*
X51235000Y18020132D01*
X47049869Y13835000D01*
X44854284Y13835000D01*
X44649727Y13971680D01*
X44388574Y14079853D01*
X44111335Y14135000D01*
X43828665Y14135000D01*
X43680700Y14105568D01*
X43740133Y14165000D01*
X46714249Y14165000D01*
X46770000Y14159509D01*
X46825751Y14165000D01*
X46825752Y14165000D01*
X46992499Y14181423D01*
X47206447Y14246324D01*
X47403623Y14351716D01*
X47576449Y14493551D01*
X47611996Y14536864D01*
X48633140Y15558008D01*
X48676449Y15593551D01*
X48818284Y15766377D01*
X48923676Y15963553D01*
X48988577Y16177501D01*
X49005000Y16344248D01*
X49005000Y16344249D01*
X49010491Y16400000D01*
X49005000Y16455751D01*
X49005000Y21144248D01*
X49010491Y21200000D01*
X48988577Y21422499D01*
X48923676Y21636447D01*
X48818284Y21833623D01*
X48711989Y21963144D01*
X48711987Y21963146D01*
X48676449Y22006449D01*
X48633146Y22041987D01*
X47411985Y23263146D01*
X47376448Y23306448D01*
X47333145Y23341986D01*
X47333143Y23341988D01*
X47203622Y23448283D01*
X47006446Y23553676D01*
X46792498Y23618577D01*
X46570000Y23640491D01*
X46569999Y23640491D01*
X46555000Y23639014D01*
X46555000Y25525998D01*
X46618932Y25603899D01*
X46752182Y25853192D01*
X46834236Y26123691D01*
X46861943Y26405000D01*
X46834236Y26686309D01*
X46752182Y26956808D01*
X46618932Y27206101D01*
X46439608Y27424608D01*
X46221101Y27603932D01*
X45971808Y27737182D01*
X45701309Y27819236D01*
X45490492Y27840000D01*
X45349508Y27840000D01*
X45138691Y27819236D01*
X44868192Y27737182D01*
X44618899Y27603932D01*
X44400392Y27424608D01*
X44221068Y27206101D01*
X44087818Y26956808D01*
X44005764Y26686309D01*
X43978057Y26405000D01*
X44005764Y26123691D01*
X44087818Y25853192D01*
X44221068Y25603899D01*
X44285000Y25525997D01*
X44285001Y23339917D01*
X44142629Y23126843D01*
X44038225Y22874789D01*
X43985000Y22607211D01*
X43985000Y22334389D01*
X44038225Y22066811D01*
X44142629Y21814757D01*
X44294201Y21587914D01*
X44487114Y21395001D01*
X44713957Y21243429D01*
X44816873Y21200800D01*
X44713957Y21158171D01*
X44529619Y21035000D01*
X37254284Y21035000D01*
X37049727Y21171680D01*
X36788574Y21279853D01*
X36511335Y21335000D01*
X36228665Y21335000D01*
X35951426Y21279853D01*
X35690273Y21171680D01*
X35455241Y21014637D01*
X35255363Y20814759D01*
X35098320Y20579727D01*
X34990147Y20318574D01*
X34935000Y20041335D01*
X34935000Y19758665D01*
X34990147Y19481426D01*
X35098320Y19220273D01*
X35235000Y19015716D01*
X35235001Y13603374D01*
X35151068Y13501101D01*
X35017818Y13251808D01*
X34935764Y12981309D01*
X34908057Y12700000D01*
X34935764Y12418691D01*
X35017818Y12148192D01*
X35151068Y11898899D01*
X35330392Y11680392D01*
X35548899Y11501068D01*
X35798192Y11367818D01*
X36068691Y11285764D01*
X36279508Y11265000D01*
X36420492Y11265000D01*
X36631309Y11285764D01*
X36901808Y11367818D01*
X37151101Y11501068D01*
X37369608Y11680392D01*
X37548932Y11898899D01*
X37682182Y12148192D01*
X37764236Y12418691D01*
X37791943Y12700000D01*
X37764236Y12981309D01*
X37682182Y13251808D01*
X37548932Y13501101D01*
X37505000Y13554632D01*
X37505000Y18765000D01*
X44490204Y18765000D01*
X44375820Y18730302D01*
X44265506Y18671337D01*
X44168815Y18591985D01*
X44089463Y18495294D01*
X44030498Y18384980D01*
X43994188Y18265282D01*
X43981928Y18140800D01*
X43985000Y17676550D01*
X44143750Y17517800D01*
X45243000Y17517800D01*
X45243000Y17537800D01*
X45497000Y17537800D01*
X45497000Y17517800D01*
X45517000Y17517800D01*
X45517000Y17263800D01*
X45497000Y17263800D01*
X45497000Y17243800D01*
X45243000Y17243800D01*
X45243000Y17263800D01*
X44143750Y17263800D01*
X43985000Y17105050D01*
X43981928Y16640800D01*
X43994188Y16516318D01*
X44018856Y16435000D01*
X43325752Y16435000D01*
X43270000Y16440491D01*
X43047501Y16418577D01*
X42833553Y16353676D01*
X42636377Y16248284D01*
X42506856Y16141989D01*
X42506854Y16141987D01*
X42463551Y16106449D01*
X42428013Y16063146D01*
X37299869Y10935000D01*
X32640133Y10935000D01*
X25012226Y18562905D01*
X25024494Y18569463D01*
X25121185Y18648815D01*
X25200537Y18745506D01*
X25259502Y18855820D01*
X25295812Y18975518D01*
X25308072Y19100000D01*
X25308072Y20700000D01*
X25295812Y20824482D01*
X25259502Y20944180D01*
X25200537Y21054494D01*
X25121185Y21151185D01*
X25024494Y21230537D01*
X24914180Y21289502D01*
X24794482Y21325812D01*
X24693069Y21335800D01*
X28029069Y21335800D01*
X30228009Y19136859D01*
X30263551Y19093551D01*
X30436377Y18951716D01*
X30633553Y18846324D01*
X30797705Y18796529D01*
X30847500Y18781423D01*
X30868493Y18779356D01*
X31014248Y18765000D01*
X31014255Y18765000D01*
X31069999Y18759510D01*
X31125743Y18765000D01*
X31529043Y18765000D01*
X31539463Y18745506D01*
X31618815Y18648815D01*
X31715506Y18569463D01*
X31825820Y18510498D01*
X31945518Y18474188D01*
X32070000Y18461928D01*
X33670000Y18461928D01*
X33794482Y18474188D01*
X33914180Y18510498D01*
X34024494Y18569463D01*
X34121185Y18648815D01*
X34200537Y18745506D01*
X34259502Y18855820D01*
X34295812Y18975518D01*
X34308072Y19100000D01*
X34308072Y20700000D01*
X34295812Y20824482D01*
X34259502Y20944180D01*
X34200537Y21054494D01*
X34121185Y21151185D01*
X34024494Y21230537D01*
X33914180Y21289502D01*
X33794482Y21325812D01*
X33670000Y21338072D01*
X32070000Y21338072D01*
X31945518Y21325812D01*
X31825820Y21289502D01*
X31715506Y21230537D01*
X31618815Y21151185D01*
X31539463Y21054494D01*
X31532906Y21042226D01*
X29341196Y23233935D01*
X29305649Y23277249D01*
X29132823Y23419084D01*
X28935647Y23524476D01*
X28721699Y23589377D01*
X28554952Y23605800D01*
X28554951Y23605800D01*
X28499200Y23611291D01*
X28443449Y23605800D01*
X13605000Y23605800D01*
X13605000Y26400998D01*
X13668932Y26478899D01*
X13802182Y26728192D01*
X13884236Y26998691D01*
X13911943Y27280000D01*
X13884236Y27561309D01*
X13802182Y27831808D01*
X13668932Y28081101D01*
X13489608Y28299608D01*
X13271101Y28478932D01*
X13021808Y28612182D01*
X12751309Y28694236D01*
X12540492Y28715000D01*
X12399508Y28715000D01*
X12188691Y28694236D01*
X11918192Y28612182D01*
X11668899Y28478932D01*
X11450392Y28299608D01*
X11271068Y28081101D01*
X11137818Y27831808D01*
X11055764Y27561309D01*
X11028057Y27280000D01*
X11055764Y26998691D01*
X11137818Y26728192D01*
X11271068Y26478899D01*
X11335000Y26400997D01*
X11335001Y23268978D01*
X11240029Y23126843D01*
X11135625Y22874789D01*
X11082400Y22607211D01*
X11082400Y22334389D01*
X11135625Y22066811D01*
X11240029Y21814757D01*
X11391601Y21587914D01*
X11584514Y21395001D01*
X11811357Y21243429D01*
X11914273Y21200800D01*
X11811357Y21158171D01*
X11584514Y21006599D01*
X11391601Y20813686D01*
X11240029Y20586843D01*
X11135625Y20334789D01*
X11082400Y20067211D01*
X11082400Y19794389D01*
X11135625Y19526811D01*
X11240029Y19274757D01*
X11391601Y19047914D01*
X11584514Y18855001D01*
X11700883Y18777245D01*
X11592918Y18766612D01*
X11473220Y18730302D01*
X11362906Y18671337D01*
X11266215Y18591985D01*
X11186863Y18495294D01*
X11127898Y18384980D01*
X11091588Y18265282D01*
X11079328Y18140800D01*
X11082400Y17676550D01*
X11241150Y17517800D01*
X12340400Y17517800D01*
X12340400Y17537800D01*
X12594400Y17537800D01*
X12594400Y17517800D01*
X13693650Y17517800D01*
X13852400Y17676550D01*
X13855472Y18140800D01*
X13843212Y18265282D01*
X13806902Y18384980D01*
X13747937Y18495294D01*
X13668585Y18591985D01*
X13571894Y18671337D01*
X13461580Y18730302D01*
X13347196Y18765000D01*
X19235000Y18765000D01*
X19235001Y13554633D01*
X19191068Y13501101D01*
X19057818Y13251808D01*
X18975764Y12981309D01*
X18948057Y12700000D01*
X18975764Y12418691D01*
X19057818Y12148192D01*
X19191068Y11898899D01*
X19370392Y11680392D01*
X19588899Y11501068D01*
X19838192Y11367818D01*
X20108691Y11285764D01*
X20319508Y11265000D01*
X20460492Y11265000D01*
X20671309Y11285764D01*
X20941808Y11367818D01*
X21191101Y11501068D01*
X21409608Y11680392D01*
X21588932Y11898899D01*
X21722182Y12148192D01*
X21804236Y12418691D01*
X21831943Y12700000D01*
X21804236Y12981309D01*
X21722182Y13251808D01*
X21588932Y13501101D01*
X21505000Y13603372D01*
X21505000Y19015716D01*
X21641680Y19220273D01*
X21749853Y19481426D01*
X21805000Y19758665D01*
X21805000Y20041335D01*
X21749853Y20318574D01*
X21641680Y20579727D01*
X21484637Y20814759D01*
X21284759Y21014637D01*
X21049727Y21171680D01*
X20788574Y21279853D01*
X20511335Y21335000D01*
X20228665Y21335000D01*
X19951426Y21279853D01*
X19690273Y21171680D01*
X19485716Y21035000D01*
X17639893Y21035000D01*
X17592499Y21049377D01*
X17425752Y21065800D01*
X13261686Y21065800D01*
X13123443Y21158171D01*
X13020527Y21200800D01*
X13123443Y21243429D01*
X13261686Y21335800D01*
X23046931Y21335800D01*
X22945518Y21325812D01*
X22825820Y21289502D01*
X22715506Y21230537D01*
X22618815Y21151185D01*
X22539463Y21054494D01*
X22480498Y20944180D01*
X22444188Y20824482D01*
X22431928Y20700000D01*
X22431928Y19100000D01*
X22444188Y18975518D01*
X22480498Y18855820D01*
X22539463Y18745506D01*
X22618815Y18648815D01*
X22715506Y18569463D01*
X22735000Y18559043D01*
X22735000Y18155751D01*
X22729509Y18100000D01*
X22751423Y17877502D01*
X22816324Y17663554D01*
X22827016Y17643551D01*
X22921717Y17466377D01*
X23063552Y17293551D01*
X23106860Y17258009D01*
X31328013Y9036854D01*
X31363551Y8993551D01*
X31406854Y8958013D01*
X31406856Y8958011D01*
X31536377Y8851716D01*
X31733553Y8746324D01*
X31947501Y8681423D01*
X32170000Y8659509D01*
X32225752Y8665000D01*
X34741627Y8665000D01*
X34730498Y8644180D01*
X34727713Y8635000D01*
X30740132Y8635000D01*
X28511996Y10863135D01*
X28476449Y10906449D01*
X28303623Y11048284D01*
X28106447Y11153676D01*
X27892499Y11218577D01*
X27725752Y11235000D01*
X27725751Y11235000D01*
X27670000Y11240491D01*
X27614249Y11235000D01*
X19740132Y11235000D01*
X15161996Y15813135D01*
X15126449Y15856449D01*
X14953623Y15998284D01*
X14756447Y16103676D01*
X14542499Y16168577D01*
X14375752Y16185000D01*
X14375751Y16185000D01*
X14320000Y16190491D01*
X14264249Y16185000D01*
X13662962Y16185000D01*
X13668585Y16189615D01*
X13747937Y16286306D01*
X13806902Y16396620D01*
X13843212Y16516318D01*
X13855472Y16640800D01*
X13852400Y17105050D01*
X13693650Y17263800D01*
X12594400Y17263800D01*
X12594400Y17243800D01*
X12340400Y17243800D01*
X12340400Y17263800D01*
X11241150Y17263800D01*
X11082400Y17105050D01*
X11079328Y16640800D01*
X11091588Y16516318D01*
X11127898Y16396620D01*
X11184609Y16290523D01*
X8261996Y19213135D01*
X8226449Y19256449D01*
X8053623Y19398284D01*
X7856447Y19503676D01*
X7642499Y19568577D01*
X7475752Y19585000D01*
X7475751Y19585000D01*
X7420000Y19590491D01*
X7364249Y19585000D01*
X7012287Y19585000D01*
X7009502Y19594180D01*
X6950537Y19704494D01*
X6871185Y19801185D01*
X6774494Y19880537D01*
X6664180Y19939502D01*
X6655000Y19942287D01*
X6655000Y32057713D01*
X6664180Y32060498D01*
X6774494Y32119463D01*
X6871185Y32198815D01*
X6950537Y32295506D01*
X7009502Y32405820D01*
X7045812Y32525518D01*
X7058072Y32650000D01*
X7058072Y34450000D01*
X7045812Y34574482D01*
X7009502Y34694180D01*
X6950537Y34804494D01*
X6871185Y34901185D01*
X6774494Y34980537D01*
X6697059Y35021928D01*
X10745000Y39069869D01*
X23128009Y26686859D01*
X23163551Y26643551D01*
X23336377Y26501716D01*
X23457721Y26436857D01*
X23533553Y26396324D01*
X23747501Y26331423D01*
X23970000Y26309509D01*
X24025751Y26315000D01*
X33164249Y26315000D01*
X33220000Y26309509D01*
X33275751Y26315000D01*
X33275752Y26315000D01*
X33442499Y26331423D01*
X33656447Y26396324D01*
X33853623Y26501716D01*
X34026449Y26643551D01*
X34061996Y26686865D01*
X40265132Y32890000D01*
X44535716Y32890000D01*
X44740273Y32753320D01*
X45001426Y32645147D01*
X45278665Y32590000D01*
X45561335Y32590000D01*
X45838574Y32645147D01*
X46099727Y32753320D01*
X46334759Y32910363D01*
X46534637Y33110241D01*
X46691680Y33345273D01*
X46799853Y33606426D01*
X46855000Y33883665D01*
X46855000Y34166335D01*
X46799853Y34443574D01*
X46691680Y34704727D01*
X46534637Y34939759D01*
X46334759Y35139637D01*
X46099727Y35296680D01*
X45838574Y35404853D01*
X45561335Y35460000D01*
X45278665Y35460000D01*
X45001426Y35404853D01*
X44740273Y35296680D01*
X44535716Y35160000D01*
X39850743Y35160000D01*
X39794999Y35165490D01*
X39739255Y35160000D01*
X39739248Y35160000D01*
X39593493Y35145644D01*
X39572500Y35143577D01*
X39522705Y35128471D01*
X39358553Y35078676D01*
X39161377Y34973284D01*
X38988551Y34831449D01*
X38953009Y34788141D01*
X32749869Y28585000D01*
X24440132Y28585000D01*
X21952132Y31073000D01*
X24835000Y31073000D01*
X24835000Y30173000D01*
X24889271Y29875977D01*
X25000446Y29595249D01*
X25164252Y29341604D01*
X25374394Y29124790D01*
X25622796Y28953138D01*
X25899913Y28833245D01*
X26005260Y28808964D01*
X26243000Y28929622D01*
X26243000Y31073000D01*
X26497000Y31073000D01*
X26497000Y28929622D01*
X26734740Y28808964D01*
X26840087Y28833245D01*
X27117204Y28953138D01*
X27365606Y29124790D01*
X27575748Y29341604D01*
X27739554Y29595249D01*
X27850729Y29875977D01*
X27905000Y30173000D01*
X27905000Y31073000D01*
X26497000Y31073000D01*
X26243000Y31073000D01*
X24835000Y31073000D01*
X21952132Y31073000D01*
X20798132Y32227000D01*
X24835000Y32227000D01*
X24835000Y31327000D01*
X26243000Y31327000D01*
X26243000Y33470378D01*
X26497000Y33470378D01*
X26497000Y31327000D01*
X27905000Y31327000D01*
X27905000Y32227000D01*
X27850729Y32524023D01*
X27739554Y32804751D01*
X27575748Y33058396D01*
X27365606Y33275210D01*
X27117204Y33446862D01*
X26840087Y33566755D01*
X26734740Y33591036D01*
X26497000Y33470378D01*
X26243000Y33470378D01*
X26005260Y33591036D01*
X25899913Y33566755D01*
X25622796Y33446862D01*
X25374394Y33275210D01*
X25164252Y33058396D01*
X25000446Y32804751D01*
X24889271Y32524023D01*
X24835000Y32227000D01*
X20798132Y32227000D01*
X12350131Y40675000D01*
X15440132Y43765000D01*
X18477713Y43765000D01*
X18480498Y43755820D01*
M02*
