G04 #@! TF.GenerationSoftware,KiCad,Pcbnew,5.1.4-e60b266~84~ubuntu18.04.1*
G04 #@! TF.CreationDate,2019-08-06T09:31:39+03:00*
G04 #@! TF.ProjectId,Wheel_of_Fortune,57686565-6c5f-46f6-965f-466f7274756e,rev?*
G04 #@! TF.SameCoordinates,Original*
G04 #@! TF.FileFunction,Copper,L2,Bot*
G04 #@! TF.FilePolarity,Positive*
%FSLAX46Y46*%
G04 Gerber Fmt 4.6, Leading zero omitted, Abs format (unit mm)*
G04 Created by KiCad (PCBNEW 5.1.4-e60b266~84~ubuntu18.04.1) date 2019-08-06 09:31:39*
%MOMM*%
%LPD*%
G04 APERTURE LIST*
%ADD10C,0.100000*%
%ADD11C,2.000000*%
%ADD12C,1.600000*%
%ADD13R,1.600000X1.600000*%
%ADD14R,1.500000X1.500000*%
%ADD15C,1.500000*%
%ADD16O,1.600000X2.400000*%
%ADD17R,1.600000X2.400000*%
%ADD18O,2.400000X1.600000*%
%ADD19R,2.400000X1.600000*%
%ADD20O,1.600000X1.600000*%
%ADD21O,1.800000X3.600000*%
%ADD22C,1.800000*%
%ADD23R,1.800000X1.800000*%
%ADD24C,0.800000*%
%ADD25C,1.000000*%
%ADD26C,0.254000*%
G04 APERTURE END LIST*
D10*
G36*
X53500000Y15550000D02*
G01*
X53500000Y14550000D01*
X51000000Y14550000D01*
X51000000Y17550000D01*
X51850000Y17550000D01*
X53500000Y15550000D01*
G37*
X53500000Y15550000D02*
X53500000Y14550000D01*
X51000000Y14550000D01*
X51000000Y17550000D01*
X51850000Y17550000D01*
X53500000Y15550000D01*
G36*
X48000000Y16600000D02*
G01*
X47500000Y16050000D01*
X47500000Y15550000D01*
X48000000Y15050000D01*
X48000000Y14550000D01*
X45000000Y14550000D01*
X45000000Y15000000D01*
X45500000Y16050000D01*
X47000000Y17550000D01*
X48000000Y17550000D01*
X48000000Y16600000D01*
G37*
X48000000Y16600000D02*
X47500000Y16050000D01*
X47500000Y15550000D01*
X48000000Y15050000D01*
X48000000Y14550000D01*
X45000000Y14550000D01*
X45000000Y15000000D01*
X45500000Y16050000D01*
X47000000Y17550000D01*
X48000000Y17550000D01*
X48000000Y16600000D01*
G36*
X71500000Y16050000D02*
G01*
X71500000Y14550000D01*
X68500000Y14550000D01*
X68500000Y17550000D01*
X70000000Y17550000D01*
X71500000Y16050000D01*
G37*
X71500000Y16050000D02*
X71500000Y14550000D01*
X68500000Y14550000D01*
X68500000Y17550000D01*
X70000000Y17550000D01*
X71500000Y16050000D01*
G36*
X65500000Y15550000D02*
G01*
X65500000Y14550000D01*
X63000000Y14550000D01*
X63000000Y16550000D01*
X64500000Y16550000D01*
X65500000Y15550000D01*
G37*
X65500000Y15550000D02*
X65500000Y14550000D01*
X63000000Y14550000D01*
X63000000Y16550000D01*
X64500000Y16550000D01*
X65500000Y15550000D01*
G36*
X31000000Y23050000D02*
G01*
X30500000Y23050000D01*
X28500000Y25050000D01*
X28150000Y25050000D01*
X28150000Y25800000D01*
X31000000Y25800000D01*
X31000000Y23050000D01*
G37*
X31000000Y23050000D02*
X30500000Y23050000D01*
X28500000Y25050000D01*
X28150000Y25050000D01*
X28150000Y25800000D01*
X31000000Y25800000D01*
X31000000Y23050000D01*
G36*
X91050000Y15500000D02*
G01*
X91050000Y14750000D01*
X89750000Y14750000D01*
X72000000Y32550000D01*
X74000000Y32550000D01*
X91050000Y15500000D01*
G37*
X91050000Y15500000D02*
X91050000Y14750000D01*
X89750000Y14750000D01*
X72000000Y32550000D01*
X74000000Y32550000D01*
X91050000Y15500000D01*
G36*
X84000000Y16050000D02*
G01*
X83700000Y14600000D01*
X82650000Y14600000D01*
X80500000Y17050000D01*
X82000000Y18050000D01*
X84000000Y16050000D01*
G37*
X84000000Y16050000D02*
X83700000Y14600000D01*
X82650000Y14600000D01*
X80500000Y17050000D01*
X82000000Y18050000D01*
X84000000Y16050000D01*
G36*
X82000000Y18050000D02*
G01*
X80450000Y17100000D01*
X67500000Y30050000D01*
X68500000Y30550000D01*
X69500000Y30550000D01*
X82000000Y18050000D01*
G37*
X82000000Y18050000D02*
X80450000Y17100000D01*
X67500000Y30050000D01*
X68500000Y30550000D01*
X69500000Y30550000D01*
X82000000Y18050000D01*
D11*
X34725000Y39625000D03*
X34725000Y35125000D03*
X28225000Y39625000D03*
X28225000Y35125000D03*
X32973880Y9166360D03*
X32973880Y16666360D03*
D12*
X16527000Y14126000D03*
D13*
X16527000Y17626000D03*
D12*
X6777000Y14001000D03*
D13*
X6777000Y17801000D03*
D14*
X21802000Y35101000D03*
D15*
X21802000Y40181000D03*
X19262000Y37641000D03*
D16*
X45025000Y29320000D03*
X62805000Y21700000D03*
X47565000Y29320000D03*
X60265000Y21700000D03*
X50105000Y29320000D03*
X57725000Y21700000D03*
X52645000Y29320000D03*
X55185000Y21700000D03*
X55185000Y29320000D03*
X52645000Y21700000D03*
X57725000Y29320000D03*
X50105000Y21700000D03*
X60265000Y29320000D03*
X47565000Y21700000D03*
X62805000Y29320000D03*
D17*
X45025000Y21700000D03*
D18*
X32997000Y29301000D03*
X25377000Y21681000D03*
X32997000Y26761000D03*
X25377000Y24221000D03*
X32997000Y24221000D03*
X25377000Y26761000D03*
X32997000Y21681000D03*
D19*
X25377000Y29301000D03*
D20*
X45605000Y8150000D03*
D12*
X53225000Y8150000D03*
D20*
X16422000Y29176000D03*
D12*
X8802000Y29176000D03*
D20*
X8782000Y24576000D03*
D12*
X16402000Y24576000D03*
D20*
X16422000Y33551000D03*
D12*
X8802000Y33551000D03*
D21*
X16550000Y6125000D03*
D10*
G36*
X20724504Y7923796D02*
G01*
X20748773Y7920196D01*
X20772571Y7914235D01*
X20795671Y7905970D01*
X20817849Y7895480D01*
X20838893Y7882867D01*
X20858598Y7868253D01*
X20876777Y7851777D01*
X20893253Y7833598D01*
X20907867Y7813893D01*
X20920480Y7792849D01*
X20930970Y7770671D01*
X20939235Y7747571D01*
X20945196Y7723773D01*
X20948796Y7699504D01*
X20950000Y7675000D01*
X20950000Y4575000D01*
X20948796Y4550496D01*
X20945196Y4526227D01*
X20939235Y4502429D01*
X20930970Y4479329D01*
X20920480Y4457151D01*
X20907867Y4436107D01*
X20893253Y4416402D01*
X20876777Y4398223D01*
X20858598Y4381747D01*
X20838893Y4367133D01*
X20817849Y4354520D01*
X20795671Y4344030D01*
X20772571Y4335765D01*
X20748773Y4329804D01*
X20724504Y4326204D01*
X20700000Y4325000D01*
X19400000Y4325000D01*
X19375496Y4326204D01*
X19351227Y4329804D01*
X19327429Y4335765D01*
X19304329Y4344030D01*
X19282151Y4354520D01*
X19261107Y4367133D01*
X19241402Y4381747D01*
X19223223Y4398223D01*
X19206747Y4416402D01*
X19192133Y4436107D01*
X19179520Y4457151D01*
X19169030Y4479329D01*
X19160765Y4502429D01*
X19154804Y4526227D01*
X19151204Y4550496D01*
X19150000Y4575000D01*
X19150000Y7675000D01*
X19151204Y7699504D01*
X19154804Y7723773D01*
X19160765Y7747571D01*
X19169030Y7770671D01*
X19179520Y7792849D01*
X19192133Y7813893D01*
X19206747Y7833598D01*
X19223223Y7851777D01*
X19241402Y7868253D01*
X19261107Y7882867D01*
X19282151Y7895480D01*
X19304329Y7905970D01*
X19327429Y7914235D01*
X19351227Y7920196D01*
X19375496Y7923796D01*
X19400000Y7925000D01*
X20700000Y7925000D01*
X20724504Y7923796D01*
X20724504Y7923796D01*
G37*
D22*
X20050000Y6125000D03*
X92456000Y15848000D03*
D23*
X92456000Y13308000D03*
D22*
X79756000Y15848000D03*
D23*
X79756000Y13308000D03*
D22*
X67056000Y15848000D03*
D23*
X67056000Y13308000D03*
D22*
X61214000Y15870000D03*
D23*
X61214000Y13330000D03*
D22*
X37760000Y15850000D03*
D23*
X37760000Y13310000D03*
D22*
X86106000Y15848000D03*
D23*
X86106000Y13308000D03*
D22*
X73406000Y15848000D03*
D23*
X73406000Y13308000D03*
D22*
X55118000Y15848000D03*
D23*
X55118000Y13308000D03*
D22*
X43434000Y15850000D03*
D23*
X43434000Y13310000D03*
D22*
X49276000Y15840000D03*
D23*
X49276000Y13300000D03*
D20*
X25375000Y8980000D03*
D13*
X25375000Y16600000D03*
D24*
X20500000Y30350000D03*
X20500000Y24850000D03*
D25*
X47565000Y30640000D02*
X47565000Y29320000D01*
X48445000Y31520000D02*
X47565000Y30640000D01*
X52645000Y29320000D02*
X52645000Y30580000D01*
X51705000Y31520000D02*
X48445000Y31520000D01*
X52645000Y30580000D02*
X51705000Y31520000D01*
X56065000Y25500000D02*
X52645000Y28920000D01*
X60600000Y25500000D02*
X56065000Y25500000D01*
X52645000Y28920000D02*
X52645000Y29320000D01*
X62805000Y21700000D02*
X62805000Y23295000D01*
X62805000Y23295000D02*
X60600000Y25500000D01*
X12892000Y37641000D02*
X8802000Y33551000D01*
X19262000Y37641000D02*
X12892000Y37641000D01*
X19262000Y37641000D02*
X19262000Y41461000D01*
X6777000Y31526000D02*
X6777000Y17801000D01*
X8802000Y33551000D02*
X6777000Y31526000D01*
X27225001Y40624999D02*
X28225000Y39625000D01*
X25525000Y42325000D02*
X27225001Y40624999D01*
X20126000Y42325000D02*
X25525000Y42325000D01*
X19262000Y41461000D02*
X20126000Y42325000D01*
X28225000Y39625000D02*
X34725000Y39625000D01*
X8782000Y24576000D02*
X8782000Y29156000D01*
X14727000Y17626000D02*
X16527000Y17626000D01*
X8782000Y23444630D02*
X14600630Y17626000D01*
X8782000Y24576000D02*
X8782000Y23444630D01*
X32997000Y21681000D02*
X32997000Y16689480D01*
X45025000Y29320000D02*
X33016000Y29320000D01*
X23900000Y35125000D02*
X28225000Y35125000D01*
X32997000Y34717213D02*
X32997000Y29301000D01*
X28225000Y35125000D02*
X34725000Y35125000D01*
X25377000Y21681000D02*
X25377000Y16602000D01*
X20050000Y6125000D02*
X20050000Y11250000D01*
X20050000Y11250000D02*
X25375000Y16575000D01*
X23774000Y38209000D02*
X21802000Y40181000D01*
X20500000Y30350000D02*
X20500000Y30350000D01*
X23774000Y33624000D02*
X23774000Y38209000D01*
X23669000Y21681000D02*
X20500000Y24850000D01*
X25377000Y21681000D02*
X23669000Y21681000D01*
X20500000Y30350000D02*
X23774000Y33624000D01*
X20500000Y24850000D02*
X20500000Y24850000D01*
X50100000Y19350000D02*
X50100000Y21695000D01*
X49450000Y18700000D02*
X50100000Y19350000D01*
X49276000Y15840000D02*
X49450000Y16014000D01*
X50100000Y21695000D02*
X50105000Y21700000D01*
X49450000Y16014000D02*
X49450000Y18700000D01*
X92454000Y13310000D02*
X92456000Y13308000D01*
X53225000Y13275000D02*
X53190000Y13310000D01*
X53225000Y8150000D02*
X53225000Y13275000D01*
X37760000Y13310000D02*
X53190000Y13310000D01*
X53190000Y13310000D02*
X92454000Y13310000D01*
X47565000Y19981000D02*
X47565000Y21700000D01*
X43434000Y15850000D02*
X47565000Y19981000D01*
X52650000Y21695000D02*
X52645000Y21700000D01*
X52650000Y18316000D02*
X52650000Y21695000D01*
X55118000Y15848000D02*
X52650000Y18316000D01*
X60265000Y20435000D02*
X60265000Y21700000D01*
X73406000Y15848000D02*
X69804000Y19450000D01*
X61250000Y19450000D02*
X60265000Y20435000D01*
X69804000Y19450000D02*
X61250000Y19450000D01*
X60265000Y30640000D02*
X60265000Y29320000D01*
X61725000Y32100000D02*
X60265000Y30640000D01*
X69854000Y32100000D02*
X65600000Y32100000D01*
X66731000Y32100000D02*
X65600000Y32100000D01*
X86106000Y15848000D02*
X69854000Y32100000D01*
X65600000Y32100000D02*
X61725000Y32100000D01*
X39175000Y15850000D02*
X45025000Y21700000D01*
X37760000Y15850000D02*
X39175000Y15850000D01*
X55185000Y19065000D02*
X55185000Y21700000D01*
X61214000Y15870000D02*
X58380000Y15870000D01*
X58380000Y15870000D02*
X55185000Y19065000D01*
X65200000Y17700000D02*
X65100000Y17800000D01*
X65104000Y17800000D02*
X65100000Y17800000D01*
X67056000Y15848000D02*
X65104000Y17800000D01*
X57725000Y20375000D02*
X57725000Y21700000D01*
X65100000Y17800000D02*
X60300000Y17800000D01*
X60300000Y17800000D02*
X57725000Y20375000D01*
X79756000Y15848000D02*
X79752000Y15848000D01*
X66280000Y29320000D02*
X62805000Y29320000D01*
X79752000Y15848000D02*
X66280000Y29320000D01*
X59325000Y33875000D02*
X57725000Y32275000D01*
X74425000Y33875000D02*
X59325000Y33875000D01*
X92456000Y15848000D02*
X92452000Y15848000D01*
X57725000Y32275000D02*
X57725000Y29320000D01*
X92452000Y15848000D02*
X74425000Y33875000D01*
X15751998Y35101000D02*
X14921999Y34271001D01*
X14921999Y34271001D02*
X14921999Y26056001D01*
X21802000Y35101000D02*
X15751998Y35101000D01*
X14921999Y26056001D02*
X16402000Y24576000D01*
X32997000Y24221000D02*
X32997000Y26761000D01*
X25377000Y26761000D02*
X32997000Y26761000D01*
X35750000Y20450000D02*
X41400000Y26100000D01*
X35750000Y15250000D02*
X35750000Y20450000D01*
X27432000Y24221000D02*
X29752000Y21901000D01*
X48550000Y26100000D02*
X50105000Y27655000D01*
X41400000Y26100000D02*
X48550000Y26100000D01*
X29752000Y14598000D02*
X30275000Y14075000D01*
X29752000Y21901000D02*
X29752000Y14598000D01*
X30275000Y14075000D02*
X34575000Y14075000D01*
X50105000Y27655000D02*
X50105000Y29320000D01*
X25377000Y24221000D02*
X27432000Y24221000D01*
X34575000Y14075000D02*
X35750000Y15250000D01*
D26*
G36*
X96840359Y684831D02*
G01*
X660000Y660169D01*
X660000Y5998000D01*
X15015000Y5998000D01*
X15015000Y5098000D01*
X15069271Y4800977D01*
X15180446Y4520249D01*
X15344252Y4266604D01*
X15554394Y4049790D01*
X15802796Y3878138D01*
X16079913Y3758245D01*
X16185260Y3733964D01*
X16423000Y3854622D01*
X16423000Y5998000D01*
X16677000Y5998000D01*
X16677000Y3854622D01*
X16914740Y3733964D01*
X17020087Y3758245D01*
X17297204Y3878138D01*
X17545606Y4049790D01*
X17755748Y4266604D01*
X17919554Y4520249D01*
X18030729Y4800977D01*
X18085000Y5098000D01*
X18085000Y5998000D01*
X16677000Y5998000D01*
X16423000Y5998000D01*
X15015000Y5998000D01*
X660000Y5998000D01*
X660000Y7152000D01*
X15015000Y7152000D01*
X15015000Y6252000D01*
X16423000Y6252000D01*
X16423000Y8395378D01*
X16677000Y8395378D01*
X16677000Y6252000D01*
X18085000Y6252000D01*
X18085000Y7152000D01*
X18030729Y7449023D01*
X17919554Y7729751D01*
X17755748Y7983396D01*
X17545606Y8200210D01*
X17297204Y8371862D01*
X17020087Y8491755D01*
X16914740Y8516036D01*
X16677000Y8395378D01*
X16423000Y8395378D01*
X16185260Y8516036D01*
X16079913Y8491755D01*
X15802796Y8371862D01*
X15554394Y8200210D01*
X15344252Y7983396D01*
X15180446Y7729751D01*
X15069271Y7449023D01*
X15015000Y7152000D01*
X660000Y7152000D01*
X660000Y13008298D01*
X5963903Y13008298D01*
X6035486Y12764329D01*
X6290996Y12643429D01*
X6565184Y12574700D01*
X6847512Y12560783D01*
X7127130Y12602213D01*
X7393292Y12697397D01*
X7518514Y12764329D01*
X7590097Y13008298D01*
X7465097Y13133298D01*
X15713903Y13133298D01*
X15785486Y12889329D01*
X16040996Y12768429D01*
X16315184Y12699700D01*
X16597512Y12685783D01*
X16877130Y12727213D01*
X17143292Y12822397D01*
X17268514Y12889329D01*
X17340097Y13133298D01*
X16527000Y13946395D01*
X15713903Y13133298D01*
X7465097Y13133298D01*
X6777000Y13821395D01*
X5963903Y13008298D01*
X660000Y13008298D01*
X660000Y13930488D01*
X5336783Y13930488D01*
X5378213Y13650870D01*
X5473397Y13384708D01*
X5540329Y13259486D01*
X5784298Y13187903D01*
X6597395Y14001000D01*
X6956605Y14001000D01*
X7769702Y13187903D01*
X8013671Y13259486D01*
X8134571Y13514996D01*
X8203300Y13789184D01*
X8216427Y14055488D01*
X15086783Y14055488D01*
X15128213Y13775870D01*
X15223397Y13509708D01*
X15290329Y13384486D01*
X15534298Y13312903D01*
X16347395Y14126000D01*
X16706605Y14126000D01*
X17519702Y13312903D01*
X17763671Y13384486D01*
X17884571Y13639996D01*
X17953300Y13914184D01*
X17967217Y14196512D01*
X17925787Y14476130D01*
X17830603Y14742292D01*
X17763671Y14867514D01*
X17519702Y14939097D01*
X16706605Y14126000D01*
X16347395Y14126000D01*
X15534298Y14939097D01*
X15290329Y14867514D01*
X15169429Y14612004D01*
X15100700Y14337816D01*
X15086783Y14055488D01*
X8216427Y14055488D01*
X8217217Y14071512D01*
X8175787Y14351130D01*
X8080603Y14617292D01*
X8013671Y14742514D01*
X7769702Y14814097D01*
X6956605Y14001000D01*
X6597395Y14001000D01*
X5784298Y14814097D01*
X5540329Y14742514D01*
X5419429Y14487004D01*
X5350700Y14212816D01*
X5336783Y13930488D01*
X660000Y13930488D01*
X660000Y14993702D01*
X5963903Y14993702D01*
X6777000Y14180605D01*
X7590097Y14993702D01*
X7553421Y15118702D01*
X15713903Y15118702D01*
X16527000Y14305605D01*
X17340097Y15118702D01*
X17268514Y15362671D01*
X17013004Y15483571D01*
X16738816Y15552300D01*
X16456488Y15566217D01*
X16176870Y15524787D01*
X15910708Y15429603D01*
X15785486Y15362671D01*
X15713903Y15118702D01*
X7553421Y15118702D01*
X7518514Y15237671D01*
X7263004Y15358571D01*
X6988816Y15427300D01*
X6706488Y15441217D01*
X6426870Y15399787D01*
X6160708Y15304603D01*
X6035486Y15237671D01*
X5963903Y14993702D01*
X660000Y14993702D01*
X660000Y18601000D01*
X5338928Y18601000D01*
X5338928Y17001000D01*
X5351188Y16876518D01*
X5387498Y16756820D01*
X5446463Y16646506D01*
X5525815Y16549815D01*
X5622506Y16470463D01*
X5732820Y16411498D01*
X5852518Y16375188D01*
X5977000Y16362928D01*
X7577000Y16362928D01*
X7701482Y16375188D01*
X7821180Y16411498D01*
X7931494Y16470463D01*
X8028185Y16549815D01*
X8107537Y16646506D01*
X8166502Y16756820D01*
X8202812Y16876518D01*
X8215072Y17001000D01*
X8215072Y18601000D01*
X8202812Y18725482D01*
X8166502Y18845180D01*
X8107537Y18955494D01*
X8028185Y19052185D01*
X7931494Y19131537D01*
X7912000Y19141957D01*
X7912000Y22715619D01*
X7975552Y22638181D01*
X8018860Y22602639D01*
X13837486Y16784012D01*
X13967006Y16677717D01*
X14164182Y16572325D01*
X14378130Y16507424D01*
X14600629Y16485510D01*
X14663809Y16491733D01*
X14671248Y16491000D01*
X15186043Y16491000D01*
X15196463Y16471506D01*
X15275815Y16374815D01*
X15372506Y16295463D01*
X15482820Y16236498D01*
X15602518Y16200188D01*
X15727000Y16187928D01*
X17327000Y16187928D01*
X17451482Y16200188D01*
X17571180Y16236498D01*
X17681494Y16295463D01*
X17778185Y16374815D01*
X17857537Y16471506D01*
X17916502Y16581820D01*
X17952812Y16701518D01*
X17965072Y16826000D01*
X17965072Y18426000D01*
X17952812Y18550482D01*
X17916502Y18670180D01*
X17857537Y18780494D01*
X17778185Y18877185D01*
X17681494Y18956537D01*
X17571180Y19015502D01*
X17451482Y19051812D01*
X17327000Y19064072D01*
X15727000Y19064072D01*
X15602518Y19051812D01*
X15482820Y19015502D01*
X15372506Y18956537D01*
X15275815Y18877185D01*
X15196463Y18780494D01*
X15186043Y18761000D01*
X15070762Y18761000D01*
X10007380Y23824381D01*
X10114182Y24024192D01*
X10196236Y24294691D01*
X10223943Y24576000D01*
X10196236Y24857309D01*
X10114182Y25127808D01*
X9980932Y25377101D01*
X9917000Y25455002D01*
X9917000Y28261784D01*
X10073680Y28496273D01*
X10181853Y28757426D01*
X10237000Y29034665D01*
X10237000Y29317335D01*
X10181853Y29594574D01*
X10073680Y29855727D01*
X9916637Y30090759D01*
X9716759Y30290637D01*
X9481727Y30447680D01*
X9220574Y30555853D01*
X8943335Y30611000D01*
X8660665Y30611000D01*
X8383426Y30555853D01*
X8122273Y30447680D01*
X7912000Y30307180D01*
X7912000Y31055869D01*
X8979282Y32123150D01*
X9220574Y32171147D01*
X9481727Y32279320D01*
X9716759Y32436363D01*
X9916637Y32636241D01*
X10073680Y32871273D01*
X10181853Y33132426D01*
X10229850Y33373719D01*
X13362132Y36506000D01*
X18467714Y36506000D01*
X18605957Y36413629D01*
X18858011Y36309225D01*
X19125589Y36256000D01*
X19398411Y36256000D01*
X19665989Y36309225D01*
X19918043Y36413629D01*
X20144886Y36565201D01*
X20337799Y36758114D01*
X20489371Y36984957D01*
X20593775Y37237011D01*
X20647000Y37504589D01*
X20647000Y37777411D01*
X20593775Y38044989D01*
X20489371Y38297043D01*
X20397000Y38435286D01*
X20397000Y40990868D01*
X20596132Y41190000D01*
X20852315Y41190000D01*
X20726201Y41063886D01*
X20574629Y40837043D01*
X20470225Y40584989D01*
X20417000Y40317411D01*
X20417000Y40044589D01*
X20470225Y39777011D01*
X20574629Y39524957D01*
X20726201Y39298114D01*
X20919114Y39105201D01*
X21145957Y38953629D01*
X21398011Y38849225D01*
X21561081Y38816788D01*
X22639001Y37738867D01*
X22639001Y36480503D01*
X22552000Y36489072D01*
X21052000Y36489072D01*
X20927518Y36476812D01*
X20807820Y36440502D01*
X20697506Y36381537D01*
X20600815Y36302185D01*
X20546499Y36236000D01*
X15807750Y36236000D01*
X15751998Y36241491D01*
X15696246Y36236000D01*
X15529499Y36219577D01*
X15315551Y36154676D01*
X15118375Y36049284D01*
X14945549Y35907449D01*
X14910006Y35864140D01*
X14158863Y35112996D01*
X14115550Y35077450D01*
X13973715Y34904624D01*
X13898813Y34764490D01*
X13868323Y34707447D01*
X13803422Y34493499D01*
X13781508Y34271001D01*
X13786999Y34215249D01*
X13787000Y26111762D01*
X13781508Y26056001D01*
X13803422Y25833503D01*
X13868323Y25619555D01*
X13881123Y25595608D01*
X13973716Y25422378D01*
X14115551Y25249552D01*
X14158859Y25214010D01*
X14974150Y24398718D01*
X15022147Y24157426D01*
X15130320Y23896273D01*
X15287363Y23661241D01*
X15487241Y23461363D01*
X15722273Y23304320D01*
X15983426Y23196147D01*
X16260665Y23141000D01*
X16543335Y23141000D01*
X16820574Y23196147D01*
X17081727Y23304320D01*
X17316759Y23461363D01*
X17516637Y23661241D01*
X17673680Y23896273D01*
X17781853Y24157426D01*
X17837000Y24434665D01*
X17837000Y24717335D01*
X17781853Y24994574D01*
X17673680Y25255727D01*
X17516637Y25490759D01*
X17316759Y25690637D01*
X17081727Y25847680D01*
X16820574Y25955853D01*
X16579282Y26003850D01*
X16056999Y26526132D01*
X16056999Y27789807D01*
X16072960Y27784091D01*
X16295000Y27905376D01*
X16295000Y29049000D01*
X16549000Y29049000D01*
X16549000Y27905376D01*
X16771040Y27784091D01*
X17035881Y27878930D01*
X17277131Y28023615D01*
X17485519Y28212586D01*
X17653037Y28438580D01*
X17773246Y28692913D01*
X17813904Y28826961D01*
X17691915Y29049000D01*
X16549000Y29049000D01*
X16295000Y29049000D01*
X16275000Y29049000D01*
X16275000Y29303000D01*
X16295000Y29303000D01*
X16295000Y30446624D01*
X16549000Y30446624D01*
X16549000Y29303000D01*
X17691915Y29303000D01*
X17813904Y29525039D01*
X17773246Y29659087D01*
X17653037Y29913420D01*
X17485519Y30139414D01*
X17277131Y30328385D01*
X17035881Y30473070D01*
X16771040Y30567909D01*
X16549000Y30446624D01*
X16295000Y30446624D01*
X16072960Y30567909D01*
X16056999Y30562193D01*
X16056999Y32164807D01*
X16072960Y32159091D01*
X16295000Y32280376D01*
X16295000Y33424000D01*
X16549000Y33424000D01*
X16549000Y32280376D01*
X16771040Y32159091D01*
X17035881Y32253930D01*
X17277131Y32398615D01*
X17485519Y32587586D01*
X17653037Y32813580D01*
X17773246Y33067913D01*
X17813904Y33201961D01*
X17691915Y33424000D01*
X16549000Y33424000D01*
X16295000Y33424000D01*
X16275000Y33424000D01*
X16275000Y33678000D01*
X16295000Y33678000D01*
X16295000Y33698000D01*
X16549000Y33698000D01*
X16549000Y33678000D01*
X17691915Y33678000D01*
X17813904Y33900039D01*
X17793897Y33966000D01*
X20546499Y33966000D01*
X20600815Y33899815D01*
X20697506Y33820463D01*
X20807820Y33761498D01*
X20927518Y33725188D01*
X21052000Y33712928D01*
X22257796Y33712928D01*
X19736865Y31191996D01*
X19693551Y31156449D01*
X19551716Y30983623D01*
X19446324Y30786447D01*
X19381423Y30572499D01*
X19359509Y30350000D01*
X19381423Y30127501D01*
X19446324Y29913553D01*
X19551716Y29716377D01*
X19693551Y29543551D01*
X19866377Y29401716D01*
X20063553Y29296324D01*
X20277501Y29231423D01*
X20444248Y29215000D01*
X20444249Y29215000D01*
X20500000Y29209509D01*
X20555751Y29215000D01*
X20555752Y29215000D01*
X20722499Y29231423D01*
X20936447Y29296324D01*
X21133623Y29401716D01*
X21306449Y29543551D01*
X21341996Y29586865D01*
X21856131Y30101000D01*
X23538928Y30101000D01*
X23542000Y29586750D01*
X23700750Y29428000D01*
X25250000Y29428000D01*
X25250000Y30577250D01*
X25504000Y30577250D01*
X25504000Y29428000D01*
X27053250Y29428000D01*
X27212000Y29586750D01*
X27215072Y30101000D01*
X27202812Y30225482D01*
X27166502Y30345180D01*
X27107537Y30455494D01*
X27028185Y30552185D01*
X26931494Y30631537D01*
X26821180Y30690502D01*
X26701482Y30726812D01*
X26577000Y30739072D01*
X25662750Y30736000D01*
X25504000Y30577250D01*
X25250000Y30577250D01*
X25091250Y30736000D01*
X24177000Y30739072D01*
X24052518Y30726812D01*
X23932820Y30690502D01*
X23822506Y30631537D01*
X23725815Y30552185D01*
X23646463Y30455494D01*
X23587498Y30345180D01*
X23551188Y30225482D01*
X23538928Y30101000D01*
X21856131Y30101000D01*
X24537141Y32782009D01*
X24580449Y32817551D01*
X24722284Y32990377D01*
X24827676Y33187553D01*
X24877471Y33351705D01*
X24892577Y33401500D01*
X24907301Y33551000D01*
X24909000Y33568248D01*
X24909000Y33568255D01*
X24914490Y33623999D01*
X24909000Y33679743D01*
X24909000Y33990000D01*
X27047761Y33990000D01*
X27182748Y33855013D01*
X27450537Y33676082D01*
X27748088Y33552832D01*
X28063967Y33490000D01*
X28386033Y33490000D01*
X28701912Y33552832D01*
X28999463Y33676082D01*
X29267252Y33855013D01*
X29402239Y33990000D01*
X31862000Y33990000D01*
X31862001Y30535264D01*
X31795899Y30499932D01*
X31577392Y30320608D01*
X31398068Y30102101D01*
X31264818Y29852808D01*
X31182764Y29582309D01*
X31155057Y29301000D01*
X31182764Y29019691D01*
X31264818Y28749192D01*
X31398068Y28499899D01*
X31577392Y28281392D01*
X31795899Y28102068D01*
X31928858Y28031000D01*
X31795899Y27959932D01*
X31717998Y27896000D01*
X26770090Y27896000D01*
X26821180Y27911498D01*
X26931494Y27970463D01*
X27028185Y28049815D01*
X27107537Y28146506D01*
X27166502Y28256820D01*
X27202812Y28376518D01*
X27215072Y28501000D01*
X27212000Y29015250D01*
X27053250Y29174000D01*
X25504000Y29174000D01*
X25504000Y29154000D01*
X25250000Y29154000D01*
X25250000Y29174000D01*
X23700750Y29174000D01*
X23542000Y29015250D01*
X23538928Y28501000D01*
X23551188Y28376518D01*
X23587498Y28256820D01*
X23646463Y28146506D01*
X23725815Y28049815D01*
X23822506Y27970463D01*
X23932820Y27911498D01*
X24052518Y27875188D01*
X24070482Y27873419D01*
X23957392Y27780608D01*
X23778068Y27562101D01*
X23644818Y27312808D01*
X23562764Y27042309D01*
X23535057Y26761000D01*
X23562764Y26479691D01*
X23644818Y26209192D01*
X23778068Y25959899D01*
X23957392Y25741392D01*
X24175899Y25562068D01*
X24308858Y25491000D01*
X24175899Y25419932D01*
X23957392Y25240608D01*
X23778068Y25022101D01*
X23644818Y24772808D01*
X23562764Y24502309D01*
X23535057Y24221000D01*
X23562764Y23939691D01*
X23644818Y23669192D01*
X23778068Y23419899D01*
X23957392Y23201392D01*
X24175899Y23022068D01*
X24308858Y22951000D01*
X24175899Y22879932D01*
X24120590Y22834541D01*
X21341996Y25613135D01*
X21306449Y25656449D01*
X21133623Y25798284D01*
X20936447Y25903676D01*
X20722499Y25968577D01*
X20555752Y25985000D01*
X20555751Y25985000D01*
X20500000Y25990491D01*
X20444249Y25985000D01*
X20444248Y25985000D01*
X20277501Y25968577D01*
X20063553Y25903676D01*
X19866377Y25798284D01*
X19693551Y25656449D01*
X19551716Y25483623D01*
X19446324Y25286447D01*
X19381423Y25072499D01*
X19359509Y24850000D01*
X19381423Y24627501D01*
X19446324Y24413553D01*
X19551716Y24216377D01*
X19693551Y24043551D01*
X19736865Y24008004D01*
X22827009Y20917859D01*
X22862551Y20874551D01*
X23018317Y20746717D01*
X23035377Y20732716D01*
X23232553Y20627324D01*
X23446501Y20562423D01*
X23669000Y20540509D01*
X23724752Y20546000D01*
X24097998Y20546000D01*
X24175899Y20482068D01*
X24242000Y20446736D01*
X24242001Y17942026D01*
X24220506Y17930537D01*
X24123815Y17851185D01*
X24044463Y17754494D01*
X23985498Y17644180D01*
X23949188Y17524482D01*
X23936928Y17400000D01*
X23936928Y16742060D01*
X19286860Y12091991D01*
X19243552Y12056449D01*
X19101717Y11883623D01*
X19052705Y11791928D01*
X18996324Y11686446D01*
X18931423Y11472498D01*
X18909509Y11250000D01*
X18915001Y11194239D01*
X18915000Y8417888D01*
X18906614Y8413405D01*
X18772038Y8302962D01*
X18661595Y8168386D01*
X18579528Y8014850D01*
X18528992Y7848254D01*
X18511928Y7675000D01*
X18511928Y4575000D01*
X18528992Y4401746D01*
X18579528Y4235150D01*
X18661595Y4081614D01*
X18772038Y3947038D01*
X18906614Y3836595D01*
X19060150Y3754528D01*
X19226746Y3703992D01*
X19400000Y3686928D01*
X20700000Y3686928D01*
X20873254Y3703992D01*
X21039850Y3754528D01*
X21193386Y3836595D01*
X21327962Y3947038D01*
X21438405Y4081614D01*
X21520472Y4235150D01*
X21571008Y4401746D01*
X21588072Y4575000D01*
X21588072Y7675000D01*
X21571008Y7848254D01*
X21520472Y8014850D01*
X21438405Y8168386D01*
X21327962Y8302962D01*
X21193386Y8413405D01*
X21185000Y8417887D01*
X21185000Y8630960D01*
X23983091Y8630960D01*
X24077930Y8366119D01*
X24222615Y8124869D01*
X24411586Y7916481D01*
X24637580Y7748963D01*
X24891913Y7628754D01*
X25025961Y7588096D01*
X25248000Y7710085D01*
X25248000Y8853000D01*
X25502000Y8853000D01*
X25502000Y7710085D01*
X25724039Y7588096D01*
X25858087Y7628754D01*
X26112420Y7748963D01*
X26338414Y7916481D01*
X26442214Y8030947D01*
X32018072Y8030947D01*
X32113836Y7766546D01*
X32403451Y7625656D01*
X32714988Y7543976D01*
X33036475Y7524642D01*
X33355555Y7568399D01*
X33659968Y7673565D01*
X33833924Y7766546D01*
X33846388Y7800961D01*
X44213096Y7800961D01*
X44253754Y7666913D01*
X44373963Y7412580D01*
X44541481Y7186586D01*
X44749869Y6997615D01*
X44991119Y6852930D01*
X45255960Y6758091D01*
X45478000Y6879376D01*
X45478000Y8023000D01*
X45732000Y8023000D01*
X45732000Y6879376D01*
X45954040Y6758091D01*
X46218881Y6852930D01*
X46460131Y6997615D01*
X46668519Y7186586D01*
X46836037Y7412580D01*
X46956246Y7666913D01*
X46996904Y7800961D01*
X46874915Y8023000D01*
X45732000Y8023000D01*
X45478000Y8023000D01*
X44335085Y8023000D01*
X44213096Y7800961D01*
X33846388Y7800961D01*
X33929688Y8030947D01*
X32973880Y8986755D01*
X32018072Y8030947D01*
X26442214Y8030947D01*
X26527385Y8124869D01*
X26672070Y8366119D01*
X26766909Y8630960D01*
X26645624Y8853000D01*
X25502000Y8853000D01*
X25248000Y8853000D01*
X24104376Y8853000D01*
X23983091Y8630960D01*
X21185000Y8630960D01*
X21185000Y9103765D01*
X31332162Y9103765D01*
X31375919Y8784685D01*
X31481085Y8480272D01*
X31574066Y8306316D01*
X31838467Y8210552D01*
X32794275Y9166360D01*
X33153485Y9166360D01*
X34109293Y8210552D01*
X34373694Y8306316D01*
X34467448Y8499039D01*
X44213096Y8499039D01*
X44335085Y8277000D01*
X45478000Y8277000D01*
X45478000Y9420624D01*
X45732000Y9420624D01*
X45732000Y8277000D01*
X46874915Y8277000D01*
X46996904Y8499039D01*
X46956246Y8633087D01*
X46836037Y8887420D01*
X46668519Y9113414D01*
X46460131Y9302385D01*
X46218881Y9447070D01*
X45954040Y9541909D01*
X45732000Y9420624D01*
X45478000Y9420624D01*
X45255960Y9541909D01*
X44991119Y9447070D01*
X44749869Y9302385D01*
X44541481Y9113414D01*
X44373963Y8887420D01*
X44253754Y8633087D01*
X44213096Y8499039D01*
X34467448Y8499039D01*
X34514584Y8595931D01*
X34596264Y8907468D01*
X34615598Y9228955D01*
X34571841Y9548035D01*
X34466675Y9852448D01*
X34373694Y10026404D01*
X34109293Y10122168D01*
X33153485Y9166360D01*
X32794275Y9166360D01*
X31838467Y10122168D01*
X31574066Y10026404D01*
X31433176Y9736789D01*
X31351496Y9425252D01*
X31332162Y9103765D01*
X21185000Y9103765D01*
X21185000Y9329040D01*
X23983091Y9329040D01*
X24104376Y9107000D01*
X25248000Y9107000D01*
X25248000Y10249915D01*
X25502000Y10249915D01*
X25502000Y9107000D01*
X26645624Y9107000D01*
X26766909Y9329040D01*
X26672070Y9593881D01*
X26527385Y9835131D01*
X26338414Y10043519D01*
X26112420Y10211037D01*
X25920445Y10301773D01*
X32018072Y10301773D01*
X32973880Y9345965D01*
X33929688Y10301773D01*
X33833924Y10566174D01*
X33544309Y10707064D01*
X33232772Y10788744D01*
X32911285Y10808078D01*
X32592205Y10764321D01*
X32287792Y10659155D01*
X32113836Y10566174D01*
X32018072Y10301773D01*
X25920445Y10301773D01*
X25858087Y10331246D01*
X25724039Y10371904D01*
X25502000Y10249915D01*
X25248000Y10249915D01*
X25025961Y10371904D01*
X24891913Y10331246D01*
X24637580Y10211037D01*
X24411586Y10043519D01*
X24222615Y9835131D01*
X24077930Y9593881D01*
X23983091Y9329040D01*
X21185000Y9329040D01*
X21185000Y10779869D01*
X25567060Y15161928D01*
X26175000Y15161928D01*
X26299482Y15174188D01*
X26419180Y15210498D01*
X26529494Y15269463D01*
X26626185Y15348815D01*
X26705537Y15445506D01*
X26764502Y15555820D01*
X26800812Y15675518D01*
X26813072Y15800000D01*
X26813072Y17400000D01*
X26800812Y17524482D01*
X26764502Y17644180D01*
X26705537Y17754494D01*
X26626185Y17851185D01*
X26529494Y17930537D01*
X26512000Y17939888D01*
X26512000Y20446736D01*
X26578101Y20482068D01*
X26796608Y20661392D01*
X26975932Y20879899D01*
X27109182Y21129192D01*
X27191236Y21399691D01*
X27218943Y21681000D01*
X27191236Y21962309D01*
X27109182Y22232808D01*
X26975932Y22482101D01*
X26796608Y22700608D01*
X26578101Y22879932D01*
X26445142Y22951000D01*
X26578101Y23022068D01*
X26656002Y23086000D01*
X26961869Y23086000D01*
X28617000Y21430868D01*
X28617001Y14653761D01*
X28611509Y14598000D01*
X28633423Y14375502D01*
X28698324Y14161554D01*
X28723772Y14113944D01*
X28803717Y13964377D01*
X28945552Y13791551D01*
X28988860Y13756009D01*
X29433008Y13311860D01*
X29468551Y13268551D01*
X29641377Y13126716D01*
X29714742Y13087502D01*
X29838553Y13021324D01*
X30052501Y12956423D01*
X30275000Y12934509D01*
X30330752Y12940000D01*
X34519249Y12940000D01*
X34575000Y12934509D01*
X34630751Y12940000D01*
X34630752Y12940000D01*
X34797499Y12956423D01*
X35011447Y13021324D01*
X35208623Y13126716D01*
X35381449Y13268551D01*
X35416996Y13311864D01*
X36221928Y14116796D01*
X36221928Y12410000D01*
X36234188Y12285518D01*
X36270498Y12165820D01*
X36329463Y12055506D01*
X36408815Y11958815D01*
X36505506Y11879463D01*
X36615820Y11820498D01*
X36735518Y11784188D01*
X36860000Y11771928D01*
X38660000Y11771928D01*
X38784482Y11784188D01*
X38904180Y11820498D01*
X39014494Y11879463D01*
X39111185Y11958815D01*
X39190537Y12055506D01*
X39249502Y12165820D01*
X39252287Y12175000D01*
X41941713Y12175000D01*
X41944498Y12165820D01*
X42003463Y12055506D01*
X42082815Y11958815D01*
X42179506Y11879463D01*
X42289820Y11820498D01*
X42409518Y11784188D01*
X42534000Y11771928D01*
X44334000Y11771928D01*
X44458482Y11784188D01*
X44578180Y11820498D01*
X44688494Y11879463D01*
X44785185Y11958815D01*
X44864537Y12055506D01*
X44923502Y12165820D01*
X44926287Y12175000D01*
X47780680Y12175000D01*
X47786498Y12155820D01*
X47845463Y12045506D01*
X47924815Y11948815D01*
X48021506Y11869463D01*
X48131820Y11810498D01*
X48251518Y11774188D01*
X48376000Y11761928D01*
X50176000Y11761928D01*
X50300482Y11774188D01*
X50420180Y11810498D01*
X50530494Y11869463D01*
X50627185Y11948815D01*
X50706537Y12045506D01*
X50765502Y12155820D01*
X50771320Y12175000D01*
X52090001Y12175000D01*
X52090000Y9034284D01*
X51953320Y8829727D01*
X51845147Y8568574D01*
X51790000Y8291335D01*
X51790000Y8008665D01*
X51845147Y7731426D01*
X51953320Y7470273D01*
X52110363Y7235241D01*
X52310241Y7035363D01*
X52545273Y6878320D01*
X52806426Y6770147D01*
X53083665Y6715000D01*
X53366335Y6715000D01*
X53643574Y6770147D01*
X53904727Y6878320D01*
X54139759Y7035363D01*
X54339637Y7235241D01*
X54496680Y7470273D01*
X54604853Y7731426D01*
X54660000Y8008665D01*
X54660000Y8291335D01*
X54604853Y8568574D01*
X54496680Y8829727D01*
X54360000Y9034284D01*
X54360000Y11769928D01*
X56018000Y11769928D01*
X56142482Y11782188D01*
X56262180Y11818498D01*
X56372494Y11877463D01*
X56469185Y11956815D01*
X56548537Y12053506D01*
X56607502Y12163820D01*
X56610893Y12175000D01*
X59730282Y12175000D01*
X59783463Y12075506D01*
X59862815Y11978815D01*
X59959506Y11899463D01*
X60069820Y11840498D01*
X60189518Y11804188D01*
X60314000Y11791928D01*
X62114000Y11791928D01*
X62238482Y11804188D01*
X62358180Y11840498D01*
X62468494Y11899463D01*
X62565185Y11978815D01*
X62644537Y12075506D01*
X62697718Y12175000D01*
X65563107Y12175000D01*
X65566498Y12163820D01*
X65625463Y12053506D01*
X65704815Y11956815D01*
X65801506Y11877463D01*
X65911820Y11818498D01*
X66031518Y11782188D01*
X66156000Y11769928D01*
X67956000Y11769928D01*
X68080482Y11782188D01*
X68200180Y11818498D01*
X68310494Y11877463D01*
X68407185Y11956815D01*
X68486537Y12053506D01*
X68545502Y12163820D01*
X68548893Y12175000D01*
X71913107Y12175000D01*
X71916498Y12163820D01*
X71975463Y12053506D01*
X72054815Y11956815D01*
X72151506Y11877463D01*
X72261820Y11818498D01*
X72381518Y11782188D01*
X72506000Y11769928D01*
X74306000Y11769928D01*
X74430482Y11782188D01*
X74550180Y11818498D01*
X74660494Y11877463D01*
X74757185Y11956815D01*
X74836537Y12053506D01*
X74895502Y12163820D01*
X74898893Y12175000D01*
X78263107Y12175000D01*
X78266498Y12163820D01*
X78325463Y12053506D01*
X78404815Y11956815D01*
X78501506Y11877463D01*
X78611820Y11818498D01*
X78731518Y11782188D01*
X78856000Y11769928D01*
X80656000Y11769928D01*
X80780482Y11782188D01*
X80900180Y11818498D01*
X81010494Y11877463D01*
X81107185Y11956815D01*
X81186537Y12053506D01*
X81245502Y12163820D01*
X81248893Y12175000D01*
X84613107Y12175000D01*
X84616498Y12163820D01*
X84675463Y12053506D01*
X84754815Y11956815D01*
X84851506Y11877463D01*
X84961820Y11818498D01*
X85081518Y11782188D01*
X85206000Y11769928D01*
X87006000Y11769928D01*
X87130482Y11782188D01*
X87250180Y11818498D01*
X87360494Y11877463D01*
X87457185Y11956815D01*
X87536537Y12053506D01*
X87595502Y12163820D01*
X87598893Y12175000D01*
X90963107Y12175000D01*
X90966498Y12163820D01*
X91025463Y12053506D01*
X91104815Y11956815D01*
X91201506Y11877463D01*
X91311820Y11818498D01*
X91431518Y11782188D01*
X91556000Y11769928D01*
X93356000Y11769928D01*
X93480482Y11782188D01*
X93600180Y11818498D01*
X93710494Y11877463D01*
X93807185Y11956815D01*
X93886537Y12053506D01*
X93945502Y12163820D01*
X93981812Y12283518D01*
X93994072Y12408000D01*
X93994072Y14208000D01*
X93981812Y14332482D01*
X93945502Y14452180D01*
X93886537Y14562494D01*
X93807185Y14659185D01*
X93710494Y14738537D01*
X93600180Y14797502D01*
X93581873Y14803056D01*
X93648312Y14869495D01*
X93816299Y15120905D01*
X93932011Y15400257D01*
X93991000Y15696816D01*
X93991000Y15999184D01*
X93932011Y16295743D01*
X93816299Y16575095D01*
X93648312Y16826505D01*
X93434505Y17040312D01*
X93183095Y17208299D01*
X92903743Y17324011D01*
X92607184Y17383000D01*
X92522132Y17383000D01*
X75266996Y34638135D01*
X75231449Y34681449D01*
X75058623Y34823284D01*
X74861447Y34928676D01*
X74647499Y34993577D01*
X74480752Y35010000D01*
X74480751Y35010000D01*
X74425000Y35015491D01*
X74369249Y35010000D01*
X59380752Y35010000D01*
X59325000Y35015491D01*
X59102501Y34993577D01*
X58888553Y34928676D01*
X58691377Y34823284D01*
X58561856Y34716989D01*
X58561855Y34716988D01*
X58518551Y34681449D01*
X58483013Y34638146D01*
X56961864Y33116995D01*
X56918551Y33081449D01*
X56776716Y32908623D01*
X56686586Y32740000D01*
X56671324Y32711446D01*
X56606423Y32497498D01*
X56584509Y32275000D01*
X56590000Y32219248D01*
X56590001Y30599002D01*
X56526068Y30521100D01*
X56455000Y30388142D01*
X56383932Y30521101D01*
X56204607Y30739608D01*
X55986100Y30918932D01*
X55736807Y31052182D01*
X55466308Y31134236D01*
X55185000Y31161943D01*
X54903691Y31134236D01*
X54633192Y31052182D01*
X54383899Y30918932D01*
X54165392Y30739607D01*
X53986068Y30521100D01*
X53917735Y30393258D01*
X53767601Y30622839D01*
X53569895Y30824500D01*
X53336646Y30983715D01*
X53076818Y31094367D01*
X52994039Y31111904D01*
X52772000Y30989915D01*
X52772000Y29447000D01*
X52792000Y29447000D01*
X52792000Y29193000D01*
X52772000Y29193000D01*
X52772000Y27650085D01*
X52994039Y27528096D01*
X53076818Y27545633D01*
X53336646Y27656285D01*
X53569895Y27815500D01*
X53767601Y28017161D01*
X53917735Y28246741D01*
X53986068Y28118899D01*
X54165393Y27900392D01*
X54383900Y27721068D01*
X54633193Y27587818D01*
X54903692Y27505764D01*
X55185000Y27478057D01*
X55466309Y27505764D01*
X55736808Y27587818D01*
X55986101Y27721068D01*
X56204608Y27900392D01*
X56383932Y28118899D01*
X56455000Y28251858D01*
X56526068Y28118899D01*
X56705393Y27900392D01*
X56923900Y27721068D01*
X57173193Y27587818D01*
X57443692Y27505764D01*
X57725000Y27478057D01*
X58006309Y27505764D01*
X58276808Y27587818D01*
X58526101Y27721068D01*
X58744608Y27900392D01*
X58923932Y28118899D01*
X58995000Y28251858D01*
X59066068Y28118899D01*
X59245393Y27900392D01*
X59463900Y27721068D01*
X59713193Y27587818D01*
X59983692Y27505764D01*
X60265000Y27478057D01*
X60546309Y27505764D01*
X60816808Y27587818D01*
X61066101Y27721068D01*
X61284608Y27900392D01*
X61463932Y28118899D01*
X61535000Y28251858D01*
X61606068Y28118899D01*
X61785393Y27900392D01*
X62003900Y27721068D01*
X62253193Y27587818D01*
X62523692Y27505764D01*
X62805000Y27478057D01*
X63086309Y27505764D01*
X63356808Y27587818D01*
X63606101Y27721068D01*
X63824608Y27900392D01*
X64003932Y28118899D01*
X64039264Y28185000D01*
X65809869Y28185000D01*
X78221000Y15773868D01*
X78221000Y15696816D01*
X78279989Y15400257D01*
X78395701Y15120905D01*
X78563688Y14869495D01*
X78630127Y14803056D01*
X78611820Y14797502D01*
X78501506Y14738537D01*
X78404815Y14659185D01*
X78325463Y14562494D01*
X78266498Y14452180D01*
X78264320Y14445000D01*
X74897680Y14445000D01*
X74895502Y14452180D01*
X74836537Y14562494D01*
X74757185Y14659185D01*
X74660494Y14738537D01*
X74550180Y14797502D01*
X74531873Y14803056D01*
X74598312Y14869495D01*
X74766299Y15120905D01*
X74882011Y15400257D01*
X74941000Y15696816D01*
X74941000Y15999184D01*
X74882011Y16295743D01*
X74766299Y16575095D01*
X74598312Y16826505D01*
X74384505Y17040312D01*
X74133095Y17208299D01*
X73853743Y17324011D01*
X73557184Y17383000D01*
X73476132Y17383000D01*
X70645996Y20213135D01*
X70610449Y20256449D01*
X70437623Y20398284D01*
X70240447Y20503676D01*
X70026499Y20568577D01*
X69859752Y20585000D01*
X69859751Y20585000D01*
X69804000Y20590491D01*
X69748249Y20585000D01*
X64050438Y20585000D01*
X64082166Y20633517D01*
X64187650Y20895486D01*
X64240000Y21173000D01*
X64240000Y21573000D01*
X62932000Y21573000D01*
X62932000Y21553000D01*
X62678000Y21553000D01*
X62678000Y21573000D01*
X62658000Y21573000D01*
X62658000Y21827000D01*
X62678000Y21827000D01*
X62678000Y23369915D01*
X62932000Y23369915D01*
X62932000Y21827000D01*
X64240000Y21827000D01*
X64240000Y22227000D01*
X64187650Y22504514D01*
X64082166Y22766483D01*
X63927601Y23002839D01*
X63729895Y23204500D01*
X63496646Y23363715D01*
X63236818Y23474367D01*
X63154039Y23491904D01*
X62932000Y23369915D01*
X62678000Y23369915D01*
X62455961Y23491904D01*
X62373182Y23474367D01*
X62113354Y23363715D01*
X61880105Y23204500D01*
X61682399Y23002839D01*
X61532265Y22773259D01*
X61463932Y22901101D01*
X61284607Y23119608D01*
X61066100Y23298932D01*
X60816807Y23432182D01*
X60546308Y23514236D01*
X60265000Y23541943D01*
X59983691Y23514236D01*
X59713192Y23432182D01*
X59463899Y23298932D01*
X59245392Y23119607D01*
X59066068Y22901100D01*
X58995000Y22768142D01*
X58923932Y22901101D01*
X58744607Y23119608D01*
X58526100Y23298932D01*
X58276807Y23432182D01*
X58006308Y23514236D01*
X57725000Y23541943D01*
X57443691Y23514236D01*
X57173192Y23432182D01*
X56923899Y23298932D01*
X56705392Y23119607D01*
X56526068Y22901100D01*
X56455000Y22768142D01*
X56383932Y22901101D01*
X56204607Y23119608D01*
X55986100Y23298932D01*
X55736807Y23432182D01*
X55466308Y23514236D01*
X55185000Y23541943D01*
X54903691Y23514236D01*
X54633192Y23432182D01*
X54383899Y23298932D01*
X54165392Y23119607D01*
X53986068Y22901100D01*
X53915000Y22768142D01*
X53843932Y22901101D01*
X53664607Y23119608D01*
X53446100Y23298932D01*
X53196807Y23432182D01*
X52926308Y23514236D01*
X52645000Y23541943D01*
X52363691Y23514236D01*
X52093192Y23432182D01*
X51843899Y23298932D01*
X51625392Y23119607D01*
X51446068Y22901100D01*
X51375000Y22768142D01*
X51303932Y22901101D01*
X51124607Y23119608D01*
X50906100Y23298932D01*
X50656807Y23432182D01*
X50386308Y23514236D01*
X50105000Y23541943D01*
X49823691Y23514236D01*
X49553192Y23432182D01*
X49303899Y23298932D01*
X49085392Y23119607D01*
X48906068Y22901100D01*
X48835000Y22768142D01*
X48763932Y22901101D01*
X48584607Y23119608D01*
X48366100Y23298932D01*
X48116807Y23432182D01*
X47846308Y23514236D01*
X47565000Y23541943D01*
X47283691Y23514236D01*
X47013192Y23432182D01*
X46763899Y23298932D01*
X46545392Y23119607D01*
X46452581Y23006517D01*
X46450812Y23024482D01*
X46414502Y23144180D01*
X46355537Y23254494D01*
X46276185Y23351185D01*
X46179494Y23430537D01*
X46069180Y23489502D01*
X45949482Y23525812D01*
X45825000Y23538072D01*
X44225000Y23538072D01*
X44100518Y23525812D01*
X43980820Y23489502D01*
X43870506Y23430537D01*
X43773815Y23351185D01*
X43694463Y23254494D01*
X43635498Y23144180D01*
X43599188Y23024482D01*
X43586928Y22900000D01*
X43586928Y21867060D01*
X38750343Y17030474D01*
X38738505Y17042312D01*
X38487095Y17210299D01*
X38207743Y17326011D01*
X37911184Y17385000D01*
X37608816Y17385000D01*
X37312257Y17326011D01*
X37032905Y17210299D01*
X36885000Y17111472D01*
X36885000Y19979869D01*
X41870133Y24965000D01*
X48494249Y24965000D01*
X48550000Y24959509D01*
X48605751Y24965000D01*
X48605752Y24965000D01*
X48772499Y24981423D01*
X48986447Y25046324D01*
X49183623Y25151716D01*
X49356449Y25293551D01*
X49391996Y25336865D01*
X50868140Y26813009D01*
X50911449Y26848551D01*
X51053284Y27021377D01*
X51158676Y27218553D01*
X51223577Y27432501D01*
X51240000Y27599248D01*
X51240000Y27599249D01*
X51245491Y27654999D01*
X51240000Y27710751D01*
X51240000Y28040998D01*
X51303932Y28118899D01*
X51372265Y28246741D01*
X51522399Y28017161D01*
X51720105Y27815500D01*
X51953354Y27656285D01*
X52213182Y27545633D01*
X52295961Y27528096D01*
X52518000Y27650085D01*
X52518000Y29193000D01*
X52498000Y29193000D01*
X52498000Y29447000D01*
X52518000Y29447000D01*
X52518000Y30989915D01*
X52295961Y31111904D01*
X52213182Y31094367D01*
X51953354Y30983715D01*
X51720105Y30824500D01*
X51522399Y30622839D01*
X51372265Y30393259D01*
X51303932Y30521101D01*
X51124607Y30739608D01*
X50906100Y30918932D01*
X50656807Y31052182D01*
X50386308Y31134236D01*
X50105000Y31161943D01*
X49823691Y31134236D01*
X49553192Y31052182D01*
X49303899Y30918932D01*
X49085392Y30739607D01*
X48906068Y30521100D01*
X48837735Y30393258D01*
X48687601Y30622839D01*
X48489895Y30824500D01*
X48256646Y30983715D01*
X47996818Y31094367D01*
X47914039Y31111904D01*
X47692000Y30989915D01*
X47692000Y29447000D01*
X47712000Y29447000D01*
X47712000Y29193000D01*
X47692000Y29193000D01*
X47692000Y27650085D01*
X47914039Y27528096D01*
X47996818Y27545633D01*
X48256646Y27656285D01*
X48489895Y27815500D01*
X48687601Y28017161D01*
X48837735Y28246741D01*
X48906068Y28118899D01*
X48932076Y28087208D01*
X48079869Y27235000D01*
X41455752Y27235000D01*
X41400000Y27240491D01*
X41177501Y27218577D01*
X40963553Y27153676D01*
X40766377Y27048284D01*
X40636856Y26941989D01*
X40636854Y26941987D01*
X40593551Y26906449D01*
X40558013Y26863146D01*
X34986860Y21291991D01*
X34943552Y21256449D01*
X34801717Y21083623D01*
X34745384Y20978230D01*
X34696324Y20886446D01*
X34631423Y20672498D01*
X34609509Y20450000D01*
X34615001Y20394239D01*
X34615000Y15720132D01*
X34104869Y15210000D01*
X33730376Y15210000D01*
X33748343Y15217442D01*
X34016132Y15396373D01*
X34243867Y15624108D01*
X34422798Y15891897D01*
X34546048Y16189448D01*
X34608880Y16505327D01*
X34608880Y16827393D01*
X34546048Y17143272D01*
X34422798Y17440823D01*
X34243867Y17708612D01*
X34132000Y17820479D01*
X34132000Y20446736D01*
X34198101Y20482068D01*
X34416608Y20661392D01*
X34595932Y20879899D01*
X34729182Y21129192D01*
X34811236Y21399691D01*
X34838943Y21681000D01*
X34811236Y21962309D01*
X34729182Y22232808D01*
X34595932Y22482101D01*
X34416608Y22700608D01*
X34198101Y22879932D01*
X34065142Y22951000D01*
X34198101Y23022068D01*
X34416608Y23201392D01*
X34595932Y23419899D01*
X34729182Y23669192D01*
X34811236Y23939691D01*
X34838943Y24221000D01*
X34811236Y24502309D01*
X34729182Y24772808D01*
X34595932Y25022101D01*
X34416608Y25240608D01*
X34198101Y25419932D01*
X34132000Y25455264D01*
X34132000Y25526736D01*
X34198101Y25562068D01*
X34416608Y25741392D01*
X34595932Y25959899D01*
X34729182Y26209192D01*
X34811236Y26479691D01*
X34838943Y26761000D01*
X34811236Y27042309D01*
X34729182Y27312808D01*
X34595932Y27562101D01*
X34416608Y27780608D01*
X34198101Y27959932D01*
X34065142Y28031000D01*
X34198101Y28102068D01*
X34299154Y28185000D01*
X43790736Y28185000D01*
X43826068Y28118899D01*
X44005393Y27900392D01*
X44223900Y27721068D01*
X44473193Y27587818D01*
X44743692Y27505764D01*
X45025000Y27478057D01*
X45306309Y27505764D01*
X45576808Y27587818D01*
X45826101Y27721068D01*
X46044608Y27900392D01*
X46223932Y28118899D01*
X46292265Y28246741D01*
X46442399Y28017161D01*
X46640105Y27815500D01*
X46873354Y27656285D01*
X47133182Y27545633D01*
X47215961Y27528096D01*
X47438000Y27650085D01*
X47438000Y29193000D01*
X47418000Y29193000D01*
X47418000Y29447000D01*
X47438000Y29447000D01*
X47438000Y30989915D01*
X47215961Y31111904D01*
X47133182Y31094367D01*
X46873354Y30983715D01*
X46640105Y30824500D01*
X46442399Y30622839D01*
X46292265Y30393259D01*
X46223932Y30521101D01*
X46044607Y30739608D01*
X45826100Y30918932D01*
X45576807Y31052182D01*
X45306308Y31134236D01*
X45025000Y31161943D01*
X44743691Y31134236D01*
X44473192Y31052182D01*
X44223899Y30918932D01*
X44005392Y30739607D01*
X43826068Y30521100D01*
X43790737Y30455000D01*
X34252851Y30455000D01*
X34198101Y30499932D01*
X34132000Y30535264D01*
X34132000Y33600917D01*
X34248088Y33552832D01*
X34563967Y33490000D01*
X34886033Y33490000D01*
X35201912Y33552832D01*
X35499463Y33676082D01*
X35767252Y33855013D01*
X35994987Y34082748D01*
X36173918Y34350537D01*
X36297168Y34648088D01*
X36360000Y34963967D01*
X36360000Y35286033D01*
X36297168Y35601912D01*
X36173918Y35899463D01*
X35994987Y36167252D01*
X35767252Y36394987D01*
X35499463Y36573918D01*
X35201912Y36697168D01*
X34886033Y36760000D01*
X34563967Y36760000D01*
X34248088Y36697168D01*
X33950537Y36573918D01*
X33682748Y36394987D01*
X33547761Y36260000D01*
X29402239Y36260000D01*
X29267252Y36394987D01*
X28999463Y36573918D01*
X28701912Y36697168D01*
X28386033Y36760000D01*
X28063967Y36760000D01*
X27748088Y36697168D01*
X27450537Y36573918D01*
X27182748Y36394987D01*
X27047761Y36260000D01*
X24909000Y36260000D01*
X24909000Y38153249D01*
X24914491Y38209001D01*
X24892577Y38431500D01*
X24850161Y38571324D01*
X24827676Y38645447D01*
X24722284Y38842623D01*
X24580449Y39015449D01*
X24537141Y39050991D01*
X23166212Y40421919D01*
X23133775Y40584989D01*
X23029371Y40837043D01*
X22877799Y41063886D01*
X22751685Y41190000D01*
X25054869Y41190000D01*
X26461857Y39783011D01*
X26461862Y39783007D01*
X26590000Y39654869D01*
X26590000Y39463967D01*
X26652832Y39148088D01*
X26776082Y38850537D01*
X26955013Y38582748D01*
X27182748Y38355013D01*
X27450537Y38176082D01*
X27748088Y38052832D01*
X28063967Y37990000D01*
X28386033Y37990000D01*
X28701912Y38052832D01*
X28999463Y38176082D01*
X29267252Y38355013D01*
X29402239Y38490000D01*
X33547761Y38490000D01*
X33682748Y38355013D01*
X33950537Y38176082D01*
X34248088Y38052832D01*
X34563967Y37990000D01*
X34886033Y37990000D01*
X35201912Y38052832D01*
X35499463Y38176082D01*
X35767252Y38355013D01*
X35994987Y38582748D01*
X36173918Y38850537D01*
X36297168Y39148088D01*
X36360000Y39463967D01*
X36360000Y39786033D01*
X36297168Y40101912D01*
X36173918Y40399463D01*
X35994987Y40667252D01*
X35767252Y40894987D01*
X35499463Y41073918D01*
X35201912Y41197168D01*
X34886033Y41260000D01*
X34563967Y41260000D01*
X34248088Y41197168D01*
X33950537Y41073918D01*
X33682748Y40894987D01*
X33547761Y40760000D01*
X29402239Y40760000D01*
X29267252Y40894987D01*
X28999463Y41073918D01*
X28701912Y41197168D01*
X28386033Y41260000D01*
X28195131Y41260000D01*
X28066993Y41388138D01*
X28066989Y41388143D01*
X26366996Y43088135D01*
X26331449Y43131449D01*
X26158623Y43273284D01*
X25961447Y43378676D01*
X25747499Y43443577D01*
X25580752Y43460000D01*
X25580751Y43460000D01*
X25525000Y43465491D01*
X25469249Y43460000D01*
X20181752Y43460000D01*
X20126000Y43465491D01*
X19903501Y43443577D01*
X19689553Y43378676D01*
X19492377Y43273284D01*
X19362856Y43166989D01*
X19362855Y43166988D01*
X19319551Y43131449D01*
X19284013Y43088145D01*
X18498859Y42302991D01*
X18455552Y42267449D01*
X18313717Y42094623D01*
X18257384Y41989230D01*
X18208324Y41897446D01*
X18143423Y41683498D01*
X18121509Y41461000D01*
X18127001Y41405239D01*
X18127000Y38776000D01*
X12947741Y38776000D01*
X12891999Y38781490D01*
X12836257Y38776000D01*
X12836248Y38776000D01*
X12669501Y38759577D01*
X12455553Y38694676D01*
X12258377Y38589284D01*
X12085551Y38447449D01*
X12050009Y38404141D01*
X8624719Y34978850D01*
X8383426Y34930853D01*
X8122273Y34822680D01*
X7887241Y34665637D01*
X7687363Y34465759D01*
X7530320Y34230727D01*
X7422147Y33969574D01*
X7374150Y33728282D01*
X6013865Y32367996D01*
X5970551Y32332449D01*
X5828716Y32159623D01*
X5735271Y31984797D01*
X5723324Y31962446D01*
X5658423Y31748498D01*
X5636509Y31526000D01*
X5642000Y31470249D01*
X5642001Y19141957D01*
X5622506Y19131537D01*
X5525815Y19052185D01*
X5446463Y18955494D01*
X5387498Y18845180D01*
X5351188Y18725482D01*
X5338928Y18601000D01*
X660000Y18601000D01*
X660000Y45390000D01*
X96864642Y45390000D01*
X96840359Y684831D01*
X96840359Y684831D01*
G37*
X96840359Y684831D02*
X660000Y660169D01*
X660000Y5998000D01*
X15015000Y5998000D01*
X15015000Y5098000D01*
X15069271Y4800977D01*
X15180446Y4520249D01*
X15344252Y4266604D01*
X15554394Y4049790D01*
X15802796Y3878138D01*
X16079913Y3758245D01*
X16185260Y3733964D01*
X16423000Y3854622D01*
X16423000Y5998000D01*
X16677000Y5998000D01*
X16677000Y3854622D01*
X16914740Y3733964D01*
X17020087Y3758245D01*
X17297204Y3878138D01*
X17545606Y4049790D01*
X17755748Y4266604D01*
X17919554Y4520249D01*
X18030729Y4800977D01*
X18085000Y5098000D01*
X18085000Y5998000D01*
X16677000Y5998000D01*
X16423000Y5998000D01*
X15015000Y5998000D01*
X660000Y5998000D01*
X660000Y7152000D01*
X15015000Y7152000D01*
X15015000Y6252000D01*
X16423000Y6252000D01*
X16423000Y8395378D01*
X16677000Y8395378D01*
X16677000Y6252000D01*
X18085000Y6252000D01*
X18085000Y7152000D01*
X18030729Y7449023D01*
X17919554Y7729751D01*
X17755748Y7983396D01*
X17545606Y8200210D01*
X17297204Y8371862D01*
X17020087Y8491755D01*
X16914740Y8516036D01*
X16677000Y8395378D01*
X16423000Y8395378D01*
X16185260Y8516036D01*
X16079913Y8491755D01*
X15802796Y8371862D01*
X15554394Y8200210D01*
X15344252Y7983396D01*
X15180446Y7729751D01*
X15069271Y7449023D01*
X15015000Y7152000D01*
X660000Y7152000D01*
X660000Y13008298D01*
X5963903Y13008298D01*
X6035486Y12764329D01*
X6290996Y12643429D01*
X6565184Y12574700D01*
X6847512Y12560783D01*
X7127130Y12602213D01*
X7393292Y12697397D01*
X7518514Y12764329D01*
X7590097Y13008298D01*
X7465097Y13133298D01*
X15713903Y13133298D01*
X15785486Y12889329D01*
X16040996Y12768429D01*
X16315184Y12699700D01*
X16597512Y12685783D01*
X16877130Y12727213D01*
X17143292Y12822397D01*
X17268514Y12889329D01*
X17340097Y13133298D01*
X16527000Y13946395D01*
X15713903Y13133298D01*
X7465097Y13133298D01*
X6777000Y13821395D01*
X5963903Y13008298D01*
X660000Y13008298D01*
X660000Y13930488D01*
X5336783Y13930488D01*
X5378213Y13650870D01*
X5473397Y13384708D01*
X5540329Y13259486D01*
X5784298Y13187903D01*
X6597395Y14001000D01*
X6956605Y14001000D01*
X7769702Y13187903D01*
X8013671Y13259486D01*
X8134571Y13514996D01*
X8203300Y13789184D01*
X8216427Y14055488D01*
X15086783Y14055488D01*
X15128213Y13775870D01*
X15223397Y13509708D01*
X15290329Y13384486D01*
X15534298Y13312903D01*
X16347395Y14126000D01*
X16706605Y14126000D01*
X17519702Y13312903D01*
X17763671Y13384486D01*
X17884571Y13639996D01*
X17953300Y13914184D01*
X17967217Y14196512D01*
X17925787Y14476130D01*
X17830603Y14742292D01*
X17763671Y14867514D01*
X17519702Y14939097D01*
X16706605Y14126000D01*
X16347395Y14126000D01*
X15534298Y14939097D01*
X15290329Y14867514D01*
X15169429Y14612004D01*
X15100700Y14337816D01*
X15086783Y14055488D01*
X8216427Y14055488D01*
X8217217Y14071512D01*
X8175787Y14351130D01*
X8080603Y14617292D01*
X8013671Y14742514D01*
X7769702Y14814097D01*
X6956605Y14001000D01*
X6597395Y14001000D01*
X5784298Y14814097D01*
X5540329Y14742514D01*
X5419429Y14487004D01*
X5350700Y14212816D01*
X5336783Y13930488D01*
X660000Y13930488D01*
X660000Y14993702D01*
X5963903Y14993702D01*
X6777000Y14180605D01*
X7590097Y14993702D01*
X7553421Y15118702D01*
X15713903Y15118702D01*
X16527000Y14305605D01*
X17340097Y15118702D01*
X17268514Y15362671D01*
X17013004Y15483571D01*
X16738816Y15552300D01*
X16456488Y15566217D01*
X16176870Y15524787D01*
X15910708Y15429603D01*
X15785486Y15362671D01*
X15713903Y15118702D01*
X7553421Y15118702D01*
X7518514Y15237671D01*
X7263004Y15358571D01*
X6988816Y15427300D01*
X6706488Y15441217D01*
X6426870Y15399787D01*
X6160708Y15304603D01*
X6035486Y15237671D01*
X5963903Y14993702D01*
X660000Y14993702D01*
X660000Y18601000D01*
X5338928Y18601000D01*
X5338928Y17001000D01*
X5351188Y16876518D01*
X5387498Y16756820D01*
X5446463Y16646506D01*
X5525815Y16549815D01*
X5622506Y16470463D01*
X5732820Y16411498D01*
X5852518Y16375188D01*
X5977000Y16362928D01*
X7577000Y16362928D01*
X7701482Y16375188D01*
X7821180Y16411498D01*
X7931494Y16470463D01*
X8028185Y16549815D01*
X8107537Y16646506D01*
X8166502Y16756820D01*
X8202812Y16876518D01*
X8215072Y17001000D01*
X8215072Y18601000D01*
X8202812Y18725482D01*
X8166502Y18845180D01*
X8107537Y18955494D01*
X8028185Y19052185D01*
X7931494Y19131537D01*
X7912000Y19141957D01*
X7912000Y22715619D01*
X7975552Y22638181D01*
X8018860Y22602639D01*
X13837486Y16784012D01*
X13967006Y16677717D01*
X14164182Y16572325D01*
X14378130Y16507424D01*
X14600629Y16485510D01*
X14663809Y16491733D01*
X14671248Y16491000D01*
X15186043Y16491000D01*
X15196463Y16471506D01*
X15275815Y16374815D01*
X15372506Y16295463D01*
X15482820Y16236498D01*
X15602518Y16200188D01*
X15727000Y16187928D01*
X17327000Y16187928D01*
X17451482Y16200188D01*
X17571180Y16236498D01*
X17681494Y16295463D01*
X17778185Y16374815D01*
X17857537Y16471506D01*
X17916502Y16581820D01*
X17952812Y16701518D01*
X17965072Y16826000D01*
X17965072Y18426000D01*
X17952812Y18550482D01*
X17916502Y18670180D01*
X17857537Y18780494D01*
X17778185Y18877185D01*
X17681494Y18956537D01*
X17571180Y19015502D01*
X17451482Y19051812D01*
X17327000Y19064072D01*
X15727000Y19064072D01*
X15602518Y19051812D01*
X15482820Y19015502D01*
X15372506Y18956537D01*
X15275815Y18877185D01*
X15196463Y18780494D01*
X15186043Y18761000D01*
X15070762Y18761000D01*
X10007380Y23824381D01*
X10114182Y24024192D01*
X10196236Y24294691D01*
X10223943Y24576000D01*
X10196236Y24857309D01*
X10114182Y25127808D01*
X9980932Y25377101D01*
X9917000Y25455002D01*
X9917000Y28261784D01*
X10073680Y28496273D01*
X10181853Y28757426D01*
X10237000Y29034665D01*
X10237000Y29317335D01*
X10181853Y29594574D01*
X10073680Y29855727D01*
X9916637Y30090759D01*
X9716759Y30290637D01*
X9481727Y30447680D01*
X9220574Y30555853D01*
X8943335Y30611000D01*
X8660665Y30611000D01*
X8383426Y30555853D01*
X8122273Y30447680D01*
X7912000Y30307180D01*
X7912000Y31055869D01*
X8979282Y32123150D01*
X9220574Y32171147D01*
X9481727Y32279320D01*
X9716759Y32436363D01*
X9916637Y32636241D01*
X10073680Y32871273D01*
X10181853Y33132426D01*
X10229850Y33373719D01*
X13362132Y36506000D01*
X18467714Y36506000D01*
X18605957Y36413629D01*
X18858011Y36309225D01*
X19125589Y36256000D01*
X19398411Y36256000D01*
X19665989Y36309225D01*
X19918043Y36413629D01*
X20144886Y36565201D01*
X20337799Y36758114D01*
X20489371Y36984957D01*
X20593775Y37237011D01*
X20647000Y37504589D01*
X20647000Y37777411D01*
X20593775Y38044989D01*
X20489371Y38297043D01*
X20397000Y38435286D01*
X20397000Y40990868D01*
X20596132Y41190000D01*
X20852315Y41190000D01*
X20726201Y41063886D01*
X20574629Y40837043D01*
X20470225Y40584989D01*
X20417000Y40317411D01*
X20417000Y40044589D01*
X20470225Y39777011D01*
X20574629Y39524957D01*
X20726201Y39298114D01*
X20919114Y39105201D01*
X21145957Y38953629D01*
X21398011Y38849225D01*
X21561081Y38816788D01*
X22639001Y37738867D01*
X22639001Y36480503D01*
X22552000Y36489072D01*
X21052000Y36489072D01*
X20927518Y36476812D01*
X20807820Y36440502D01*
X20697506Y36381537D01*
X20600815Y36302185D01*
X20546499Y36236000D01*
X15807750Y36236000D01*
X15751998Y36241491D01*
X15696246Y36236000D01*
X15529499Y36219577D01*
X15315551Y36154676D01*
X15118375Y36049284D01*
X14945549Y35907449D01*
X14910006Y35864140D01*
X14158863Y35112996D01*
X14115550Y35077450D01*
X13973715Y34904624D01*
X13898813Y34764490D01*
X13868323Y34707447D01*
X13803422Y34493499D01*
X13781508Y34271001D01*
X13786999Y34215249D01*
X13787000Y26111762D01*
X13781508Y26056001D01*
X13803422Y25833503D01*
X13868323Y25619555D01*
X13881123Y25595608D01*
X13973716Y25422378D01*
X14115551Y25249552D01*
X14158859Y25214010D01*
X14974150Y24398718D01*
X15022147Y24157426D01*
X15130320Y23896273D01*
X15287363Y23661241D01*
X15487241Y23461363D01*
X15722273Y23304320D01*
X15983426Y23196147D01*
X16260665Y23141000D01*
X16543335Y23141000D01*
X16820574Y23196147D01*
X17081727Y23304320D01*
X17316759Y23461363D01*
X17516637Y23661241D01*
X17673680Y23896273D01*
X17781853Y24157426D01*
X17837000Y24434665D01*
X17837000Y24717335D01*
X17781853Y24994574D01*
X17673680Y25255727D01*
X17516637Y25490759D01*
X17316759Y25690637D01*
X17081727Y25847680D01*
X16820574Y25955853D01*
X16579282Y26003850D01*
X16056999Y26526132D01*
X16056999Y27789807D01*
X16072960Y27784091D01*
X16295000Y27905376D01*
X16295000Y29049000D01*
X16549000Y29049000D01*
X16549000Y27905376D01*
X16771040Y27784091D01*
X17035881Y27878930D01*
X17277131Y28023615D01*
X17485519Y28212586D01*
X17653037Y28438580D01*
X17773246Y28692913D01*
X17813904Y28826961D01*
X17691915Y29049000D01*
X16549000Y29049000D01*
X16295000Y29049000D01*
X16275000Y29049000D01*
X16275000Y29303000D01*
X16295000Y29303000D01*
X16295000Y30446624D01*
X16549000Y30446624D01*
X16549000Y29303000D01*
X17691915Y29303000D01*
X17813904Y29525039D01*
X17773246Y29659087D01*
X17653037Y29913420D01*
X17485519Y30139414D01*
X17277131Y30328385D01*
X17035881Y30473070D01*
X16771040Y30567909D01*
X16549000Y30446624D01*
X16295000Y30446624D01*
X16072960Y30567909D01*
X16056999Y30562193D01*
X16056999Y32164807D01*
X16072960Y32159091D01*
X16295000Y32280376D01*
X16295000Y33424000D01*
X16549000Y33424000D01*
X16549000Y32280376D01*
X16771040Y32159091D01*
X17035881Y32253930D01*
X17277131Y32398615D01*
X17485519Y32587586D01*
X17653037Y32813580D01*
X17773246Y33067913D01*
X17813904Y33201961D01*
X17691915Y33424000D01*
X16549000Y33424000D01*
X16295000Y33424000D01*
X16275000Y33424000D01*
X16275000Y33678000D01*
X16295000Y33678000D01*
X16295000Y33698000D01*
X16549000Y33698000D01*
X16549000Y33678000D01*
X17691915Y33678000D01*
X17813904Y33900039D01*
X17793897Y33966000D01*
X20546499Y33966000D01*
X20600815Y33899815D01*
X20697506Y33820463D01*
X20807820Y33761498D01*
X20927518Y33725188D01*
X21052000Y33712928D01*
X22257796Y33712928D01*
X19736865Y31191996D01*
X19693551Y31156449D01*
X19551716Y30983623D01*
X19446324Y30786447D01*
X19381423Y30572499D01*
X19359509Y30350000D01*
X19381423Y30127501D01*
X19446324Y29913553D01*
X19551716Y29716377D01*
X19693551Y29543551D01*
X19866377Y29401716D01*
X20063553Y29296324D01*
X20277501Y29231423D01*
X20444248Y29215000D01*
X20444249Y29215000D01*
X20500000Y29209509D01*
X20555751Y29215000D01*
X20555752Y29215000D01*
X20722499Y29231423D01*
X20936447Y29296324D01*
X21133623Y29401716D01*
X21306449Y29543551D01*
X21341996Y29586865D01*
X21856131Y30101000D01*
X23538928Y30101000D01*
X23542000Y29586750D01*
X23700750Y29428000D01*
X25250000Y29428000D01*
X25250000Y30577250D01*
X25504000Y30577250D01*
X25504000Y29428000D01*
X27053250Y29428000D01*
X27212000Y29586750D01*
X27215072Y30101000D01*
X27202812Y30225482D01*
X27166502Y30345180D01*
X27107537Y30455494D01*
X27028185Y30552185D01*
X26931494Y30631537D01*
X26821180Y30690502D01*
X26701482Y30726812D01*
X26577000Y30739072D01*
X25662750Y30736000D01*
X25504000Y30577250D01*
X25250000Y30577250D01*
X25091250Y30736000D01*
X24177000Y30739072D01*
X24052518Y30726812D01*
X23932820Y30690502D01*
X23822506Y30631537D01*
X23725815Y30552185D01*
X23646463Y30455494D01*
X23587498Y30345180D01*
X23551188Y30225482D01*
X23538928Y30101000D01*
X21856131Y30101000D01*
X24537141Y32782009D01*
X24580449Y32817551D01*
X24722284Y32990377D01*
X24827676Y33187553D01*
X24877471Y33351705D01*
X24892577Y33401500D01*
X24907301Y33551000D01*
X24909000Y33568248D01*
X24909000Y33568255D01*
X24914490Y33623999D01*
X24909000Y33679743D01*
X24909000Y33990000D01*
X27047761Y33990000D01*
X27182748Y33855013D01*
X27450537Y33676082D01*
X27748088Y33552832D01*
X28063967Y33490000D01*
X28386033Y33490000D01*
X28701912Y33552832D01*
X28999463Y33676082D01*
X29267252Y33855013D01*
X29402239Y33990000D01*
X31862000Y33990000D01*
X31862001Y30535264D01*
X31795899Y30499932D01*
X31577392Y30320608D01*
X31398068Y30102101D01*
X31264818Y29852808D01*
X31182764Y29582309D01*
X31155057Y29301000D01*
X31182764Y29019691D01*
X31264818Y28749192D01*
X31398068Y28499899D01*
X31577392Y28281392D01*
X31795899Y28102068D01*
X31928858Y28031000D01*
X31795899Y27959932D01*
X31717998Y27896000D01*
X26770090Y27896000D01*
X26821180Y27911498D01*
X26931494Y27970463D01*
X27028185Y28049815D01*
X27107537Y28146506D01*
X27166502Y28256820D01*
X27202812Y28376518D01*
X27215072Y28501000D01*
X27212000Y29015250D01*
X27053250Y29174000D01*
X25504000Y29174000D01*
X25504000Y29154000D01*
X25250000Y29154000D01*
X25250000Y29174000D01*
X23700750Y29174000D01*
X23542000Y29015250D01*
X23538928Y28501000D01*
X23551188Y28376518D01*
X23587498Y28256820D01*
X23646463Y28146506D01*
X23725815Y28049815D01*
X23822506Y27970463D01*
X23932820Y27911498D01*
X24052518Y27875188D01*
X24070482Y27873419D01*
X23957392Y27780608D01*
X23778068Y27562101D01*
X23644818Y27312808D01*
X23562764Y27042309D01*
X23535057Y26761000D01*
X23562764Y26479691D01*
X23644818Y26209192D01*
X23778068Y25959899D01*
X23957392Y25741392D01*
X24175899Y25562068D01*
X24308858Y25491000D01*
X24175899Y25419932D01*
X23957392Y25240608D01*
X23778068Y25022101D01*
X23644818Y24772808D01*
X23562764Y24502309D01*
X23535057Y24221000D01*
X23562764Y23939691D01*
X23644818Y23669192D01*
X23778068Y23419899D01*
X23957392Y23201392D01*
X24175899Y23022068D01*
X24308858Y22951000D01*
X24175899Y22879932D01*
X24120590Y22834541D01*
X21341996Y25613135D01*
X21306449Y25656449D01*
X21133623Y25798284D01*
X20936447Y25903676D01*
X20722499Y25968577D01*
X20555752Y25985000D01*
X20555751Y25985000D01*
X20500000Y25990491D01*
X20444249Y25985000D01*
X20444248Y25985000D01*
X20277501Y25968577D01*
X20063553Y25903676D01*
X19866377Y25798284D01*
X19693551Y25656449D01*
X19551716Y25483623D01*
X19446324Y25286447D01*
X19381423Y25072499D01*
X19359509Y24850000D01*
X19381423Y24627501D01*
X19446324Y24413553D01*
X19551716Y24216377D01*
X19693551Y24043551D01*
X19736865Y24008004D01*
X22827009Y20917859D01*
X22862551Y20874551D01*
X23018317Y20746717D01*
X23035377Y20732716D01*
X23232553Y20627324D01*
X23446501Y20562423D01*
X23669000Y20540509D01*
X23724752Y20546000D01*
X24097998Y20546000D01*
X24175899Y20482068D01*
X24242000Y20446736D01*
X24242001Y17942026D01*
X24220506Y17930537D01*
X24123815Y17851185D01*
X24044463Y17754494D01*
X23985498Y17644180D01*
X23949188Y17524482D01*
X23936928Y17400000D01*
X23936928Y16742060D01*
X19286860Y12091991D01*
X19243552Y12056449D01*
X19101717Y11883623D01*
X19052705Y11791928D01*
X18996324Y11686446D01*
X18931423Y11472498D01*
X18909509Y11250000D01*
X18915001Y11194239D01*
X18915000Y8417888D01*
X18906614Y8413405D01*
X18772038Y8302962D01*
X18661595Y8168386D01*
X18579528Y8014850D01*
X18528992Y7848254D01*
X18511928Y7675000D01*
X18511928Y4575000D01*
X18528992Y4401746D01*
X18579528Y4235150D01*
X18661595Y4081614D01*
X18772038Y3947038D01*
X18906614Y3836595D01*
X19060150Y3754528D01*
X19226746Y3703992D01*
X19400000Y3686928D01*
X20700000Y3686928D01*
X20873254Y3703992D01*
X21039850Y3754528D01*
X21193386Y3836595D01*
X21327962Y3947038D01*
X21438405Y4081614D01*
X21520472Y4235150D01*
X21571008Y4401746D01*
X21588072Y4575000D01*
X21588072Y7675000D01*
X21571008Y7848254D01*
X21520472Y8014850D01*
X21438405Y8168386D01*
X21327962Y8302962D01*
X21193386Y8413405D01*
X21185000Y8417887D01*
X21185000Y8630960D01*
X23983091Y8630960D01*
X24077930Y8366119D01*
X24222615Y8124869D01*
X24411586Y7916481D01*
X24637580Y7748963D01*
X24891913Y7628754D01*
X25025961Y7588096D01*
X25248000Y7710085D01*
X25248000Y8853000D01*
X25502000Y8853000D01*
X25502000Y7710085D01*
X25724039Y7588096D01*
X25858087Y7628754D01*
X26112420Y7748963D01*
X26338414Y7916481D01*
X26442214Y8030947D01*
X32018072Y8030947D01*
X32113836Y7766546D01*
X32403451Y7625656D01*
X32714988Y7543976D01*
X33036475Y7524642D01*
X33355555Y7568399D01*
X33659968Y7673565D01*
X33833924Y7766546D01*
X33846388Y7800961D01*
X44213096Y7800961D01*
X44253754Y7666913D01*
X44373963Y7412580D01*
X44541481Y7186586D01*
X44749869Y6997615D01*
X44991119Y6852930D01*
X45255960Y6758091D01*
X45478000Y6879376D01*
X45478000Y8023000D01*
X45732000Y8023000D01*
X45732000Y6879376D01*
X45954040Y6758091D01*
X46218881Y6852930D01*
X46460131Y6997615D01*
X46668519Y7186586D01*
X46836037Y7412580D01*
X46956246Y7666913D01*
X46996904Y7800961D01*
X46874915Y8023000D01*
X45732000Y8023000D01*
X45478000Y8023000D01*
X44335085Y8023000D01*
X44213096Y7800961D01*
X33846388Y7800961D01*
X33929688Y8030947D01*
X32973880Y8986755D01*
X32018072Y8030947D01*
X26442214Y8030947D01*
X26527385Y8124869D01*
X26672070Y8366119D01*
X26766909Y8630960D01*
X26645624Y8853000D01*
X25502000Y8853000D01*
X25248000Y8853000D01*
X24104376Y8853000D01*
X23983091Y8630960D01*
X21185000Y8630960D01*
X21185000Y9103765D01*
X31332162Y9103765D01*
X31375919Y8784685D01*
X31481085Y8480272D01*
X31574066Y8306316D01*
X31838467Y8210552D01*
X32794275Y9166360D01*
X33153485Y9166360D01*
X34109293Y8210552D01*
X34373694Y8306316D01*
X34467448Y8499039D01*
X44213096Y8499039D01*
X44335085Y8277000D01*
X45478000Y8277000D01*
X45478000Y9420624D01*
X45732000Y9420624D01*
X45732000Y8277000D01*
X46874915Y8277000D01*
X46996904Y8499039D01*
X46956246Y8633087D01*
X46836037Y8887420D01*
X46668519Y9113414D01*
X46460131Y9302385D01*
X46218881Y9447070D01*
X45954040Y9541909D01*
X45732000Y9420624D01*
X45478000Y9420624D01*
X45255960Y9541909D01*
X44991119Y9447070D01*
X44749869Y9302385D01*
X44541481Y9113414D01*
X44373963Y8887420D01*
X44253754Y8633087D01*
X44213096Y8499039D01*
X34467448Y8499039D01*
X34514584Y8595931D01*
X34596264Y8907468D01*
X34615598Y9228955D01*
X34571841Y9548035D01*
X34466675Y9852448D01*
X34373694Y10026404D01*
X34109293Y10122168D01*
X33153485Y9166360D01*
X32794275Y9166360D01*
X31838467Y10122168D01*
X31574066Y10026404D01*
X31433176Y9736789D01*
X31351496Y9425252D01*
X31332162Y9103765D01*
X21185000Y9103765D01*
X21185000Y9329040D01*
X23983091Y9329040D01*
X24104376Y9107000D01*
X25248000Y9107000D01*
X25248000Y10249915D01*
X25502000Y10249915D01*
X25502000Y9107000D01*
X26645624Y9107000D01*
X26766909Y9329040D01*
X26672070Y9593881D01*
X26527385Y9835131D01*
X26338414Y10043519D01*
X26112420Y10211037D01*
X25920445Y10301773D01*
X32018072Y10301773D01*
X32973880Y9345965D01*
X33929688Y10301773D01*
X33833924Y10566174D01*
X33544309Y10707064D01*
X33232772Y10788744D01*
X32911285Y10808078D01*
X32592205Y10764321D01*
X32287792Y10659155D01*
X32113836Y10566174D01*
X32018072Y10301773D01*
X25920445Y10301773D01*
X25858087Y10331246D01*
X25724039Y10371904D01*
X25502000Y10249915D01*
X25248000Y10249915D01*
X25025961Y10371904D01*
X24891913Y10331246D01*
X24637580Y10211037D01*
X24411586Y10043519D01*
X24222615Y9835131D01*
X24077930Y9593881D01*
X23983091Y9329040D01*
X21185000Y9329040D01*
X21185000Y10779869D01*
X25567060Y15161928D01*
X26175000Y15161928D01*
X26299482Y15174188D01*
X26419180Y15210498D01*
X26529494Y15269463D01*
X26626185Y15348815D01*
X26705537Y15445506D01*
X26764502Y15555820D01*
X26800812Y15675518D01*
X26813072Y15800000D01*
X26813072Y17400000D01*
X26800812Y17524482D01*
X26764502Y17644180D01*
X26705537Y17754494D01*
X26626185Y17851185D01*
X26529494Y17930537D01*
X26512000Y17939888D01*
X26512000Y20446736D01*
X26578101Y20482068D01*
X26796608Y20661392D01*
X26975932Y20879899D01*
X27109182Y21129192D01*
X27191236Y21399691D01*
X27218943Y21681000D01*
X27191236Y21962309D01*
X27109182Y22232808D01*
X26975932Y22482101D01*
X26796608Y22700608D01*
X26578101Y22879932D01*
X26445142Y22951000D01*
X26578101Y23022068D01*
X26656002Y23086000D01*
X26961869Y23086000D01*
X28617000Y21430868D01*
X28617001Y14653761D01*
X28611509Y14598000D01*
X28633423Y14375502D01*
X28698324Y14161554D01*
X28723772Y14113944D01*
X28803717Y13964377D01*
X28945552Y13791551D01*
X28988860Y13756009D01*
X29433008Y13311860D01*
X29468551Y13268551D01*
X29641377Y13126716D01*
X29714742Y13087502D01*
X29838553Y13021324D01*
X30052501Y12956423D01*
X30275000Y12934509D01*
X30330752Y12940000D01*
X34519249Y12940000D01*
X34575000Y12934509D01*
X34630751Y12940000D01*
X34630752Y12940000D01*
X34797499Y12956423D01*
X35011447Y13021324D01*
X35208623Y13126716D01*
X35381449Y13268551D01*
X35416996Y13311864D01*
X36221928Y14116796D01*
X36221928Y12410000D01*
X36234188Y12285518D01*
X36270498Y12165820D01*
X36329463Y12055506D01*
X36408815Y11958815D01*
X36505506Y11879463D01*
X36615820Y11820498D01*
X36735518Y11784188D01*
X36860000Y11771928D01*
X38660000Y11771928D01*
X38784482Y11784188D01*
X38904180Y11820498D01*
X39014494Y11879463D01*
X39111185Y11958815D01*
X39190537Y12055506D01*
X39249502Y12165820D01*
X39252287Y12175000D01*
X41941713Y12175000D01*
X41944498Y12165820D01*
X42003463Y12055506D01*
X42082815Y11958815D01*
X42179506Y11879463D01*
X42289820Y11820498D01*
X42409518Y11784188D01*
X42534000Y11771928D01*
X44334000Y11771928D01*
X44458482Y11784188D01*
X44578180Y11820498D01*
X44688494Y11879463D01*
X44785185Y11958815D01*
X44864537Y12055506D01*
X44923502Y12165820D01*
X44926287Y12175000D01*
X47780680Y12175000D01*
X47786498Y12155820D01*
X47845463Y12045506D01*
X47924815Y11948815D01*
X48021506Y11869463D01*
X48131820Y11810498D01*
X48251518Y11774188D01*
X48376000Y11761928D01*
X50176000Y11761928D01*
X50300482Y11774188D01*
X50420180Y11810498D01*
X50530494Y11869463D01*
X50627185Y11948815D01*
X50706537Y12045506D01*
X50765502Y12155820D01*
X50771320Y12175000D01*
X52090001Y12175000D01*
X52090000Y9034284D01*
X51953320Y8829727D01*
X51845147Y8568574D01*
X51790000Y8291335D01*
X51790000Y8008665D01*
X51845147Y7731426D01*
X51953320Y7470273D01*
X52110363Y7235241D01*
X52310241Y7035363D01*
X52545273Y6878320D01*
X52806426Y6770147D01*
X53083665Y6715000D01*
X53366335Y6715000D01*
X53643574Y6770147D01*
X53904727Y6878320D01*
X54139759Y7035363D01*
X54339637Y7235241D01*
X54496680Y7470273D01*
X54604853Y7731426D01*
X54660000Y8008665D01*
X54660000Y8291335D01*
X54604853Y8568574D01*
X54496680Y8829727D01*
X54360000Y9034284D01*
X54360000Y11769928D01*
X56018000Y11769928D01*
X56142482Y11782188D01*
X56262180Y11818498D01*
X56372494Y11877463D01*
X56469185Y11956815D01*
X56548537Y12053506D01*
X56607502Y12163820D01*
X56610893Y12175000D01*
X59730282Y12175000D01*
X59783463Y12075506D01*
X59862815Y11978815D01*
X59959506Y11899463D01*
X60069820Y11840498D01*
X60189518Y11804188D01*
X60314000Y11791928D01*
X62114000Y11791928D01*
X62238482Y11804188D01*
X62358180Y11840498D01*
X62468494Y11899463D01*
X62565185Y11978815D01*
X62644537Y12075506D01*
X62697718Y12175000D01*
X65563107Y12175000D01*
X65566498Y12163820D01*
X65625463Y12053506D01*
X65704815Y11956815D01*
X65801506Y11877463D01*
X65911820Y11818498D01*
X66031518Y11782188D01*
X66156000Y11769928D01*
X67956000Y11769928D01*
X68080482Y11782188D01*
X68200180Y11818498D01*
X68310494Y11877463D01*
X68407185Y11956815D01*
X68486537Y12053506D01*
X68545502Y12163820D01*
X68548893Y12175000D01*
X71913107Y12175000D01*
X71916498Y12163820D01*
X71975463Y12053506D01*
X72054815Y11956815D01*
X72151506Y11877463D01*
X72261820Y11818498D01*
X72381518Y11782188D01*
X72506000Y11769928D01*
X74306000Y11769928D01*
X74430482Y11782188D01*
X74550180Y11818498D01*
X74660494Y11877463D01*
X74757185Y11956815D01*
X74836537Y12053506D01*
X74895502Y12163820D01*
X74898893Y12175000D01*
X78263107Y12175000D01*
X78266498Y12163820D01*
X78325463Y12053506D01*
X78404815Y11956815D01*
X78501506Y11877463D01*
X78611820Y11818498D01*
X78731518Y11782188D01*
X78856000Y11769928D01*
X80656000Y11769928D01*
X80780482Y11782188D01*
X80900180Y11818498D01*
X81010494Y11877463D01*
X81107185Y11956815D01*
X81186537Y12053506D01*
X81245502Y12163820D01*
X81248893Y12175000D01*
X84613107Y12175000D01*
X84616498Y12163820D01*
X84675463Y12053506D01*
X84754815Y11956815D01*
X84851506Y11877463D01*
X84961820Y11818498D01*
X85081518Y11782188D01*
X85206000Y11769928D01*
X87006000Y11769928D01*
X87130482Y11782188D01*
X87250180Y11818498D01*
X87360494Y11877463D01*
X87457185Y11956815D01*
X87536537Y12053506D01*
X87595502Y12163820D01*
X87598893Y12175000D01*
X90963107Y12175000D01*
X90966498Y12163820D01*
X91025463Y12053506D01*
X91104815Y11956815D01*
X91201506Y11877463D01*
X91311820Y11818498D01*
X91431518Y11782188D01*
X91556000Y11769928D01*
X93356000Y11769928D01*
X93480482Y11782188D01*
X93600180Y11818498D01*
X93710494Y11877463D01*
X93807185Y11956815D01*
X93886537Y12053506D01*
X93945502Y12163820D01*
X93981812Y12283518D01*
X93994072Y12408000D01*
X93994072Y14208000D01*
X93981812Y14332482D01*
X93945502Y14452180D01*
X93886537Y14562494D01*
X93807185Y14659185D01*
X93710494Y14738537D01*
X93600180Y14797502D01*
X93581873Y14803056D01*
X93648312Y14869495D01*
X93816299Y15120905D01*
X93932011Y15400257D01*
X93991000Y15696816D01*
X93991000Y15999184D01*
X93932011Y16295743D01*
X93816299Y16575095D01*
X93648312Y16826505D01*
X93434505Y17040312D01*
X93183095Y17208299D01*
X92903743Y17324011D01*
X92607184Y17383000D01*
X92522132Y17383000D01*
X75266996Y34638135D01*
X75231449Y34681449D01*
X75058623Y34823284D01*
X74861447Y34928676D01*
X74647499Y34993577D01*
X74480752Y35010000D01*
X74480751Y35010000D01*
X74425000Y35015491D01*
X74369249Y35010000D01*
X59380752Y35010000D01*
X59325000Y35015491D01*
X59102501Y34993577D01*
X58888553Y34928676D01*
X58691377Y34823284D01*
X58561856Y34716989D01*
X58561855Y34716988D01*
X58518551Y34681449D01*
X58483013Y34638146D01*
X56961864Y33116995D01*
X56918551Y33081449D01*
X56776716Y32908623D01*
X56686586Y32740000D01*
X56671324Y32711446D01*
X56606423Y32497498D01*
X56584509Y32275000D01*
X56590000Y32219248D01*
X56590001Y30599002D01*
X56526068Y30521100D01*
X56455000Y30388142D01*
X56383932Y30521101D01*
X56204607Y30739608D01*
X55986100Y30918932D01*
X55736807Y31052182D01*
X55466308Y31134236D01*
X55185000Y31161943D01*
X54903691Y31134236D01*
X54633192Y31052182D01*
X54383899Y30918932D01*
X54165392Y30739607D01*
X53986068Y30521100D01*
X53917735Y30393258D01*
X53767601Y30622839D01*
X53569895Y30824500D01*
X53336646Y30983715D01*
X53076818Y31094367D01*
X52994039Y31111904D01*
X52772000Y30989915D01*
X52772000Y29447000D01*
X52792000Y29447000D01*
X52792000Y29193000D01*
X52772000Y29193000D01*
X52772000Y27650085D01*
X52994039Y27528096D01*
X53076818Y27545633D01*
X53336646Y27656285D01*
X53569895Y27815500D01*
X53767601Y28017161D01*
X53917735Y28246741D01*
X53986068Y28118899D01*
X54165393Y27900392D01*
X54383900Y27721068D01*
X54633193Y27587818D01*
X54903692Y27505764D01*
X55185000Y27478057D01*
X55466309Y27505764D01*
X55736808Y27587818D01*
X55986101Y27721068D01*
X56204608Y27900392D01*
X56383932Y28118899D01*
X56455000Y28251858D01*
X56526068Y28118899D01*
X56705393Y27900392D01*
X56923900Y27721068D01*
X57173193Y27587818D01*
X57443692Y27505764D01*
X57725000Y27478057D01*
X58006309Y27505764D01*
X58276808Y27587818D01*
X58526101Y27721068D01*
X58744608Y27900392D01*
X58923932Y28118899D01*
X58995000Y28251858D01*
X59066068Y28118899D01*
X59245393Y27900392D01*
X59463900Y27721068D01*
X59713193Y27587818D01*
X59983692Y27505764D01*
X60265000Y27478057D01*
X60546309Y27505764D01*
X60816808Y27587818D01*
X61066101Y27721068D01*
X61284608Y27900392D01*
X61463932Y28118899D01*
X61535000Y28251858D01*
X61606068Y28118899D01*
X61785393Y27900392D01*
X62003900Y27721068D01*
X62253193Y27587818D01*
X62523692Y27505764D01*
X62805000Y27478057D01*
X63086309Y27505764D01*
X63356808Y27587818D01*
X63606101Y27721068D01*
X63824608Y27900392D01*
X64003932Y28118899D01*
X64039264Y28185000D01*
X65809869Y28185000D01*
X78221000Y15773868D01*
X78221000Y15696816D01*
X78279989Y15400257D01*
X78395701Y15120905D01*
X78563688Y14869495D01*
X78630127Y14803056D01*
X78611820Y14797502D01*
X78501506Y14738537D01*
X78404815Y14659185D01*
X78325463Y14562494D01*
X78266498Y14452180D01*
X78264320Y14445000D01*
X74897680Y14445000D01*
X74895502Y14452180D01*
X74836537Y14562494D01*
X74757185Y14659185D01*
X74660494Y14738537D01*
X74550180Y14797502D01*
X74531873Y14803056D01*
X74598312Y14869495D01*
X74766299Y15120905D01*
X74882011Y15400257D01*
X74941000Y15696816D01*
X74941000Y15999184D01*
X74882011Y16295743D01*
X74766299Y16575095D01*
X74598312Y16826505D01*
X74384505Y17040312D01*
X74133095Y17208299D01*
X73853743Y17324011D01*
X73557184Y17383000D01*
X73476132Y17383000D01*
X70645996Y20213135D01*
X70610449Y20256449D01*
X70437623Y20398284D01*
X70240447Y20503676D01*
X70026499Y20568577D01*
X69859752Y20585000D01*
X69859751Y20585000D01*
X69804000Y20590491D01*
X69748249Y20585000D01*
X64050438Y20585000D01*
X64082166Y20633517D01*
X64187650Y20895486D01*
X64240000Y21173000D01*
X64240000Y21573000D01*
X62932000Y21573000D01*
X62932000Y21553000D01*
X62678000Y21553000D01*
X62678000Y21573000D01*
X62658000Y21573000D01*
X62658000Y21827000D01*
X62678000Y21827000D01*
X62678000Y23369915D01*
X62932000Y23369915D01*
X62932000Y21827000D01*
X64240000Y21827000D01*
X64240000Y22227000D01*
X64187650Y22504514D01*
X64082166Y22766483D01*
X63927601Y23002839D01*
X63729895Y23204500D01*
X63496646Y23363715D01*
X63236818Y23474367D01*
X63154039Y23491904D01*
X62932000Y23369915D01*
X62678000Y23369915D01*
X62455961Y23491904D01*
X62373182Y23474367D01*
X62113354Y23363715D01*
X61880105Y23204500D01*
X61682399Y23002839D01*
X61532265Y22773259D01*
X61463932Y22901101D01*
X61284607Y23119608D01*
X61066100Y23298932D01*
X60816807Y23432182D01*
X60546308Y23514236D01*
X60265000Y23541943D01*
X59983691Y23514236D01*
X59713192Y23432182D01*
X59463899Y23298932D01*
X59245392Y23119607D01*
X59066068Y22901100D01*
X58995000Y22768142D01*
X58923932Y22901101D01*
X58744607Y23119608D01*
X58526100Y23298932D01*
X58276807Y23432182D01*
X58006308Y23514236D01*
X57725000Y23541943D01*
X57443691Y23514236D01*
X57173192Y23432182D01*
X56923899Y23298932D01*
X56705392Y23119607D01*
X56526068Y22901100D01*
X56455000Y22768142D01*
X56383932Y22901101D01*
X56204607Y23119608D01*
X55986100Y23298932D01*
X55736807Y23432182D01*
X55466308Y23514236D01*
X55185000Y23541943D01*
X54903691Y23514236D01*
X54633192Y23432182D01*
X54383899Y23298932D01*
X54165392Y23119607D01*
X53986068Y22901100D01*
X53915000Y22768142D01*
X53843932Y22901101D01*
X53664607Y23119608D01*
X53446100Y23298932D01*
X53196807Y23432182D01*
X52926308Y23514236D01*
X52645000Y23541943D01*
X52363691Y23514236D01*
X52093192Y23432182D01*
X51843899Y23298932D01*
X51625392Y23119607D01*
X51446068Y22901100D01*
X51375000Y22768142D01*
X51303932Y22901101D01*
X51124607Y23119608D01*
X50906100Y23298932D01*
X50656807Y23432182D01*
X50386308Y23514236D01*
X50105000Y23541943D01*
X49823691Y23514236D01*
X49553192Y23432182D01*
X49303899Y23298932D01*
X49085392Y23119607D01*
X48906068Y22901100D01*
X48835000Y22768142D01*
X48763932Y22901101D01*
X48584607Y23119608D01*
X48366100Y23298932D01*
X48116807Y23432182D01*
X47846308Y23514236D01*
X47565000Y23541943D01*
X47283691Y23514236D01*
X47013192Y23432182D01*
X46763899Y23298932D01*
X46545392Y23119607D01*
X46452581Y23006517D01*
X46450812Y23024482D01*
X46414502Y23144180D01*
X46355537Y23254494D01*
X46276185Y23351185D01*
X46179494Y23430537D01*
X46069180Y23489502D01*
X45949482Y23525812D01*
X45825000Y23538072D01*
X44225000Y23538072D01*
X44100518Y23525812D01*
X43980820Y23489502D01*
X43870506Y23430537D01*
X43773815Y23351185D01*
X43694463Y23254494D01*
X43635498Y23144180D01*
X43599188Y23024482D01*
X43586928Y22900000D01*
X43586928Y21867060D01*
X38750343Y17030474D01*
X38738505Y17042312D01*
X38487095Y17210299D01*
X38207743Y17326011D01*
X37911184Y17385000D01*
X37608816Y17385000D01*
X37312257Y17326011D01*
X37032905Y17210299D01*
X36885000Y17111472D01*
X36885000Y19979869D01*
X41870133Y24965000D01*
X48494249Y24965000D01*
X48550000Y24959509D01*
X48605751Y24965000D01*
X48605752Y24965000D01*
X48772499Y24981423D01*
X48986447Y25046324D01*
X49183623Y25151716D01*
X49356449Y25293551D01*
X49391996Y25336865D01*
X50868140Y26813009D01*
X50911449Y26848551D01*
X51053284Y27021377D01*
X51158676Y27218553D01*
X51223577Y27432501D01*
X51240000Y27599248D01*
X51240000Y27599249D01*
X51245491Y27654999D01*
X51240000Y27710751D01*
X51240000Y28040998D01*
X51303932Y28118899D01*
X51372265Y28246741D01*
X51522399Y28017161D01*
X51720105Y27815500D01*
X51953354Y27656285D01*
X52213182Y27545633D01*
X52295961Y27528096D01*
X52518000Y27650085D01*
X52518000Y29193000D01*
X52498000Y29193000D01*
X52498000Y29447000D01*
X52518000Y29447000D01*
X52518000Y30989915D01*
X52295961Y31111904D01*
X52213182Y31094367D01*
X51953354Y30983715D01*
X51720105Y30824500D01*
X51522399Y30622839D01*
X51372265Y30393259D01*
X51303932Y30521101D01*
X51124607Y30739608D01*
X50906100Y30918932D01*
X50656807Y31052182D01*
X50386308Y31134236D01*
X50105000Y31161943D01*
X49823691Y31134236D01*
X49553192Y31052182D01*
X49303899Y30918932D01*
X49085392Y30739607D01*
X48906068Y30521100D01*
X48837735Y30393258D01*
X48687601Y30622839D01*
X48489895Y30824500D01*
X48256646Y30983715D01*
X47996818Y31094367D01*
X47914039Y31111904D01*
X47692000Y30989915D01*
X47692000Y29447000D01*
X47712000Y29447000D01*
X47712000Y29193000D01*
X47692000Y29193000D01*
X47692000Y27650085D01*
X47914039Y27528096D01*
X47996818Y27545633D01*
X48256646Y27656285D01*
X48489895Y27815500D01*
X48687601Y28017161D01*
X48837735Y28246741D01*
X48906068Y28118899D01*
X48932076Y28087208D01*
X48079869Y27235000D01*
X41455752Y27235000D01*
X41400000Y27240491D01*
X41177501Y27218577D01*
X40963553Y27153676D01*
X40766377Y27048284D01*
X40636856Y26941989D01*
X40636854Y26941987D01*
X40593551Y26906449D01*
X40558013Y26863146D01*
X34986860Y21291991D01*
X34943552Y21256449D01*
X34801717Y21083623D01*
X34745384Y20978230D01*
X34696324Y20886446D01*
X34631423Y20672498D01*
X34609509Y20450000D01*
X34615001Y20394239D01*
X34615000Y15720132D01*
X34104869Y15210000D01*
X33730376Y15210000D01*
X33748343Y15217442D01*
X34016132Y15396373D01*
X34243867Y15624108D01*
X34422798Y15891897D01*
X34546048Y16189448D01*
X34608880Y16505327D01*
X34608880Y16827393D01*
X34546048Y17143272D01*
X34422798Y17440823D01*
X34243867Y17708612D01*
X34132000Y17820479D01*
X34132000Y20446736D01*
X34198101Y20482068D01*
X34416608Y20661392D01*
X34595932Y20879899D01*
X34729182Y21129192D01*
X34811236Y21399691D01*
X34838943Y21681000D01*
X34811236Y21962309D01*
X34729182Y22232808D01*
X34595932Y22482101D01*
X34416608Y22700608D01*
X34198101Y22879932D01*
X34065142Y22951000D01*
X34198101Y23022068D01*
X34416608Y23201392D01*
X34595932Y23419899D01*
X34729182Y23669192D01*
X34811236Y23939691D01*
X34838943Y24221000D01*
X34811236Y24502309D01*
X34729182Y24772808D01*
X34595932Y25022101D01*
X34416608Y25240608D01*
X34198101Y25419932D01*
X34132000Y25455264D01*
X34132000Y25526736D01*
X34198101Y25562068D01*
X34416608Y25741392D01*
X34595932Y25959899D01*
X34729182Y26209192D01*
X34811236Y26479691D01*
X34838943Y26761000D01*
X34811236Y27042309D01*
X34729182Y27312808D01*
X34595932Y27562101D01*
X34416608Y27780608D01*
X34198101Y27959932D01*
X34065142Y28031000D01*
X34198101Y28102068D01*
X34299154Y28185000D01*
X43790736Y28185000D01*
X43826068Y28118899D01*
X44005393Y27900392D01*
X44223900Y27721068D01*
X44473193Y27587818D01*
X44743692Y27505764D01*
X45025000Y27478057D01*
X45306309Y27505764D01*
X45576808Y27587818D01*
X45826101Y27721068D01*
X46044608Y27900392D01*
X46223932Y28118899D01*
X46292265Y28246741D01*
X46442399Y28017161D01*
X46640105Y27815500D01*
X46873354Y27656285D01*
X47133182Y27545633D01*
X47215961Y27528096D01*
X47438000Y27650085D01*
X47438000Y29193000D01*
X47418000Y29193000D01*
X47418000Y29447000D01*
X47438000Y29447000D01*
X47438000Y30989915D01*
X47215961Y31111904D01*
X47133182Y31094367D01*
X46873354Y30983715D01*
X46640105Y30824500D01*
X46442399Y30622839D01*
X46292265Y30393259D01*
X46223932Y30521101D01*
X46044607Y30739608D01*
X45826100Y30918932D01*
X45576807Y31052182D01*
X45306308Y31134236D01*
X45025000Y31161943D01*
X44743691Y31134236D01*
X44473192Y31052182D01*
X44223899Y30918932D01*
X44005392Y30739607D01*
X43826068Y30521100D01*
X43790737Y30455000D01*
X34252851Y30455000D01*
X34198101Y30499932D01*
X34132000Y30535264D01*
X34132000Y33600917D01*
X34248088Y33552832D01*
X34563967Y33490000D01*
X34886033Y33490000D01*
X35201912Y33552832D01*
X35499463Y33676082D01*
X35767252Y33855013D01*
X35994987Y34082748D01*
X36173918Y34350537D01*
X36297168Y34648088D01*
X36360000Y34963967D01*
X36360000Y35286033D01*
X36297168Y35601912D01*
X36173918Y35899463D01*
X35994987Y36167252D01*
X35767252Y36394987D01*
X35499463Y36573918D01*
X35201912Y36697168D01*
X34886033Y36760000D01*
X34563967Y36760000D01*
X34248088Y36697168D01*
X33950537Y36573918D01*
X33682748Y36394987D01*
X33547761Y36260000D01*
X29402239Y36260000D01*
X29267252Y36394987D01*
X28999463Y36573918D01*
X28701912Y36697168D01*
X28386033Y36760000D01*
X28063967Y36760000D01*
X27748088Y36697168D01*
X27450537Y36573918D01*
X27182748Y36394987D01*
X27047761Y36260000D01*
X24909000Y36260000D01*
X24909000Y38153249D01*
X24914491Y38209001D01*
X24892577Y38431500D01*
X24850161Y38571324D01*
X24827676Y38645447D01*
X24722284Y38842623D01*
X24580449Y39015449D01*
X24537141Y39050991D01*
X23166212Y40421919D01*
X23133775Y40584989D01*
X23029371Y40837043D01*
X22877799Y41063886D01*
X22751685Y41190000D01*
X25054869Y41190000D01*
X26461857Y39783011D01*
X26461862Y39783007D01*
X26590000Y39654869D01*
X26590000Y39463967D01*
X26652832Y39148088D01*
X26776082Y38850537D01*
X26955013Y38582748D01*
X27182748Y38355013D01*
X27450537Y38176082D01*
X27748088Y38052832D01*
X28063967Y37990000D01*
X28386033Y37990000D01*
X28701912Y38052832D01*
X28999463Y38176082D01*
X29267252Y38355013D01*
X29402239Y38490000D01*
X33547761Y38490000D01*
X33682748Y38355013D01*
X33950537Y38176082D01*
X34248088Y38052832D01*
X34563967Y37990000D01*
X34886033Y37990000D01*
X35201912Y38052832D01*
X35499463Y38176082D01*
X35767252Y38355013D01*
X35994987Y38582748D01*
X36173918Y38850537D01*
X36297168Y39148088D01*
X36360000Y39463967D01*
X36360000Y39786033D01*
X36297168Y40101912D01*
X36173918Y40399463D01*
X35994987Y40667252D01*
X35767252Y40894987D01*
X35499463Y41073918D01*
X35201912Y41197168D01*
X34886033Y41260000D01*
X34563967Y41260000D01*
X34248088Y41197168D01*
X33950537Y41073918D01*
X33682748Y40894987D01*
X33547761Y40760000D01*
X29402239Y40760000D01*
X29267252Y40894987D01*
X28999463Y41073918D01*
X28701912Y41197168D01*
X28386033Y41260000D01*
X28195131Y41260000D01*
X28066993Y41388138D01*
X28066989Y41388143D01*
X26366996Y43088135D01*
X26331449Y43131449D01*
X26158623Y43273284D01*
X25961447Y43378676D01*
X25747499Y43443577D01*
X25580752Y43460000D01*
X25580751Y43460000D01*
X25525000Y43465491D01*
X25469249Y43460000D01*
X20181752Y43460000D01*
X20126000Y43465491D01*
X19903501Y43443577D01*
X19689553Y43378676D01*
X19492377Y43273284D01*
X19362856Y43166989D01*
X19362855Y43166988D01*
X19319551Y43131449D01*
X19284013Y43088145D01*
X18498859Y42302991D01*
X18455552Y42267449D01*
X18313717Y42094623D01*
X18257384Y41989230D01*
X18208324Y41897446D01*
X18143423Y41683498D01*
X18121509Y41461000D01*
X18127001Y41405239D01*
X18127000Y38776000D01*
X12947741Y38776000D01*
X12891999Y38781490D01*
X12836257Y38776000D01*
X12836248Y38776000D01*
X12669501Y38759577D01*
X12455553Y38694676D01*
X12258377Y38589284D01*
X12085551Y38447449D01*
X12050009Y38404141D01*
X8624719Y34978850D01*
X8383426Y34930853D01*
X8122273Y34822680D01*
X7887241Y34665637D01*
X7687363Y34465759D01*
X7530320Y34230727D01*
X7422147Y33969574D01*
X7374150Y33728282D01*
X6013865Y32367996D01*
X5970551Y32332449D01*
X5828716Y32159623D01*
X5735271Y31984797D01*
X5723324Y31962446D01*
X5658423Y31748498D01*
X5636509Y31526000D01*
X5642000Y31470249D01*
X5642001Y19141957D01*
X5622506Y19131537D01*
X5525815Y19052185D01*
X5446463Y18955494D01*
X5387498Y18845180D01*
X5351188Y18725482D01*
X5338928Y18601000D01*
X660000Y18601000D01*
X660000Y45390000D01*
X96864642Y45390000D01*
X96840359Y684831D01*
M02*
