M48
; DRILL file {KiCad 5.1.4-e60b266~84~ubuntu18.04.1} date Вт 06 авг 2019 09:29:51
; FORMAT={-:-/ absolute / metric / decimal}
; #@! TF.CreationDate,2019-08-06T09:29:51+03:00
; #@! TF.GenerationSoftware,Kicad,Pcbnew,5.1.4-e60b266~84~ubuntu18.04.1
; #@! TF.FileFunction,Plated,1,2,PTH
FMAT,2
METRIC
T1C0.400
T2C0.800
T3C0.900
T4C1.000
T5C1.100
T6C1.200
%
G90
G05
T1
X20.5Y30.35
X20.5Y24.85
T2
X6.777Y17.801
X6.777Y14.001
X8.802Y33.551
X16.422Y33.551
X19.262Y37.641
X21.802Y40.181
X21.802Y35.101
X8.802Y29.176
X16.422Y29.176
X25.377Y29.301
X25.377Y26.761
X25.377Y24.221
X25.377Y21.681
X32.997Y29.301
X32.997Y26.761
X32.997Y24.221
X32.997Y21.681
X45.025Y29.32
X45.025Y21.7
X47.565Y29.32
X47.565Y21.7
X50.105Y29.32
X50.105Y21.7
X52.645Y29.32
X52.645Y21.7
X55.185Y29.32
X55.185Y21.7
X57.725Y29.32
X57.725Y21.7
X60.265Y29.32
X60.265Y21.7
X62.805Y29.32
X62.805Y21.7
X16.527Y17.626
X16.527Y14.126
X25.375Y16.6
X25.375Y8.98
X45.605Y8.15
X53.225Y8.15
X8.782Y24.576
X16.402Y24.576
T3
X92.456Y15.848
X92.456Y13.308
X43.434Y15.85
X43.434Y13.31
X79.756Y15.848
X79.756Y13.308
X49.276Y15.84
X49.276Y13.3
X67.056Y15.848
X67.056Y13.308
X55.118Y15.848
X55.118Y13.308
X61.214Y15.87
X61.214Y13.33
X86.106Y15.848
X86.106Y13.308
X37.76Y15.85
X37.76Y13.31
X73.406Y15.848
X73.406Y13.308
T4
X32.974Y16.666
X32.974Y9.166
T5
X28.225Y39.625
X28.225Y35.125
X34.725Y39.625
X34.725Y35.125
T6
X16.55Y6.125
X20.05Y6.125
T0
M30
