G04 #@! TF.FileFunction,Legend,Top*
%FSLAX46Y46*%
G04 Gerber Fmt 4.6, Leading zero omitted, Abs format (unit mm)*
G04 Created by KiCad (PCBNEW 4.0.2-stable) date 23.05.2016 12:24:01*
%MOMM*%
G01*
G04 APERTURE LIST*
%ADD10C,0.100000*%
%ADD11C,0.300000*%
%ADD12C,0.200000*%
%ADD13C,0.150000*%
%ADD14C,0.254000*%
%ADD15C,0.425000*%
%ADD16C,0.500000*%
%ADD17C,0.010000*%
%ADD18C,0.152400*%
G04 APERTURE END LIST*
D10*
D11*
X93028572Y-100278571D02*
X92171429Y-100278571D01*
X92600001Y-100278571D02*
X92600001Y-98778571D01*
X92457144Y-98992857D01*
X92314286Y-99135714D01*
X92171429Y-99207143D01*
X64342858Y-167278571D02*
X64342858Y-165778571D01*
X64700001Y-165778571D01*
X64914286Y-165850000D01*
X65057144Y-165992857D01*
X65128572Y-166135714D01*
X65200001Y-166421429D01*
X65200001Y-166635714D01*
X65128572Y-166921429D01*
X65057144Y-167064286D01*
X64914286Y-167207143D01*
X64700001Y-167278571D01*
X64342858Y-167278571D01*
X65842858Y-167278571D02*
X65842858Y-165778571D01*
X66557144Y-167278571D02*
X66557144Y-165778571D01*
X67128572Y-165778571D01*
X67271430Y-165850000D01*
X67342858Y-165921429D01*
X67414287Y-166064286D01*
X67414287Y-166278571D01*
X67342858Y-166421429D01*
X67271430Y-166492857D01*
X67128572Y-166564286D01*
X66557144Y-166564286D01*
X68057144Y-166707143D02*
X69200001Y-166707143D01*
X69842858Y-165921429D02*
X69914287Y-165850000D01*
X70057144Y-165778571D01*
X70414287Y-165778571D01*
X70557144Y-165850000D01*
X70628573Y-165921429D01*
X70700001Y-166064286D01*
X70700001Y-166207143D01*
X70628573Y-166421429D01*
X69771430Y-167278571D01*
X70700001Y-167278571D01*
X71557144Y-166421429D02*
X71414286Y-166350000D01*
X71342858Y-166278571D01*
X71271429Y-166135714D01*
X71271429Y-166064286D01*
X71342858Y-165921429D01*
X71414286Y-165850000D01*
X71557144Y-165778571D01*
X71842858Y-165778571D01*
X71985715Y-165850000D01*
X72057144Y-165921429D01*
X72128572Y-166064286D01*
X72128572Y-166135714D01*
X72057144Y-166278571D01*
X71985715Y-166350000D01*
X71842858Y-166421429D01*
X71557144Y-166421429D01*
X71414286Y-166492857D01*
X71342858Y-166564286D01*
X71271429Y-166707143D01*
X71271429Y-166992857D01*
X71342858Y-167135714D01*
X71414286Y-167207143D01*
X71557144Y-167278571D01*
X71842858Y-167278571D01*
X71985715Y-167207143D01*
X72057144Y-167135714D01*
X72128572Y-166992857D01*
X72128572Y-166707143D01*
X72057144Y-166564286D01*
X71985715Y-166492857D01*
X71842858Y-166421429D01*
X99142858Y-157228571D02*
X99142858Y-155728571D01*
X99500001Y-155728571D01*
X99714286Y-155800000D01*
X99857144Y-155942857D01*
X99928572Y-156085714D01*
X100000001Y-156371429D01*
X100000001Y-156585714D01*
X99928572Y-156871429D01*
X99857144Y-157014286D01*
X99714286Y-157157143D01*
X99500001Y-157228571D01*
X99142858Y-157228571D01*
X100642858Y-157228571D02*
X100642858Y-155728571D01*
X101357144Y-157228571D02*
X101357144Y-155728571D01*
X101928572Y-155728571D01*
X102071430Y-155800000D01*
X102142858Y-155871429D01*
X102214287Y-156014286D01*
X102214287Y-156228571D01*
X102142858Y-156371429D01*
X102071430Y-156442857D01*
X101928572Y-156514286D01*
X101357144Y-156514286D01*
X102857144Y-156657143D02*
X104000001Y-156657143D01*
X105500001Y-157228571D02*
X104642858Y-157228571D01*
X105071430Y-157228571D02*
X105071430Y-155728571D01*
X104928573Y-155942857D01*
X104785715Y-156085714D01*
X104642858Y-156157143D01*
X106785715Y-156228571D02*
X106785715Y-157228571D01*
X106428572Y-155657143D02*
X106071429Y-156728571D01*
X107000001Y-156728571D01*
X102257143Y-154078571D02*
X102257143Y-152578571D01*
X102614286Y-152578571D01*
X102828571Y-152650000D01*
X102971429Y-152792857D01*
X103042857Y-152935714D01*
X103114286Y-153221429D01*
X103114286Y-153435714D01*
X103042857Y-153721429D01*
X102971429Y-153864286D01*
X102828571Y-154007143D01*
X102614286Y-154078571D01*
X102257143Y-154078571D01*
X103757143Y-154078571D02*
X103757143Y-152578571D01*
X104471429Y-154078571D02*
X104471429Y-152578571D01*
X105042857Y-152578571D01*
X105185715Y-152650000D01*
X105257143Y-152721429D01*
X105328572Y-152864286D01*
X105328572Y-153078571D01*
X105257143Y-153221429D01*
X105185715Y-153292857D01*
X105042857Y-153364286D01*
X104471429Y-153364286D01*
X105971429Y-153507143D02*
X107114286Y-153507143D01*
X108042858Y-153221429D02*
X107900000Y-153150000D01*
X107828572Y-153078571D01*
X107757143Y-152935714D01*
X107757143Y-152864286D01*
X107828572Y-152721429D01*
X107900000Y-152650000D01*
X108042858Y-152578571D01*
X108328572Y-152578571D01*
X108471429Y-152650000D01*
X108542858Y-152721429D01*
X108614286Y-152864286D01*
X108614286Y-152935714D01*
X108542858Y-153078571D01*
X108471429Y-153150000D01*
X108328572Y-153221429D01*
X108042858Y-153221429D01*
X107900000Y-153292857D01*
X107828572Y-153364286D01*
X107757143Y-153507143D01*
X107757143Y-153792857D01*
X107828572Y-153935714D01*
X107900000Y-154007143D01*
X108042858Y-154078571D01*
X108328572Y-154078571D01*
X108471429Y-154007143D01*
X108542858Y-153935714D01*
X108614286Y-153792857D01*
X108614286Y-153507143D01*
X108542858Y-153364286D01*
X108471429Y-153292857D01*
X108328572Y-153221429D01*
D12*
X70600000Y-126600000D02*
X73200000Y-126600000D01*
X70600000Y-129400000D02*
X70600000Y-126600000D01*
X85200000Y-126600000D02*
X85200000Y-129400000D01*
X82800000Y-126600000D02*
X85200000Y-126600000D01*
D11*
X74038095Y-124450000D02*
X74657143Y-124450000D01*
X73914286Y-124878571D02*
X74347619Y-123378571D01*
X74780952Y-124878571D01*
X75957143Y-124878571D02*
X75523810Y-124164286D01*
X75214286Y-124878571D02*
X75214286Y-123378571D01*
X75709524Y-123378571D01*
X75833333Y-123450000D01*
X75895238Y-123521429D01*
X75957143Y-123664286D01*
X75957143Y-123878571D01*
X75895238Y-124021429D01*
X75833333Y-124092857D01*
X75709524Y-124164286D01*
X75214286Y-124164286D01*
X76514286Y-124878571D02*
X76514286Y-123378571D01*
X76823810Y-123378571D01*
X77009524Y-123450000D01*
X77133333Y-123592857D01*
X77195238Y-123735714D01*
X77257143Y-124021429D01*
X77257143Y-124235714D01*
X77195238Y-124521429D01*
X77133333Y-124664286D01*
X77009524Y-124807143D01*
X76823810Y-124878571D01*
X76514286Y-124878571D01*
X77814286Y-123378571D02*
X77814286Y-124592857D01*
X77876191Y-124735714D01*
X77938095Y-124807143D01*
X78061905Y-124878571D01*
X78309524Y-124878571D01*
X78433333Y-124807143D01*
X78495238Y-124735714D01*
X78557143Y-124592857D01*
X78557143Y-123378571D01*
X79176191Y-124878571D02*
X79176191Y-123378571D01*
X79795239Y-124878571D02*
X79795239Y-123378571D01*
X80538096Y-124878571D01*
X80538096Y-123378571D01*
X81404763Y-123378571D02*
X81652382Y-123378571D01*
X81776191Y-123450000D01*
X81900001Y-123592857D01*
X81961906Y-123878571D01*
X81961906Y-124378571D01*
X81900001Y-124664286D01*
X81776191Y-124807143D01*
X81652382Y-124878571D01*
X81404763Y-124878571D01*
X81280953Y-124807143D01*
X81157144Y-124664286D01*
X81095239Y-124378571D01*
X81095239Y-123878571D01*
X81157144Y-123592857D01*
X81280953Y-123450000D01*
X81404763Y-123378571D01*
X73790476Y-127278571D02*
X73790476Y-125778571D01*
X74285714Y-125778571D01*
X74409523Y-125850000D01*
X74471428Y-125921429D01*
X74533333Y-126064286D01*
X74533333Y-126278571D01*
X74471428Y-126421429D01*
X74409523Y-126492857D01*
X74285714Y-126564286D01*
X73790476Y-126564286D01*
X75833333Y-127278571D02*
X75400000Y-126564286D01*
X75090476Y-127278571D02*
X75090476Y-125778571D01*
X75585714Y-125778571D01*
X75709523Y-125850000D01*
X75771428Y-125921429D01*
X75833333Y-126064286D01*
X75833333Y-126278571D01*
X75771428Y-126421429D01*
X75709523Y-126492857D01*
X75585714Y-126564286D01*
X75090476Y-126564286D01*
X76638095Y-125778571D02*
X76885714Y-125778571D01*
X77009523Y-125850000D01*
X77133333Y-125992857D01*
X77195238Y-126278571D01*
X77195238Y-126778571D01*
X77133333Y-127064286D01*
X77009523Y-127207143D01*
X76885714Y-127278571D01*
X76638095Y-127278571D01*
X76514285Y-127207143D01*
X76390476Y-127064286D01*
X76328571Y-126778571D01*
X76328571Y-126278571D01*
X76390476Y-125992857D01*
X76514285Y-125850000D01*
X76638095Y-125778571D01*
X78742857Y-127278571D02*
X78742857Y-125778571D01*
X79176190Y-126850000D01*
X79609523Y-125778571D01*
X79609523Y-127278571D01*
X80228571Y-127278571D02*
X80228571Y-125778571D01*
X80847619Y-127278571D02*
X80847619Y-125778571D01*
X81590476Y-127278571D01*
X81590476Y-125778571D01*
X82209524Y-127278571D02*
X82209524Y-125778571D01*
X100350000Y-96414286D02*
X100350000Y-95700000D01*
X100778571Y-96557143D02*
X99278571Y-96057143D01*
X100778571Y-95557143D01*
X100778571Y-94200000D02*
X100064286Y-94700000D01*
X100778571Y-95057143D02*
X99278571Y-95057143D01*
X99278571Y-94485715D01*
X99350000Y-94342857D01*
X99421429Y-94271429D01*
X99564286Y-94200000D01*
X99778571Y-94200000D01*
X99921429Y-94271429D01*
X99992857Y-94342857D01*
X100064286Y-94485715D01*
X100064286Y-95057143D01*
X100778571Y-93557143D02*
X99278571Y-93557143D01*
X99278571Y-93200000D01*
X99350000Y-92985715D01*
X99492857Y-92842857D01*
X99635714Y-92771429D01*
X99921429Y-92700000D01*
X100135714Y-92700000D01*
X100421429Y-92771429D01*
X100564286Y-92842857D01*
X100707143Y-92985715D01*
X100778571Y-93200000D01*
X100778571Y-93557143D01*
X99278571Y-92057143D02*
X100492857Y-92057143D01*
X100635714Y-91985715D01*
X100707143Y-91914286D01*
X100778571Y-91771429D01*
X100778571Y-91485715D01*
X100707143Y-91342857D01*
X100635714Y-91271429D01*
X100492857Y-91200000D01*
X99278571Y-91200000D01*
X100778571Y-90485714D02*
X99278571Y-90485714D01*
X100778571Y-89771428D02*
X99278571Y-89771428D01*
X100778571Y-88914285D01*
X99278571Y-88914285D01*
X99278571Y-87914285D02*
X99278571Y-87628571D01*
X99350000Y-87485713D01*
X99492857Y-87342856D01*
X99778571Y-87271428D01*
X100278571Y-87271428D01*
X100564286Y-87342856D01*
X100707143Y-87485713D01*
X100778571Y-87628571D01*
X100778571Y-87914285D01*
X100707143Y-88057142D01*
X100564286Y-88199999D01*
X100278571Y-88271428D01*
X99778571Y-88271428D01*
X99492857Y-88199999D01*
X99350000Y-88057142D01*
X99278571Y-87914285D01*
X100778571Y-85485713D02*
X99278571Y-85485713D01*
X100707143Y-84842856D02*
X100778571Y-84628570D01*
X100778571Y-84271427D01*
X100707143Y-84128570D01*
X100635714Y-84057141D01*
X100492857Y-83985713D01*
X100350000Y-83985713D01*
X100207143Y-84057141D01*
X100135714Y-84128570D01*
X100064286Y-84271427D01*
X99992857Y-84557141D01*
X99921429Y-84699999D01*
X99850000Y-84771427D01*
X99707143Y-84842856D01*
X99564286Y-84842856D01*
X99421429Y-84771427D01*
X99350000Y-84699999D01*
X99278571Y-84557141D01*
X99278571Y-84199999D01*
X99350000Y-83985713D01*
X100778571Y-83342856D02*
X99278571Y-83342856D01*
X99278571Y-82771428D01*
X99350000Y-82628570D01*
X99421429Y-82557142D01*
X99564286Y-82485713D01*
X99778571Y-82485713D01*
X99921429Y-82557142D01*
X99992857Y-82628570D01*
X100064286Y-82771428D01*
X100064286Y-83342856D01*
X94800000Y-96750000D02*
X94800000Y-96035714D01*
X95228571Y-96892857D02*
X93728571Y-96392857D01*
X95228571Y-95892857D01*
X93728571Y-95607143D02*
X95228571Y-95107143D01*
X93728571Y-94607143D01*
X95228571Y-93250000D02*
X94514286Y-93750000D01*
X95228571Y-94107143D02*
X93728571Y-94107143D01*
X93728571Y-93535715D01*
X93800000Y-93392857D01*
X93871429Y-93321429D01*
X94014286Y-93250000D01*
X94228571Y-93250000D01*
X94371429Y-93321429D01*
X94442857Y-93392857D01*
X94514286Y-93535715D01*
X94514286Y-94107143D01*
X97628571Y-96464285D02*
X96128571Y-96464285D01*
X97557143Y-95821428D02*
X97628571Y-95607142D01*
X97628571Y-95249999D01*
X97557143Y-95107142D01*
X97485714Y-95035713D01*
X97342857Y-94964285D01*
X97200000Y-94964285D01*
X97057143Y-95035713D01*
X96985714Y-95107142D01*
X96914286Y-95249999D01*
X96842857Y-95535713D01*
X96771429Y-95678571D01*
X96700000Y-95749999D01*
X96557143Y-95821428D01*
X96414286Y-95821428D01*
X96271429Y-95749999D01*
X96200000Y-95678571D01*
X96128571Y-95535713D01*
X96128571Y-95178571D01*
X96200000Y-94964285D01*
X97628571Y-94321428D02*
X96128571Y-94321428D01*
X96128571Y-93750000D01*
X96200000Y-93607142D01*
X96271429Y-93535714D01*
X96414286Y-93464285D01*
X96628571Y-93464285D01*
X96771429Y-93535714D01*
X96842857Y-93607142D01*
X96914286Y-93750000D01*
X96914286Y-94321428D01*
D12*
X107200000Y-140600000D02*
X107200000Y-139200000D01*
X104200000Y-140600000D02*
X107200000Y-140600000D01*
X104200000Y-139200000D02*
X104200000Y-140600000D01*
X95600000Y-140600000D02*
X95600000Y-139200000D01*
X92400000Y-140600000D02*
X95600000Y-140600000D01*
X92400000Y-139200000D02*
X92400000Y-140600000D01*
X79600000Y-131600000D02*
X79600000Y-130400000D01*
X76800000Y-131600000D02*
X79600000Y-131600000D01*
X76800000Y-130400000D02*
X76800000Y-131600000D01*
X69000000Y-116600000D02*
X68000000Y-116600000D01*
X69000000Y-114000000D02*
X69000000Y-116600000D01*
X68000000Y-114000000D02*
X69000000Y-114000000D01*
X75911803Y-89200000D02*
G75*
G03X75911803Y-89200000I-111803J0D01*
G01*
X75911803Y-89200000D02*
G75*
G03X75911803Y-89200000I-111803J0D01*
G01*
D13*
X64900000Y-84625000D02*
X66100000Y-84625000D01*
X66100000Y-86375000D02*
X64900000Y-86375000D01*
X70900000Y-84625000D02*
X72100000Y-84625000D01*
X72100000Y-86375000D02*
X70900000Y-86375000D01*
D14*
X72000000Y-71912000D02*
G75*
G03X69714000Y-74198000I0J-2286000D01*
G01*
X73778000Y-80802000D02*
X73778000Y-74198000D01*
X70222000Y-74198000D02*
X70222000Y-80802000D01*
X73778000Y-74198000D02*
G75*
G03X72000000Y-72420000I-1778000J0D01*
G01*
X72000000Y-72420000D02*
G75*
G03X70222000Y-74198000I0J-1778000D01*
G01*
X72000000Y-82580000D02*
G75*
G03X73778000Y-80802000I0J1778000D01*
G01*
X70222000Y-80802000D02*
G75*
G03X72000000Y-82580000I1778000J0D01*
G01*
X74286000Y-74198000D02*
G75*
G03X72000000Y-71912000I-2286000J0D01*
G01*
X74286000Y-74198000D02*
X74286000Y-80802000D01*
X69714000Y-80802000D02*
X69714000Y-74198000D01*
X72000000Y-83088000D02*
G75*
G03X74286000Y-80802000I0J2286000D01*
G01*
X69714000Y-80802000D02*
G75*
G03X72000000Y-83088000I2286000J0D01*
G01*
X97588000Y-123500000D02*
G75*
G03X95302000Y-121214000I-2286000J0D01*
G01*
X88698000Y-125278000D02*
X95302000Y-125278000D01*
X95302000Y-121722000D02*
X88698000Y-121722000D01*
X95302000Y-125278000D02*
G75*
G03X97080000Y-123500000I0J1778000D01*
G01*
X97080000Y-123500000D02*
G75*
G03X95302000Y-121722000I-1778000J0D01*
G01*
X86920000Y-123500000D02*
G75*
G03X88698000Y-125278000I1778000J0D01*
G01*
X88698000Y-121722000D02*
G75*
G03X86920000Y-123500000I0J-1778000D01*
G01*
X95302000Y-125786000D02*
G75*
G03X97588000Y-123500000I0J2286000D01*
G01*
X95302000Y-125786000D02*
X88698000Y-125786000D01*
X88698000Y-121214000D02*
X95302000Y-121214000D01*
X86412000Y-123500000D02*
G75*
G03X88698000Y-125786000I2286000J0D01*
G01*
X88698000Y-121214000D02*
G75*
G03X86412000Y-123500000I0J-2286000D01*
G01*
X66400000Y-159788000D02*
G75*
G03X68686000Y-157502000I0J2286000D01*
G01*
X64622000Y-150898000D02*
X64622000Y-157502000D01*
X68178000Y-157502000D02*
X68178000Y-150898000D01*
X64622000Y-157502000D02*
G75*
G03X66400000Y-159280000I1778000J0D01*
G01*
X66400000Y-159280000D02*
G75*
G03X68178000Y-157502000I0J1778000D01*
G01*
X66400000Y-149120000D02*
G75*
G03X64622000Y-150898000I0J-1778000D01*
G01*
X68178000Y-150898000D02*
G75*
G03X66400000Y-149120000I-1778000J0D01*
G01*
X64114000Y-157502000D02*
G75*
G03X66400000Y-159788000I2286000J0D01*
G01*
X64114000Y-157502000D02*
X64114000Y-150898000D01*
X68686000Y-150898000D02*
X68686000Y-157502000D01*
X66400000Y-148612000D02*
G75*
G03X64114000Y-150898000I0J-2286000D01*
G01*
X68686000Y-150898000D02*
G75*
G03X66400000Y-148612000I-2286000J0D01*
G01*
D13*
X86000000Y-109350000D02*
X87000000Y-109350000D01*
X87000000Y-107650000D02*
X86000000Y-107650000D01*
X85450000Y-123900000D02*
X85450000Y-122900000D01*
X83750000Y-122900000D02*
X83750000Y-123900000D01*
X77650000Y-93500000D02*
X77650000Y-94500000D01*
X79350000Y-94500000D02*
X79350000Y-93500000D01*
X89650000Y-106500000D02*
X89650000Y-107500000D01*
X91350000Y-107500000D02*
X91350000Y-106500000D01*
X76850000Y-94500000D02*
X76850000Y-93500000D01*
X75150000Y-93500000D02*
X75150000Y-94500000D01*
X87650000Y-73000000D02*
X87650000Y-74000000D01*
X89350000Y-74000000D02*
X89350000Y-73000000D01*
X66350000Y-120950000D02*
X66350000Y-119950000D01*
X64650000Y-119950000D02*
X64650000Y-120950000D01*
X76650000Y-73000000D02*
X76650000Y-74000000D01*
X78350000Y-74000000D02*
X78350000Y-73000000D01*
X86698880Y-75100960D02*
X86698880Y-69899040D01*
X84301120Y-69899040D02*
X84301120Y-75100960D01*
X94698880Y-75100960D02*
X94698880Y-69899040D01*
X92301120Y-69899040D02*
X92301120Y-75100960D01*
X79150000Y-73000000D02*
X79150000Y-74000000D01*
X80850000Y-74000000D02*
X80850000Y-73000000D01*
X67000000Y-79150000D02*
X66000000Y-79150000D01*
X66000000Y-80850000D02*
X67000000Y-80850000D01*
X67000000Y-74150000D02*
X66000000Y-74150000D01*
X66000000Y-75850000D02*
X67000000Y-75850000D01*
X88700000Y-126750000D02*
X87700000Y-126750000D01*
X87700000Y-128450000D02*
X88700000Y-128450000D01*
X95300000Y-128450000D02*
X96300000Y-128450000D01*
X96300000Y-126750000D02*
X95300000Y-126750000D01*
X63200000Y-150900000D02*
X63200000Y-149900000D01*
X61500000Y-149900000D02*
X61500000Y-150900000D01*
X61500000Y-157500000D02*
X61500000Y-158500000D01*
X63200000Y-158500000D02*
X63200000Y-157500000D01*
X67955000Y-119065000D02*
X69225000Y-119065000D01*
X67955000Y-111715000D02*
X69225000Y-111715000D01*
X105565000Y-111715000D02*
X104295000Y-111715000D01*
X105565000Y-119065000D02*
X104295000Y-119065000D01*
X67955000Y-119065000D02*
X67955000Y-111715000D01*
X105565000Y-119065000D02*
X105565000Y-111715000D01*
X75575000Y-86875000D02*
X76225000Y-86875000D01*
X75575000Y-81125000D02*
X76225000Y-81125000D01*
X86225000Y-81125000D02*
X85575000Y-81125000D01*
X86225000Y-86875000D02*
X85575000Y-86875000D01*
X75575000Y-86875000D02*
X75575000Y-81125000D01*
X86225000Y-86875000D02*
X86225000Y-81125000D01*
X76225000Y-86875000D02*
X76225000Y-88475000D01*
X69350000Y-89500000D02*
X69350000Y-88500000D01*
X67650000Y-88500000D02*
X67650000Y-89500000D01*
X63350000Y-89500000D02*
X63350000Y-88500000D01*
X61650000Y-88500000D02*
X61650000Y-89500000D01*
X103500000Y-94350000D02*
X104500000Y-94350000D01*
X104500000Y-92650000D02*
X103500000Y-92650000D01*
X91900000Y-85125000D02*
X93100000Y-85125000D01*
X93100000Y-86875000D02*
X91900000Y-86875000D01*
X91900000Y-87625000D02*
X93100000Y-87625000D01*
X93100000Y-89375000D02*
X91900000Y-89375000D01*
X81875000Y-93400000D02*
X81875000Y-94600000D01*
X80125000Y-94600000D02*
X80125000Y-93400000D01*
X84375000Y-93400000D02*
X84375000Y-94600000D01*
X82625000Y-94600000D02*
X82625000Y-93400000D01*
X86875000Y-93400000D02*
X86875000Y-94600000D01*
X85125000Y-94600000D02*
X85125000Y-93400000D01*
X89375000Y-93400000D02*
X89375000Y-94600000D01*
X87625000Y-94600000D02*
X87625000Y-93400000D01*
X62950000Y-96375000D02*
X61750000Y-96375000D01*
X61750000Y-94625000D02*
X62950000Y-94625000D01*
X62950000Y-93875000D02*
X61750000Y-93875000D01*
X61750000Y-92125000D02*
X62950000Y-92125000D01*
X93100000Y-84375000D02*
X91900000Y-84375000D01*
X91900000Y-82625000D02*
X93100000Y-82625000D01*
X93100000Y-81875000D02*
X91900000Y-81875000D01*
X91900000Y-80125000D02*
X93100000Y-80125000D01*
X64625000Y-115600000D02*
X64625000Y-114400000D01*
X66375000Y-114400000D02*
X66375000Y-115600000D01*
X91900000Y-77625000D02*
X93100000Y-77625000D01*
X93100000Y-79375000D02*
X91900000Y-79375000D01*
X103400000Y-95125000D02*
X104600000Y-95125000D01*
X104600000Y-96875000D02*
X103400000Y-96875000D01*
X83375000Y-72900000D02*
X83375000Y-74100000D01*
X81625000Y-74100000D02*
X81625000Y-72900000D01*
X71375000Y-105900000D02*
X71375000Y-107100000D01*
X69625000Y-107100000D02*
X69625000Y-105900000D01*
X68875000Y-105900000D02*
X68875000Y-107100000D01*
X67125000Y-107100000D02*
X67125000Y-105900000D01*
X72866520Y-102297460D02*
X74263520Y-102297460D01*
X68421520Y-102297460D02*
X66897520Y-102297460D01*
X68802520Y-101535460D02*
X68802520Y-103059460D01*
X68548520Y-101535460D02*
X68548520Y-103059460D01*
X68294520Y-102297460D02*
X68294520Y-103059460D01*
X68294520Y-103059460D02*
X72866520Y-103059460D01*
X72866520Y-103059460D02*
X72866520Y-101535460D01*
X72866520Y-101535460D02*
X68294520Y-101535460D01*
X68294520Y-101535460D02*
X68294520Y-102297460D01*
X70200840Y-89150240D02*
X70249100Y-89150240D01*
X72999820Y-88449200D02*
X72999820Y-89150240D01*
X72999820Y-89150240D02*
X72750900Y-89150240D01*
X70200840Y-89150240D02*
X70000180Y-89150240D01*
X70000180Y-89150240D02*
X70000180Y-88449200D01*
X64200840Y-89150240D02*
X64249100Y-89150240D01*
X66999820Y-88449200D02*
X66999820Y-89150240D01*
X66999820Y-89150240D02*
X66750900Y-89150240D01*
X64200840Y-89150240D02*
X64000180Y-89150240D01*
X64000180Y-89150240D02*
X64000180Y-88449200D01*
X94030000Y-98430000D02*
X94030000Y-106050000D01*
X94030000Y-106050000D02*
X99110000Y-106050000D01*
X99110000Y-106050000D02*
X99110000Y-100970000D01*
X99110000Y-98430000D02*
X94030000Y-98430000D01*
X99110000Y-100970000D02*
X99110000Y-98430000D01*
X101030000Y-98430000D02*
X101030000Y-106050000D01*
X101030000Y-106050000D02*
X106110000Y-106050000D01*
X106110000Y-106050000D02*
X106110000Y-100970000D01*
X106110000Y-98430000D02*
X101030000Y-98430000D01*
X106110000Y-100970000D02*
X106110000Y-98430000D01*
X64230000Y-97410000D02*
X79470000Y-97410000D01*
X79470000Y-97410000D02*
X79470000Y-99950000D01*
X79470000Y-99950000D02*
X64230000Y-99950000D01*
X64230000Y-97410000D02*
X64230000Y-99950000D01*
X62270000Y-97410000D02*
X62270000Y-112650000D01*
X62270000Y-112650000D02*
X59730000Y-112650000D01*
X59730000Y-112650000D02*
X59730000Y-97410000D01*
X62270000Y-97410000D02*
X59730000Y-97410000D01*
X62270000Y-117730000D02*
X62270000Y-132970000D01*
X62270000Y-132970000D02*
X59730000Y-132970000D01*
X59730000Y-132970000D02*
X59730000Y-117730000D01*
X62270000Y-117730000D02*
X59730000Y-117730000D01*
X107990000Y-132970000D02*
X107990000Y-112650000D01*
X107990000Y-112650000D02*
X110530000Y-112650000D01*
X110530000Y-112650000D02*
X110530000Y-132970000D01*
X107990000Y-132970000D02*
X110530000Y-132970000D01*
X107450640Y-68450820D02*
X99749360Y-68450820D01*
X107450640Y-67450060D02*
X99749360Y-67450060D01*
X99749360Y-67450060D02*
X99749360Y-76649940D01*
X99749360Y-76649940D02*
X107450640Y-76649940D01*
X107450640Y-76649940D02*
X107450640Y-67450060D01*
X107990000Y-111126000D02*
X107990000Y-85726000D01*
X107990000Y-85726000D02*
X110530000Y-85726000D01*
X110530000Y-85726000D02*
X110530000Y-111126000D01*
X107990000Y-111126000D02*
X110530000Y-111126000D01*
X74535000Y-130355000D02*
X74535000Y-131625000D01*
X81885000Y-130355000D02*
X81885000Y-131625000D01*
X81885000Y-167965000D02*
X81885000Y-166695000D01*
X74535000Y-167965000D02*
X74535000Y-166695000D01*
X74535000Y-130355000D02*
X81885000Y-130355000D01*
X74535000Y-167965000D02*
X81885000Y-167965000D01*
X101775000Y-139205000D02*
X101775000Y-140475000D01*
X109125000Y-139205000D02*
X109125000Y-140475000D01*
X109125000Y-151415000D02*
X109125000Y-150145000D01*
X101775000Y-151415000D02*
X101775000Y-150145000D01*
X101775000Y-139205000D02*
X109125000Y-139205000D01*
X101775000Y-151415000D02*
X109125000Y-151415000D01*
X90035000Y-139205000D02*
X90035000Y-140475000D01*
X97385000Y-139205000D02*
X97385000Y-140475000D01*
X97385000Y-159035000D02*
X97385000Y-157765000D01*
X90035000Y-159035000D02*
X90035000Y-157765000D01*
X90035000Y-139205000D02*
X97385000Y-139205000D01*
X90035000Y-159035000D02*
X97385000Y-159035000D01*
X69280000Y-132650000D02*
X69280000Y-142810000D01*
X71820000Y-132650000D02*
X71820000Y-142810000D01*
X69280000Y-142810000D02*
X71820000Y-142810000D01*
X71820000Y-132650000D02*
X69280000Y-132650000D01*
X84520000Y-132650000D02*
X84520000Y-142810000D01*
X87060000Y-132650000D02*
X87060000Y-142810000D01*
X84520000Y-142810000D02*
X87060000Y-142810000D01*
X87060000Y-132650000D02*
X84520000Y-132650000D01*
X111250000Y-166750000D02*
X111475000Y-166750000D01*
X111450000Y-166475000D02*
X87875000Y-166400000D01*
X111475000Y-166400000D02*
X87875000Y-166400000D01*
D10*
X111500000Y-166775000D02*
X111500000Y-166275000D01*
D13*
X83150000Y-166400000D02*
X84450000Y-166400000D01*
X83100000Y-166325000D02*
X83100000Y-166750000D01*
X83100000Y-166750000D02*
X83350000Y-166750000D01*
X83350000Y-166750000D02*
X83350000Y-166625000D01*
D15*
X83250000Y-166612500D02*
X111250000Y-166612500D01*
D13*
X83150000Y-160800000D02*
X83300000Y-160800000D01*
D10*
X83080000Y-160450000D02*
X83450000Y-160450000D01*
X83075000Y-160900000D02*
X83075000Y-160450000D01*
D13*
X87925000Y-160850000D02*
X87500000Y-160750000D01*
X89800000Y-160850000D02*
X87950000Y-160850000D01*
D10*
X111300000Y-160450000D02*
X111500000Y-160450000D01*
D13*
X111350000Y-160800000D02*
X111450000Y-160800000D01*
D10*
X111500000Y-160850000D02*
X111500000Y-160450000D01*
D15*
X83300000Y-160612500D02*
X111300000Y-160612500D01*
D13*
X83575000Y-163075000D02*
X83550000Y-163225000D01*
X83650000Y-163975000D02*
X83550000Y-163725000D01*
D10*
X83575000Y-160850000D02*
X83575000Y-166350000D01*
X83075000Y-160850000D02*
X83625000Y-160850000D01*
X83075000Y-166350000D02*
X83075000Y-160850000D01*
X83625000Y-166350000D02*
X83075000Y-166350000D01*
D16*
X83325000Y-166150000D02*
X83325000Y-161050000D01*
X111250000Y-161050000D02*
X111250000Y-166150000D01*
D10*
X110950000Y-160850000D02*
X111500000Y-160850000D01*
X111500000Y-160850000D02*
X111500000Y-166350000D01*
X111500000Y-166350000D02*
X110950000Y-166350000D01*
X111000000Y-166350000D02*
X111000000Y-160850000D01*
D17*
G36*
X83681652Y-163838672D02*
X83827053Y-164021380D01*
X84037527Y-164142685D01*
X84336018Y-164213359D01*
X84521236Y-164232760D01*
X84971819Y-164266750D01*
X84745034Y-165330362D01*
X84518250Y-166393975D01*
X84057875Y-166393987D01*
X83597500Y-166394000D01*
X83599750Y-165044625D01*
X83601599Y-164594794D01*
X83606004Y-164259538D01*
X83613808Y-164026440D01*
X83625855Y-163883086D01*
X83642986Y-163817061D01*
X83666046Y-163815950D01*
X83681652Y-163838672D01*
X83681652Y-163838672D01*
G37*
X83681652Y-163838672D02*
X83827053Y-164021380D01*
X84037527Y-164142685D01*
X84336018Y-164213359D01*
X84521236Y-164232760D01*
X84971819Y-164266750D01*
X84745034Y-165330362D01*
X84518250Y-166393975D01*
X84057875Y-166393987D01*
X83597500Y-166394000D01*
X83599750Y-165044625D01*
X83601599Y-164594794D01*
X83606004Y-164259538D01*
X83613808Y-164026440D01*
X83625855Y-163883086D01*
X83642986Y-163817061D01*
X83666046Y-163815950D01*
X83681652Y-163838672D01*
G36*
X110966000Y-162584000D02*
X109727750Y-162584000D01*
X109346865Y-162585411D01*
X109013455Y-162589343D01*
X108746769Y-162595347D01*
X108566060Y-162602972D01*
X108490579Y-162611766D01*
X108489500Y-162612979D01*
X108477129Y-162686962D01*
X108443640Y-162859000D01*
X108394470Y-163102955D01*
X108335054Y-163392689D01*
X108270830Y-163702063D01*
X108207232Y-164004940D01*
X108149698Y-164275181D01*
X108103664Y-164486649D01*
X108074565Y-164613206D01*
X108069608Y-164631875D01*
X108065792Y-164688667D01*
X108112308Y-164722114D01*
X108233011Y-164738196D01*
X108451757Y-164742898D01*
X108512691Y-164743000D01*
X108763078Y-164738405D01*
X108913683Y-164720687D01*
X108991517Y-164683938D01*
X109021065Y-164631875D01*
X109047411Y-164524704D01*
X109092446Y-164325745D01*
X109148902Y-164067530D01*
X109187404Y-163887451D01*
X109249178Y-163618531D01*
X109308677Y-163398613D01*
X109357741Y-163255943D01*
X109380962Y-163217478D01*
X109479261Y-163199709D01*
X109641660Y-163204546D01*
X109665401Y-163207082D01*
X109816729Y-163239372D01*
X109865023Y-163297602D01*
X109859176Y-163337305D01*
X109830375Y-163450219D01*
X109785699Y-163644177D01*
X109732166Y-163886398D01*
X109676796Y-164144102D01*
X109626610Y-164384507D01*
X109588626Y-164574832D01*
X109569864Y-164682296D01*
X109569000Y-164692401D01*
X109627304Y-164716614D01*
X109781503Y-164734513D01*
X110000528Y-164742787D01*
X110044040Y-164743000D01*
X110287989Y-164740009D01*
X110433655Y-164725671D01*
X110509712Y-164691938D01*
X110544834Y-164630762D01*
X110553061Y-164600125D01*
X110578578Y-164486987D01*
X110624642Y-164277284D01*
X110685228Y-163998639D01*
X110754309Y-163678675D01*
X110771227Y-163600000D01*
X110955412Y-162742750D01*
X110966000Y-166394000D01*
X87802291Y-166394000D01*
X87926826Y-165838375D01*
X87982079Y-165550730D01*
X88019296Y-165275317D01*
X88032412Y-165060231D01*
X88030729Y-165014523D01*
X88010097Y-164746297D01*
X88896806Y-164728773D01*
X89783516Y-164711250D01*
X89894353Y-164171500D01*
X89946388Y-163893761D01*
X89986049Y-163635985D01*
X90000676Y-163498737D01*
X90360556Y-163498737D01*
X90414989Y-163754515D01*
X90548629Y-163929784D01*
X90619074Y-163971644D01*
X90819868Y-164023312D01*
X91084786Y-164042057D01*
X91355164Y-164027402D01*
X91570989Y-163979388D01*
X91742247Y-163914276D01*
X91699087Y-164185763D01*
X91663253Y-164392352D01*
X91627934Y-164567785D01*
X91620329Y-164600125D01*
X91608676Y-164672595D01*
X91634985Y-164715189D01*
X91723849Y-164735834D01*
X91899862Y-164742458D01*
X92063586Y-164743000D01*
X92314908Y-164738424D01*
X92466430Y-164720792D01*
X92545148Y-164684244D01*
X92575608Y-164631875D01*
X92870845Y-164631875D01*
X92885750Y-164689540D01*
X92950507Y-164723227D01*
X93090637Y-164739019D01*
X93331663Y-164742999D01*
X93337056Y-164743000D01*
X93805612Y-164743000D01*
X94164067Y-164266750D01*
X94321464Y-164060516D01*
X94448659Y-163899276D01*
X94527815Y-163805362D01*
X94544424Y-163790500D01*
X94542870Y-163846474D01*
X94516613Y-163991802D01*
X94480405Y-164155625D01*
X94418066Y-164428419D01*
X94396844Y-164600242D01*
X94431725Y-164694402D01*
X94537691Y-164734210D01*
X94729726Y-164742974D01*
X94857981Y-164743000D01*
X95323462Y-164743000D01*
X95625623Y-164743000D01*
X96588806Y-164743000D01*
X96742000Y-163981000D01*
X96895193Y-163219000D01*
X97167846Y-163219000D01*
X97333730Y-163225735D01*
X97430396Y-163242692D01*
X97440500Y-163251422D01*
X97427921Y-163321408D01*
X97394417Y-163485649D01*
X97346333Y-163714362D01*
X97290015Y-163977764D01*
X97231809Y-164246072D01*
X97178061Y-164489505D01*
X97153126Y-164600125D01*
X97143153Y-164672567D01*
X97170737Y-164715162D01*
X97260625Y-164735822D01*
X97437565Y-164742458D01*
X97600033Y-164743000D01*
X97888397Y-164733064D01*
X98056708Y-164702691D01*
X98108382Y-164663625D01*
X98116555Y-164632642D01*
X99091500Y-164632642D01*
X99108076Y-164689821D01*
X99174801Y-164723301D01*
X99317166Y-164739040D01*
X99560665Y-164742999D01*
X99563564Y-164743000D01*
X100035628Y-164743000D01*
X100389064Y-164252908D01*
X100560647Y-164020104D01*
X100668387Y-163894962D01*
X100719948Y-163880192D01*
X100722994Y-163978500D01*
X100685190Y-164192596D01*
X100652890Y-164346125D01*
X100567742Y-164743000D01*
X101538562Y-164743000D01*
X101540505Y-164733513D01*
X102568729Y-164733513D01*
X102570958Y-164772291D01*
X102654972Y-164790405D01*
X102835519Y-164794277D01*
X103083192Y-164786042D01*
X103368585Y-164767834D01*
X103662289Y-164741785D01*
X103934898Y-164710030D01*
X104112889Y-164681719D01*
X105314500Y-164681719D01*
X105372883Y-164711239D01*
X105527689Y-164732904D01*
X105748399Y-164742777D01*
X105789239Y-164743000D01*
X106263978Y-164743000D01*
X106622432Y-164266750D01*
X106779417Y-164060591D01*
X106905634Y-163899381D01*
X106983435Y-163805426D01*
X106999216Y-163790500D01*
X106995563Y-163846456D01*
X106967488Y-163991740D01*
X106930284Y-164155625D01*
X106866733Y-164428474D01*
X106844514Y-164600334D01*
X106878879Y-164694508D01*
X106985083Y-164734300D01*
X107178379Y-164743014D01*
X107314750Y-164743000D01*
X107542405Y-164738196D01*
X107710807Y-164725491D01*
X107788922Y-164707439D01*
X107791000Y-164703774D01*
X107803467Y-164626497D01*
X107837199Y-164451477D01*
X107886691Y-164205120D01*
X107946438Y-163913829D01*
X108010933Y-163604010D01*
X108074672Y-163302066D01*
X108132150Y-163034402D01*
X108177861Y-162827423D01*
X108206301Y-162707532D01*
X108209797Y-162695125D01*
X108214310Y-162639489D01*
X108169945Y-162606170D01*
X108053342Y-162589611D01*
X107841138Y-162584255D01*
X107742543Y-162584000D01*
X107241029Y-162584000D01*
X106897276Y-163093160D01*
X106749850Y-163303354D01*
X106629905Y-163459010D01*
X106553269Y-163540447D01*
X106534272Y-163544568D01*
X106538037Y-163457434D01*
X106566412Y-163284514D01*
X106613255Y-163063242D01*
X106613260Y-163063217D01*
X106662463Y-162847295D01*
X106697706Y-162685452D01*
X106711494Y-162612127D01*
X106711500Y-162611809D01*
X106653201Y-162598462D01*
X106499094Y-162588614D01*
X106280355Y-162584103D01*
X106239529Y-162584000D01*
X105990017Y-162588734D01*
X105840068Y-162606921D01*
X105762463Y-162644537D01*
X105733392Y-162695125D01*
X105706170Y-162802591D01*
X105660931Y-163000904D01*
X105603325Y-163263260D01*
X105539006Y-163562854D01*
X105473623Y-163872884D01*
X105412830Y-164166546D01*
X105362278Y-164417037D01*
X105327618Y-164597553D01*
X105314503Y-164681291D01*
X105314500Y-164681719D01*
X104112889Y-164681719D01*
X104157005Y-164674702D01*
X104265507Y-164649339D01*
X104617787Y-164520112D01*
X104872266Y-164360367D01*
X105057873Y-164147905D01*
X105158594Y-163963951D01*
X105269634Y-163687627D01*
X105306850Y-163469509D01*
X105273037Y-163266517D01*
X105213346Y-163120278D01*
X105087477Y-162934407D01*
X104899710Y-162794606D01*
X104634821Y-162695435D01*
X104277589Y-162631453D01*
X103812790Y-162597217D01*
X103742875Y-162594641D01*
X103438556Y-162588848D01*
X103192291Y-162592618D01*
X103026855Y-162605042D01*
X102965023Y-162625212D01*
X102965000Y-162625671D01*
X102952571Y-162704160D01*
X102918192Y-162884899D01*
X102866221Y-163145890D01*
X102801015Y-163465138D01*
X102750205Y-163709709D01*
X102680618Y-164054259D01*
X102624773Y-164353986D01*
X102586276Y-164587526D01*
X102568729Y-164733513D01*
X101540505Y-164733513D01*
X101743781Y-163741389D01*
X101813412Y-163396896D01*
X101872922Y-163093618D01*
X101917951Y-162854491D01*
X101944138Y-162702452D01*
X101949000Y-162661889D01*
X101899529Y-162617104D01*
X101744268Y-162591719D01*
X101484406Y-162583999D01*
X101019812Y-162583999D01*
X100678825Y-163072381D01*
X100530374Y-163275776D01*
X100409859Y-163423590D01*
X100333785Y-163496494D01*
X100316475Y-163496675D01*
X100317947Y-163405801D01*
X100342399Y-163229472D01*
X100384052Y-163008294D01*
X100472992Y-162583999D01*
X99983966Y-162583999D01*
X99494939Y-162584000D01*
X99293219Y-163553142D01*
X99223477Y-163895054D01*
X99164180Y-164198799D01*
X99119881Y-164440016D01*
X99095133Y-164594344D01*
X99091500Y-164632642D01*
X98116555Y-164632642D01*
X98133730Y-164567535D01*
X98177229Y-164376539D01*
X98233285Y-164117822D01*
X98296301Y-163818568D01*
X98360683Y-163505963D01*
X98420834Y-163207190D01*
X98471161Y-162949435D01*
X98506067Y-162759883D01*
X98519956Y-162665718D01*
X98520000Y-162663796D01*
X98490445Y-162634823D01*
X98393164Y-162613260D01*
X98215227Y-162598266D01*
X97943707Y-162589002D01*
X97565674Y-162584628D01*
X97292085Y-162584000D01*
X96064171Y-162584000D01*
X95625623Y-164743000D01*
X95323462Y-164743000D01*
X95532692Y-163743197D01*
X95605603Y-163398765D01*
X95671381Y-163095411D01*
X95724912Y-162856165D01*
X95761077Y-162704059D01*
X95772504Y-162663697D01*
X95755101Y-162621756D01*
X95652429Y-162596790D01*
X95447916Y-162586017D01*
X95304168Y-162585079D01*
X94805250Y-162586159D01*
X94440125Y-163104645D01*
X94288718Y-163311593D01*
X94168274Y-163460881D01*
X94093622Y-163535071D01*
X94076552Y-163532190D01*
X94090407Y-163416377D01*
X94130976Y-163203467D01*
X94200391Y-162882663D01*
X94236152Y-162724169D01*
X94247356Y-162651234D01*
X94223370Y-162609192D01*
X94139677Y-162591235D01*
X93971760Y-162590554D01*
X93778853Y-162597169D01*
X93288429Y-162615750D01*
X93080810Y-163568250D01*
X93008342Y-163907028D01*
X92946578Y-164207791D01*
X92900370Y-164445956D01*
X92874571Y-164596938D01*
X92870845Y-164631875D01*
X92575608Y-164631875D01*
X92597928Y-164539059D01*
X92638977Y-164352709D01*
X92693319Y-164098965D01*
X92755517Y-163803964D01*
X92820135Y-163493844D01*
X92881738Y-163194743D01*
X92934888Y-162932800D01*
X92974150Y-162734152D01*
X92994088Y-162624937D01*
X92995500Y-162612979D01*
X92937185Y-162599110D01*
X92782960Y-162588859D01*
X92563903Y-162584121D01*
X92520459Y-162584000D01*
X92287846Y-162583456D01*
X92141458Y-162597641D01*
X92055263Y-162650281D01*
X92003231Y-162765100D01*
X91959333Y-162965822D01*
X91928879Y-163123178D01*
X91868826Y-163310819D01*
X91767102Y-163411602D01*
X91714331Y-163434448D01*
X91550700Y-163463462D01*
X91439233Y-163449838D01*
X91374553Y-163376949D01*
X91359963Y-163219245D01*
X91395633Y-162964947D01*
X91449670Y-162726875D01*
X91461322Y-162654583D01*
X91435195Y-162612004D01*
X91346758Y-162591284D01*
X91171481Y-162584571D01*
X91003343Y-162583999D01*
X90779755Y-162582323D01*
X90635138Y-162592154D01*
X90546553Y-162635785D01*
X90491066Y-162735508D01*
X90445738Y-162913615D01*
X90390332Y-163179776D01*
X90360556Y-163498737D01*
X90000676Y-163498737D01*
X90006511Y-163443987D01*
X90007858Y-163409500D01*
X89955136Y-163114345D01*
X89791010Y-162877086D01*
X89518181Y-162699856D01*
X89139350Y-162584793D01*
X88924250Y-162552664D01*
X88567750Y-162513516D01*
X88690267Y-162278883D01*
X88784655Y-161983587D01*
X88784796Y-161775291D01*
X88716107Y-161481652D01*
X88569538Y-161253130D01*
X88331178Y-161077033D01*
X87987118Y-160940671D01*
X87820250Y-160895264D01*
X87801229Y-160885411D01*
X87830207Y-160876348D01*
X87911703Y-160868043D01*
X88050236Y-160860462D01*
X88250323Y-160853572D01*
X88516485Y-160847340D01*
X88853241Y-160841732D01*
X89265108Y-160836715D01*
X89756606Y-160832257D01*
X90332254Y-160828323D01*
X90996571Y-160824881D01*
X91754075Y-160821898D01*
X92609286Y-160819340D01*
X93566723Y-160817173D01*
X94630904Y-160815366D01*
X95806348Y-160813885D01*
X97097574Y-160812695D01*
X98509101Y-160811766D01*
X99234375Y-160811400D01*
X110966000Y-160806000D01*
X110966000Y-162584000D01*
X110966000Y-162584000D01*
G37*
X110966000Y-162584000D02*
X109727750Y-162584000D01*
X109346865Y-162585411D01*
X109013455Y-162589343D01*
X108746769Y-162595347D01*
X108566060Y-162602972D01*
X108490579Y-162611766D01*
X108489500Y-162612979D01*
X108477129Y-162686962D01*
X108443640Y-162859000D01*
X108394470Y-163102955D01*
X108335054Y-163392689D01*
X108270830Y-163702063D01*
X108207232Y-164004940D01*
X108149698Y-164275181D01*
X108103664Y-164486649D01*
X108074565Y-164613206D01*
X108069608Y-164631875D01*
X108065792Y-164688667D01*
X108112308Y-164722114D01*
X108233011Y-164738196D01*
X108451757Y-164742898D01*
X108512691Y-164743000D01*
X108763078Y-164738405D01*
X108913683Y-164720687D01*
X108991517Y-164683938D01*
X109021065Y-164631875D01*
X109047411Y-164524704D01*
X109092446Y-164325745D01*
X109148902Y-164067530D01*
X109187404Y-163887451D01*
X109249178Y-163618531D01*
X109308677Y-163398613D01*
X109357741Y-163255943D01*
X109380962Y-163217478D01*
X109479261Y-163199709D01*
X109641660Y-163204546D01*
X109665401Y-163207082D01*
X109816729Y-163239372D01*
X109865023Y-163297602D01*
X109859176Y-163337305D01*
X109830375Y-163450219D01*
X109785699Y-163644177D01*
X109732166Y-163886398D01*
X109676796Y-164144102D01*
X109626610Y-164384507D01*
X109588626Y-164574832D01*
X109569864Y-164682296D01*
X109569000Y-164692401D01*
X109627304Y-164716614D01*
X109781503Y-164734513D01*
X110000528Y-164742787D01*
X110044040Y-164743000D01*
X110287989Y-164740009D01*
X110433655Y-164725671D01*
X110509712Y-164691938D01*
X110544834Y-164630762D01*
X110553061Y-164600125D01*
X110578578Y-164486987D01*
X110624642Y-164277284D01*
X110685228Y-163998639D01*
X110754309Y-163678675D01*
X110771227Y-163600000D01*
X110955412Y-162742750D01*
X110966000Y-166394000D01*
X87802291Y-166394000D01*
X87926826Y-165838375D01*
X87982079Y-165550730D01*
X88019296Y-165275317D01*
X88032412Y-165060231D01*
X88030729Y-165014523D01*
X88010097Y-164746297D01*
X88896806Y-164728773D01*
X89783516Y-164711250D01*
X89894353Y-164171500D01*
X89946388Y-163893761D01*
X89986049Y-163635985D01*
X90000676Y-163498737D01*
X90360556Y-163498737D01*
X90414989Y-163754515D01*
X90548629Y-163929784D01*
X90619074Y-163971644D01*
X90819868Y-164023312D01*
X91084786Y-164042057D01*
X91355164Y-164027402D01*
X91570989Y-163979388D01*
X91742247Y-163914276D01*
X91699087Y-164185763D01*
X91663253Y-164392352D01*
X91627934Y-164567785D01*
X91620329Y-164600125D01*
X91608676Y-164672595D01*
X91634985Y-164715189D01*
X91723849Y-164735834D01*
X91899862Y-164742458D01*
X92063586Y-164743000D01*
X92314908Y-164738424D01*
X92466430Y-164720792D01*
X92545148Y-164684244D01*
X92575608Y-164631875D01*
X92870845Y-164631875D01*
X92885750Y-164689540D01*
X92950507Y-164723227D01*
X93090637Y-164739019D01*
X93331663Y-164742999D01*
X93337056Y-164743000D01*
X93805612Y-164743000D01*
X94164067Y-164266750D01*
X94321464Y-164060516D01*
X94448659Y-163899276D01*
X94527815Y-163805362D01*
X94544424Y-163790500D01*
X94542870Y-163846474D01*
X94516613Y-163991802D01*
X94480405Y-164155625D01*
X94418066Y-164428419D01*
X94396844Y-164600242D01*
X94431725Y-164694402D01*
X94537691Y-164734210D01*
X94729726Y-164742974D01*
X94857981Y-164743000D01*
X95323462Y-164743000D01*
X95625623Y-164743000D01*
X96588806Y-164743000D01*
X96742000Y-163981000D01*
X96895193Y-163219000D01*
X97167846Y-163219000D01*
X97333730Y-163225735D01*
X97430396Y-163242692D01*
X97440500Y-163251422D01*
X97427921Y-163321408D01*
X97394417Y-163485649D01*
X97346333Y-163714362D01*
X97290015Y-163977764D01*
X97231809Y-164246072D01*
X97178061Y-164489505D01*
X97153126Y-164600125D01*
X97143153Y-164672567D01*
X97170737Y-164715162D01*
X97260625Y-164735822D01*
X97437565Y-164742458D01*
X97600033Y-164743000D01*
X97888397Y-164733064D01*
X98056708Y-164702691D01*
X98108382Y-164663625D01*
X98116555Y-164632642D01*
X99091500Y-164632642D01*
X99108076Y-164689821D01*
X99174801Y-164723301D01*
X99317166Y-164739040D01*
X99560665Y-164742999D01*
X99563564Y-164743000D01*
X100035628Y-164743000D01*
X100389064Y-164252908D01*
X100560647Y-164020104D01*
X100668387Y-163894962D01*
X100719948Y-163880192D01*
X100722994Y-163978500D01*
X100685190Y-164192596D01*
X100652890Y-164346125D01*
X100567742Y-164743000D01*
X101538562Y-164743000D01*
X101540505Y-164733513D01*
X102568729Y-164733513D01*
X102570958Y-164772291D01*
X102654972Y-164790405D01*
X102835519Y-164794277D01*
X103083192Y-164786042D01*
X103368585Y-164767834D01*
X103662289Y-164741785D01*
X103934898Y-164710030D01*
X104112889Y-164681719D01*
X105314500Y-164681719D01*
X105372883Y-164711239D01*
X105527689Y-164732904D01*
X105748399Y-164742777D01*
X105789239Y-164743000D01*
X106263978Y-164743000D01*
X106622432Y-164266750D01*
X106779417Y-164060591D01*
X106905634Y-163899381D01*
X106983435Y-163805426D01*
X106999216Y-163790500D01*
X106995563Y-163846456D01*
X106967488Y-163991740D01*
X106930284Y-164155625D01*
X106866733Y-164428474D01*
X106844514Y-164600334D01*
X106878879Y-164694508D01*
X106985083Y-164734300D01*
X107178379Y-164743014D01*
X107314750Y-164743000D01*
X107542405Y-164738196D01*
X107710807Y-164725491D01*
X107788922Y-164707439D01*
X107791000Y-164703774D01*
X107803467Y-164626497D01*
X107837199Y-164451477D01*
X107886691Y-164205120D01*
X107946438Y-163913829D01*
X108010933Y-163604010D01*
X108074672Y-163302066D01*
X108132150Y-163034402D01*
X108177861Y-162827423D01*
X108206301Y-162707532D01*
X108209797Y-162695125D01*
X108214310Y-162639489D01*
X108169945Y-162606170D01*
X108053342Y-162589611D01*
X107841138Y-162584255D01*
X107742543Y-162584000D01*
X107241029Y-162584000D01*
X106897276Y-163093160D01*
X106749850Y-163303354D01*
X106629905Y-163459010D01*
X106553269Y-163540447D01*
X106534272Y-163544568D01*
X106538037Y-163457434D01*
X106566412Y-163284514D01*
X106613255Y-163063242D01*
X106613260Y-163063217D01*
X106662463Y-162847295D01*
X106697706Y-162685452D01*
X106711494Y-162612127D01*
X106711500Y-162611809D01*
X106653201Y-162598462D01*
X106499094Y-162588614D01*
X106280355Y-162584103D01*
X106239529Y-162584000D01*
X105990017Y-162588734D01*
X105840068Y-162606921D01*
X105762463Y-162644537D01*
X105733392Y-162695125D01*
X105706170Y-162802591D01*
X105660931Y-163000904D01*
X105603325Y-163263260D01*
X105539006Y-163562854D01*
X105473623Y-163872884D01*
X105412830Y-164166546D01*
X105362278Y-164417037D01*
X105327618Y-164597553D01*
X105314503Y-164681291D01*
X105314500Y-164681719D01*
X104112889Y-164681719D01*
X104157005Y-164674702D01*
X104265507Y-164649339D01*
X104617787Y-164520112D01*
X104872266Y-164360367D01*
X105057873Y-164147905D01*
X105158594Y-163963951D01*
X105269634Y-163687627D01*
X105306850Y-163469509D01*
X105273037Y-163266517D01*
X105213346Y-163120278D01*
X105087477Y-162934407D01*
X104899710Y-162794606D01*
X104634821Y-162695435D01*
X104277589Y-162631453D01*
X103812790Y-162597217D01*
X103742875Y-162594641D01*
X103438556Y-162588848D01*
X103192291Y-162592618D01*
X103026855Y-162605042D01*
X102965023Y-162625212D01*
X102965000Y-162625671D01*
X102952571Y-162704160D01*
X102918192Y-162884899D01*
X102866221Y-163145890D01*
X102801015Y-163465138D01*
X102750205Y-163709709D01*
X102680618Y-164054259D01*
X102624773Y-164353986D01*
X102586276Y-164587526D01*
X102568729Y-164733513D01*
X101540505Y-164733513D01*
X101743781Y-163741389D01*
X101813412Y-163396896D01*
X101872922Y-163093618D01*
X101917951Y-162854491D01*
X101944138Y-162702452D01*
X101949000Y-162661889D01*
X101899529Y-162617104D01*
X101744268Y-162591719D01*
X101484406Y-162583999D01*
X101019812Y-162583999D01*
X100678825Y-163072381D01*
X100530374Y-163275776D01*
X100409859Y-163423590D01*
X100333785Y-163496494D01*
X100316475Y-163496675D01*
X100317947Y-163405801D01*
X100342399Y-163229472D01*
X100384052Y-163008294D01*
X100472992Y-162583999D01*
X99983966Y-162583999D01*
X99494939Y-162584000D01*
X99293219Y-163553142D01*
X99223477Y-163895054D01*
X99164180Y-164198799D01*
X99119881Y-164440016D01*
X99095133Y-164594344D01*
X99091500Y-164632642D01*
X98116555Y-164632642D01*
X98133730Y-164567535D01*
X98177229Y-164376539D01*
X98233285Y-164117822D01*
X98296301Y-163818568D01*
X98360683Y-163505963D01*
X98420834Y-163207190D01*
X98471161Y-162949435D01*
X98506067Y-162759883D01*
X98519956Y-162665718D01*
X98520000Y-162663796D01*
X98490445Y-162634823D01*
X98393164Y-162613260D01*
X98215227Y-162598266D01*
X97943707Y-162589002D01*
X97565674Y-162584628D01*
X97292085Y-162584000D01*
X96064171Y-162584000D01*
X95625623Y-164743000D01*
X95323462Y-164743000D01*
X95532692Y-163743197D01*
X95605603Y-163398765D01*
X95671381Y-163095411D01*
X95724912Y-162856165D01*
X95761077Y-162704059D01*
X95772504Y-162663697D01*
X95755101Y-162621756D01*
X95652429Y-162596790D01*
X95447916Y-162586017D01*
X95304168Y-162585079D01*
X94805250Y-162586159D01*
X94440125Y-163104645D01*
X94288718Y-163311593D01*
X94168274Y-163460881D01*
X94093622Y-163535071D01*
X94076552Y-163532190D01*
X94090407Y-163416377D01*
X94130976Y-163203467D01*
X94200391Y-162882663D01*
X94236152Y-162724169D01*
X94247356Y-162651234D01*
X94223370Y-162609192D01*
X94139677Y-162591235D01*
X93971760Y-162590554D01*
X93778853Y-162597169D01*
X93288429Y-162615750D01*
X93080810Y-163568250D01*
X93008342Y-163907028D01*
X92946578Y-164207791D01*
X92900370Y-164445956D01*
X92874571Y-164596938D01*
X92870845Y-164631875D01*
X92575608Y-164631875D01*
X92597928Y-164539059D01*
X92638977Y-164352709D01*
X92693319Y-164098965D01*
X92755517Y-163803964D01*
X92820135Y-163493844D01*
X92881738Y-163194743D01*
X92934888Y-162932800D01*
X92974150Y-162734152D01*
X92994088Y-162624937D01*
X92995500Y-162612979D01*
X92937185Y-162599110D01*
X92782960Y-162588859D01*
X92563903Y-162584121D01*
X92520459Y-162584000D01*
X92287846Y-162583456D01*
X92141458Y-162597641D01*
X92055263Y-162650281D01*
X92003231Y-162765100D01*
X91959333Y-162965822D01*
X91928879Y-163123178D01*
X91868826Y-163310819D01*
X91767102Y-163411602D01*
X91714331Y-163434448D01*
X91550700Y-163463462D01*
X91439233Y-163449838D01*
X91374553Y-163376949D01*
X91359963Y-163219245D01*
X91395633Y-162964947D01*
X91449670Y-162726875D01*
X91461322Y-162654583D01*
X91435195Y-162612004D01*
X91346758Y-162591284D01*
X91171481Y-162584571D01*
X91003343Y-162583999D01*
X90779755Y-162582323D01*
X90635138Y-162592154D01*
X90546553Y-162635785D01*
X90491066Y-162735508D01*
X90445738Y-162913615D01*
X90390332Y-163179776D01*
X90360556Y-163498737D01*
X90000676Y-163498737D01*
X90006511Y-163443987D01*
X90007858Y-163409500D01*
X89955136Y-163114345D01*
X89791010Y-162877086D01*
X89518181Y-162699856D01*
X89139350Y-162584793D01*
X88924250Y-162552664D01*
X88567750Y-162513516D01*
X88690267Y-162278883D01*
X88784655Y-161983587D01*
X88784796Y-161775291D01*
X88716107Y-161481652D01*
X88569538Y-161253130D01*
X88331178Y-161077033D01*
X87987118Y-160940671D01*
X87820250Y-160895264D01*
X87801229Y-160885411D01*
X87830207Y-160876348D01*
X87911703Y-160868043D01*
X88050236Y-160860462D01*
X88250323Y-160853572D01*
X88516485Y-160847340D01*
X88853241Y-160841732D01*
X89265108Y-160836715D01*
X89756606Y-160832257D01*
X90332254Y-160828323D01*
X90996571Y-160824881D01*
X91754075Y-160821898D01*
X92609286Y-160819340D01*
X93566723Y-160817173D01*
X94630904Y-160815366D01*
X95806348Y-160813885D01*
X97097574Y-160812695D01*
X98509101Y-160811766D01*
X99234375Y-160811400D01*
X110966000Y-160806000D01*
X110966000Y-162584000D01*
G36*
X87180362Y-161010367D02*
X87624039Y-161053408D01*
X87970952Y-161127779D01*
X88234766Y-161235636D01*
X88269721Y-161255868D01*
X88480244Y-161447068D01*
X88588946Y-161686419D01*
X88598248Y-161949522D01*
X88510568Y-162211980D01*
X88328325Y-162449396D01*
X88137174Y-162592753D01*
X87998781Y-162676583D01*
X87921405Y-162727677D01*
X87915500Y-162733424D01*
X87974714Y-162738274D01*
X88135235Y-162743848D01*
X88371377Y-162749404D01*
X88610996Y-162753538D01*
X89048117Y-162773794D01*
X89376085Y-162828806D01*
X89604649Y-162931790D01*
X89743557Y-163095964D01*
X89802557Y-163334541D01*
X89791399Y-163660739D01*
X89719830Y-164087774D01*
X89692057Y-164219125D01*
X89619476Y-164552500D01*
X88313208Y-164552500D01*
X88423500Y-164012750D01*
X88533791Y-163472999D01*
X88390285Y-163473000D01*
X88312170Y-163487399D01*
X88255124Y-163547871D01*
X88205074Y-163680326D01*
X88147948Y-163910675D01*
X88144639Y-163925289D01*
X88094302Y-164159626D01*
X88057823Y-164351252D01*
X88042581Y-164461179D01*
X88042500Y-164465039D01*
X87983577Y-164531418D01*
X87820250Y-164552500D01*
X87675186Y-164556232D01*
X87640326Y-164582361D01*
X87698872Y-164653282D01*
X87725000Y-164679500D01*
X87827263Y-164833158D01*
X87865047Y-165045183D01*
X87864914Y-165155750D01*
X87851379Y-165244474D01*
X87817425Y-165422491D01*
X87769755Y-165655023D01*
X87757809Y-165711375D01*
X87652837Y-166203500D01*
X86339263Y-166203500D01*
X86428926Y-165806625D01*
X86481665Y-165573624D01*
X86527343Y-165372565D01*
X86551505Y-165266875D01*
X86553923Y-165158462D01*
X86469062Y-165124882D01*
X86434384Y-165124000D01*
X86359598Y-165134561D01*
X86305017Y-165182361D01*
X86258849Y-165291572D01*
X86209302Y-165486368D01*
X86171079Y-165663750D01*
X86057809Y-166203500D01*
X84755155Y-166203500D01*
X84789663Y-166044077D01*
X84931000Y-166044077D01*
X84989459Y-166059203D01*
X85144701Y-166070562D01*
X85366522Y-166076207D01*
X85433910Y-166076500D01*
X85936820Y-166076500D01*
X86037160Y-165635339D01*
X86087298Y-165401621D01*
X86123272Y-165208593D01*
X86137488Y-165097106D01*
X86137500Y-165095589D01*
X86171534Y-165031290D01*
X86290140Y-165001684D01*
X86423250Y-164997000D01*
X86600173Y-165004226D01*
X86683693Y-165037060D01*
X86707093Y-165112236D01*
X86707447Y-165139875D01*
X86690936Y-165295949D01*
X86650496Y-165522600D01*
X86596395Y-165768097D01*
X86543611Y-165965375D01*
X86539420Y-166020603D01*
X86583543Y-166053875D01*
X86699207Y-166070597D01*
X86909637Y-166076176D01*
X87021011Y-166076500D01*
X87274321Y-166074794D01*
X87428486Y-166063782D01*
X87511359Y-166034625D01*
X87550793Y-165978482D01*
X87571202Y-165901875D01*
X87615358Y-165714140D01*
X87666924Y-165506499D01*
X87667308Y-165505000D01*
X87722306Y-165189303D01*
X87698995Y-164952619D01*
X87594134Y-164771523D01*
X87561269Y-164738193D01*
X87495795Y-164681694D01*
X87424116Y-164640506D01*
X87325525Y-164611696D01*
X87179313Y-164592329D01*
X86964774Y-164579470D01*
X86661198Y-164570184D01*
X86325562Y-164563063D01*
X85253585Y-164541877D01*
X85219706Y-164690063D01*
X85172155Y-164902027D01*
X85116185Y-165157422D01*
X85058173Y-165426337D01*
X85004498Y-165678863D01*
X84961536Y-165885089D01*
X84935665Y-166015105D01*
X84931000Y-166044077D01*
X84789663Y-166044077D01*
X84937276Y-165362125D01*
X85008751Y-165028297D01*
X85073708Y-164718309D01*
X85125559Y-164464047D01*
X85157715Y-164297399D01*
X85160314Y-164282625D01*
X85201231Y-164044500D01*
X84752749Y-164044500D01*
X84352547Y-164019155D01*
X84063191Y-163938147D01*
X83878031Y-163794013D01*
X83790415Y-163579292D01*
X83791540Y-163478834D01*
X83930125Y-163478834D01*
X83941833Y-163605123D01*
X83982871Y-163694431D01*
X84042062Y-163758920D01*
X84127934Y-163820168D01*
X84240855Y-163858237D01*
X84410696Y-163878258D01*
X84667324Y-163885364D01*
X84780185Y-163885750D01*
X85378288Y-163885750D01*
X85337934Y-164155625D01*
X85297579Y-164425500D01*
X86292567Y-164425500D01*
X86668480Y-164060375D01*
X86832739Y-163909065D01*
X86950557Y-163816629D01*
X87004274Y-163796160D01*
X87003559Y-163811926D01*
X86966763Y-163950682D01*
X86928848Y-164141776D01*
X86922996Y-164177051D01*
X86883268Y-164425500D01*
X87899309Y-164425500D01*
X88125849Y-163346000D01*
X88366176Y-163346000D01*
X88530863Y-163359961D01*
X88633252Y-163394479D01*
X88642302Y-163403921D01*
X88647529Y-163490538D01*
X88627953Y-163664854D01*
X88587767Y-163890923D01*
X88582550Y-163916073D01*
X88536077Y-164140501D01*
X88502091Y-164311317D01*
X88487191Y-164395236D01*
X88487000Y-164397901D01*
X88545452Y-164410796D01*
X88700638Y-164420471D01*
X88922301Y-164425260D01*
X88988206Y-164425500D01*
X89227143Y-164425286D01*
X89385040Y-164410036D01*
X89483485Y-164357833D01*
X89544064Y-164246760D01*
X89588365Y-164054902D01*
X89636862Y-163766956D01*
X89718854Y-163278991D01*
X89546150Y-163106120D01*
X89373446Y-162933250D01*
X88279348Y-162912574D01*
X87185250Y-162891899D01*
X86853415Y-163261824D01*
X86676668Y-163449063D01*
X86568927Y-163531708D01*
X86522413Y-163506320D01*
X86529346Y-163369463D01*
X86576827Y-163139625D01*
X86632125Y-162901500D01*
X85587285Y-162901500D01*
X85529017Y-163203125D01*
X85485738Y-163386666D01*
X85430785Y-163478955D01*
X85336956Y-163514784D01*
X85280250Y-163521292D01*
X85119363Y-163525633D01*
X85021105Y-163491807D01*
X84978782Y-163400191D01*
X84985702Y-163231167D01*
X85035171Y-162965112D01*
X85056727Y-162866065D01*
X85112167Y-162611019D01*
X85155411Y-162403988D01*
X85180161Y-162275519D01*
X85183625Y-162250625D01*
X85125858Y-162228378D01*
X84971261Y-162211684D01*
X84749977Y-162203415D01*
X84683889Y-162203000D01*
X84182779Y-162203000D01*
X84078019Y-162663375D01*
X83997513Y-163029430D01*
X83948450Y-163294093D01*
X83930125Y-163478834D01*
X83791540Y-163478834D01*
X83793694Y-163286521D01*
X83847206Y-163028500D01*
X83893352Y-162837312D01*
X83947650Y-162590417D01*
X83978353Y-162441125D01*
X84051004Y-162076000D01*
X84714461Y-162076000D01*
X85009978Y-162076980D01*
X85200021Y-162083175D01*
X85306116Y-162099465D01*
X85349789Y-162130727D01*
X85352567Y-162181842D01*
X85344766Y-162218875D01*
X85244509Y-162676025D01*
X85183281Y-163016091D01*
X85160576Y-163242679D01*
X85175889Y-163359394D01*
X85183514Y-163369914D01*
X85235222Y-163402706D01*
X85283666Y-163383157D01*
X85333240Y-163298795D01*
X85388340Y-163137150D01*
X85453361Y-162885750D01*
X85473724Y-162794985D01*
X85673106Y-162794985D01*
X86524428Y-162755440D01*
X86901184Y-162730854D01*
X87252924Y-162694995D01*
X87544052Y-162652114D01*
X87719572Y-162612635D01*
X88047414Y-162471689D01*
X88288619Y-162279749D01*
X88432200Y-162052047D01*
X88467171Y-161803818D01*
X88424834Y-161634722D01*
X88282065Y-161447197D01*
X88025957Y-161302806D01*
X87654787Y-161201065D01*
X87166829Y-161141489D01*
X86605082Y-161123500D01*
X86333319Y-161128488D01*
X86116173Y-161141969D01*
X85980048Y-161161712D01*
X85947000Y-161179062D01*
X85935469Y-161276467D01*
X85908958Y-161424831D01*
X85870917Y-161615037D01*
X86612417Y-161643419D01*
X86963526Y-161661705D01*
X87206210Y-161688675D01*
X87359004Y-161729753D01*
X87440442Y-161790360D01*
X87469057Y-161875920D01*
X87470027Y-161894340D01*
X87417653Y-162004735D01*
X87282447Y-162118354D01*
X87104408Y-162206141D01*
X87004358Y-162232608D01*
X86759967Y-162274605D01*
X86848345Y-161751503D01*
X86360774Y-161764407D01*
X86106702Y-161776061D01*
X85939118Y-161810286D01*
X85835929Y-161890170D01*
X85775040Y-162038802D01*
X85734359Y-162279270D01*
X85714903Y-162439364D01*
X85673106Y-162794985D01*
X85473724Y-162794985D01*
X85532699Y-162532125D01*
X85612320Y-162153262D01*
X85851264Y-160996499D01*
X86626256Y-160996499D01*
X87180362Y-161010367D01*
X87180362Y-161010367D01*
G37*
X87180362Y-161010367D02*
X87624039Y-161053408D01*
X87970952Y-161127779D01*
X88234766Y-161235636D01*
X88269721Y-161255868D01*
X88480244Y-161447068D01*
X88588946Y-161686419D01*
X88598248Y-161949522D01*
X88510568Y-162211980D01*
X88328325Y-162449396D01*
X88137174Y-162592753D01*
X87998781Y-162676583D01*
X87921405Y-162727677D01*
X87915500Y-162733424D01*
X87974714Y-162738274D01*
X88135235Y-162743848D01*
X88371377Y-162749404D01*
X88610996Y-162753538D01*
X89048117Y-162773794D01*
X89376085Y-162828806D01*
X89604649Y-162931790D01*
X89743557Y-163095964D01*
X89802557Y-163334541D01*
X89791399Y-163660739D01*
X89719830Y-164087774D01*
X89692057Y-164219125D01*
X89619476Y-164552500D01*
X88313208Y-164552500D01*
X88423500Y-164012750D01*
X88533791Y-163472999D01*
X88390285Y-163473000D01*
X88312170Y-163487399D01*
X88255124Y-163547871D01*
X88205074Y-163680326D01*
X88147948Y-163910675D01*
X88144639Y-163925289D01*
X88094302Y-164159626D01*
X88057823Y-164351252D01*
X88042581Y-164461179D01*
X88042500Y-164465039D01*
X87983577Y-164531418D01*
X87820250Y-164552500D01*
X87675186Y-164556232D01*
X87640326Y-164582361D01*
X87698872Y-164653282D01*
X87725000Y-164679500D01*
X87827263Y-164833158D01*
X87865047Y-165045183D01*
X87864914Y-165155750D01*
X87851379Y-165244474D01*
X87817425Y-165422491D01*
X87769755Y-165655023D01*
X87757809Y-165711375D01*
X87652837Y-166203500D01*
X86339263Y-166203500D01*
X86428926Y-165806625D01*
X86481665Y-165573624D01*
X86527343Y-165372565D01*
X86551505Y-165266875D01*
X86553923Y-165158462D01*
X86469062Y-165124882D01*
X86434384Y-165124000D01*
X86359598Y-165134561D01*
X86305017Y-165182361D01*
X86258849Y-165291572D01*
X86209302Y-165486368D01*
X86171079Y-165663750D01*
X86057809Y-166203500D01*
X84755155Y-166203500D01*
X84789663Y-166044077D01*
X84931000Y-166044077D01*
X84989459Y-166059203D01*
X85144701Y-166070562D01*
X85366522Y-166076207D01*
X85433910Y-166076500D01*
X85936820Y-166076500D01*
X86037160Y-165635339D01*
X86087298Y-165401621D01*
X86123272Y-165208593D01*
X86137488Y-165097106D01*
X86137500Y-165095589D01*
X86171534Y-165031290D01*
X86290140Y-165001684D01*
X86423250Y-164997000D01*
X86600173Y-165004226D01*
X86683693Y-165037060D01*
X86707093Y-165112236D01*
X86707447Y-165139875D01*
X86690936Y-165295949D01*
X86650496Y-165522600D01*
X86596395Y-165768097D01*
X86543611Y-165965375D01*
X86539420Y-166020603D01*
X86583543Y-166053875D01*
X86699207Y-166070597D01*
X86909637Y-166076176D01*
X87021011Y-166076500D01*
X87274321Y-166074794D01*
X87428486Y-166063782D01*
X87511359Y-166034625D01*
X87550793Y-165978482D01*
X87571202Y-165901875D01*
X87615358Y-165714140D01*
X87666924Y-165506499D01*
X87667308Y-165505000D01*
X87722306Y-165189303D01*
X87698995Y-164952619D01*
X87594134Y-164771523D01*
X87561269Y-164738193D01*
X87495795Y-164681694D01*
X87424116Y-164640506D01*
X87325525Y-164611696D01*
X87179313Y-164592329D01*
X86964774Y-164579470D01*
X86661198Y-164570184D01*
X86325562Y-164563063D01*
X85253585Y-164541877D01*
X85219706Y-164690063D01*
X85172155Y-164902027D01*
X85116185Y-165157422D01*
X85058173Y-165426337D01*
X85004498Y-165678863D01*
X84961536Y-165885089D01*
X84935665Y-166015105D01*
X84931000Y-166044077D01*
X84789663Y-166044077D01*
X84937276Y-165362125D01*
X85008751Y-165028297D01*
X85073708Y-164718309D01*
X85125559Y-164464047D01*
X85157715Y-164297399D01*
X85160314Y-164282625D01*
X85201231Y-164044500D01*
X84752749Y-164044500D01*
X84352547Y-164019155D01*
X84063191Y-163938147D01*
X83878031Y-163794013D01*
X83790415Y-163579292D01*
X83791540Y-163478834D01*
X83930125Y-163478834D01*
X83941833Y-163605123D01*
X83982871Y-163694431D01*
X84042062Y-163758920D01*
X84127934Y-163820168D01*
X84240855Y-163858237D01*
X84410696Y-163878258D01*
X84667324Y-163885364D01*
X84780185Y-163885750D01*
X85378288Y-163885750D01*
X85337934Y-164155625D01*
X85297579Y-164425500D01*
X86292567Y-164425500D01*
X86668480Y-164060375D01*
X86832739Y-163909065D01*
X86950557Y-163816629D01*
X87004274Y-163796160D01*
X87003559Y-163811926D01*
X86966763Y-163950682D01*
X86928848Y-164141776D01*
X86922996Y-164177051D01*
X86883268Y-164425500D01*
X87899309Y-164425500D01*
X88125849Y-163346000D01*
X88366176Y-163346000D01*
X88530863Y-163359961D01*
X88633252Y-163394479D01*
X88642302Y-163403921D01*
X88647529Y-163490538D01*
X88627953Y-163664854D01*
X88587767Y-163890923D01*
X88582550Y-163916073D01*
X88536077Y-164140501D01*
X88502091Y-164311317D01*
X88487191Y-164395236D01*
X88487000Y-164397901D01*
X88545452Y-164410796D01*
X88700638Y-164420471D01*
X88922301Y-164425260D01*
X88988206Y-164425500D01*
X89227143Y-164425286D01*
X89385040Y-164410036D01*
X89483485Y-164357833D01*
X89544064Y-164246760D01*
X89588365Y-164054902D01*
X89636862Y-163766956D01*
X89718854Y-163278991D01*
X89546150Y-163106120D01*
X89373446Y-162933250D01*
X88279348Y-162912574D01*
X87185250Y-162891899D01*
X86853415Y-163261824D01*
X86676668Y-163449063D01*
X86568927Y-163531708D01*
X86522413Y-163506320D01*
X86529346Y-163369463D01*
X86576827Y-163139625D01*
X86632125Y-162901500D01*
X85587285Y-162901500D01*
X85529017Y-163203125D01*
X85485738Y-163386666D01*
X85430785Y-163478955D01*
X85336956Y-163514784D01*
X85280250Y-163521292D01*
X85119363Y-163525633D01*
X85021105Y-163491807D01*
X84978782Y-163400191D01*
X84985702Y-163231167D01*
X85035171Y-162965112D01*
X85056727Y-162866065D01*
X85112167Y-162611019D01*
X85155411Y-162403988D01*
X85180161Y-162275519D01*
X85183625Y-162250625D01*
X85125858Y-162228378D01*
X84971261Y-162211684D01*
X84749977Y-162203415D01*
X84683889Y-162203000D01*
X84182779Y-162203000D01*
X84078019Y-162663375D01*
X83997513Y-163029430D01*
X83948450Y-163294093D01*
X83930125Y-163478834D01*
X83791540Y-163478834D01*
X83793694Y-163286521D01*
X83847206Y-163028500D01*
X83893352Y-162837312D01*
X83947650Y-162590417D01*
X83978353Y-162441125D01*
X84051004Y-162076000D01*
X84714461Y-162076000D01*
X85009978Y-162076980D01*
X85200021Y-162083175D01*
X85306116Y-162099465D01*
X85349789Y-162130727D01*
X85352567Y-162181842D01*
X85344766Y-162218875D01*
X85244509Y-162676025D01*
X85183281Y-163016091D01*
X85160576Y-163242679D01*
X85175889Y-163359394D01*
X85183514Y-163369914D01*
X85235222Y-163402706D01*
X85283666Y-163383157D01*
X85333240Y-163298795D01*
X85388340Y-163137150D01*
X85453361Y-162885750D01*
X85473724Y-162794985D01*
X85673106Y-162794985D01*
X86524428Y-162755440D01*
X86901184Y-162730854D01*
X87252924Y-162694995D01*
X87544052Y-162652114D01*
X87719572Y-162612635D01*
X88047414Y-162471689D01*
X88288619Y-162279749D01*
X88432200Y-162052047D01*
X88467171Y-161803818D01*
X88424834Y-161634722D01*
X88282065Y-161447197D01*
X88025957Y-161302806D01*
X87654787Y-161201065D01*
X87166829Y-161141489D01*
X86605082Y-161123500D01*
X86333319Y-161128488D01*
X86116173Y-161141969D01*
X85980048Y-161161712D01*
X85947000Y-161179062D01*
X85935469Y-161276467D01*
X85908958Y-161424831D01*
X85870917Y-161615037D01*
X86612417Y-161643419D01*
X86963526Y-161661705D01*
X87206210Y-161688675D01*
X87359004Y-161729753D01*
X87440442Y-161790360D01*
X87469057Y-161875920D01*
X87470027Y-161894340D01*
X87417653Y-162004735D01*
X87282447Y-162118354D01*
X87104408Y-162206141D01*
X87004358Y-162232608D01*
X86759967Y-162274605D01*
X86848345Y-161751503D01*
X86360774Y-161764407D01*
X86106702Y-161776061D01*
X85939118Y-161810286D01*
X85835929Y-161890170D01*
X85775040Y-162038802D01*
X85734359Y-162279270D01*
X85714903Y-162439364D01*
X85673106Y-162794985D01*
X85473724Y-162794985D01*
X85532699Y-162532125D01*
X85612320Y-162153262D01*
X85851264Y-160996499D01*
X86626256Y-160996499D01*
X87180362Y-161010367D01*
G36*
X85672701Y-160948875D02*
X85642690Y-161086648D01*
X85599618Y-161298170D01*
X85562305Y-161488625D01*
X85485976Y-161885500D01*
X83925425Y-161885500D01*
X83788677Y-162504625D01*
X83728493Y-162773581D01*
X83676977Y-162997330D01*
X83641117Y-163145858D01*
X83629727Y-163187250D01*
X83622649Y-163147194D01*
X83615987Y-162998196D01*
X83610164Y-162758310D01*
X83605606Y-162445593D01*
X83602735Y-162078102D01*
X83602513Y-162028375D01*
X83597500Y-160806000D01*
X85706767Y-160806000D01*
X85672701Y-160948875D01*
X85672701Y-160948875D01*
G37*
X85672701Y-160948875D02*
X85642690Y-161086648D01*
X85599618Y-161298170D01*
X85562305Y-161488625D01*
X85485976Y-161885500D01*
X83925425Y-161885500D01*
X83788677Y-162504625D01*
X83728493Y-162773581D01*
X83676977Y-162997330D01*
X83641117Y-163145858D01*
X83629727Y-163187250D01*
X83622649Y-163147194D01*
X83615987Y-162998196D01*
X83610164Y-162758310D01*
X83605606Y-162445593D01*
X83602735Y-162078102D01*
X83602513Y-162028375D01*
X83597500Y-160806000D01*
X85706767Y-160806000D01*
X85672701Y-160948875D01*
G36*
X104132215Y-163328449D02*
X104258293Y-163446484D01*
X104304954Y-163606882D01*
X104270451Y-163779919D01*
X104153037Y-163935873D01*
X103972864Y-164037820D01*
X103789130Y-164094002D01*
X103695710Y-164084522D01*
X103670001Y-163989598D01*
X103689358Y-163789726D01*
X103729431Y-163533368D01*
X103773507Y-163379555D01*
X103833012Y-163304047D01*
X103919372Y-163282606D01*
X103928468Y-163282500D01*
X104132215Y-163328449D01*
X104132215Y-163328449D01*
G37*
X104132215Y-163328449D02*
X104258293Y-163446484D01*
X104304954Y-163606882D01*
X104270451Y-163779919D01*
X104153037Y-163935873D01*
X103972864Y-164037820D01*
X103789130Y-164094002D01*
X103695710Y-164084522D01*
X103670001Y-163989598D01*
X103689358Y-163789726D01*
X103729431Y-163533368D01*
X103773507Y-163379555D01*
X103833012Y-163304047D01*
X103919372Y-163282606D01*
X103928468Y-163282500D01*
X104132215Y-163328449D01*
G36*
X100298000Y-163631750D02*
X100266250Y-163663500D01*
X100234500Y-163631750D01*
X100266250Y-163600000D01*
X100298000Y-163631750D01*
X100298000Y-163631750D01*
G37*
X100298000Y-163631750D02*
X100266250Y-163663500D01*
X100234500Y-163631750D01*
X100266250Y-163600000D01*
X100298000Y-163631750D01*
D13*
X64857143Y-84202381D02*
X64523809Y-83726190D01*
X64285714Y-84202381D02*
X64285714Y-83202381D01*
X64666667Y-83202381D01*
X64761905Y-83250000D01*
X64809524Y-83297619D01*
X64857143Y-83392857D01*
X64857143Y-83535714D01*
X64809524Y-83630952D01*
X64761905Y-83678571D01*
X64666667Y-83726190D01*
X64285714Y-83726190D01*
X65809524Y-84202381D02*
X65238095Y-84202381D01*
X65523809Y-84202381D02*
X65523809Y-83202381D01*
X65428571Y-83345238D01*
X65333333Y-83440476D01*
X65238095Y-83488095D01*
X66380952Y-83630952D02*
X66285714Y-83583333D01*
X66238095Y-83535714D01*
X66190476Y-83440476D01*
X66190476Y-83392857D01*
X66238095Y-83297619D01*
X66285714Y-83250000D01*
X66380952Y-83202381D01*
X66571429Y-83202381D01*
X66666667Y-83250000D01*
X66714286Y-83297619D01*
X66761905Y-83392857D01*
X66761905Y-83440476D01*
X66714286Y-83535714D01*
X66666667Y-83583333D01*
X66571429Y-83630952D01*
X66380952Y-83630952D01*
X66285714Y-83678571D01*
X66238095Y-83726190D01*
X66190476Y-83821429D01*
X66190476Y-84011905D01*
X66238095Y-84107143D01*
X66285714Y-84154762D01*
X66380952Y-84202381D01*
X66571429Y-84202381D01*
X66666667Y-84154762D01*
X66714286Y-84107143D01*
X66761905Y-84011905D01*
X66761905Y-83821429D01*
X66714286Y-83726190D01*
X66666667Y-83678571D01*
X66571429Y-83630952D01*
X68957143Y-84202381D02*
X68623809Y-83726190D01*
X68385714Y-84202381D02*
X68385714Y-83202381D01*
X68766667Y-83202381D01*
X68861905Y-83250000D01*
X68909524Y-83297619D01*
X68957143Y-83392857D01*
X68957143Y-83535714D01*
X68909524Y-83630952D01*
X68861905Y-83678571D01*
X68766667Y-83726190D01*
X68385714Y-83726190D01*
X69909524Y-84202381D02*
X69338095Y-84202381D01*
X69623809Y-84202381D02*
X69623809Y-83202381D01*
X69528571Y-83345238D01*
X69433333Y-83440476D01*
X69338095Y-83488095D01*
X70242857Y-83202381D02*
X70909524Y-83202381D01*
X70480952Y-84202381D01*
D18*
X70820714Y-70468357D02*
X71002143Y-70522786D01*
X71062619Y-70577214D01*
X71123095Y-70686071D01*
X71123095Y-70849357D01*
X71062619Y-70958214D01*
X71002143Y-71012643D01*
X70881190Y-71067071D01*
X70397381Y-71067071D01*
X70397381Y-69924071D01*
X70820714Y-69924071D01*
X70941667Y-69978500D01*
X71002143Y-70032929D01*
X71062619Y-70141786D01*
X71062619Y-70250643D01*
X71002143Y-70359500D01*
X70941667Y-70413929D01*
X70820714Y-70468357D01*
X70397381Y-70468357D01*
X72514048Y-71175929D02*
X72393095Y-71121500D01*
X72272143Y-71012643D01*
X72090714Y-70849357D01*
X71969762Y-70794929D01*
X71848810Y-70794929D01*
X71909286Y-71067071D02*
X71788333Y-71012643D01*
X71667381Y-70903786D01*
X71606905Y-70686071D01*
X71606905Y-70305071D01*
X71667381Y-70087357D01*
X71788333Y-69978500D01*
X71909286Y-69924071D01*
X72151190Y-69924071D01*
X72272143Y-69978500D01*
X72393095Y-70087357D01*
X72453571Y-70305071D01*
X72453571Y-70686071D01*
X72393095Y-70903786D01*
X72272143Y-71012643D01*
X72151190Y-71067071D01*
X71909286Y-71067071D01*
X73663095Y-71067071D02*
X72937381Y-71067071D01*
X73300238Y-71067071D02*
X73300238Y-69924071D01*
X73179286Y-70087357D01*
X73058333Y-70196214D01*
X72937381Y-70250643D01*
X98920714Y-123418357D02*
X99102143Y-123472786D01*
X99162619Y-123527214D01*
X99223095Y-123636071D01*
X99223095Y-123799357D01*
X99162619Y-123908214D01*
X99102143Y-123962643D01*
X98981190Y-124017071D01*
X98497381Y-124017071D01*
X98497381Y-122874071D01*
X98920714Y-122874071D01*
X99041667Y-122928500D01*
X99102143Y-122982929D01*
X99162619Y-123091786D01*
X99162619Y-123200643D01*
X99102143Y-123309500D01*
X99041667Y-123363929D01*
X98920714Y-123418357D01*
X98497381Y-123418357D01*
X100614048Y-124125929D02*
X100493095Y-124071500D01*
X100372143Y-123962643D01*
X100190714Y-123799357D01*
X100069762Y-123744929D01*
X99948810Y-123744929D01*
X100009286Y-124017071D02*
X99888333Y-123962643D01*
X99767381Y-123853786D01*
X99706905Y-123636071D01*
X99706905Y-123255071D01*
X99767381Y-123037357D01*
X99888333Y-122928500D01*
X100009286Y-122874071D01*
X100251190Y-122874071D01*
X100372143Y-122928500D01*
X100493095Y-123037357D01*
X100553571Y-123255071D01*
X100553571Y-123636071D01*
X100493095Y-123853786D01*
X100372143Y-123962643D01*
X100251190Y-124017071D01*
X100009286Y-124017071D01*
X101037381Y-122982929D02*
X101097857Y-122928500D01*
X101218809Y-122874071D01*
X101521190Y-122874071D01*
X101642143Y-122928500D01*
X101702619Y-122982929D01*
X101763095Y-123091786D01*
X101763095Y-123200643D01*
X101702619Y-123363929D01*
X100976905Y-124017071D01*
X101763095Y-124017071D01*
X66318357Y-146979286D02*
X66372786Y-146797857D01*
X66427214Y-146737381D01*
X66536071Y-146676905D01*
X66699357Y-146676905D01*
X66808214Y-146737381D01*
X66862643Y-146797857D01*
X66917071Y-146918810D01*
X66917071Y-147402619D01*
X65774071Y-147402619D01*
X65774071Y-146979286D01*
X65828500Y-146858333D01*
X65882929Y-146797857D01*
X65991786Y-146737381D01*
X66100643Y-146737381D01*
X66209500Y-146797857D01*
X66263929Y-146858333D01*
X66318357Y-146979286D01*
X66318357Y-147402619D01*
X67025929Y-145285952D02*
X66971500Y-145406905D01*
X66862643Y-145527857D01*
X66699357Y-145709286D01*
X66644929Y-145830238D01*
X66644929Y-145951190D01*
X66917071Y-145890714D02*
X66862643Y-146011667D01*
X66753786Y-146132619D01*
X66536071Y-146193095D01*
X66155071Y-146193095D01*
X65937357Y-146132619D01*
X65828500Y-146011667D01*
X65774071Y-145890714D01*
X65774071Y-145648810D01*
X65828500Y-145527857D01*
X65937357Y-145406905D01*
X66155071Y-145346429D01*
X66536071Y-145346429D01*
X66753786Y-145406905D01*
X66862643Y-145527857D01*
X66917071Y-145648810D01*
X66917071Y-145890714D01*
X65774071Y-144923095D02*
X65774071Y-144136905D01*
X66209500Y-144560238D01*
X66209500Y-144378810D01*
X66263929Y-144257857D01*
X66318357Y-144197381D01*
X66427214Y-144136905D01*
X66699357Y-144136905D01*
X66808214Y-144197381D01*
X66862643Y-144257857D01*
X66917071Y-144378810D01*
X66917071Y-144741667D01*
X66862643Y-144862619D01*
X66808214Y-144923095D01*
D13*
X82633334Y-108857143D02*
X82585715Y-108904762D01*
X82442858Y-108952381D01*
X82347620Y-108952381D01*
X82204762Y-108904762D01*
X82109524Y-108809524D01*
X82061905Y-108714286D01*
X82014286Y-108523810D01*
X82014286Y-108380952D01*
X82061905Y-108190476D01*
X82109524Y-108095238D01*
X82204762Y-108000000D01*
X82347620Y-107952381D01*
X82442858Y-107952381D01*
X82585715Y-108000000D01*
X82633334Y-108047619D01*
X83585715Y-108952381D02*
X83014286Y-108952381D01*
X83300000Y-108952381D02*
X83300000Y-107952381D01*
X83204762Y-108095238D01*
X83109524Y-108190476D01*
X83014286Y-108238095D01*
X82757143Y-121966666D02*
X82804762Y-122014285D01*
X82852381Y-122157142D01*
X82852381Y-122252380D01*
X82804762Y-122395238D01*
X82709524Y-122490476D01*
X82614286Y-122538095D01*
X82423810Y-122585714D01*
X82280952Y-122585714D01*
X82090476Y-122538095D01*
X81995238Y-122490476D01*
X81900000Y-122395238D01*
X81852381Y-122252380D01*
X81852381Y-122157142D01*
X81900000Y-122014285D01*
X81947619Y-121966666D01*
X81947619Y-121585714D02*
X81900000Y-121538095D01*
X81852381Y-121442857D01*
X81852381Y-121204761D01*
X81900000Y-121109523D01*
X81947619Y-121061904D01*
X82042857Y-121014285D01*
X82138095Y-121014285D01*
X82280952Y-121061904D01*
X82852381Y-121633333D01*
X82852381Y-121014285D01*
X78807143Y-90666666D02*
X78854762Y-90714285D01*
X78902381Y-90857142D01*
X78902381Y-90952380D01*
X78854762Y-91095238D01*
X78759524Y-91190476D01*
X78664286Y-91238095D01*
X78473810Y-91285714D01*
X78330952Y-91285714D01*
X78140476Y-91238095D01*
X78045238Y-91190476D01*
X77950000Y-91095238D01*
X77902381Y-90952380D01*
X77902381Y-90857142D01*
X77950000Y-90714285D01*
X77997619Y-90666666D01*
X77902381Y-90333333D02*
X77902381Y-89714285D01*
X78283333Y-90047619D01*
X78283333Y-89904761D01*
X78330952Y-89809523D01*
X78378571Y-89761904D01*
X78473810Y-89714285D01*
X78711905Y-89714285D01*
X78807143Y-89761904D01*
X78854762Y-89809523D01*
X78902381Y-89904761D01*
X78902381Y-90190476D01*
X78854762Y-90285714D01*
X78807143Y-90333333D01*
X92857143Y-107166666D02*
X92904762Y-107214285D01*
X92952381Y-107357142D01*
X92952381Y-107452380D01*
X92904762Y-107595238D01*
X92809524Y-107690476D01*
X92714286Y-107738095D01*
X92523810Y-107785714D01*
X92380952Y-107785714D01*
X92190476Y-107738095D01*
X92095238Y-107690476D01*
X92000000Y-107595238D01*
X91952381Y-107452380D01*
X91952381Y-107357142D01*
X92000000Y-107214285D01*
X92047619Y-107166666D01*
X92285714Y-106309523D02*
X92952381Y-106309523D01*
X91904762Y-106547619D02*
X92619048Y-106785714D01*
X92619048Y-106166666D01*
X74307143Y-94166666D02*
X74354762Y-94214285D01*
X74402381Y-94357142D01*
X74402381Y-94452380D01*
X74354762Y-94595238D01*
X74259524Y-94690476D01*
X74164286Y-94738095D01*
X73973810Y-94785714D01*
X73830952Y-94785714D01*
X73640476Y-94738095D01*
X73545238Y-94690476D01*
X73450000Y-94595238D01*
X73402381Y-94452380D01*
X73402381Y-94357142D01*
X73450000Y-94214285D01*
X73497619Y-94166666D01*
X73402381Y-93261904D02*
X73402381Y-93738095D01*
X73878571Y-93785714D01*
X73830952Y-93738095D01*
X73783333Y-93642857D01*
X73783333Y-93404761D01*
X73830952Y-93309523D01*
X73878571Y-93261904D01*
X73973810Y-93214285D01*
X74211905Y-93214285D01*
X74307143Y-93261904D01*
X74354762Y-93309523D01*
X74402381Y-93404761D01*
X74402381Y-93642857D01*
X74354762Y-93738095D01*
X74307143Y-93785714D01*
X88807143Y-77366666D02*
X88854762Y-77414285D01*
X88902381Y-77557142D01*
X88902381Y-77652380D01*
X88854762Y-77795238D01*
X88759524Y-77890476D01*
X88664286Y-77938095D01*
X88473810Y-77985714D01*
X88330952Y-77985714D01*
X88140476Y-77938095D01*
X88045238Y-77890476D01*
X87950000Y-77795238D01*
X87902381Y-77652380D01*
X87902381Y-77557142D01*
X87950000Y-77414285D01*
X87997619Y-77366666D01*
X87902381Y-76509523D02*
X87902381Y-76700000D01*
X87950000Y-76795238D01*
X87997619Y-76842857D01*
X88140476Y-76938095D01*
X88330952Y-76985714D01*
X88711905Y-76985714D01*
X88807143Y-76938095D01*
X88854762Y-76890476D01*
X88902381Y-76795238D01*
X88902381Y-76604761D01*
X88854762Y-76509523D01*
X88807143Y-76461904D01*
X88711905Y-76414285D01*
X88473810Y-76414285D01*
X88378571Y-76461904D01*
X88330952Y-76509523D01*
X88283333Y-76604761D01*
X88283333Y-76795238D01*
X88330952Y-76890476D01*
X88378571Y-76938095D01*
X88473810Y-76985714D01*
X65857143Y-124266666D02*
X65904762Y-124314285D01*
X65952381Y-124457142D01*
X65952381Y-124552380D01*
X65904762Y-124695238D01*
X65809524Y-124790476D01*
X65714286Y-124838095D01*
X65523810Y-124885714D01*
X65380952Y-124885714D01*
X65190476Y-124838095D01*
X65095238Y-124790476D01*
X65000000Y-124695238D01*
X64952381Y-124552380D01*
X64952381Y-124457142D01*
X65000000Y-124314285D01*
X65047619Y-124266666D01*
X64952381Y-123933333D02*
X64952381Y-123266666D01*
X65952381Y-123695238D01*
X77857143Y-70116666D02*
X77904762Y-70164285D01*
X77952381Y-70307142D01*
X77952381Y-70402380D01*
X77904762Y-70545238D01*
X77809524Y-70640476D01*
X77714286Y-70688095D01*
X77523810Y-70735714D01*
X77380952Y-70735714D01*
X77190476Y-70688095D01*
X77095238Y-70640476D01*
X77000000Y-70545238D01*
X76952381Y-70402380D01*
X76952381Y-70307142D01*
X77000000Y-70164285D01*
X77047619Y-70116666D01*
X77380952Y-69545238D02*
X77333333Y-69640476D01*
X77285714Y-69688095D01*
X77190476Y-69735714D01*
X77142857Y-69735714D01*
X77047619Y-69688095D01*
X77000000Y-69640476D01*
X76952381Y-69545238D01*
X76952381Y-69354761D01*
X77000000Y-69259523D01*
X77047619Y-69211904D01*
X77142857Y-69164285D01*
X77190476Y-69164285D01*
X77285714Y-69211904D01*
X77333333Y-69259523D01*
X77380952Y-69354761D01*
X77380952Y-69545238D01*
X77428571Y-69640476D01*
X77476190Y-69688095D01*
X77571429Y-69735714D01*
X77761905Y-69735714D01*
X77857143Y-69688095D01*
X77904762Y-69640476D01*
X77952381Y-69545238D01*
X77952381Y-69354761D01*
X77904762Y-69259523D01*
X77857143Y-69211904D01*
X77761905Y-69164285D01*
X77571429Y-69164285D01*
X77476190Y-69211904D01*
X77428571Y-69259523D01*
X77380952Y-69354761D01*
X85857143Y-77466666D02*
X85904762Y-77514285D01*
X85952381Y-77657142D01*
X85952381Y-77752380D01*
X85904762Y-77895238D01*
X85809524Y-77990476D01*
X85714286Y-78038095D01*
X85523810Y-78085714D01*
X85380952Y-78085714D01*
X85190476Y-78038095D01*
X85095238Y-77990476D01*
X85000000Y-77895238D01*
X84952381Y-77752380D01*
X84952381Y-77657142D01*
X85000000Y-77514285D01*
X85047619Y-77466666D01*
X85952381Y-76990476D02*
X85952381Y-76800000D01*
X85904762Y-76704761D01*
X85857143Y-76657142D01*
X85714286Y-76561904D01*
X85523810Y-76514285D01*
X85142857Y-76514285D01*
X85047619Y-76561904D01*
X85000000Y-76609523D01*
X84952381Y-76704761D01*
X84952381Y-76895238D01*
X85000000Y-76990476D01*
X85047619Y-77038095D01*
X85142857Y-77085714D01*
X85380952Y-77085714D01*
X85476190Y-77038095D01*
X85523810Y-76990476D01*
X85571429Y-76895238D01*
X85571429Y-76704761D01*
X85523810Y-76609523D01*
X85476190Y-76561904D01*
X85380952Y-76514285D01*
X83707143Y-77271428D02*
X83707143Y-76128571D01*
X84278571Y-76700000D02*
X83135714Y-76700000D01*
X91307143Y-73142857D02*
X91354762Y-73190476D01*
X91402381Y-73333333D01*
X91402381Y-73428571D01*
X91354762Y-73571429D01*
X91259524Y-73666667D01*
X91164286Y-73714286D01*
X90973810Y-73761905D01*
X90830952Y-73761905D01*
X90640476Y-73714286D01*
X90545238Y-73666667D01*
X90450000Y-73571429D01*
X90402381Y-73428571D01*
X90402381Y-73333333D01*
X90450000Y-73190476D01*
X90497619Y-73142857D01*
X91402381Y-72190476D02*
X91402381Y-72761905D01*
X91402381Y-72476191D02*
X90402381Y-72476191D01*
X90545238Y-72571429D01*
X90640476Y-72666667D01*
X90688095Y-72761905D01*
X90402381Y-71571429D02*
X90402381Y-71476190D01*
X90450000Y-71380952D01*
X90497619Y-71333333D01*
X90592857Y-71285714D01*
X90783333Y-71238095D01*
X91021429Y-71238095D01*
X91211905Y-71285714D01*
X91307143Y-71333333D01*
X91354762Y-71380952D01*
X91402381Y-71476190D01*
X91402381Y-71571429D01*
X91354762Y-71666667D01*
X91307143Y-71714286D01*
X91211905Y-71761905D01*
X91021429Y-71809524D01*
X90783333Y-71809524D01*
X90592857Y-71761905D01*
X90497619Y-71714286D01*
X90450000Y-71666667D01*
X90402381Y-71571429D01*
X95707143Y-76421428D02*
X95707143Y-75278571D01*
X96278571Y-75850000D02*
X95135714Y-75850000D01*
X80357143Y-70292857D02*
X80404762Y-70340476D01*
X80452381Y-70483333D01*
X80452381Y-70578571D01*
X80404762Y-70721429D01*
X80309524Y-70816667D01*
X80214286Y-70864286D01*
X80023810Y-70911905D01*
X79880952Y-70911905D01*
X79690476Y-70864286D01*
X79595238Y-70816667D01*
X79500000Y-70721429D01*
X79452381Y-70578571D01*
X79452381Y-70483333D01*
X79500000Y-70340476D01*
X79547619Y-70292857D01*
X80452381Y-69340476D02*
X80452381Y-69911905D01*
X80452381Y-69626191D02*
X79452381Y-69626191D01*
X79595238Y-69721429D01*
X79690476Y-69816667D01*
X79738095Y-69911905D01*
X80452381Y-68388095D02*
X80452381Y-68959524D01*
X80452381Y-68673810D02*
X79452381Y-68673810D01*
X79595238Y-68769048D01*
X79690476Y-68864286D01*
X79738095Y-68959524D01*
X65857143Y-78257143D02*
X65809524Y-78304762D01*
X65666667Y-78352381D01*
X65571429Y-78352381D01*
X65428571Y-78304762D01*
X65333333Y-78209524D01*
X65285714Y-78114286D01*
X65238095Y-77923810D01*
X65238095Y-77780952D01*
X65285714Y-77590476D01*
X65333333Y-77495238D01*
X65428571Y-77400000D01*
X65571429Y-77352381D01*
X65666667Y-77352381D01*
X65809524Y-77400000D01*
X65857143Y-77447619D01*
X66809524Y-78352381D02*
X66238095Y-78352381D01*
X66523809Y-78352381D02*
X66523809Y-77352381D01*
X66428571Y-77495238D01*
X66333333Y-77590476D01*
X66238095Y-77638095D01*
X67190476Y-77447619D02*
X67238095Y-77400000D01*
X67333333Y-77352381D01*
X67571429Y-77352381D01*
X67666667Y-77400000D01*
X67714286Y-77447619D01*
X67761905Y-77542857D01*
X67761905Y-77638095D01*
X67714286Y-77780952D01*
X67142857Y-78352381D01*
X67761905Y-78352381D01*
X65857143Y-73257143D02*
X65809524Y-73304762D01*
X65666667Y-73352381D01*
X65571429Y-73352381D01*
X65428571Y-73304762D01*
X65333333Y-73209524D01*
X65285714Y-73114286D01*
X65238095Y-72923810D01*
X65238095Y-72780952D01*
X65285714Y-72590476D01*
X65333333Y-72495238D01*
X65428571Y-72400000D01*
X65571429Y-72352381D01*
X65666667Y-72352381D01*
X65809524Y-72400000D01*
X65857143Y-72447619D01*
X66809524Y-73352381D02*
X66238095Y-73352381D01*
X66523809Y-73352381D02*
X66523809Y-72352381D01*
X66428571Y-72495238D01*
X66333333Y-72590476D01*
X66238095Y-72638095D01*
X67142857Y-72352381D02*
X67761905Y-72352381D01*
X67428571Y-72733333D01*
X67571429Y-72733333D01*
X67666667Y-72780952D01*
X67714286Y-72828571D01*
X67761905Y-72923810D01*
X67761905Y-73161905D01*
X67714286Y-73257143D01*
X67666667Y-73304762D01*
X67571429Y-73352381D01*
X67285714Y-73352381D01*
X67190476Y-73304762D01*
X67142857Y-73257143D01*
X88757143Y-129957143D02*
X88709524Y-130004762D01*
X88566667Y-130052381D01*
X88471429Y-130052381D01*
X88328571Y-130004762D01*
X88233333Y-129909524D01*
X88185714Y-129814286D01*
X88138095Y-129623810D01*
X88138095Y-129480952D01*
X88185714Y-129290476D01*
X88233333Y-129195238D01*
X88328571Y-129100000D01*
X88471429Y-129052381D01*
X88566667Y-129052381D01*
X88709524Y-129100000D01*
X88757143Y-129147619D01*
X89709524Y-130052381D02*
X89138095Y-130052381D01*
X89423809Y-130052381D02*
X89423809Y-129052381D01*
X89328571Y-129195238D01*
X89233333Y-129290476D01*
X89138095Y-129338095D01*
X90566667Y-129385714D02*
X90566667Y-130052381D01*
X90328571Y-129004762D02*
X90090476Y-129719048D01*
X90709524Y-129719048D01*
X94157143Y-129957143D02*
X94109524Y-130004762D01*
X93966667Y-130052381D01*
X93871429Y-130052381D01*
X93728571Y-130004762D01*
X93633333Y-129909524D01*
X93585714Y-129814286D01*
X93538095Y-129623810D01*
X93538095Y-129480952D01*
X93585714Y-129290476D01*
X93633333Y-129195238D01*
X93728571Y-129100000D01*
X93871429Y-129052381D01*
X93966667Y-129052381D01*
X94109524Y-129100000D01*
X94157143Y-129147619D01*
X95109524Y-130052381D02*
X94538095Y-130052381D01*
X94823809Y-130052381D02*
X94823809Y-129052381D01*
X94728571Y-129195238D01*
X94633333Y-129290476D01*
X94538095Y-129338095D01*
X96014286Y-129052381D02*
X95538095Y-129052381D01*
X95490476Y-129528571D01*
X95538095Y-129480952D01*
X95633333Y-129433333D01*
X95871429Y-129433333D01*
X95966667Y-129480952D01*
X96014286Y-129528571D01*
X96061905Y-129623810D01*
X96061905Y-129861905D01*
X96014286Y-129957143D01*
X95966667Y-130004762D01*
X95871429Y-130052381D01*
X95633333Y-130052381D01*
X95538095Y-130004762D01*
X95490476Y-129957143D01*
X60607143Y-151042857D02*
X60654762Y-151090476D01*
X60702381Y-151233333D01*
X60702381Y-151328571D01*
X60654762Y-151471429D01*
X60559524Y-151566667D01*
X60464286Y-151614286D01*
X60273810Y-151661905D01*
X60130952Y-151661905D01*
X59940476Y-151614286D01*
X59845238Y-151566667D01*
X59750000Y-151471429D01*
X59702381Y-151328571D01*
X59702381Y-151233333D01*
X59750000Y-151090476D01*
X59797619Y-151042857D01*
X60702381Y-150090476D02*
X60702381Y-150661905D01*
X60702381Y-150376191D02*
X59702381Y-150376191D01*
X59845238Y-150471429D01*
X59940476Y-150566667D01*
X59988095Y-150661905D01*
X59702381Y-149233333D02*
X59702381Y-149423810D01*
X59750000Y-149519048D01*
X59797619Y-149566667D01*
X59940476Y-149661905D01*
X60130952Y-149709524D01*
X60511905Y-149709524D01*
X60607143Y-149661905D01*
X60654762Y-149614286D01*
X60702381Y-149519048D01*
X60702381Y-149328571D01*
X60654762Y-149233333D01*
X60607143Y-149185714D01*
X60511905Y-149138095D01*
X60273810Y-149138095D01*
X60178571Y-149185714D01*
X60130952Y-149233333D01*
X60083333Y-149328571D01*
X60083333Y-149519048D01*
X60130952Y-149614286D01*
X60178571Y-149661905D01*
X60273810Y-149709524D01*
X60607143Y-158642857D02*
X60654762Y-158690476D01*
X60702381Y-158833333D01*
X60702381Y-158928571D01*
X60654762Y-159071429D01*
X60559524Y-159166667D01*
X60464286Y-159214286D01*
X60273810Y-159261905D01*
X60130952Y-159261905D01*
X59940476Y-159214286D01*
X59845238Y-159166667D01*
X59750000Y-159071429D01*
X59702381Y-158928571D01*
X59702381Y-158833333D01*
X59750000Y-158690476D01*
X59797619Y-158642857D01*
X60702381Y-157690476D02*
X60702381Y-158261905D01*
X60702381Y-157976191D02*
X59702381Y-157976191D01*
X59845238Y-158071429D01*
X59940476Y-158166667D01*
X59988095Y-158261905D01*
X59702381Y-157357143D02*
X59702381Y-156690476D01*
X60702381Y-157119048D01*
X71811905Y-122002381D02*
X71811905Y-121002381D01*
X72050000Y-121002381D01*
X72192858Y-121050000D01*
X72288096Y-121145238D01*
X72335715Y-121240476D01*
X72383334Y-121430952D01*
X72383334Y-121573810D01*
X72335715Y-121764286D01*
X72288096Y-121859524D01*
X72192858Y-121954762D01*
X72050000Y-122002381D01*
X71811905Y-122002381D01*
X72811905Y-122002381D02*
X72811905Y-121002381D01*
X73050000Y-121002381D01*
X73192858Y-121050000D01*
X73288096Y-121145238D01*
X73335715Y-121240476D01*
X73383334Y-121430952D01*
X73383334Y-121573810D01*
X73335715Y-121764286D01*
X73288096Y-121859524D01*
X73192858Y-121954762D01*
X73050000Y-122002381D01*
X72811905Y-122002381D01*
X74335715Y-122002381D02*
X73764286Y-122002381D01*
X74050000Y-122002381D02*
X74050000Y-121002381D01*
X73954762Y-121145238D01*
X73859524Y-121240476D01*
X73764286Y-121288095D01*
X75102381Y-85238095D02*
X74102381Y-85238095D01*
X74102381Y-85000000D01*
X74150000Y-84857142D01*
X74245238Y-84761904D01*
X74340476Y-84714285D01*
X74530952Y-84666666D01*
X74673810Y-84666666D01*
X74864286Y-84714285D01*
X74959524Y-84761904D01*
X75054762Y-84857142D01*
X75102381Y-85000000D01*
X75102381Y-85238095D01*
X75102381Y-84238095D02*
X74102381Y-84238095D01*
X74102381Y-84000000D01*
X74150000Y-83857142D01*
X74245238Y-83761904D01*
X74340476Y-83714285D01*
X74530952Y-83666666D01*
X74673810Y-83666666D01*
X74864286Y-83714285D01*
X74959524Y-83761904D01*
X75054762Y-83857142D01*
X75102381Y-84000000D01*
X75102381Y-84238095D01*
X74197619Y-83285714D02*
X74150000Y-83238095D01*
X74102381Y-83142857D01*
X74102381Y-82904761D01*
X74150000Y-82809523D01*
X74197619Y-82761904D01*
X74292857Y-82714285D01*
X74388095Y-82714285D01*
X74530952Y-82761904D01*
X75102381Y-83333333D01*
X75102381Y-82714285D01*
X68952381Y-94116667D02*
X67952381Y-94116667D01*
X68428571Y-94116667D02*
X68428571Y-93545238D01*
X68952381Y-93545238D02*
X67952381Y-93545238D01*
X68952381Y-92592857D02*
X68952381Y-93069048D01*
X67952381Y-93069048D01*
X68952381Y-91735714D02*
X68952381Y-92307143D01*
X68952381Y-92021429D02*
X67952381Y-92021429D01*
X68095238Y-92116667D01*
X68190476Y-92211905D01*
X68238095Y-92307143D01*
X60852381Y-90166667D02*
X59852381Y-90166667D01*
X60328571Y-90166667D02*
X60328571Y-89595238D01*
X60852381Y-89595238D02*
X59852381Y-89595238D01*
X60852381Y-88642857D02*
X60852381Y-89119048D01*
X59852381Y-89119048D01*
X59947619Y-88357143D02*
X59900000Y-88309524D01*
X59852381Y-88214286D01*
X59852381Y-87976190D01*
X59900000Y-87880952D01*
X59947619Y-87833333D01*
X60042857Y-87785714D01*
X60138095Y-87785714D01*
X60280952Y-87833333D01*
X60852381Y-88404762D01*
X60852381Y-87785714D01*
X102833333Y-90052381D02*
X102833333Y-89052381D01*
X102833333Y-89528571D02*
X103404762Y-89528571D01*
X103404762Y-90052381D02*
X103404762Y-89052381D01*
X104357143Y-90052381D02*
X103880952Y-90052381D01*
X103880952Y-89052381D01*
X104595238Y-89052381D02*
X105214286Y-89052381D01*
X104880952Y-89433333D01*
X105023810Y-89433333D01*
X105119048Y-89480952D01*
X105166667Y-89528571D01*
X105214286Y-89623810D01*
X105214286Y-89861905D01*
X105166667Y-89957143D01*
X105119048Y-90004762D01*
X105023810Y-90052381D01*
X104738095Y-90052381D01*
X104642857Y-90004762D01*
X104595238Y-89957143D01*
X96283334Y-86452381D02*
X95950000Y-85976190D01*
X95711905Y-86452381D02*
X95711905Y-85452381D01*
X96092858Y-85452381D01*
X96188096Y-85500000D01*
X96235715Y-85547619D01*
X96283334Y-85642857D01*
X96283334Y-85785714D01*
X96235715Y-85880952D01*
X96188096Y-85928571D01*
X96092858Y-85976190D01*
X95711905Y-85976190D01*
X97235715Y-86452381D02*
X96664286Y-86452381D01*
X96950000Y-86452381D02*
X96950000Y-85452381D01*
X96854762Y-85595238D01*
X96759524Y-85690476D01*
X96664286Y-85738095D01*
X92433334Y-91052381D02*
X92100000Y-90576190D01*
X91861905Y-91052381D02*
X91861905Y-90052381D01*
X92242858Y-90052381D01*
X92338096Y-90100000D01*
X92385715Y-90147619D01*
X92433334Y-90242857D01*
X92433334Y-90385714D01*
X92385715Y-90480952D01*
X92338096Y-90528571D01*
X92242858Y-90576190D01*
X91861905Y-90576190D01*
X92814286Y-90147619D02*
X92861905Y-90100000D01*
X92957143Y-90052381D01*
X93195239Y-90052381D01*
X93290477Y-90100000D01*
X93338096Y-90147619D01*
X93385715Y-90242857D01*
X93385715Y-90338095D01*
X93338096Y-90480952D01*
X92766667Y-91052381D01*
X93385715Y-91052381D01*
X81502381Y-97916666D02*
X81026190Y-98250000D01*
X81502381Y-98488095D02*
X80502381Y-98488095D01*
X80502381Y-98107142D01*
X80550000Y-98011904D01*
X80597619Y-97964285D01*
X80692857Y-97916666D01*
X80835714Y-97916666D01*
X80930952Y-97964285D01*
X80978571Y-98011904D01*
X81026190Y-98107142D01*
X81026190Y-98488095D01*
X80502381Y-97583333D02*
X80502381Y-96964285D01*
X80883333Y-97297619D01*
X80883333Y-97154761D01*
X80930952Y-97059523D01*
X80978571Y-97011904D01*
X81073810Y-96964285D01*
X81311905Y-96964285D01*
X81407143Y-97011904D01*
X81454762Y-97059523D01*
X81502381Y-97154761D01*
X81502381Y-97440476D01*
X81454762Y-97535714D01*
X81407143Y-97583333D01*
X83952381Y-97866666D02*
X83476190Y-98200000D01*
X83952381Y-98438095D02*
X82952381Y-98438095D01*
X82952381Y-98057142D01*
X83000000Y-97961904D01*
X83047619Y-97914285D01*
X83142857Y-97866666D01*
X83285714Y-97866666D01*
X83380952Y-97914285D01*
X83428571Y-97961904D01*
X83476190Y-98057142D01*
X83476190Y-98438095D01*
X83285714Y-97009523D02*
X83952381Y-97009523D01*
X82904762Y-97247619D02*
X83619048Y-97485714D01*
X83619048Y-96866666D01*
X86452381Y-97816666D02*
X85976190Y-98150000D01*
X86452381Y-98388095D02*
X85452381Y-98388095D01*
X85452381Y-98007142D01*
X85500000Y-97911904D01*
X85547619Y-97864285D01*
X85642857Y-97816666D01*
X85785714Y-97816666D01*
X85880952Y-97864285D01*
X85928571Y-97911904D01*
X85976190Y-98007142D01*
X85976190Y-98388095D01*
X85452381Y-96911904D02*
X85452381Y-97388095D01*
X85928571Y-97435714D01*
X85880952Y-97388095D01*
X85833333Y-97292857D01*
X85833333Y-97054761D01*
X85880952Y-96959523D01*
X85928571Y-96911904D01*
X86023810Y-96864285D01*
X86261905Y-96864285D01*
X86357143Y-96911904D01*
X86404762Y-96959523D01*
X86452381Y-97054761D01*
X86452381Y-97292857D01*
X86404762Y-97388095D01*
X86357143Y-97435714D01*
X88952381Y-97766666D02*
X88476190Y-98100000D01*
X88952381Y-98338095D02*
X87952381Y-98338095D01*
X87952381Y-97957142D01*
X88000000Y-97861904D01*
X88047619Y-97814285D01*
X88142857Y-97766666D01*
X88285714Y-97766666D01*
X88380952Y-97814285D01*
X88428571Y-97861904D01*
X88476190Y-97957142D01*
X88476190Y-98338095D01*
X87952381Y-96909523D02*
X87952381Y-97100000D01*
X88000000Y-97195238D01*
X88047619Y-97242857D01*
X88190476Y-97338095D01*
X88380952Y-97385714D01*
X88761905Y-97385714D01*
X88857143Y-97338095D01*
X88904762Y-97290476D01*
X88952381Y-97195238D01*
X88952381Y-97004761D01*
X88904762Y-96909523D01*
X88857143Y-96861904D01*
X88761905Y-96814285D01*
X88523810Y-96814285D01*
X88428571Y-96861904D01*
X88380952Y-96909523D01*
X88333333Y-97004761D01*
X88333333Y-97195238D01*
X88380952Y-97290476D01*
X88428571Y-97338095D01*
X88523810Y-97385714D01*
X65983334Y-95952381D02*
X65650000Y-95476190D01*
X65411905Y-95952381D02*
X65411905Y-94952381D01*
X65792858Y-94952381D01*
X65888096Y-95000000D01*
X65935715Y-95047619D01*
X65983334Y-95142857D01*
X65983334Y-95285714D01*
X65935715Y-95380952D01*
X65888096Y-95428571D01*
X65792858Y-95476190D01*
X65411905Y-95476190D01*
X66316667Y-94952381D02*
X66983334Y-94952381D01*
X66554762Y-95952381D01*
X65983334Y-93452381D02*
X65650000Y-92976190D01*
X65411905Y-93452381D02*
X65411905Y-92452381D01*
X65792858Y-92452381D01*
X65888096Y-92500000D01*
X65935715Y-92547619D01*
X65983334Y-92642857D01*
X65983334Y-92785714D01*
X65935715Y-92880952D01*
X65888096Y-92928571D01*
X65792858Y-92976190D01*
X65411905Y-92976190D01*
X66554762Y-92880952D02*
X66459524Y-92833333D01*
X66411905Y-92785714D01*
X66364286Y-92690476D01*
X66364286Y-92642857D01*
X66411905Y-92547619D01*
X66459524Y-92500000D01*
X66554762Y-92452381D01*
X66745239Y-92452381D01*
X66840477Y-92500000D01*
X66888096Y-92547619D01*
X66935715Y-92642857D01*
X66935715Y-92690476D01*
X66888096Y-92785714D01*
X66840477Y-92833333D01*
X66745239Y-92880952D01*
X66554762Y-92880952D01*
X66459524Y-92928571D01*
X66411905Y-92976190D01*
X66364286Y-93071429D01*
X66364286Y-93261905D01*
X66411905Y-93357143D01*
X66459524Y-93404762D01*
X66554762Y-93452381D01*
X66745239Y-93452381D01*
X66840477Y-93404762D01*
X66888096Y-93357143D01*
X66935715Y-93261905D01*
X66935715Y-93071429D01*
X66888096Y-92976190D01*
X66840477Y-92928571D01*
X66745239Y-92880952D01*
X96283334Y-83952381D02*
X95950000Y-83476190D01*
X95711905Y-83952381D02*
X95711905Y-82952381D01*
X96092858Y-82952381D01*
X96188096Y-83000000D01*
X96235715Y-83047619D01*
X96283334Y-83142857D01*
X96283334Y-83285714D01*
X96235715Y-83380952D01*
X96188096Y-83428571D01*
X96092858Y-83476190D01*
X95711905Y-83476190D01*
X96759524Y-83952381D02*
X96950000Y-83952381D01*
X97045239Y-83904762D01*
X97092858Y-83857143D01*
X97188096Y-83714286D01*
X97235715Y-83523810D01*
X97235715Y-83142857D01*
X97188096Y-83047619D01*
X97140477Y-83000000D01*
X97045239Y-82952381D01*
X96854762Y-82952381D01*
X96759524Y-83000000D01*
X96711905Y-83047619D01*
X96664286Y-83142857D01*
X96664286Y-83380952D01*
X96711905Y-83476190D01*
X96759524Y-83523810D01*
X96854762Y-83571429D01*
X97045239Y-83571429D01*
X97140477Y-83523810D01*
X97188096Y-83476190D01*
X97235715Y-83380952D01*
X96157143Y-81452381D02*
X95823809Y-80976190D01*
X95585714Y-81452381D02*
X95585714Y-80452381D01*
X95966667Y-80452381D01*
X96061905Y-80500000D01*
X96109524Y-80547619D01*
X96157143Y-80642857D01*
X96157143Y-80785714D01*
X96109524Y-80880952D01*
X96061905Y-80928571D01*
X95966667Y-80976190D01*
X95585714Y-80976190D01*
X97109524Y-81452381D02*
X96538095Y-81452381D01*
X96823809Y-81452381D02*
X96823809Y-80452381D01*
X96728571Y-80595238D01*
X96633333Y-80690476D01*
X96538095Y-80738095D01*
X97728571Y-80452381D02*
X97823810Y-80452381D01*
X97919048Y-80500000D01*
X97966667Y-80547619D01*
X98014286Y-80642857D01*
X98061905Y-80833333D01*
X98061905Y-81071429D01*
X98014286Y-81261905D01*
X97966667Y-81357143D01*
X97919048Y-81404762D01*
X97823810Y-81452381D01*
X97728571Y-81452381D01*
X97633333Y-81404762D01*
X97585714Y-81357143D01*
X97538095Y-81261905D01*
X97490476Y-81071429D01*
X97490476Y-80833333D01*
X97538095Y-80642857D01*
X97585714Y-80547619D01*
X97633333Y-80500000D01*
X97728571Y-80452381D01*
X65952381Y-111592857D02*
X65476190Y-111926191D01*
X65952381Y-112164286D02*
X64952381Y-112164286D01*
X64952381Y-111783333D01*
X65000000Y-111688095D01*
X65047619Y-111640476D01*
X65142857Y-111592857D01*
X65285714Y-111592857D01*
X65380952Y-111640476D01*
X65428571Y-111688095D01*
X65476190Y-111783333D01*
X65476190Y-112164286D01*
X65952381Y-110640476D02*
X65952381Y-111211905D01*
X65952381Y-110926191D02*
X64952381Y-110926191D01*
X65095238Y-111021429D01*
X65190476Y-111116667D01*
X65238095Y-111211905D01*
X65952381Y-109688095D02*
X65952381Y-110259524D01*
X65952381Y-109973810D02*
X64952381Y-109973810D01*
X65095238Y-110069048D01*
X65190476Y-110164286D01*
X65238095Y-110259524D01*
X96207143Y-78952381D02*
X95873809Y-78476190D01*
X95635714Y-78952381D02*
X95635714Y-77952381D01*
X96016667Y-77952381D01*
X96111905Y-78000000D01*
X96159524Y-78047619D01*
X96207143Y-78142857D01*
X96207143Y-78285714D01*
X96159524Y-78380952D01*
X96111905Y-78428571D01*
X96016667Y-78476190D01*
X95635714Y-78476190D01*
X97159524Y-78952381D02*
X96588095Y-78952381D01*
X96873809Y-78952381D02*
X96873809Y-77952381D01*
X96778571Y-78095238D01*
X96683333Y-78190476D01*
X96588095Y-78238095D01*
X97540476Y-78047619D02*
X97588095Y-78000000D01*
X97683333Y-77952381D01*
X97921429Y-77952381D01*
X98016667Y-78000000D01*
X98064286Y-78047619D01*
X98111905Y-78142857D01*
X98111905Y-78238095D01*
X98064286Y-78380952D01*
X97492857Y-78952381D01*
X98111905Y-78952381D01*
X103357143Y-91852381D02*
X103023809Y-91376190D01*
X102785714Y-91852381D02*
X102785714Y-90852381D01*
X103166667Y-90852381D01*
X103261905Y-90900000D01*
X103309524Y-90947619D01*
X103357143Y-91042857D01*
X103357143Y-91185714D01*
X103309524Y-91280952D01*
X103261905Y-91328571D01*
X103166667Y-91376190D01*
X102785714Y-91376190D01*
X104309524Y-91852381D02*
X103738095Y-91852381D01*
X104023809Y-91852381D02*
X104023809Y-90852381D01*
X103928571Y-90995238D01*
X103833333Y-91090476D01*
X103738095Y-91138095D01*
X104642857Y-90852381D02*
X105261905Y-90852381D01*
X104928571Y-91233333D01*
X105071429Y-91233333D01*
X105166667Y-91280952D01*
X105214286Y-91328571D01*
X105261905Y-91423810D01*
X105261905Y-91661905D01*
X105214286Y-91757143D01*
X105166667Y-91804762D01*
X105071429Y-91852381D01*
X104785714Y-91852381D01*
X104690476Y-91804762D01*
X104642857Y-91757143D01*
X82952381Y-70342857D02*
X82476190Y-70676191D01*
X82952381Y-70914286D02*
X81952381Y-70914286D01*
X81952381Y-70533333D01*
X82000000Y-70438095D01*
X82047619Y-70390476D01*
X82142857Y-70342857D01*
X82285714Y-70342857D01*
X82380952Y-70390476D01*
X82428571Y-70438095D01*
X82476190Y-70533333D01*
X82476190Y-70914286D01*
X82952381Y-69390476D02*
X82952381Y-69961905D01*
X82952381Y-69676191D02*
X81952381Y-69676191D01*
X82095238Y-69771429D01*
X82190476Y-69866667D01*
X82238095Y-69961905D01*
X82285714Y-68533333D02*
X82952381Y-68533333D01*
X81904762Y-68771429D02*
X82619048Y-69009524D01*
X82619048Y-68390476D01*
X73502381Y-107142857D02*
X73026190Y-107476191D01*
X73502381Y-107714286D02*
X72502381Y-107714286D01*
X72502381Y-107333333D01*
X72550000Y-107238095D01*
X72597619Y-107190476D01*
X72692857Y-107142857D01*
X72835714Y-107142857D01*
X72930952Y-107190476D01*
X72978571Y-107238095D01*
X73026190Y-107333333D01*
X73026190Y-107714286D01*
X73502381Y-106190476D02*
X73502381Y-106761905D01*
X73502381Y-106476191D02*
X72502381Y-106476191D01*
X72645238Y-106571429D01*
X72740476Y-106666667D01*
X72788095Y-106761905D01*
X72502381Y-105285714D02*
X72502381Y-105761905D01*
X72978571Y-105809524D01*
X72930952Y-105761905D01*
X72883333Y-105666667D01*
X72883333Y-105428571D01*
X72930952Y-105333333D01*
X72978571Y-105285714D01*
X73073810Y-105238095D01*
X73311905Y-105238095D01*
X73407143Y-105285714D01*
X73454762Y-105333333D01*
X73502381Y-105428571D01*
X73502381Y-105666667D01*
X73454762Y-105761905D01*
X73407143Y-105809524D01*
X66352381Y-107142857D02*
X65876190Y-107476191D01*
X66352381Y-107714286D02*
X65352381Y-107714286D01*
X65352381Y-107333333D01*
X65400000Y-107238095D01*
X65447619Y-107190476D01*
X65542857Y-107142857D01*
X65685714Y-107142857D01*
X65780952Y-107190476D01*
X65828571Y-107238095D01*
X65876190Y-107333333D01*
X65876190Y-107714286D01*
X66352381Y-106190476D02*
X66352381Y-106761905D01*
X66352381Y-106476191D02*
X65352381Y-106476191D01*
X65495238Y-106571429D01*
X65590476Y-106666667D01*
X65638095Y-106761905D01*
X65352381Y-105333333D02*
X65352381Y-105523810D01*
X65400000Y-105619048D01*
X65447619Y-105666667D01*
X65590476Y-105761905D01*
X65780952Y-105809524D01*
X66161905Y-105809524D01*
X66257143Y-105761905D01*
X66304762Y-105714286D01*
X66352381Y-105619048D01*
X66352381Y-105428571D01*
X66304762Y-105333333D01*
X66257143Y-105285714D01*
X66161905Y-105238095D01*
X65923810Y-105238095D01*
X65828571Y-105285714D01*
X65780952Y-105333333D01*
X65733333Y-105428571D01*
X65733333Y-105619048D01*
X65780952Y-105714286D01*
X65828571Y-105761905D01*
X65923810Y-105809524D01*
X77590476Y-101752381D02*
X77923809Y-102752381D01*
X78257143Y-101752381D01*
X78590476Y-102752381D02*
X78590476Y-101752381D01*
X78828571Y-101752381D01*
X78971429Y-101800000D01*
X79066667Y-101895238D01*
X79114286Y-101990476D01*
X79161905Y-102180952D01*
X79161905Y-102323810D01*
X79114286Y-102514286D01*
X79066667Y-102609524D01*
X78971429Y-102704762D01*
X78828571Y-102752381D01*
X78590476Y-102752381D01*
X80114286Y-102752381D02*
X79542857Y-102752381D01*
X79828571Y-102752381D02*
X79828571Y-101752381D01*
X79733333Y-101895238D01*
X79638095Y-101990476D01*
X79542857Y-102038095D01*
X70309524Y-90552381D02*
X70642857Y-91552381D01*
X70976191Y-90552381D01*
X71166667Y-90552381D02*
X71738096Y-90552381D01*
X71452381Y-91552381D02*
X71452381Y-90552381D01*
X72595239Y-91552381D02*
X72023810Y-91552381D01*
X72309524Y-91552381D02*
X72309524Y-90552381D01*
X72214286Y-90695238D01*
X72119048Y-90790476D01*
X72023810Y-90838095D01*
X64309524Y-90602381D02*
X64642857Y-91602381D01*
X64976191Y-90602381D01*
X65166667Y-90602381D02*
X65738096Y-90602381D01*
X65452381Y-91602381D02*
X65452381Y-90602381D01*
X66023810Y-90697619D02*
X66071429Y-90650000D01*
X66166667Y-90602381D01*
X66404763Y-90602381D01*
X66500001Y-90650000D01*
X66547620Y-90697619D01*
X66595239Y-90792857D01*
X66595239Y-90888095D01*
X66547620Y-91030952D01*
X65976191Y-91602381D01*
X66595239Y-91602381D01*
X93990476Y-107152381D02*
X94657143Y-108152381D01*
X94657143Y-107152381D02*
X93990476Y-108152381D01*
X95038095Y-108152381D02*
X95038095Y-107152381D01*
X95419048Y-107152381D01*
X95514286Y-107200000D01*
X95561905Y-107247619D01*
X95609524Y-107342857D01*
X95609524Y-107485714D01*
X95561905Y-107580952D01*
X95514286Y-107628571D01*
X95419048Y-107676190D01*
X95038095Y-107676190D01*
X96561905Y-108152381D02*
X95990476Y-108152381D01*
X96276190Y-108152381D02*
X96276190Y-107152381D01*
X96180952Y-107295238D01*
X96085714Y-107390476D01*
X95990476Y-107438095D01*
X100940476Y-107152381D02*
X101607143Y-108152381D01*
X101607143Y-107152381D02*
X100940476Y-108152381D01*
X101988095Y-108152381D02*
X101988095Y-107152381D01*
X102369048Y-107152381D01*
X102464286Y-107200000D01*
X102511905Y-107247619D01*
X102559524Y-107342857D01*
X102559524Y-107485714D01*
X102511905Y-107580952D01*
X102464286Y-107628571D01*
X102369048Y-107676190D01*
X101988095Y-107676190D01*
X102940476Y-107247619D02*
X102988095Y-107200000D01*
X103083333Y-107152381D01*
X103321429Y-107152381D01*
X103416667Y-107200000D01*
X103464286Y-107247619D01*
X103511905Y-107342857D01*
X103511905Y-107438095D01*
X103464286Y-107580952D01*
X102892857Y-108152381D01*
X103511905Y-108152381D01*
X69314286Y-95302381D02*
X69980953Y-96302381D01*
X69980953Y-95302381D02*
X69314286Y-96302381D01*
X70314286Y-96254762D02*
X70457143Y-96302381D01*
X70695239Y-96302381D01*
X70790477Y-96254762D01*
X70838096Y-96207143D01*
X70885715Y-96111905D01*
X70885715Y-96016667D01*
X70838096Y-95921429D01*
X70790477Y-95873810D01*
X70695239Y-95826190D01*
X70504762Y-95778571D01*
X70409524Y-95730952D01*
X70361905Y-95683333D01*
X70314286Y-95588095D01*
X70314286Y-95492857D01*
X70361905Y-95397619D01*
X70409524Y-95350000D01*
X70504762Y-95302381D01*
X70742858Y-95302381D01*
X70885715Y-95350000D01*
X71838096Y-96302381D02*
X71266667Y-96302381D01*
X71552381Y-96302381D02*
X71552381Y-95302381D01*
X71457143Y-95445238D01*
X71361905Y-95540476D01*
X71266667Y-95588095D01*
X59714286Y-113702381D02*
X60380953Y-114702381D01*
X60380953Y-113702381D02*
X59714286Y-114702381D01*
X60714286Y-114654762D02*
X60857143Y-114702381D01*
X61095239Y-114702381D01*
X61190477Y-114654762D01*
X61238096Y-114607143D01*
X61285715Y-114511905D01*
X61285715Y-114416667D01*
X61238096Y-114321429D01*
X61190477Y-114273810D01*
X61095239Y-114226190D01*
X60904762Y-114178571D01*
X60809524Y-114130952D01*
X60761905Y-114083333D01*
X60714286Y-113988095D01*
X60714286Y-113892857D01*
X60761905Y-113797619D01*
X60809524Y-113750000D01*
X60904762Y-113702381D01*
X61142858Y-113702381D01*
X61285715Y-113750000D01*
X61666667Y-113797619D02*
X61714286Y-113750000D01*
X61809524Y-113702381D01*
X62047620Y-113702381D01*
X62142858Y-113750000D01*
X62190477Y-113797619D01*
X62238096Y-113892857D01*
X62238096Y-113988095D01*
X62190477Y-114130952D01*
X61619048Y-114702381D01*
X62238096Y-114702381D01*
X59814286Y-133952381D02*
X60480953Y-134952381D01*
X60480953Y-133952381D02*
X59814286Y-134952381D01*
X60814286Y-134904762D02*
X60957143Y-134952381D01*
X61195239Y-134952381D01*
X61290477Y-134904762D01*
X61338096Y-134857143D01*
X61385715Y-134761905D01*
X61385715Y-134666667D01*
X61338096Y-134571429D01*
X61290477Y-134523810D01*
X61195239Y-134476190D01*
X61004762Y-134428571D01*
X60909524Y-134380952D01*
X60861905Y-134333333D01*
X60814286Y-134238095D01*
X60814286Y-134142857D01*
X60861905Y-134047619D01*
X60909524Y-134000000D01*
X61004762Y-133952381D01*
X61242858Y-133952381D01*
X61385715Y-134000000D01*
X61719048Y-133952381D02*
X62338096Y-133952381D01*
X62004762Y-134333333D01*
X62147620Y-134333333D01*
X62242858Y-134380952D01*
X62290477Y-134428571D01*
X62338096Y-134523810D01*
X62338096Y-134761905D01*
X62290477Y-134857143D01*
X62242858Y-134904762D01*
X62147620Y-134952381D01*
X61861905Y-134952381D01*
X61766667Y-134904762D01*
X61719048Y-134857143D01*
X107964286Y-134152381D02*
X108630953Y-135152381D01*
X108630953Y-134152381D02*
X107964286Y-135152381D01*
X108964286Y-135104762D02*
X109107143Y-135152381D01*
X109345239Y-135152381D01*
X109440477Y-135104762D01*
X109488096Y-135057143D01*
X109535715Y-134961905D01*
X109535715Y-134866667D01*
X109488096Y-134771429D01*
X109440477Y-134723810D01*
X109345239Y-134676190D01*
X109154762Y-134628571D01*
X109059524Y-134580952D01*
X109011905Y-134533333D01*
X108964286Y-134438095D01*
X108964286Y-134342857D01*
X109011905Y-134247619D01*
X109059524Y-134200000D01*
X109154762Y-134152381D01*
X109392858Y-134152381D01*
X109535715Y-134200000D01*
X110392858Y-134485714D02*
X110392858Y-135152381D01*
X110154762Y-134104762D02*
X109916667Y-134819048D01*
X110535715Y-134819048D01*
X96151201Y-73335714D02*
X97151201Y-72669047D01*
X96151201Y-72669047D02*
X97151201Y-73335714D01*
X97103582Y-72335714D02*
X97151201Y-72192857D01*
X97151201Y-71954761D01*
X97103582Y-71859523D01*
X97055963Y-71811904D01*
X96960725Y-71764285D01*
X96865487Y-71764285D01*
X96770249Y-71811904D01*
X96722630Y-71859523D01*
X96675010Y-71954761D01*
X96627391Y-72145238D01*
X96579772Y-72240476D01*
X96532153Y-72288095D01*
X96436915Y-72335714D01*
X96341677Y-72335714D01*
X96246439Y-72288095D01*
X96198820Y-72240476D01*
X96151201Y-72145238D01*
X96151201Y-71907142D01*
X96198820Y-71764285D01*
X96151201Y-70859523D02*
X96151201Y-71335714D01*
X96627391Y-71383333D01*
X96579772Y-71335714D01*
X96532153Y-71240476D01*
X96532153Y-71002380D01*
X96579772Y-70907142D01*
X96627391Y-70859523D01*
X96722630Y-70811904D01*
X96960725Y-70811904D01*
X97055963Y-70859523D01*
X97103582Y-70907142D01*
X97151201Y-71002380D01*
X97151201Y-71240476D01*
X97103582Y-71335714D01*
X97055963Y-71383333D01*
X104314286Y-85452381D02*
X104980953Y-86452381D01*
X104980953Y-85452381D02*
X104314286Y-86452381D01*
X105314286Y-86404762D02*
X105457143Y-86452381D01*
X105695239Y-86452381D01*
X105790477Y-86404762D01*
X105838096Y-86357143D01*
X105885715Y-86261905D01*
X105885715Y-86166667D01*
X105838096Y-86071429D01*
X105790477Y-86023810D01*
X105695239Y-85976190D01*
X105504762Y-85928571D01*
X105409524Y-85880952D01*
X105361905Y-85833333D01*
X105314286Y-85738095D01*
X105314286Y-85642857D01*
X105361905Y-85547619D01*
X105409524Y-85500000D01*
X105504762Y-85452381D01*
X105742858Y-85452381D01*
X105885715Y-85500000D01*
X106742858Y-85452381D02*
X106552381Y-85452381D01*
X106457143Y-85500000D01*
X106409524Y-85547619D01*
X106314286Y-85690476D01*
X106266667Y-85880952D01*
X106266667Y-86261905D01*
X106314286Y-86357143D01*
X106361905Y-86404762D01*
X106457143Y-86452381D01*
X106647620Y-86452381D01*
X106742858Y-86404762D01*
X106790477Y-86357143D01*
X106838096Y-86261905D01*
X106838096Y-86023810D01*
X106790477Y-85928571D01*
X106742858Y-85880952D01*
X106647620Y-85833333D01*
X106457143Y-85833333D01*
X106361905Y-85880952D01*
X106314286Y-85928571D01*
X106266667Y-86023810D01*
X76814286Y-128352381D02*
X77480953Y-129352381D01*
X77480953Y-128352381D02*
X76814286Y-129352381D01*
X77814286Y-129304762D02*
X77957143Y-129352381D01*
X78195239Y-129352381D01*
X78290477Y-129304762D01*
X78338096Y-129257143D01*
X78385715Y-129161905D01*
X78385715Y-129066667D01*
X78338096Y-128971429D01*
X78290477Y-128923810D01*
X78195239Y-128876190D01*
X78004762Y-128828571D01*
X77909524Y-128780952D01*
X77861905Y-128733333D01*
X77814286Y-128638095D01*
X77814286Y-128542857D01*
X77861905Y-128447619D01*
X77909524Y-128400000D01*
X78004762Y-128352381D01*
X78242858Y-128352381D01*
X78385715Y-128400000D01*
X78719048Y-128352381D02*
X79385715Y-128352381D01*
X78957143Y-129352381D01*
X104264286Y-137402381D02*
X104930953Y-138402381D01*
X104930953Y-137402381D02*
X104264286Y-138402381D01*
X105264286Y-138354762D02*
X105407143Y-138402381D01*
X105645239Y-138402381D01*
X105740477Y-138354762D01*
X105788096Y-138307143D01*
X105835715Y-138211905D01*
X105835715Y-138116667D01*
X105788096Y-138021429D01*
X105740477Y-137973810D01*
X105645239Y-137926190D01*
X105454762Y-137878571D01*
X105359524Y-137830952D01*
X105311905Y-137783333D01*
X105264286Y-137688095D01*
X105264286Y-137592857D01*
X105311905Y-137497619D01*
X105359524Y-137450000D01*
X105454762Y-137402381D01*
X105692858Y-137402381D01*
X105835715Y-137450000D01*
X106407143Y-137830952D02*
X106311905Y-137783333D01*
X106264286Y-137735714D01*
X106216667Y-137640476D01*
X106216667Y-137592857D01*
X106264286Y-137497619D01*
X106311905Y-137450000D01*
X106407143Y-137402381D01*
X106597620Y-137402381D01*
X106692858Y-137450000D01*
X106740477Y-137497619D01*
X106788096Y-137592857D01*
X106788096Y-137640476D01*
X106740477Y-137735714D01*
X106692858Y-137783333D01*
X106597620Y-137830952D01*
X106407143Y-137830952D01*
X106311905Y-137878571D01*
X106264286Y-137926190D01*
X106216667Y-138021429D01*
X106216667Y-138211905D01*
X106264286Y-138307143D01*
X106311905Y-138354762D01*
X106407143Y-138402381D01*
X106597620Y-138402381D01*
X106692858Y-138354762D01*
X106740477Y-138307143D01*
X106788096Y-138211905D01*
X106788096Y-138021429D01*
X106740477Y-137926190D01*
X106692858Y-137878571D01*
X106597620Y-137830952D01*
X92464286Y-137352381D02*
X93130953Y-138352381D01*
X93130953Y-137352381D02*
X92464286Y-138352381D01*
X93464286Y-138304762D02*
X93607143Y-138352381D01*
X93845239Y-138352381D01*
X93940477Y-138304762D01*
X93988096Y-138257143D01*
X94035715Y-138161905D01*
X94035715Y-138066667D01*
X93988096Y-137971429D01*
X93940477Y-137923810D01*
X93845239Y-137876190D01*
X93654762Y-137828571D01*
X93559524Y-137780952D01*
X93511905Y-137733333D01*
X93464286Y-137638095D01*
X93464286Y-137542857D01*
X93511905Y-137447619D01*
X93559524Y-137400000D01*
X93654762Y-137352381D01*
X93892858Y-137352381D01*
X94035715Y-137400000D01*
X94511905Y-138352381D02*
X94702381Y-138352381D01*
X94797620Y-138304762D01*
X94845239Y-138257143D01*
X94940477Y-138114286D01*
X94988096Y-137923810D01*
X94988096Y-137542857D01*
X94940477Y-137447619D01*
X94892858Y-137400000D01*
X94797620Y-137352381D01*
X94607143Y-137352381D01*
X94511905Y-137400000D01*
X94464286Y-137447619D01*
X94416667Y-137542857D01*
X94416667Y-137780952D01*
X94464286Y-137876190D01*
X94511905Y-137923810D01*
X94607143Y-137971429D01*
X94797620Y-137971429D01*
X94892858Y-137923810D01*
X94940477Y-137876190D01*
X94988096Y-137780952D01*
X68713095Y-130547381D02*
X69379762Y-131547381D01*
X69379762Y-130547381D02*
X68713095Y-131547381D01*
X69713095Y-131499762D02*
X69855952Y-131547381D01*
X70094048Y-131547381D01*
X70189286Y-131499762D01*
X70236905Y-131452143D01*
X70284524Y-131356905D01*
X70284524Y-131261667D01*
X70236905Y-131166429D01*
X70189286Y-131118810D01*
X70094048Y-131071190D01*
X69903571Y-131023571D01*
X69808333Y-130975952D01*
X69760714Y-130928333D01*
X69713095Y-130833095D01*
X69713095Y-130737857D01*
X69760714Y-130642619D01*
X69808333Y-130595000D01*
X69903571Y-130547381D01*
X70141667Y-130547381D01*
X70284524Y-130595000D01*
X71236905Y-131547381D02*
X70665476Y-131547381D01*
X70951190Y-131547381D02*
X70951190Y-130547381D01*
X70855952Y-130690238D01*
X70760714Y-130785476D01*
X70665476Y-130833095D01*
X71855952Y-130547381D02*
X71951191Y-130547381D01*
X72046429Y-130595000D01*
X72094048Y-130642619D01*
X72141667Y-130737857D01*
X72189286Y-130928333D01*
X72189286Y-131166429D01*
X72141667Y-131356905D01*
X72094048Y-131452143D01*
X72046429Y-131499762D01*
X71951191Y-131547381D01*
X71855952Y-131547381D01*
X71760714Y-131499762D01*
X71713095Y-131452143D01*
X71665476Y-131356905D01*
X71617857Y-131166429D01*
X71617857Y-130928333D01*
X71665476Y-130737857D01*
X71713095Y-130642619D01*
X71760714Y-130595000D01*
X71855952Y-130547381D01*
X84083095Y-130647381D02*
X84749762Y-131647381D01*
X84749762Y-130647381D02*
X84083095Y-131647381D01*
X85083095Y-131599762D02*
X85225952Y-131647381D01*
X85464048Y-131647381D01*
X85559286Y-131599762D01*
X85606905Y-131552143D01*
X85654524Y-131456905D01*
X85654524Y-131361667D01*
X85606905Y-131266429D01*
X85559286Y-131218810D01*
X85464048Y-131171190D01*
X85273571Y-131123571D01*
X85178333Y-131075952D01*
X85130714Y-131028333D01*
X85083095Y-130933095D01*
X85083095Y-130837857D01*
X85130714Y-130742619D01*
X85178333Y-130695000D01*
X85273571Y-130647381D01*
X85511667Y-130647381D01*
X85654524Y-130695000D01*
X86606905Y-131647381D02*
X86035476Y-131647381D01*
X86321190Y-131647381D02*
X86321190Y-130647381D01*
X86225952Y-130790238D01*
X86130714Y-130885476D01*
X86035476Y-130933095D01*
X87559286Y-131647381D02*
X86987857Y-131647381D01*
X87273571Y-131647381D02*
X87273571Y-130647381D01*
X87178333Y-130790238D01*
X87083095Y-130885476D01*
X86987857Y-130933095D01*
M02*
