M48
;DRILL file {KiCad 4.0.2-stable} date 23.05.2016 12:24:14
;FORMAT={-:-/ absolute / metric / decimal}
FMAT,2
METRIC,TZ
T1C0.300
T2C0.900
T3C3.500
%
G90
G05
M71
T1
X60.2Y-69.9
X60.5Y-135.3
X60.5Y-141.6
X62.Y-154.
X62.5Y-97.1
X62.5Y-146.5
X63.Y-73.
X63.Y-77.5
X64.5Y-149.5
X64.5Y-154.
X64.5Y-159.
X64.6Y-91.1
X65.Y-71.
X65.65Y-95.45
X66.Y-82.5
X66.9Y-128.7
X67.Y-141.6
X67.5Y-77.5
X68.5Y-92.65
X68.6Y-85.5
X69.2Y-95.7
X70.05Y-116.45
X70.4Y-91.1
X70.5Y-71.
X71.Y-149.5
X71.Y-154.
X71.Y-159.
X72.Y-77.5
X72.Y-82.5
X73.Y-104.
X73.5Y-95.1
X74.Y-126.5
X74.Y-129.
X74.2Y-91.
X74.3Y-87.5
X74.9Y-79.5
X75.Y-69.5
X75.Y-75.5
X75.5Y-72.7
X76.5Y-82.5
X77.Y-124.
X77.4Y-100.6
X78.5Y-77.5
X79.5Y-84.
X79.5Y-106.
X79.8Y-91.
X80.Y-69.5
X80.6Y-89.75
X81.Y-85.9
X81.Y-129.
X81.9Y-98.4
X82.5Y-108.5
X82.5Y-124.5
X83.1Y-122.15
X83.5Y-69.5
X83.5Y-83.5
X83.7Y-77.55
X85.9Y-98.3
X86.Y-100.6
X86.Y-106.
X86.5Y-122.
X86.5Y-124.5
X87.Y-84.
X87.2Y-76.9
X87.2Y-80.8
X88.5Y-69.5
X88.7Y-106.4
X89.Y-121.
X89.4Y-76.8
X89.4Y-80.8
X89.5Y-84.
X89.6Y-97.3
X90.Y-74.75
X90.Y-116.5
X90.5Y-103.7
X91.9Y-73.65
X92.Y-121.
X92.Y-125.5
X92.Y-128.
X92.4Y-76.9
X93.5Y-93.4
X93.5Y-116.5
X95.Y-121.
X95.15Y-73.65
X96.Y-125.5
X96.2Y-83.9
X96.2Y-86.7
X96.2Y-90.4
X96.4Y-77.
X96.4Y-80.8
X96.5Y-69.5
X97.Y-96.5
X98.Y-123.
X99.Y-108.5
X99.Y-127.5
X99.1Y-77.7
X100.Y-93.5
X100.2Y-80.8
X100.5Y-124.5
X100.8Y-90.3
X102.Y-83.6
X102.Y-86.6
X102.5Y-126.5
X102.6Y-78.5
X103.5Y-108.5
X104.9Y-80.6
X105.85Y-77.9
X106.1Y-98.
X106.5Y-83.5
X106.6Y-86.4
X107.Y-90.3
X107.7Y-79.6
X110.4Y-69.9
X110.4Y-73.
X110.4Y-75.4
X110.4Y-78.5
T2
X61.Y-98.68
X61.Y-101.22
X61.Y-103.76
X61.Y-106.3
X61.Y-108.84
X61.Y-111.38
X61.Y-119.
X61.Y-121.54
X61.Y-124.08
X61.Y-126.62
X61.Y-129.16
X61.Y-131.7
X65.5Y-98.68
X65.501Y-102.297
X66.4Y-151.66
X66.4Y-156.74
X68.04Y-98.68
X70.25Y-111.58
X70.25Y-119.2
X70.55Y-133.92
X70.55Y-136.46
X70.55Y-139.
X70.55Y-141.54
X70.58Y-98.68
X72.Y-74.96
X72.Y-80.04
X72.79Y-111.58
X72.79Y-119.2
X73.12Y-98.68
X74.4Y-132.65
X74.4Y-135.19
X74.4Y-137.73
X74.4Y-140.27
X74.4Y-142.81
X74.4Y-145.35
X74.4Y-147.89
X74.4Y-150.43
X74.4Y-152.97
X74.4Y-155.51
X74.4Y-158.05
X74.4Y-160.59
X74.4Y-163.13
X74.4Y-165.67
X75.33Y-111.58
X75.33Y-119.2
X75.66Y-98.68
X75.661Y-102.297
X77.87Y-111.58
X77.87Y-119.2
X78.2Y-98.68
X80.41Y-111.58
X80.41Y-119.2
X82.02Y-132.65
X82.02Y-135.19
X82.02Y-137.73
X82.02Y-140.27
X82.02Y-142.81
X82.02Y-145.35
X82.02Y-147.89
X82.02Y-150.43
X82.02Y-152.97
X82.02Y-155.51
X82.02Y-158.05
X82.02Y-160.59
X82.02Y-163.13
X82.02Y-165.67
X82.95Y-111.58
X82.95Y-119.2
X85.49Y-111.58
X85.49Y-119.2
X85.79Y-133.92
X85.79Y-136.46
X85.79Y-139.
X85.79Y-141.54
X88.03Y-111.58
X88.03Y-119.2
X89.46Y-123.5
X89.9Y-141.5
X89.9Y-144.04
X89.9Y-146.58
X89.9Y-149.12
X89.9Y-151.66
X89.9Y-154.2
X89.9Y-156.74
X90.57Y-111.58
X90.57Y-119.2
X93.11Y-111.58
X93.11Y-119.2
X94.54Y-123.5
X95.3Y-99.7
X95.3Y-102.24
X95.3Y-104.78
X95.65Y-111.58
X95.65Y-119.2
X97.52Y-141.5
X97.52Y-144.04
X97.52Y-146.58
X97.52Y-149.12
X97.52Y-151.66
X97.52Y-154.2
X97.52Y-156.74
X97.84Y-99.7
X97.84Y-102.24
X97.84Y-104.78
X98.19Y-111.58
X98.19Y-119.2
X100.73Y-111.58
X100.73Y-119.2
X101.64Y-141.5
X101.64Y-144.04
X101.64Y-146.58
X101.64Y-149.12
X102.3Y-99.7
X102.3Y-102.24
X102.3Y-104.78
X103.27Y-111.58
X103.27Y-119.2
X104.84Y-99.7
X104.84Y-102.24
X104.84Y-104.78
X109.26Y-86.996
X109.26Y-89.536
X109.26Y-92.076
X109.26Y-94.616
X109.26Y-97.156
X109.26Y-99.696
X109.26Y-102.236
X109.26Y-104.776
X109.26Y-107.316
X109.26Y-109.856
X109.26Y-113.92
X109.26Y-116.46
X109.26Y-119.
X109.26Y-121.54
X109.26Y-124.08
X109.26Y-126.62
X109.26Y-129.16
X109.26Y-131.7
X109.26Y-141.5
X109.26Y-144.04
X109.26Y-146.58
X109.26Y-149.12
T3
X61.Y-82.17
X61.Y-164.72
X66.08Y-134.24
X94.02Y-134.24
X109.26Y-83.44
X109.26Y-158.37
T0
M30
