G04 #@! TF.FileFunction,Soldermask,Bot*
%FSLAX46Y46*%
G04 Gerber Fmt 4.6, Leading zero omitted, Abs format (unit mm)*
G04 Created by KiCad (PCBNEW 4.0.2-stable) date 23.05.2016 12:24:01*
%MOMM*%
G01*
G04 APERTURE LIST*
%ADD10C,0.100000*%
%ADD11C,2.100000*%
%ADD12R,2.100000X2.100000*%
%ADD13C,1.500000*%
%ADD14O,2.100000X2.100000*%
G04 APERTURE END LIST*
D10*
D11*
X72000000Y-80040000D03*
X72000000Y-74960000D03*
X89460000Y-123500000D03*
X94540000Y-123500000D03*
X66400000Y-151660000D03*
X66400000Y-156740000D03*
D12*
X70250000Y-119200000D03*
D11*
X72790000Y-119200000D03*
X75330000Y-119200000D03*
X77870000Y-119200000D03*
X80410000Y-119200000D03*
X82950000Y-119200000D03*
X85490000Y-119200000D03*
X88030000Y-119200000D03*
X90570000Y-119200000D03*
X93110000Y-119200000D03*
X95650000Y-119200000D03*
X98190000Y-119200000D03*
X100730000Y-119200000D03*
X103270000Y-119200000D03*
X103270000Y-111580000D03*
X100730000Y-111580000D03*
X98190000Y-111580000D03*
X95650000Y-111580000D03*
X93110000Y-111580000D03*
X90570000Y-111580000D03*
X88030000Y-111580000D03*
X85490000Y-111580000D03*
X82950000Y-111580000D03*
X80410000Y-111580000D03*
X77870000Y-111580000D03*
X75330000Y-111580000D03*
X72790000Y-111580000D03*
X70250000Y-111580000D03*
X75660520Y-102297460D03*
D12*
X65500520Y-102297460D03*
X95300000Y-99700000D03*
D11*
X97840000Y-99700000D03*
X95300000Y-102240000D03*
X97840000Y-102240000D03*
X95300000Y-104780000D03*
X97840000Y-104780000D03*
D12*
X102300000Y-99700000D03*
D11*
X104840000Y-99700000D03*
X102300000Y-102240000D03*
X104840000Y-102240000D03*
X102300000Y-104780000D03*
X104840000Y-104780000D03*
D12*
X65500000Y-98680000D03*
D11*
X68040000Y-98680000D03*
X70580000Y-98680000D03*
X73120000Y-98680000D03*
X75660000Y-98680000D03*
X78200000Y-98680000D03*
D12*
X61000000Y-98680000D03*
D11*
X61000000Y-101220000D03*
X61000000Y-103760000D03*
X61000000Y-106300000D03*
X61000000Y-108840000D03*
X61000000Y-111380000D03*
D12*
X61000000Y-119000000D03*
D11*
X61000000Y-121540000D03*
X61000000Y-124080000D03*
X61000000Y-126620000D03*
X61000000Y-129160000D03*
X61000000Y-131700000D03*
D12*
X109260000Y-131700000D03*
D11*
X109260000Y-129160000D03*
X109260000Y-126620000D03*
X109260000Y-124080000D03*
X109260000Y-121540000D03*
X109260000Y-119000000D03*
X109260000Y-116460000D03*
X109260000Y-113920000D03*
D13*
X105800000Y-72900000D03*
X101400000Y-72900000D03*
D12*
X109260000Y-109856000D03*
D11*
X109260000Y-107316000D03*
X109260000Y-104776000D03*
X109260000Y-102236000D03*
X109260000Y-99696000D03*
X109260000Y-97156000D03*
X109260000Y-94616000D03*
X109260000Y-92076000D03*
X109260000Y-89536000D03*
X109260000Y-86996000D03*
D12*
X74400000Y-132650000D03*
D11*
X74400000Y-135190000D03*
X74400000Y-137730000D03*
X74400000Y-140270000D03*
X74400000Y-142810000D03*
X74400000Y-145350000D03*
X74400000Y-147890000D03*
X74400000Y-150430000D03*
X74400000Y-152970000D03*
X74400000Y-155510000D03*
X74400000Y-158050000D03*
X74400000Y-160590000D03*
X74400000Y-163130000D03*
X74400000Y-165670000D03*
X82020000Y-165670000D03*
X82020000Y-163130000D03*
X82020000Y-160590000D03*
X82020000Y-158050000D03*
X82020000Y-155510000D03*
X82020000Y-152970000D03*
X82020000Y-150430000D03*
X82020000Y-147890000D03*
X82020000Y-145350000D03*
X82020000Y-142810000D03*
X82020000Y-140270000D03*
X82020000Y-137730000D03*
X82020000Y-135190000D03*
X82020000Y-132650000D03*
D12*
X101640000Y-141500000D03*
D11*
X101640000Y-144040000D03*
X109260000Y-141500000D03*
X101640000Y-146580000D03*
X101640000Y-149120000D03*
X109260000Y-149120000D03*
X109260000Y-146580000D03*
X109260000Y-144040000D03*
D12*
X89900000Y-141500000D03*
D14*
X89900000Y-144040000D03*
D11*
X97520000Y-156740000D03*
D14*
X89900000Y-146580000D03*
X89900000Y-149120000D03*
X89900000Y-151660000D03*
X89900000Y-154200000D03*
X89900000Y-156740000D03*
X97520000Y-154200000D03*
X97520000Y-151660000D03*
X97520000Y-149120000D03*
X97520000Y-146580000D03*
X97520000Y-144040000D03*
X97520000Y-141500000D03*
D12*
X70550000Y-133920000D03*
D14*
X70550000Y-136460000D03*
X70550000Y-139000000D03*
X70550000Y-141540000D03*
D12*
X85790000Y-133920000D03*
D14*
X85790000Y-136460000D03*
X85790000Y-139000000D03*
X85790000Y-141540000D03*
M02*
