M48
; DRILL file {KiCad 5.1.2-f72e74a~84~ubuntu18.04.1} date Вс 26 мая 2019 08:12:53
; FORMAT={-:-/ absolute / metric / decimal}
; #@! TF.CreationDate,2019-05-26T08:12:53+03:00
; #@! TF.GenerationSoftware,Kicad,Pcbnew,5.1.2-f72e74a~84~ubuntu18.04.1
; #@! TF.FileFunction,Plated,1,2,PTH
FMAT,2
METRIC
T1C0.800
T2C0.800
T3C1.200
%
G90
G05
T1
X22.002Y39.37
X25.502Y39.37
X71.476Y23.165
X71.476Y15.545
X46.507Y39.51
X46.507Y36.97
X46.507Y34.43
X46.507Y31.89
X54.127Y39.51
X54.127Y36.97
X54.127Y34.43
X54.127Y31.89
X45.618Y5.931
X53.238Y5.931
X61.62Y39.517
X61.62Y34.517
X39.84Y41.97
X39.84Y36.97
X58.953Y5.931
X66.573Y5.931
X71.501Y28.981
X79.121Y28.981
X54.127Y24.397
X59.127Y24.397
X71.844Y5.931
X79.464Y5.931
X6.121Y5.804
X13.741Y5.804
X39.776Y31.902
X39.776Y24.282
X31.966Y5.867
X39.586Y5.867
X18.821Y5.804
X26.441Y5.804
T2
X23.343Y19.507
X23.343Y15.697
X33.706Y19.507
X33.706Y15.697
X44.806Y19.406
X44.806Y15.596
X66.878Y29.032
X66.878Y25.222
X56.515Y19.329
X56.515Y15.519
X66.827Y19.38
X66.827Y15.57
X79.451Y19.355
X79.451Y15.545
X12.649Y19.355
X12.649Y15.545
T3
X22.047Y30.251
X22.047Y26.751
X74.257Y39.51
X74.257Y36.01
T0
M30
