M48
; DRILL file {KiCad 5.1.2-f72e74a~84~ubuntu18.04.1} date Пн 22 июл 2019 08:58:18
; FORMAT={-:-/ absolute / metric / decimal}
; #@! TF.CreationDate,2019-07-22T08:58:18+03:00
; #@! TF.GenerationSoftware,Kicad,Pcbnew,5.1.2-f72e74a~84~ubuntu18.04.1
; #@! TF.FileFunction,Plated,1,2,PTH
FMAT,2
METRIC
T1C0.800
T2C0.800
T3C1.200
%
G90
G05
T1
X71.107Y6.617
X78.727Y6.617
X61.265Y20.498
X61.265Y12.878
X56.35Y36.792
X56.35Y31.712
X51.41Y36.85
X51.41Y31.85
X58.217Y6.617
X65.837Y6.617
X29.629Y39.303
X29.629Y34.303
X36.297Y36.843
X36.297Y34.303
X36.297Y31.763
X36.297Y29.223
X43.917Y36.843
X43.917Y34.303
X43.917Y31.763
X43.917Y29.223
X61.29Y26.314
X68.91Y26.314
X18.085Y6.49
X25.705Y6.49
X5.385Y6.49
X13.005Y6.49
X11.791Y36.703
X15.291Y36.703
X43.917Y21.73
X48.917Y21.73
X44.882Y6.617
X52.502Y6.617
X31.42Y6.579
X39.04Y6.579
X29.566Y29.235
X29.566Y21.615
T2
X67.069Y16.878
X67.069Y13.068
X29.566Y16.891
X29.566Y13.081
X47.625Y16.777
X47.625Y12.967
X76.949Y16.967
X76.949Y13.157
X39.04Y16.688
X39.04Y12.878
X18.339Y16.98
X18.339Y13.17
X56.617Y16.713
X56.617Y12.903
X6.731Y16.891
X6.731Y13.081
T3
X11.836Y27.584
X11.836Y24.084
X64.046Y36.843
X64.046Y33.343
T0
M30
